<?xml version="1.0" encoding="utf-8"?>
<!-- Generator: Adobe Illustrator 24.0.1, SVG Export Plug-In . SVG Version: 6.00 Build 0)  -->
<svg version="1.1" id="Camada_1" xmlns="http://www.w3.org/2000/svg" xmlns:xlink="http://www.w3.org/1999/xlink" x="0px" y="0px"
	 viewBox="0 0 225.89 163.52" enable-background="new 0 0 225.89 163.52" xml:space="preserve">
<title>Ativo 4</title>
<g id="Camada_2_1_">
	<g id="Camada_1-2">
		<path fill="#FCFCFC" d="M171.38,12.05l3.9-3.13c3.9-3.4,8.96-5.16,14.13-4.92c1.3,0.08,2.55,0.24,3.74-0.76
			c4.1-3.43,8.2-2.85,12.2,0.27l0,0c0.36,0.56,0-0.19,0.26,0.42c1.57,3.87,3.21,6,8.54,5c5.94-1.12,11.44,6.42,11,13.19
			c-0.34,3.6-1.21,7.14-2.6,10.48c-0.65,1.71-1.58,3.38,0.32,4.91c3.37,6.28,0.07,12.18-7.1,12.41c-2.11,0.06-3.48,0-4.42,2.58
			c-0.89,2.4-3.23,4.8-5.87,5c-4.87,0.33-7.28,3.22-9.35,6.94c-0.29,0.76-1.1,1.18-1.89,1c1.33-5-4-5.26-5.93-8.23
			c-0.63-1-2.19,0-3.25,0.35c-2.54,0.83-5.3,0.77-7.8-0.18c-4.66-1.62-6-4.7-4.2-9.8c1.53-1.68,2.28-2.85-0.5-4.46
			c-5.74-3.32-6.44-5.67-4.59-11.82c0.37-0.75,0.45-1.61,0.22-2.41C165.15,22.47,168.78,17.37,171.38,12.05z"/>
		<path fill="#ABA79C" d="M173.66,47.57c-2,6.83,2.63,11.33,10,9.56c2.69-0.65,4.75-2.18,6.9,1.65c1.58,2.8,4,4.07,4.37,6.64
			c2.07-5.61,5.61-8.05,10.78-8.9c3.51-0.58,4.21-4.61,6.21-7c1.57-1.87,6.24,0.52,9-2.1c3.12-3,3.29-6.27,1.33-9.89
			c-0.47-0.43-0.45-0.83,0.08-1.2c3.19,1.81,3.57,4.64,2.54,7.73c-1.27,3.78-4,6.3-8,6.42c-2.76,0.08-4.32,0.67-5.56,3.42
			s-4.08,4.16-7.22,4.76c-1.81,0.36-4.16,0.14-4.84,2.69c-0.5,0.64-1,1.32-1.52,1.92c-1.19,1.3-1.51,4-3.43,3.81
			C192.15,66.82,194,64,193,63c-2.15-2.25-3.88-5.63-8-4.58c-5.28,1.37-9.78,0.2-13.42-4c-0.56-2.39-1.06-4.78,0.69-6.94
			c0.24-0.37,0.74-0.47,1.11-0.23C173.5,47.33,173.6,47.44,173.66,47.57z"/>
		<path fill="#AFAB9E" d="M222.36,36.34c0,0.4-0.05,0.8-0.08,1.2c-2.54-1.14-1.26-3-0.77-4.61c0.8-2.68,2-5.26,2.56-8
			c1-5.17-0.09-9.92-4.32-13.45c-4-3.37-8.28-2.16-13.31,0.59c1.57-3.72-0.68-5.94-1.13-8.61c2.38,3.93,5.63,4.75,10.33,4.9
			c6.43,0.2,10.78,7.6,10.2,14.16C225.41,27.36,223,31.62,222.36,36.34z"/>
		<path fill="#ACA79C" d="M173.66,47.57l-1.32-0.1c0.56-1.28,2.33-2.35-0.27-3.74c-5.16-2.76-7.34-7-5.13-12.86
			c0.37-1.1,0.37-2.29,0-3.39c-1.51-6,0.42-11,4.48-15.42c0,2.63-2,4.46-2.66,6.83c-0.87,3.05-1.61,6.07-0.11,9.14
			c0.52,0.84,0.67,1.86,0.41,2.82c-2.07,6.86-1.72,8.21,4.39,11.92C176.4,44.59,175.63,45.87,173.66,47.57z"/>
		<path fill="#B0AB9F" d="M205.35,3.51c-4.42-2-8.57-3.07-12.78,0.91c-1,1-3.8,0-5.74,0.14c-4.23,0.38-7.8,2.65-11.55,4.36
			c2.41-4.27,6.82-4.75,10.93-5.36c3.08-0.45,5.94-0.81,8.88-2.26C198.6-0.43,202.78-1.08,205.35,3.51z"/>
		<path fill="#463126" d="M104.35,162.37c-1.06-0.1-2.12,0.26-2.89,1c-1.65,0.25-3.17,0.26-3.44-1.94c1.73-0.79,3.71-0.95,5.27-2.15
			c0.85-0.49,1.75-0.91,2.68-1.24c7.2-2.72,7.2-2.72,6.67-10.46c0.78-2.7-0.37-5.16-0.92-7.69c-0.41-1.87-1.52-3.76,0.19-5.56
			c0.41-0.3,0.92-0.44,1.43-0.41c2.28,0.69,4.3,1.72,5.35,4c0.88,9.54,4.26,15.05,13.79,16.17c12,1.42,23.74,1.4,35.24-2.73
			c9.78-1.8,17.83-7,25.38-13.09c2.35-1.91,2.36-1.89,4.3-0.86c-7.38,9.28-17.82,13.45-28.6,16.93c-6.36,1.88-12.87,3.22-19.46,4
			c-9.4,0.68-18.79,1.13-27.87-2.18c-1.82-0.66-3-0.87-4.64,1C113.65,161,108.93,161.69,104.35,162.37z"/>
		<path fill="#553D30" d="M103.37,160.38c-1.41,1.4-3.52,1.83-5.37,1.09l-6-11.06c-4.3-9.63-9.61-18.73-14.68-28
			c0.27-1.18,1.03-2.19,2.1-2.76c1.03-0.64,2.18-1.07,3.37-1.28c1.9-0.08,4.34,0,4,2.41c-0.52,3.79,2.09,5.64,3.82,8.1
			c-1.91,2.43-2.12,4.75-0.48,7.63c2.53,4.45,4.68,9.13,7.19,13.61C98.6,154,99.79,157.9,103.37,160.38z"/>
		<path fill="#E6CD78" d="M189.38,70.49l4.94-0.94c4.2,3.29,4.22,9,0,13.74c-0.76,0.34-1.58,0.49-2.41,0.45
			c-3.16-0.36-7.34,1.56-8.62-3.3C182.33,76.65,185.13,72.32,189.38,70.49z"/>
		<path fill="#6F5035" d="M206.29,73.47l1.32,2.09c-0.06,0.26-0.11,0.53-0.17,0.79c0,0.66-0.05-0.18,0,0.49
			c0.68,10.07-0.22,10.73-9.72,7.22c-1.51-1.41-0.83-3.13-0.38-4.61c0.87-2.96,0.87-6.11,0-9.07
			C200.76,70.1,203.54,71.76,206.29,73.47z"/>
		<path fill="#715220" d="M189.38,70.49c-0.16,0.27-0.25,0.67-0.48,0.79c-3.34,1.76-5.1,5.53-4.29,9.22c0.63,3.61,4.72,1.38,7.21,2
			c0.82,0.11,1.64,0.11,2.46,0c0.35,0.35,0.5,0.85,0.41,1.33c-0.22,0.43-0.57,0.78-1,1c-2.38,0.32-4.73-0.48-7.1-0.19
			c-1.4-0.03-2.78,0.32-4,1c-2.67,1.77-2.38,4.89-3.46,7.39c-0.81,1.86-0.58,5-4.15,4.18c-1.24-4.63,0.76-8.72,2.23-12.85
			c1.08-2.56,2.01-5.18,2.79-7.84c0.28-1.54,1.02-2.96,2.12-4.07c1.12-1.18,2.62-1.93,4.23-2.12L189.38,70.49z"/>
		<path fill="#93713E" d="M194.35,83.54c0-0.32,0-0.64-0.07-1c1.33-4.34,3.56-8.67,0-13c1.07,0,2.26-0.39,3,0.83
			c1.89,1.14,2.93,2.35,2.13,5s-0.92,5.48-2.19,8c-0.72,0.84-1.98,0.93-2.82,0.21C194.38,83.57,194.37,83.55,194.35,83.54z"/>
		<path fill="#0D0D0D" d="M201.08,23.59c-2.93-2.25-5-6.26-9.68-5.07c-1.72,0.73-2.71,2.66-4.74,2.88c-1.83-0.23-3.45-0.63-2.41-3.1
			c8.31-9,13.46-8,22.1,4.13C205.9,26,204.77,26.21,201.08,23.59z"/>
		<path fill="#141414" d="M204.35,33.56c-1.71,1-3.39,2-5.16,2.91c-2,1-3.22,2.27-2.86,4.65c0.17,1.2,1.16,2.8-0.87,3.27
			c-1.73,0.41-2.07-1.32-2.66-2.4c-0.29-0.76-0.47-1.57-0.54-2.38c-1.18-2.83,1.56-3.66,2.74-5.25s3-2.6,4.17-4.22
			c0.39-0.86,1.17-1.49,2.09-1.69C204.26,29,206.87,29.71,204.35,33.56z"/>
		<path fill="#1C1C1C" d="M184.25,18.3c0.1,2,1.49,2.25,3.08,2.18c1,1.68-2.1,2.31-1,4c-0.26,2.41,5.39,3.52,1.42,6.86
			c-1.71,1.44-2.8,0.79-3.62-0.56c-1.83-3-5.85-5.53-2.73-9.87C182.26,19.95,183.22,19.07,184.25,18.3z"/>
		<path fill="#282730" d="M204.35,33.56c1.23-3.07-1.49-3.76-3.09-5.11c2.19-1.7,0.22-3.25-0.18-4.86c1.89,0.21,4.28,2.71,5.27-1.16
			C211.16,27.88,210.63,30.83,204.35,33.56z"/>
		<path fill="#383838" d="M202.94,48.49c-0.95,1.58-2.1,3.12-4.13,3c-1.39-0.1-2.44-1.31-2.34-2.7c0-0.02,0-0.03,0-0.05
			c0-2.56,2.14-2.77,3.85-2.85C201.66,45.82,202.6,47,202.94,48.49z"/>
		<path fill="#282730" d="M199.17,30.14c-1.22,3.94-6.24,5.12-6.91,9.47C191.11,33.93,196.56,33.07,199.17,30.14z"/>
		<path fill="#302F36" d="M186.32,24.49c-2.06-1.94,0.85-2.63,1-4c1.43-0.5,2.25-2.25,4.07-2
			C189.88,20.67,187.08,21.71,186.32,24.49z"/>
		<path fill="#F7E5D4" d="M71.5,52.67c-1.63-0.14-3.56,0.32-4.14-2"/>
		<path fill="#31211E" d="M68.39,128.35C60,131.88,51.2,133.64,42.27,135c-5.17,0.26-10.62,1.6-14.29-3.78
			c-6.92,1.08-7.91-5.09-10.83-8.88c-1.26-1.64-1.42-3.65-1.59-5.62c0.9-2,0-4.2,0.63-6.23c3.48,0.21,2.39,3,2.51,4.84
			c0.26,4,1.33,7.38,5.2,10.34c2.37-10,3.07-19.76,5.15-29.25c0.21-3,0.86-5.76,3.81-7.32c4.06,0.65,1,4.09,2.31,5.85
			c0.36,1.1,0.62,2.23,0.75,3.38c0.28,4.53,3.29,4.39,6.5,3.83c-2.66-2.38-6.72-3.45-7.09-7.85c-0.27-2.48,0.54-4.95,2.23-6.78
			c0.89-1,2-2,3.38-1.15s0.29,2.14-0.23,3c-2.15,3.63-0.25,4.88,3,5.42c3.18,2.66,5.24,6.15,7.23,9.69
			c0.13,0.48,0.19,0.98,0.15,1.48c-0.46,6.15-0.47,6.15,5.69,7.08c1.57,2.72-0.67,2.93-2.31,3.36c-4.79,1.23-5.4,2.4-3.56,7.21
			c0.75,2,2.49,4.28-1.71,4.23c-4.39-2.9-4.25-6.9-3.11-11.41c0.79-3.15,2.68-6.94-2.34-8.65c-4.25,0-7.62-3.08-11.77-3.34
			c-0.75,6.54-1.66,13-2.39,19.54c-0.46,4.06,1.11,6.62,5,7.84c9.08,1,17.53-2,26.15-4C63.17,127.29,66.1,124.62,68.39,128.35z"/>
		<path fill="#3C2F1E" d="M20.53,66.3l2.93,1.23L24,68c1.57,2.89-0.52,5.66-0.29,8.5c0.25,0.82,0.89,1.45,1.13,2.27
			c0,2.22-1.46,3.7-2.68,5.3c-0.8,1.13-1.91,2-3.2,2.5c-3.3,1.57-4.73,5.71-8.71,6.35c-2-0.13-3.89-0.45-5-2.41
			c-0.15-0.45-0.11-0.94,0.1-1.36c2.36-2,1.75-4.93,2.14-7.54c0.7-2.24,1.66-4.39,2.86-6.41c0.96-1.54,2.11-2.96,3.44-4.2
			c1.41-1.33,2.99-2.46,4.7-3.36C19.1,67.1,19.79,66.65,20.53,66.3z"/>
		<path fill="#A77D3F" d="M51.28,55.43c2.42-1.8,5.21-3.05,8.16-3.66C59.76,52.1,59.96,52.54,60,53c-0.12,1.41-0.34,2.81-0.67,4.18
			c-1.92,2.77-4.88,4.65-8.2,5.23C50,60.06,48.54,57.7,51.28,55.43z"/>
		<path fill="#97774D" d="M23.46,67.53c-2-4.33,0.55-6.88,3.75-9c4.3-2.86,8.87-5.08,14.24-4.91c0.27,0.36,0.27,0.84,0,1.2
			c-0.63,0.61-1.39,1.08-2.22,1.37c-1.62,0.5-3.17,1.2-4.62,2.07c-1.25,0.36-2.49,0.79-3.69,1.29c-2.72,1.5-6,2.69-3.23,6.82
			c0.12,1.49-0.91,2-2.05,2.43c-1.14,0.19-1.63-0.69-2.25-1.35L23.46,67.53z"/>
		<path fill="#564334" d="M5.49,90.17c-0.32,0-0.64,0.06-1,0.07C-0.49,87.7-0.6,83.41,0.7,78.85c1.31-5.16,4.34-9.71,8.6-12.91
			c0.4,0.29,0.68,0.72,0.77,1.2c0,2.2-1.69,3.38-2.89,4.86c-1.99,2.2-3.37,4.88-4,7.78c-2.1,3.93,2.05,6.42,2.27,9.82
			C5.51,89.78,5.53,89.98,5.49,90.17z"/>
		<path fill="#846033" d="M59.42,52.54c0.05-0.25,0.05-0.52,0-0.77l7.92-1.09l3.66,1c1.18,0.47,2.12,1.41,2.58,2.59
			c0.67,1.9,1.58,3.84-0.6,5.43c-1.83-0.28-2.63-1.87-3.82-3c-0.64-3.26-3.14-3.06-5.58-3C62.11,53.67,60.57,53.77,59.42,52.54z"/>
		<path fill="#755829" d="M9.41,67.43c0-0.49-0.07-1-0.11-1.49c5.15-4.66,6.42-4.62,11.23,0.36c-0.09,0.87-0.2,1.72-1.23,2
			c-2.73-2.62-5.62-2.69-8.63-0.51C10.22,67.91,9.73,67.77,9.41,67.43z"/>
		<path fill="#8D6A3B" d="M46.69,55.42l1.67,5.07c-1,0.76-1.76,0.4-2.47-0.39c-0.93-2.25-2.47-4.19-4.46-5.6c0-0.29,0-0.59,0-0.88
			C43.53,53.24,45.48,53.26,46.69,55.42z"/>
		<path fill="#5F3F2B" d="M197.4,137.5c-4.48,1.18-7.19,5-10.92,7.36c-5.65,3.55-11.48,6.47-18.13,7.54c-0.78-3.06,1.27-5.14,3-6.89
			c3.29-3.08,5.12-7.4,5.06-11.9c1.31-2.76,3.79-4.29,6.19-5.91c2.22-0.75,3.77-2.4,5.31-4c1.74-1.71,3.42-3.46,5.13-5.19
			c0.78-0.79,1.64-1.76,2.81-0.43c0.27,5.52,3.41,10.21,4.51,15.5C199.73,135.12,198.71,136.47,197.4,137.5z"/>
		<path fill="#624848" d="M200.57,110.66l4.69,8.9c1.43,5.72-1.75,9.84-4.89,14c-3.78-4.71-5.73-10-5-16.11c0-0.23,0-0.45,0-0.68
			c1.19-2.63,1.49-5.57,0.87-8.38c0.38-0.29,0.85-0.46,1.33-0.49C199.06,108.09,200.26,109.19,200.57,110.66z"/>
		<path fill="#644638" d="M68.39,128.35c-2.83-1.75-5.27,0.34-7.79,1c-8.93,2.15-17.74,4.94-27.12,4.09
			c-1.61-2.2-1.54-4.66-1.16-7.18c0.81-5.42,1-10.92,2-16.31c0.51-2.1,2.12-1.39,3.57-1.55c1.91-0.21,4.48,1.05,5.48-1.89
			c4.38,0.47,6.32,3.84,4.36,9c-1.72,4.52-1.69,8.35,1.66,12c5.2,0.29,9.92-1.56,14.67-3.27c0.31-1.61,1.5-2.45,2.77-3.22
			c0.86-0.5,1.64-1.12,2.33-1.84c0.85-0.97,2.33-1.07,3.3-0.22c0.08,0.07,0.15,0.14,0.22,0.22c1.1,0.81,1.51,2.26,1,3.53
			c-0.66,1.94-2.45,3.12-3.14,5C69.99,128.29,69.17,128.53,68.39,128.35z"/>
		<path fill="#30211E" d="M70.59,127.57c-1.56-2.19,1.25-2.53,1.7-3.91s1.34-2.7-0.21-4c-2.19-1.8-2.27,0.66-3.11,1.54
			c-0.49,0.51-0.94,1-1.58,0.2c-0.66-4,2.56-6.43,3.79-9.61c-2.25,0.82-4.44,2-7,1.31c-0.92-0.41-1.58-1.26-1.74-2.26
			c-0.17-0.99-0.17-2.01,0-3c0.09-0.5,0.25-0.98,0.48-1.43c0.39-0.65,1.03-1.11,1.77-1.27c0.72,0.13,1.33,0.62,1.61,1.3
			c0.16,0.46,0.4,0.88,0.7,1.26c1,0.93,2.91,0.63,3,0c0.5-4,7.11-2,6.49-6.81c-0.6-1.06-0.87-2.27-0.79-3.49
			c0.18-1,0.78-1.87,1.64-2.4c1.44-0.59,3.08-0.4,4.35,0.5c0.39,0.28,0.72,0.65,0.94,1.08c-1.76,3-3.64,5.86,0.42,8.62
			c1,0.68,0.39,1.72-0.28,2.5c-0.38,0.28-0.81,0.47-1.27,0.58c-3.69,0.79-7,4.48-7.28,7.94c-0.2,1.33,0.72,2.58,2.05,2.78
			c0.01,0,0.01,0,0.02,0c1.1,0.31,2.32,0.42,3.07,1.47c-0.33,0.94-1.06,1.67-2,2c-1.9-1.38-2.4,0.43-3.3,1.41
			C72.91,125.1,72.69,127.22,70.59,127.57z"/>
		<path fill="#674830" d="M177.23,133.13c0.7,4.86-0.41,8.91-4.29,12.37c-2,1.78-3.09,4.57-4.59,6.9
			c-14.3,5.69-28.81,5.16-43.36,1.26c-4.42-1.18-8.62-11.76-6.63-15.95l0.52-0.53c2.56-0.3,4.77,1.08,7.19,1.49
			c3.73,0.97,7.58,1.41,11.44,1.33c8.93,2,17.42-0.25,25.87-2.75C168.26,136.78,172.06,132.66,177.23,133.13z"/>
		<path fill="#41290F" d="M112.36,134.47c-1.22,3.07,1.21,5.56,1.41,8.45c0.11,1.56,1.25,3.08-0.38,4.46
			c-2.87-1.35-2.58-4.47-3.76-6.76c-0.56-2.04-1.22-4.04-2-6c-1.4-3.64-2.83-7.27-4.52-10.8c-0.13-0.45-0.16-0.93-0.09-1.39
			c0.5-1.37,1.68-2.2,2.6-3.23c1.13-1.48,2.29-2.93,4.39-3c3.31-0.62,6.32-1.7,7.81-5.11c0.3-0.64,0.91-1.08,1.61-1.15
			c1.41,0.07,2.8,0.32,4.15,0.72c1.55,0.57,3.22,1,4.08,2.6c0.28,1.87-3.27,2.41-1.54,4.94c2,2.88,4.35,0.82,6.55,0.89
			c3.12,2.89,7.58,3.83,11.61,2.45c0.91-0.21,1.84-0.38,2.77-0.49c2.07-0.24,4.1-0.8,6-1.66c2.45-1,4.71-2.56,7.51-2.49
			c1.75,0.87,1,2.07,0.43,3.25c-5.13,4-11.37,5-17.44,6.49c-1,0-2.08,0.06-3.11,0.06c-1.52,0.05-3.04-0.12-4.51-0.48
			c-4.51-3.25-10.47-2.51-15.14-5.54c-1.85-1.2-3.77,0.2-5.12,1.87c-1.23,1.51-1.78,3-0.72,5c1.06,2,4.33,4.68-1.66,3.89
			C111.39,131.23,113.47,133.66,112.36,134.47z"/>
		<path fill="#6F4E37" d="M110.52,140.41c1,2.32,1.92,4.65,2.87,7c0.29,1.12,0.65,2.23,0.84,3.36c0.61,3.63,0.19,6.56-4.29,7.41
			c-2.24,0.58-4.44,1.32-6.57,2.23c-6.07-0.67-5.31-6.16-7-9.92c0.64-0.65,0.15-1.91,1.27-2.3c1.08,0,1.69,0.85,2.46,1.41
			c1.79,1.29,3.76,2.24,5.8,0.77s3.62-3.34,2.42-6.18c-0.45-1.57-1.45-3.24,0.18-4.61C109.33,138.85,109.93,139.89,110.52,140.41z"
			/>
		<path fill="#6B4D1C" d="M112.36,135.37c-0.06-0.78-0.33-1.53-0.77-2.18c-1-1.23-2-2.79-0.68-4s2.13,0.83,3.2,1.37
			c0.41,0.2,0.84,0.35,2.88,1.21c-4.61-4-5.64-7.15-1.8-10.77c1.94-1.82,3.73-2.84,6.06-1.53c3.4,1.94,7.16,3.14,11.05,3.53
			c1.36,0.2,2.52,1.06,3.12,2.29c-1.59,1.84-3.58,1.14-5.47,0.79c-1.76-0.43-3.59-0.46-5.36-0.08c-1.86,0.49-3.41,1.62-3.53,3.62
			c-0.12,2,1.86,2,3.17,2.43c1.82,0.67,3.91,0.89,4.64,3.15c0.02,0.49-0.11,0.97-0.37,1.38c-1.94,1.07-3.78,0.06-5.66-0.26
			c-3.1-1.06-6.09-2.68-9.56-2l-0.46,1L112.36,135.37z"/>
		<path fill="#9D7B31" d="M113.28,134.47c3.45-3.82,6.18-0.08,9.17,0.88c-0.84,1.68-2.55,1.57-4,1.94l-0.06,0.42L113.28,134.47z"/>
		<path fill="#B4904B" d="M97.38,148.41c-0.34,0.68-0.67,1.37-1,2.05c-2.82-5.33-5.59-10.7-8.49-16c-1.66-3-0.62-4.56,2.5-5.19
			c0.37-0.26,0.82-0.39,1.27-0.36c3.69,0.74,6.37-0.58,8-4c0.81-1.25,2.37-1.77,3.77-1.26c3.18,2.87,3.55,7,5,10.71
			c0.77,1.03,0.64,2.47-0.29,3.35c-3.23-1.09-5.35,0.74-7.48,2.73c-1.4,1.31-2.64,1.55-2.87-1c0-0.47,0.35-0.86,0.31-1.34
			c-0.34,0.56-0.59,1.17-0.75,1.81C95.64,142.8,98.15,145.6,97.38,148.41z"/>
		<path fill="#412C1F" d="M91.24,129.52c-0.3,0-0.6-0.09-0.86-0.25c-2.86-1.85-6.18-3.13-4.64-7.93c0.92-2.86-2.07-1.48-3.35-1.92
			c1.54-4,5-6.6,7.16-10.18c0.46-0.78,2.17-1.59,0.21-2.61c-1.06-0.31-2.19-0.49-2.63-1.72c0.85-2.85,3.79-2,5.6-3.09
			c1.51-0.94,3.47-0.86,4.89-2.06c1-0.89,1.82-2.12,3.44-1.85c0.69,0.2,1.26,0.66,1.6,1.29c0.16,0.45,0.18,0.93,0.08,1.39
			c-0.27,0.66-0.66,1.26-1.16,1.77c-0.21,0.25-0.43,0.49-0.67,0.71c-6.94,6.2-7,6.22-3.74,15.09c0.56,3.63,4.06,3,6.21,4.25
			c0,0.42,0,0.84,0.05,1.26l-3.14,1.71c-0.31,0.34-0.67,0.62-1.08,0.83c-1.71,1.25-5.37-1.29-5.59,2.88
			C93,130.05,92.15,130,91.24,129.52z"/>
		<path fill="#7C5843" d="M90.44,105.52c1.18,0.24,4-0.32,2,2c-3.34,4-5.77,8.73-10.08,11.86l-3,1.06l-3.77-0.18
			c-1.13-5.69,2.38-9.25,5.89-12.8l0.89-0.13C84.64,104.93,87.8,106.37,90.44,105.52z"/>
		<path fill="#FEFEF6" d="M191.82,76c0.94,1.61,0.91,3.61-0.08,5.19C190.13,79,190.13,79,191.82,76z"/>
		<path fill="#452F26" d="M207.12,75.44c0.14,3.91,0.28,7.82,0.41,11.73c0.37,0.87-0.05,1.34-0.81,1.64
			c-3.63-0.08-6.57-2.43-10-3.06c-0.69-0.17-1.34-0.47-1.91-0.88l-0.37-0.59c0-0.25-0.02-0.5-0.06-0.74l2.91-0.19
			c2.83,0.5,6.47,2.31,8.3,1.18c2.21-1.36,0.17-5.47,1-8.28C206.73,75.96,206.91,75.68,207.12,75.44z"/>
		<path fill="#EDD57D" d="M186.4,83.54c2.73-0.47,5.34,0.48,8,0.74l-0.11,0.21c2.81,6.66,0.13,12.14-3.75,17.36
			c-2.66,1.31-5.11,0.75-7.47-0.79C179.68,95.77,181.18,87.84,186.4,83.54z"/>
		<path fill="#B9973D" d="M186.4,83.54c-2.31,5.38-5.86,10.53-3,16.83c-0.61,0.62-1.52,0.84-2.35,0.56
			c-2.09-0.61-3.29-2.79-2.68-4.88c0.02-0.07,0.04-0.13,0.06-0.2c1.1-3.86,1.44-8,3.88-11.42C183.49,83.59,184.97,83.27,186.4,83.54
			z"/>
		<path fill="#8A6B26" d="M182.32,84.43c-0.82,3.31-1.5,6.66-2.49,9.92c-0.74,2.43-0.78,4.46,1.55,6c-2.27,1.82-4.27,1.66-5.95-0.82
			c-0.45-0.6-0.5-1.41-0.13-2.06c2.57-1.34,2.22-4.11,3.14-6.29C179.45,88.79,178.78,85.37,182.32,84.43z"/>
		<path fill="#5A3B1B" d="M127.28,62.47c0.17,2.29,0.34,4.57,0.54,7.32c7.61-3.12,15.26-5.84,23.52-3.16
			c0.24,0.42,0.15,0.96-0.23,1.27c-3,1.46-6.18,0.57-9.27,0.87c-1.68,0.17-3.85-0.51-4.27,2.18c-0.12,1.43,0.06,2.93-0.89,4.18
			c-0.73,0.62-1.33,0.33-1.87-0.29c-0.39-0.61-0.7-1.26-0.93-1.94c-1.66-2.46-3.57-1.06-5.19-0.13
			c-7.15,3.84-11.74,11.17-12.07,19.28c-0.2,2.89,0.87,6-1.27,8.61c-0.49,0.14-1.02-0.01-1.37-0.39c-2.73-6.59-1.13-13,1-19.28
			c-6-1.27-12.62,0.32-17.78-4.23c-0.21-0.5-0.17-1.06,0.12-1.52c2.39-1.39,4.69,0,7,0.25c1.6,0.38,3.24,0.6,4.89,0.63
			c4.1,0.51,6.23-1.14,6.58-5.32c0.2-2.47,0.6-5,2.81-6.65c1.23-0.93,2.68-1.52,4.21-1.72C124.33,62.61,125.81,62.19,127.28,62.47z"
			/>
		<path fill="#5E4632" d="M151.34,67.4c0-0.25,0-0.51,0-0.77l6.93,2.14c9,6.58,13.24,15.55,13.19,26.63
			c-0.32,0.4-0.9,0.48-1.31,0.16c-0.01-0.01-0.02-0.02-0.03-0.03c-1.38-2-1.38-4.37-1.93-6.58c-2.11-8.43-6.45-15.08-14.52-18.92
			C152.59,69.52,151,69.3,151.34,67.4z"/>
		<path fill="#A98B51" d="M107.35,54.58l11.06,4.58l8.87,3.32c-1.31,0.38-2.51,1.31-4,0.87c-5.74-1.79-11.93-2.59-16.3-7.4
			C106.9,55.46,107.04,54.96,107.35,54.58z"/>
		<path fill="#6A4B32" d="M16.58,110.48v-3.83c1.32-5.3-1.19-10.65,0.29-16c0.48-1.7,0.34-3.57,1.41-5.12
			c1.7,0.26,2.06-1.4,3.07-2.13c2.65,2.6,6.18,4.29,7.92,7.81c0.51,1.7-0.42,3.68,1,5.19c-1.61,9.58-3.21,19.16-4.82,28.74
			c-0.18,1,0.35,2.77-1.23,2.79c-0.9,0-2-1.12-2.68-2c-2.66-3.25-4.87-6.68-4.2-11.25C17.57,113.31,17.88,111.68,16.58,110.48z"/>
		<path fill="#3F2F30" d="M35.44,108.43c0.21,8.38-2.34,16.55-2,25c-3.73-2.42-6.28-5-5.17-10.29c1.45-6.8,1.25-13.89,3.05-20.68
			C32.85,104.33,35.82,105.24,35.44,108.43z"/>
		<path fill="#493427" d="M63.41,110.43c-0.07,0.8,0.31,1.58,1,2c0.31,1.35-0.72,1.76-1.61,2c-4.91,1.41-6.77,5.19-8,9.77
			c3.31,1.14,6.5-2.32,9.55,0.16c0.5,0.18,1.53,0.81,0.93,0.89c-5.29,0.75-10.13,5.1-15.89,2.14c2.84-0.48,1.41-1.67,0.58-3
			c-3.2-4.89-1.43-8.53,4.27-9.07c1.06-0.1,2.87,0.25,2.11-2c-0.34-0.35-0.56-0.8-0.63-1.28c0.02-1.94,0.45-3.85,1.28-5.61
			c0.36-0.32,0.84-0.45,1.31-0.35c0.37,0.28,0.67,0.64,0.87,1.06C59.36,110,62,109.36,63.41,110.43z"/>
		<path fill="#75512D" d="M50.4,104.46l-7-8.95c-1.26-2.31-1.83-4.62-0.08-7c1.66-0.85,2.53,0.5,3.28,1.44
			c1.82,2.17,4.26,3.73,7,4.46c2,0.84,2.92,2.57,3.83,4.34c0.49,1.6,2.44,2.57,2,4.58C56.66,105.42,53.54,105,50.4,104.46z"/>
		<path fill="#5F3D1E" d="M44.43,88.46c-2,2.1-0.54,4.72-1.07,7.05c-1.3-1.86-3.6,1.93-4.58-0.71c-1.07-2.87-0.27-5.47,1.87-7.7
			c-3.84,1.1-4.1,4.26-4.32,7.45c-0.46,0.58-1.16,0.92-1.9,0.9c-2.65-1.63,1-4.33-1-6.06c-0.57-1.77,0.77-2.71,1.72-3.76
			c3-3.3,6.89-5.11,11-6.65c0.44,0.21,0.79,0.56,1,1c0.33,0.87,0.41,1.82,0.24,2.73c-0.1,0.44-0.23,0.87-0.39,1.29
			C46.24,85.52,46.07,87.41,44.43,88.46z"/>
		<path fill="#54391F" d="M50.4,104.46c2.66-2.21,6.37,0.24,9-2c4.81-4.4,10.81-4.92,16.89-5.2l1.15,3.17
			c-0.78,2.31-2.79,2.46-4.75,2.71c-3.18-0.74-5.8,0.54-8.28,2.32l-0.84,1c-1.77-0.67-3.72-0.67-5.49,0c-0.18,0.01-0.36,0.01-0.54,0
			c-4.67,1.94-4.69,2-1.16,6c0,0.34,0,0.67,0,1C49.85,114.79,48.24,112.39,50.4,104.46z"/>
		<path fill="#7A5725" d="M46.43,79.48c-4.39,3.24-10,4.83-13,9.91c-1.99,1.78-3.12,4.33-3.11,7c-3.08-0.74-1.44-3.24-1.87-5
			c1-2.79,3.67-4.32,5.25-6.68c1.77-1.74,3.71-3.29,5.47-5c0.76-0.61,1.61-1.11,2.52-1.47c2.78-0.91,5.44-2.14,8.22-3.06
			c1.84-0.62,3.74-1.28,5.57,0.11C53.67,79.31,50.19,79.7,46.43,79.48z"/>
		<path fill="#825F3A" d="M35.44,108.43c-1-2.25-3.83-3.25-4.08-6c4.28,0.56,7.55,4.16,12.06,4c0.23,0.7,1.65,1.54,1.06,1.77
			C41.56,109.33,38.5,111.36,35.44,108.43z"/>
		<path fill="#8E6837" d="M34.43,95.45c0.36-0.69,1.14-1.05,1.9-0.9c0.76,3.23,3.31,4.61,6,5.73c1.09,0.45,2.72,0.2,2.07,2.21
			c-4.18,1.28-7.25,0.11-9-4.06L34.43,95.45z"/>
		<path fill="#5F3D1E" d="M35.48,98.43c2.67,2,5.14,4.55,9,4.06c-3.9,3.38-6.93,0.55-9.87-1.59C33.09,99.82,34.42,99,35.48,98.43z"
			/>
		<path fill="#E9CA6B" d="M34.33,85.41c-1.55,2.37-3.55,4.41-5.9,6c-2-3-6-4.24-7.09-8l3.7-5c0.21-2.44,1.92-4.49,4.28-5.14
			c3,1.14,4.29,3.25,2.77,6.21S32,84.05,34.33,85.41z"/>
		<path fill="#9F8246" d="M2.43,79.44c0.23-3.07,1.58-5.96,3.79-8.11c2.17,0.6,4.02,2.04,5.14,4l-2.88,6.14
			C5.76,82.89,3.44,83.14,2.43,79.44z"/>
		<path fill="#806746" d="M2.43,79.44c1.6,1.91,3.78,2.1,6.05,2c-1.23,2.62,2.55,7.09-3,8.13C2.53,86.8-0.43,84,2.43,79.44z"/>
		<path fill="#EECD70" d="M11.36,75.38c-1.75-1.31-4.58-1.23-5.14-4l3.19-3.9c0.31-0.06,0.62-0.15,0.92-0.26
			c2.76,0.15,4.31,1.47,4.22,4.37L11.36,75.38z"/>
		<path fill="#BD973B" d="M14.55,71.54c-1.04-1.77-2.48-3.27-4.22-4.37c4.75-3.72,6.64-3.48,9,1.15L14.55,71.54z"/>
		<path fill="#836744" d="M22.48,77.37c3.42,0.1,3.69-3.62,6-4.92c0.24-0.34,0.71-0.42,1.05-0.18c0.01,0.01,0.02,0.01,0.02,0.02
			l0.21,0.59l-0.29,0.57C28,75.1,26.5,76.76,25,78.41C24.02,78.63,23.02,78.21,22.48,77.37z"/>
		<path fill="#50331C" d="M48.47,63.61l2.89-1.23c1.3-3.24,5.91-2.55,7.07-6c1.4-0.72,2.9-0.21,4.35-0.42
			c2.23-0.35,4.5-1.46,6.59,0.41c1.68,0.29,3,0.93,3,2.95c0.41,0.89-0.06,1.51-0.61,2.12c-2.79,2.43-6.13,3.23-9.72,3.31
			c-4.08-0.2-8,1.71-12.18,0.61C49.09,65.06,48.33,64.68,48.47,63.61z"/>
		<path fill="#F6D473" d="M62.34,57.29c-1.37,0.28-2.79-0.03-3.91-0.86c-0.18-1.38,0.17-2.77,1-3.89h4.94
			C68.39,56.12,63.25,55.81,62.34,57.29z"/>
		<path fill="#422C14" d="M28.44,71.45c-1.5-0.47-2.91-1-3.3-2.83l2.15-2.15c0.75-2.53,3-3.53,5-4.74c1.04-0.57,2.16-0.97,3.33-1.17
			c2.47,0.13,4.49,1.11,1.73,3.29C34.25,66.27,31.26,68.75,28.44,71.45z"/>
		<path fill="#BF963D" d="M32.52,62.49l-5.23,4c-3.42-1.31-3.22-3.17-0.88-5.43c1.17-1.15,2.6-2.01,4.17-2.51
			C31.51,59.71,32.17,61.05,32.52,62.49z"/>
		<path fill="#F6E589" d="M34.37,57.33c1.25-1.43,3.11-2.18,5-2c3.18,0.31,3.34,0.73,1.68,4.29c-1.55,1.59-3.57,1.28-5.5,1.38
			C31.79,60.85,33.27,59,34.37,57.33z"/>
		<path fill="#C59A46" d="M40.32,59.42c0.77-1.6,2.1-3.33-0.93-4.05l2-0.87c3.49-0.28,4.37,2.15,5,4.84
			C44.41,61,42.38,61.19,40.32,59.42z"/>
		<path fill="#EDCD6C" d="M34.37,57.33c0,1.32-1.3,3.2,1.44,3.35c0.07,0.32-0.09,0.64-0.38,0.78l-2.91,1
			c-2.63-0.35-2.09-2.25-1.94-4C31.73,57.78,32.86,57,34.37,57.33z"/>
		<path fill="#CDA249" d="M62.34,57.29c-0.32-2,4.68-1.75,2-4.76c2.15,0.69,7.07-2.21,5,3.89L62.34,57.29z"/>
		<path fill="#5D3D17" d="M35.9,61.46L35.9,61.46l3.2-2l7.78-0.1c0.36,0.87,1.14,1,1.94,1.15c1.26,1-3.7,2.22,0.12,3.12l1.27,1
			c0.1,0.52-0.1,1.05-0.53,1.37c-4.28,1.81-9,2.31-13.18,4.42c-2.33,0.26-4,2.75-6.6,2.07h-1v-1c1-4.13,4.28-6,7.59-7.84
			c0.67-0.38,2.22-0.48,1.27-1.87C37.54,61.39,36.55,61.54,35.9,61.46z"/>
		<path fill="#B58A3A" d="M195.33,117.42c-2.19,2.48-4,5.29-6.86,7.16c-0.93-0.44-1.78-1-2.55-1.68c-1.35-1-3,0.51-4.38-0.59
			c-4.44-3.11-9.67-2.73-14.68-3.31c-1.11-0.12-2.29,0.31-3.37-0.31c-0.24-4.74,3.76-5.42,6.75-7.06c2.3-0.1,4.58,0.43,6.59,1.54
			c4.33,2,9.23,2.36,13.8,1c0.7-0.31,1.45-0.48,2.21-0.51c2,0.46,3.57,1.16,2.4,3.67L195.33,117.42z"/>
		<path fill="#EEDA80" d="M177.23,133.13c-4.38,1.53-8.15,4.56-12.87,5.27c-0.84-6.42,1.34-9.56,6.7-9.64
			c4.48,0.84,7.24-3.28,11.21-3.92c2,0.68,3.3,1.59,1.06,3.55L177.23,133.13z"/>
		<path fill="#DBC16D" d="M183.33,128.39c0.81-1.32,0.62-2.34-0.91-2.93c0-2.66,1.72-3.18,3.91-3c1.4,0,2,0.91,2.14,2.15
			C187,126.16,185.92,128.3,183.33,128.39z"/>
		<path fill="#22130A" d="M175.43,99.52c1.86,1.14,3.91,0.93,5.95,0.82h2l6.89,1.2c1.15-0.25,2.35-0.18,3.47,0.19
			c3.7,0.8,7.08,2.6,10.75,3.5c0.84,0.41,1.94,0.61,1.67,2c-2.27,0.49-3.79,2.21-5.61,3.44l-3.19-2.27c-3.41-0.69-6.72-2-10.29-1.65
			c-1.57,0.06-3.11-0.44-4.34-1.43c-1.13-1.58-3-1.78-4.63-2.46c-1.21-0.5-3.13-0.29-2.83-2.52
			C175.34,100.07,175.39,99.8,175.43,99.52z"/>
		<path fill="#614D51" d="M206.18,107.22l-1.93-0.87c-1.45-0.61-2.19-2.23-1.69-3.72c1.52-4.63,1.79-9.59,3.74-14.09l1.23-1.37
			C210.67,94.1,209.58,100.74,206.18,107.22z"/>
		<path fill="#4C3215" d="M187.27,105.51c3.76-0.41,7.23,0.18,10.11,2.88l-1,0.1c-1.46,1.88-1.59,4.7-4.09,5.86l-0.93,1
			c-1.46,0.44-1.49-0.63-1.65-1.56C191.17,110.4,188,108.3,187.27,105.51z"/>
		<path fill="#8F6C33" d="M192.25,114.35c1.57-1.81,0.69-5.32,4.09-5.86c3.23,3.39,1.46,6.16-1.09,8.83
			C195.23,115.34,194.05,114.53,192.25,114.35z"/>
		<path fill="#775640" d="M64.4,124.38c-2.57,0.47-5.15,0.87-7.69,1.45c-1.29,0.3-2.71,1.13-3.68,0c-0.84-1,0.48-2.08,0.74-3.14
			c1.4-5.67,5.22-8.78,10.65-10.22l8.75-2.06c-2.12,4.06-4,7.55-5.78,11L64.4,124.38z"/>
		<path fill="#DBB555" d="M76.3,97.23l-16.89,5.2c-2-0.06-2.46-1.54-2.83-3.1c0.33-1.56-1.38-2.82-0.68-4.44
			c1.47-2.3,3.55-2.5,6-1.92c5.27,1.23,6.41,0.63,9.22-4.47c2.19-0.9,2.73,1,3.77,2.15c0.9,1.53,2.22,2.86,2.25,4.8L76.3,97.23z"/>
		<path fill="#5E4128" d="M90.44,105.52c-2.53,1.33-5.33,1.46-8.07,1.85c1-2.88-3.74-1.88-3.24-5.36c0.39-2.74,0.44-4.57,3.22-5.43
			c1.38-1.82,3.64-1.3,5.41-2.07c2-0.43,4.13-0.73,5.88-2c1-0.72,1.81-1.68,3.19-1.52c2.61,1.82,6.4,2.9,4.6,7.43
			c-1.58-0.15-2,1.38-3,2.07c-3.37-4.63-7.37-2.77-11.32-1.07c-0.38,0.74-0.63,1.54-0.72,2.36c-1,1.37-1.15,2.43,1,2.65
			C88.09,105.67,89.34,105.37,90.44,105.52z"/>
		<path fill="#79593A" d="M72.44,102.42l5-2c1.73,2,0.6,3.62-0.64,5.28c-2.38,3.21-2.15,0.06-3-1.75c-0.82,4.42-3.7,6.08-7.22,6.06
			c-2.08,0-1.07-2.27-1.17-3.61C67.55,104.64,70.15,103.8,72.44,102.42z"/>
		<path fill="#473124" d="M81.48,107.5c-1.82,4.33-5.17,8-5.9,12.8c-2.37-1-4.11-2.6-2.39-5.26
			C75.25,111.84,75.19,106.1,81.48,107.5z"/>
		<path fill="#79562A" d="M77.15,95.45c-1.83-0.56-1.93-2.43-2.79-3.72c0-2.31-2.63-3.75-2.18-6.25c0.51-0.55,1.25-0.85,2-0.81
			c3.43,0.68,4.4,3.84,6.22,6.15c0.91,1.71,2.57,3.28,1.14,5.48L77.15,95.45z"/>
		<path fill="#C5A05A" d="M72.44,102.42c-1.22,3.27-4.07,3.67-7,4l-1-0.95C65.74,100.83,69,101.25,72.44,102.42z"/>
		<path fill="#EDC85E" d="M81.59,96.3c0.35-2.09-1.64-3.2-2-5c0.14-0.72,0.79-1.21,1.52-1.14c1.92,2.42,5.75,2.15,7.27,5.16
			c-1.85,1.1-3.92,1.16-6,1.23C82.14,96.4,81.87,96.32,81.59,96.3z"/>
		<path fill="#826544" d="M63.41,110.43c-2.89,1-5.75,1.89-4.91-3.08c1.35-1.24,3.43-1.24,4.78,0L63.41,110.43z"/>
		<path fill="#D1B068" d="M63.28,107.32H58.5c-0.06-0.33-0.2-0.65-0.41-0.91c1.84-2.8,3.67-3.52,5.49,0
			C63.45,106.7,63.35,107.01,63.28,107.32z"/>
		<path fill="#E8CA68" d="M171.58,130.31c-3.12-1.39-5-0.9-5.43,3c-0.18,1.74-1.17,3.41-1.79,5.11c-8.77,3.06-17.7,4.67-27,3
			c-0.33-2,1.09-2.92,2.5-3.81c4.48-0.94,9.14-0.41,13.59-1.54c1.45,0.06,2.89-0.24,4.19-0.87c-4.38,0.03-8.75-0.5-13-1.57
			c-2.1-0.45-4.41-0.88-4.84-3.49s1.71-3.64,3.6-4.68c5.89-1.37,11.78-2.73,17-5.92c0.88-0.66,1.59-1.78,3-1.08
			c5.89-1.92,11.5,0.24,17.17,1.27c1.23,0.22,1.67,1.44,1.76,2.66c-0.14,3.26-3.1,3.69-5.12,5
			C175.43,128.56,173.38,129.21,171.58,130.31z"/>
		<path fill="#CBA84C" d="M143.37,125.47c-4.24,5.39-4.1,5.77,2.58,7c4,0.76,7.91,2.22,12.11,1c0.94-0.28,2.61-0.66,2.84,1
			c0.2,1.43-1.21,1.73-2.34,2.05c-1.43,0.39-2.79,1.13-4.35,0.73c-5-0.36-10-0.53-14.8,1.27c0.05,1.48-1.49,1.83-2,2.88
			c-4.13,0.23-8.26-0.4-12.13-1.85c-0.6-2.63,2.32-1.94,3.08-3.28c0.07-0.3,0.17-0.6,0.29-0.89c0.16-1.34-1.08-2-1.53-3
			c-1.82-4.15-0.16-6.51,4.44-6.52c2.94,0,5.92,0.49,8.83-0.39L143.37,125.47z"/>
		<path fill="#B6943E" d="M128.32,136.3c-0.32,1.76-2.37,1.89-3.08,3.28c-2.39-0.34-4.7-1.12-6.82-2.29c1.06-1.11,2.48-1.8,4-1.94
			L128.32,136.3z"/>
		<path fill="#BD9335" d="M160.26,117.32l-6.87,3.17c-2.45,1-4.35,0.16-5.09-2.17c-1.51-4.76-3.47-9.44-3.41-14.58
			c3.69-2.38,8.19-3.2,11.45-6.54c3-3,4.9-5.89,3.94-10.49c-0.48-2.31-2-5.13,0.3-7.51c3.18,0.52,3.71,3.07,4,5.55
			c0.52,5.41,1.73,10.81,0.66,16.29c-0.13,1.09-0.44,2.15-0.92,3.14c-1,2.53-0.43,5.19-0.63,7.78
			C163.47,114.36,163,116.56,160.26,117.32z"/>
		<path fill="#BA9133" d="M127.28,113.5l-3.94-2c-3.32-2.63-4.4-5.67-1.76-9.41c0.91-0.59,2.11-0.41,2.8,0.42
			c2.15,1.3,4.89,1.1,6.83-0.5c3.63-2.64,7.58-2.59,11.7-2.16c2.01,4.12,3.36,8.53,4,13.07c-1.3,2.44-3.92,2.74-6.1,3.78
			c-1.1,0.52-2.93,0.48-2.69,2.28c0.2,1.53,1.76,1.76,3,2.07s2.67,0.17,3.48,1.49c-4.69,1.28-9.22,1.92-12.32-3.09
			C129.7,118.28,128.56,115.83,127.28,113.5z"/>
		<path fill="#AE853B" d="M103.38,122.41c-3.84,1.33-6.59,0.7-7.1-4c-0.8-2.42,0.51-4.39,1.44-6.42c1.55-3.42,3-6.85,3.46-10.62
			l1-1.09c3.61-1.13,5.56,0.48,5.55,4c0,5.4,0.57,10.89-1.38,16.13L103.38,122.41z"/>
		<path fill="#B58942" d="M122.54,102.31c-2.82,3.34-0.37,6.23,0.8,9.23c-1.41-0.14-2.93,0.22-4.1-0.94c-3.77-2.43-4.57-5.9-3.47-10
			c0.52-3.11,0.73-6.26,0.64-9.41c0.21-8.66,10.2-18.48,18.83-18.61v1.94c-1,2.53-3.59,3.35-5.52,4.83s-2.35,3.19-1.35,5.33
			c-2.15,1.33-5.05,1.24-6.62,3.7s-2.83,4.79-0.89,7.57c0.65,1.19,1.16,2.44,1.53,3.74C122.73,100.52,122.79,101.44,122.54,102.31z"
			/>
		<path fill="#B18D39" d="M140.35,125.5c-2.4,1.77-5.15,0.78-7.73,0.89c-5.4,0.23-6.1,1.17-4.09,6.34c0.36,0.92,1.05,1.76,0.08,2.68
			c-1.31-1.43-3.13-1.57-4.84-2.12s-5.37-0.53-4.84-3c0.59-2.71,2.27-5.71,6.28-5.9c3.49-0.16,6.72,1.67,10.21,0.92L140.35,125.5z"
			/>
		<path fill="#C49E3B" d="M144.64,122.58c-1.47-0.07-2.95,0-4.4-0.23c-2.3-0.32-4.16-1.72-4.41-3.91s2.26-1.93,3.64-2.52
			c2.24-1,4.57-1.67,6.86-2.49c1.78,2.81,4.64,5.5,1,8.9L144.64,122.58z"/>
		<path fill="#6D4D20" d="M160.26,117.32c2.37-2.16,1.93-5,2.08-7.79c0.11-2-0.82-4.31,1-6.07c0.84,0.77,1.42,1.78,1.67,2.89
			c0.47,1.18,0.19,2.64,1.37,3.52c2.07-0.32,1.65-2.29,2.29-3.5c2.17-4.09,5.33-5,9.85-2.58c-1.16,3.1-4.56,4.23-6.12,7
			c-0.64,0.63-1.36,1.18-2.14,1.61c-2.44,1.86-5.36,3.19-6.91,6.08l-3,1.08C160.42,118.8,161.37,118,160.26,117.32z"/>
		<path fill="#8A6A3F" d="M107.39,137.39c1.2-0.71,0.87-1.94,1-3c1.4,1.77,1.75,3.9,2.11,6c-4.4,0.18-0.29,2.79-1.14,4
			c1.12,1.61-0.18,2.8-0.85,4c-1,1.82-2.87,2.95-4.92,2.15c-2.22-0.86-1.66-2.83-1-4.58C104.39,143.2,104.15,139.32,107.39,137.39z"
			/>
		<path fill="#7E5D1B" d="M147.3,122.33c2.5-3.27-0.18-6-1-8.9c-0.6-4.54-2.37-8.74-3.86-13c-1.26-1-1.47-2.51-1.9-3.91
			c-0.26-0.98-0.35-1.99-0.26-3c0.18-1,0.47-2,1.6-2.32c0.48,0.11,0.89,0.4,1.16,0.81c0.55,1.06,0.99,2.16,1.34,3.3
			c0.65,1.99,1.19,4.01,1.61,6.06c0.12,0.7-0.05,1.42-0.45,2c1.18,4.55,2.49,9.07,3.5,13.65c0.55,2.52,1.71,3.75,4.32,3.46
			C151.56,121.77,149.35,121.79,147.3,122.33z"/>
		<path fill="#6F5321" d="M127.28,113.5c2.63,1.19,3.66,3.74,5,6c-4,3-7.14,2-8.57-2.57C122.61,113.28,126.75,115.3,127.28,113.5z"
			/>
		<path fill="#85673D" d="M108.61,107.38c0.27,3.37-2.73,7.36,1.85,9.94c-2.6-0.6-2.92,1.8-4.06,3.1c0-5.37-0.1-10.76,0.22-16.13
			c0.21-3.55-2.47-3.16-4.39-4c0-0.34,0.11-0.69,0.16-1c3.5-1.63,6.11-0.57,6.42,2.77C109.07,103.83,109,105.63,108.61,107.38z"/>
		<path fill="#785831" d="M118.17,111.67c-2.46-3-3-6.7-4-10.24c-0.22-0.26-0.19-0.65,0.07-0.87c0.07-0.06,0.16-0.1,0.25-0.13h0.86
			c0.33-0.47,0.67-0.5,1,0c-0.31,3.74,1.1,7,2.85,10.17L118.17,111.67z"/>
		<path fill="#422C28" d="M103.45,145.4c0.65,1.44-2.3,4.06,0.75,4.34s4.9-2.13,5.18-5.34c2.24,3.13-0.53,4.77-2.12,6.58
			c-1.78,2-4,1.58-6.33,0.7c-1.72-0.64-2.23-2.34-3.55-3.27c-1.71-2.84-3.18-5.72-1-9c2.1-0.45,1.41,1.43,1.71,2.26
			c0.92,2.57,1.71,5,5.18,2.86c0.08,0.13,0.2,0.24,0.22,0.37C103.51,145.07,103.49,145.24,103.45,145.4z"/>
		<path fill="#87683E" d="M103.45,145.4c-1.85,0-1,3.61-3.43,2.66c-1.94-0.78-1.76-3-2.43-4.59c-0.54-1.3,0.36-3-1.19-4.05
			c0.84-1.8,2.31-3.23,4.14-4c0.23,2.17-3,2.95-1.77,5c2.67-1.59,4.37-5.9,8.62-3.07C106,140,105.69,143.19,103.45,145.4z"/>
		<path fill="#5B4522" d="M99.16,125.56l1.13-0.18c-1.5,4.69-4.53,6-9.05,4.14l2.11-1C94.84,126.68,97.46,127,99.16,125.56z"/>
		<path fill="#7B5936" d="M85.42,98.47c2.7-1.51,5.74-1.83,8.69-2.3s4.39,1.37,4.34,4.31c-3.21,2.64-7.3,2.86-11.06,4
			c-3,0.43-2.24-1.49-1.92-3.11C87.18,100.34,86.81,99.39,85.42,98.47z"/>
		<path fill="#7B4F23" d="M101.18,101.41c1.19,1.41,1.34,3.44,0.35,5c-1.91,3.95-3.51,8-5.25,12.08
			C91.89,107.62,92.63,108.62,101.18,101.41z"/>
		<path fill="#A08645" d="M99.16,125.56c-1.08,2.67-3.36,3-5.81,3c-3.25-1.52-1.64-2.64,0.45-3.08
			C95.5,125.09,97.36,125.49,99.16,125.56z"/>
		<path fill="#6B4B2F" d="M206.3,88.54c0,3.86,0.27,7.65-1.75,11.34c-0.94,1.74-2,4.25-0.3,6.47l-11-3.79
			c1.5-5.9,2.48-11.93,2.94-18C199.8,85.17,203.24,86.53,206.3,88.54z"/>
		<path fill="#CCAC57" d="M196.21,84.53c1.81,4.58,0.08,15.19-2.94,18l-3-1c2.41-5.44,4.62-10.93,4-17.08L196.21,84.53z"/>
		<path fill="#422C14" d="M178.39,104.43c-5.51-1.82-7.36-1-9,4.18c-0.91,2.83-1.05,2.92-4,2.84c0.23-1.63,1.54-2.85,1.68-4.52
			c0.16-0.96,0.19-1.93,0.11-2.9c-1.13,0.61-1.54,2-2.85,2.36c-1.12-0.71-0.84-1.85-0.9-2.88l1.17-1.78
			c0.27-1.46,1.05-2.79,2.2-3.73c1.1-1,2-2.25,3.57-2.49l1.09-0.06c0.81,2.06-1.41,3-1.84,4.92h5.67c1.94,2.71,6.76,0.11,7.92,4.28
			C181.81,105.91,179.66,105.81,178.39,104.43z"/>
		<path fill="#FDF9E8" d="M189.09,93.93c-1.35-3.89-0.93-6.52,1.06-9.63C192.32,87.81,191.55,90.43,189.09,93.93z"/>
		<path fill="#B4873E" d="M104.32,76.53l-7-0.93c-4.8,0.08-5.28-3.19-5.3-6.82c0.53-0.93,1.7-1.27,2.65-0.78
			c2.69,0.84,5.64,1.49,6.73-1.86S100,61.08,97.12,60c-0.68-0.24-1.28-0.65-1.74-1.2c-0.8-1.53-2.94-3-0.16-4.68
			c3.1,1.18,5.83,3.1,8.9,4.35c3.06,2.15,7.38,2.3,9.53,5.92C111.46,69.14,108.92,73.63,104.32,76.53z"/>
		<path fill="#AC7F37" d="M166.86,99.21l-3-0.28c-0.34-4.38-0.7-8.76-1-13.14c-0.15-2.58-0.59-4.9-3-6.36
			c-3-0.66-4.54-3.59-7.45-4.53c-5.54-1.8-10.81-0.16-16.16,0.8l-0.4-0.34v-4.9c4.25-4.39,9.46-2.71,14.05-1.49
			C162.92,72.4,170.22,85.84,166.86,99.21z"/>
		<path fill="#916930" d="M167.45,98.57c-0.65-3.73-1.12-7.5-2-11.18c-3.51-14.8-14.69-21.25-29.11-16.93
			c0.52-2.55,0.61-2.79,3.3-2.91c3.89-0.18,7.8-0.11,11.69-0.15c12.42,5.24,18.24,14.95,19,28.07
			C169.69,96.76,168.69,97.84,167.45,98.57z"/>
		<path fill="#9A7137" d="M104.32,76.53c2.74-4.31,5.83-8.38,9.23-12.18c1.49-1.24,3.2-0.48,4.83-0.52c0.4,0.12,0.75,0.36,1,0.69
			c-2.85,2.45-2.19,6.11-2.68,9.17c-0.54,3.35-2,4.11-4.81,3.73C109.39,77.09,106.68,78.29,104.32,76.53z"/>
		<path fill="#956F37" d="M116.39,100.43h-1c-0.72-9.67,0.28-18.74,8.19-25.72c2.06-1.63,4.28-3.03,6.63-4.2c2.67-1.54,4.32-1,5,2
			c-4.22,1.86-8.4,3.64-11.72,7.13c-4,4.24-7,8.67-6.28,14.91C117.45,96.49,116.7,98.48,116.39,100.43z"/>
		<path fill="#E9C967" d="M119.41,64.52l-1.08-0.2c-5.21-0.83-9.61-4.09-14.8-5c-2.81-1.34-6-2-8-4.76c4-0.83,8.09-1.65,11.84,1
			c4.06,2.68,8.53,4.67,13.23,5.9c1.17,0.35,2.15,0.68,2.66,1.84L119.41,64.52z"/>
		<path fill="#362113" d="M92.62,68.42c0.87,2.86,0.87,6.28,4.72,7.18c-0.01,0.22-0.01,0.45,0,0.67l-6,7.14
			c-0.37,0.28-0.85,0.35-1.28,0.2c-1.29-0.62-2.15-1.88-2.26-3.3c0.08-0.92,0.35-1.82,0.81-2.62c1.64-2.74,2.21-5.43-0.23-8
			c-0.78-0.5-1.31-1.32-1.43-2.24c0.76-2.48,3.37-2.17,5-3.34c0.45-0.16,0.93-0.22,1.4-0.19c0.71,0.11,1.3,0.62,1.51,1.31
			C95.1,66.94,93.71,67.57,92.62,68.42z"/>
		<path fill="#D0A652" d="M128.47,84.31c-2.21-0.84-3.18-2-1.24-4.16c2.31-2.34,5.02-4.24,8-5.64l1.08,0.85l0.07,0.31
			c0.71,0.15,1.21,0.51,1.21,1.33c-0.26,0.64-0.74,1.16-1.36,1.46c-2.76,1.37-4.42,3.94-6.55,6
			C129.29,84.69,128.79,84.63,128.47,84.31z"/>
		<path fill="#C59841" d="M93.25,64.23c-0.27,0.11-0.55,0.2-0.84,0.28c-5.28-1.46-7.15-4.36-5.88-9.09l1.12-1.79h5.67
			c0.34,1.73-1.73,1-2.09,2.06c0,0.27-0.51,0.4-0.19,0.74c0.09-0.64,0.52-1.19,1.12-1.43c2.66,1.25,3.39,3.53,3.37,6.23
			C95.32,62.67,94.85,63.89,93.25,64.23z"/>
		<path fill="#805F2B" d="M94.52,61.44c-0.33-2.37,0.35-5.27-3.14-6l0,0l1.93-1.81c4.74-0.78,9.45-1,14,0.92v1
			c-3.83-1.68-7.88-0.85-11.84-1c-2.26,1.83,0.88,2.54,0.81,3.91C95.63,59.41,96.86,61.53,94.52,61.44z"/>
		<path fill="#9B7B48" d="M56.39,112.42c-3.71,0.2-4.58-2.09-3.8-5c0.82-3.06,3-2.13,5-1C57.35,108.45,57.69,110.59,56.39,112.42z"
			/>
		<path fill="#FAEE89" d="M56.41,95.45c-0.32,1.31,1.72,2.52,0.17,3.88l-3-4c-0.38-0.21-0.64-0.58-0.73-1
			c-0.33-2.71-1.6-4.68-4.31-5.54c-1.91-1.25-3.09-2.78-1.91-5.17h-0.1c1.24-1.4,3.01-2.22,4.88-2.26c1.82-0.06,3.63,0.33,5.26,1.15
			c5.66,2.62,6.09,7.16,1,10.74C56.88,93.8,55.9,94.16,56.41,95.45z"/>
		<path fill="#956934" d="M53.56,94.37c-0.02,0.33-0.02,0.67,0,1c-4.51-0.37-7.42-2.85-9.15-6.9c0.59-1.69,0.3-3.77,2.19-4.86
			c-0.5,2.43,1.37,3.6,2.7,5.05C51.49,89.85,53.05,91.93,53.56,94.37z"/>
		<path fill="#482D13" d="M46.43,79.48l9-3.92c0.27-1,1.07-1.77,2.08-2c5.16-0.55,10-2.45,15-3.64C73,69.79,73.5,69.71,74,69.7
			c0.48,0.04,0.94,0.19,1.36,0.43c0.31,0.36,0.49,0.81,0.51,1.28c-0.14,1.63-0.85,3.15-2,4.31c-0.68,0.52-1.43,0.95-2.22,1.28
			c-0.57,0.26-1.12,0.56-1.65,0.89c-2,2.29,1.6,3.82,0.82,5.94c-0.3,0.67-0.98,1.07-1.71,1c-3.17-2.63-6.44-5-10.92-4.18
			c-3.9-1.65-7.87,1.61-11.76-0.2V79.48z"/>
		<path fill="#7A5725" d="M46.43,80.51c4-0.54,7.91-2.48,12.09-1c-1.16,4.17-5,1.51-7.24,2.81l-4.75,1.25
			C46.5,82.56,46.46,81.53,46.43,80.51z"/>
		<path fill="#E7BD5A" d="M57.42,74.44l-2,1.12c-5.28-0.47-9.36,3.5-14.4,3.92c-1.68-0.49-4.15,1-4.85-2c2-2.27,5.83-0.84,7.68-3.61
			c-1.12-2-3.07-1.75-4.75-2.2c-1.39-0.39-3.52,0.35-3.66-2.18c4.32-2.23,9.02-3.62,13.85-4.12c5.53-0.68,8.33,1.46,9.67,7.39
			C58.81,73.68,58,74,57.42,74.44z"/>
		<path fill="#F7E480" d="M34.33,85.41c-5.25-0.42-6-1.2-3.47-5.49c1.84-3.13-0.25-4.5-1.43-6.47l-0.08-0.14
			c3.23-1.07,5,0.7,6.39,3.24c-0.52,3.08,2.62,2.46,3.83,3.79C38.31,82.53,36.21,83.86,34.33,85.41z"/>
		<path fill="#FEFDCC" d="M39.57,80.34c-2.12,0-4.49,0.35-4-3l0.44-0.16l0.33,0.35c1,1.94,3.77-0.13,4.74,2L39.57,80.34z"/>
		<path fill="#CCA042" d="M36.34,77.48c-0.26-0.03-0.52-0.09-0.77-0.19c-1.65-2-3.48-3.69-6.22-4c0-0.29,0-0.58,0.07-0.87
			c1.83-1.37,3.69-2.68,6.07-2.9c2.62,1.89,6.22,0,8.77,2.31c0.71,0.63,1.9,0.81,2,2c0.06,1.48-1.23,1.82-2.24,2.24
			C41.6,77.11,38.97,77.59,36.34,77.48z"/>
		<path fill="#B1883C" d="M74.25,70.26c-0.27,0.09-0.54,0.19-0.82,0.27c-3.05,0.1-5.86,1.71-9,1.43c-2.74-2.32-3.23-5.18-2.05-8.45
			c3.2-0.29,6.42-0.54,8.87-3c0.11,3.49,3.79,4.34,5.12,6.93C76.52,68.79,75.59,70.03,74.25,70.26z"/>
		<path fill="#CD9F44" d="M62.4,63.51l2,7.88c-1.58,2-3.51,2.87-6,1.9c-1.23-4.66-4-7.54-9-7.87c0.11-0.27,0.24-0.53,0.4-0.78
			L62.4,63.51z"/>
		<path fill="#735127" d="M74.25,70.26l2.14-2.85c3.24-2.35,6.61-4.51,7.39-9c0.23-1.31,0.92-2.85,2.75-3
			c-0.32,4.51,3,6.67,5.88,9.09c-0.74,2.63-4,1.06-5.1,3c-3-0.65-6.1-2.33-8.3,1.43c-0.75,0.89-1.84,1.43-3.01,1.47L74.25,70.26z"/>
		<path fill="#A57631" d="M170.29,112.39l1.09-1.93c7.09-5.12,10-5.35,16.19-1.26c1.53,1,3.17,2,2.79,4.25c0,0.83-0.08,1.65,1,1.94
			C183.74,118.42,177.2,114.12,170.29,112.39z"/>
		<path fill="#775823" d="M171.58,130.31c2.88-3.57,8.06-4,10.73-7.91c1.34,0,2.72-3.91,4,0l-3.91,3
			C178.9,127.29,176,130.5,171.58,130.31z"/>
		<path fill="#8C6428" d="M190.36,113.45c-5.4-6.9-11.87-6.94-19-3c1.9-2.53,3.62-5.26,7-6.08l4.82,0.23
			c1.15,1.2,2.69,0.65,4.06,0.9C189.9,107.53,193.12,109.33,190.36,113.45z"/>
		<path fill="#F0CC66" d="M51.28,82.34l7.24-2.81c5.09-1.58,8,1.61,10.88,4.92c1.64,0.81,3.22,1.65,2,3.92
			c0.31,3.37-2.17,6.36-5.54,6.67c-0.97,0.09-1.96-0.05-2.86-0.42c-2.54-1.1-4.64-1.5-6.58,0.83c-1.23-1.2-1.31-2.3,0.45-3
			c2.2-0.82,3.92-2.12,3.39-4.65s-2.34-3.8-4.72-4.44C54.13,83,52.7,82.68,51.28,82.34z"/>
		<path fill="#4E3312" d="M71.44,88.37l-2-3.92l1-1c1.66-0.29,1.85,0.85,2,2c0.83,2,2.51,3.81,2,6.28L71.44,88.37z"/>
		<path fill="#D3A745" d="M88.31,80.52l2.16,2.83c2,3.12,5.92,5.45,4,10.1c-1.77,1.28-3.91,1.95-6.1,1.9
			c-3-1.06-6.36-1.54-7.88-4.95c-0.31-0.35-0.41-0.84-0.26-1.29c4.88-5.17,4.87-5.17,1.23-12c-0.35-0.57-0.35-1.29,0-1.86
			C85.55,74.61,86.87,77.64,88.31,80.52z"/>
		<path fill="#906935" d="M94.43,93.45c0.65-4.14-2.82-6.66-4-10.1c0.29-0.02,0.57,0,0.85,0.07c2.25,2.28,4.01,5,5.14,8L94.43,93.45
			z"/>
		<path fill="#D5AE60" d="M85.42,98.47c1.34,0.08,3.48-0.86,3.65,1.12c0.22,2.55-2.18,1.54-3.6,1.73
			C85.45,100.37,85.44,99.42,85.42,98.47z"/>
		<path fill="#F9F1A2" d="M80.27,89.48c0,0.31,0.11,0.61,0.18,0.92l-0.91,0.93l-4.89-6c-2.54-2.16-5.46-4.07-5.33-8
			c3.27-1,4.64,1.59,6.29,3.47c1.25,1.5,2.33,3.14,3.22,4.88C79.39,86.9,80.26,88,80.27,89.48z"/>
		<path fill="#966F33" d="M69.44,77.46l5.21,7.87l-2.26,0.12l-2-2c-0.8-2.21-5.06-4-0.9-6.84c0.27,0.22,0.35,0.43,0.24,0.62
			S69.55,77.46,69.44,77.46z"/>
		<path fill="#826127" d="M139.41,138.55c-0.68-0.56-1.24-1.72-0.25-1.83c5-0.55,10-0.86,15.08-1.06c0.63,0,0.2,1.06,0,1.62
			C149.34,138.41,144.37,138.44,139.41,138.55z"/>
		<path fill="#C9A041" d="M137.32,76.44c-0.3-0.26-0.6-0.52-0.91-0.77c6.2-4.28,19.68-4.7,24,3.76c0.33,2.42,0.76,4.83,1,7.26
			c0.76,8.82-6.64,16.62-15.78,16.69c-0.11-0.61-0.23-1.22-0.34-1.83c2.71-3.55,5.48-7.06,9.71-9.08c0.38-0.54,0.78-1.06,1.22-1.56
			c3.79-3.55,1.36-6.7-0.64-9.87c-5.25-3.23-11.32-2.7-17.05-3.72C138.08,77.09,137.67,76.8,137.32,76.44z"/>
		<path fill="#DFC161" d="M141.46,96.38c1.22,1.12,0.67,2.68,1,4c-3.8,1.21-8.22-0.17-11.53,3.5c-1.41,1.57-4.29,0.62-6.52,0.27
			c-0.06,0-0.14-0.28-0.11-0.41c0.06-0.15,0.15-0.29,0.27-0.4c2.7-1.8,6.85-1.49,8-5.5c0.69-1.34,1.25-2.8,2.92-3.27
			C137.66,94.18,139.87,94.86,141.46,96.38z"/>
		<path fill="#526F63" d="M134,98.1c-1.61,4.5-5.13,5.59-9.44,5.27l-2-1.06l-1.08-2.14c3.7-0.79,7.78,0.31,11.09-2.32
			C133.06,97.78,133.56,97.87,134,98.1z"/>
		<path fill="#E1E8EE" d="M132.46,98.5c-3.11,4.2-7,3-11,1.67l-1.13-3.59c-1.34-4.64-0.39-8,2.87-10.06s6.53-1.33,10.13,2.21
			C135.26,92.18,134.85,95.43,132.46,98.5z"/>
		<path fill="#6C8176" d="M132.39,89.4c-2.25-2.72-5-3.74-8.31-2.19c-4.16,1.94-3.81,5.72-3.75,9.37c-3.3-2.19-1.72-5.1-0.63-7.42
			c1.46-3.44,5.08-5.44,8.77-4.85c0.3,0.11,0.63,0.18,0.95,0.18c1.39,0.01,2.71,0.64,3.58,1.73c0.76,1,1.24,2,0.56,3.28
			c-0.31,0.3-0.8,0.29-1.1-0.02C132.43,89.45,132.41,89.43,132.39,89.4z"/>
		<path fill="#82622A" d="M164.27,106.35c0.15-2.07,1.61-3.14,3.58-4.49c0.55,3.79,1.58,7.26-2.52,9.55
			C163.63,110,164.67,108,164.27,106.35z"/>
		<path fill="#F3E9A3" d="M142.53,92.42c-0.15-0.25-0.27-0.52-0.37-0.79c-3.07-2.92-3.78-6.67-3.77-10.68
			c3.72-4.52,7.51-3.49,10.07,2.72c0.25,2.16,0.33,4.35,0.6,6.52C147.74,93.43,145.92,95.23,142.53,92.42z"/>
		<path fill="#F1DF8C" d="M133.77,89.46c-0.47-1-0.94-1.95-1.42-2.92c-0.81-4.07,0.88-6.19,5-6.44c1.55,1.63,1.63,3.68,1.66,5.75
			c-2.38,2.81-2.82,5.29,1.22,7c0.41,0.11,0.76,0.36,1,0.71l0.21,2.83l-6.11-1C133.93,93.62,134.23,91.44,133.77,89.46z"/>
		<path fill="#DEBD58" d="M156.3,93.4c-5.06,0.86-6.48,6.66-11.08,8.15c-0.59-2.04-1.18-4.08-1.75-6.13
			c3.16-0.17,4.33-3.91,7.46-4.16C153,91.18,155.13,91.14,156.3,93.4z"/>
		<path fill="#AF9049" d="M141.25,93.55c-0.26-0.1-0.53-0.18-0.8-0.22c-1.89-1.94-2.9-4.15-2-6.91c0.23-2.1-0.72-3.93-1.33-5.84
			c-0.76-0.9-1.82-1.71-0.93-3.1l1.15-1h1.08c1.73,1.41-0.22,3.5,0.92,5c0.94,3.39,1.89,6.78,2.84,10.16
			C141.85,92.27,141.55,92.91,141.25,93.55z"/>
		<path fill="#EED979" d="M150.53,92.39c-1.69,0-1.9,1.35-2.52,2.49c-1.18,2.2-2.88,1.51-4.54,0.54c-0.31-1-0.62-2-0.94-3
			c2.47,0.81,4.5,0.35,5.83-2c0.34-0.28,0.8-0.35,1.21-0.18C150.32,90.74,150.86,91.38,150.53,92.39z"/>
		<path fill="#C89C48" d="M92.62,68.42l2-2.83c0.53-2.15,1.44-4.18,2.7-6c3.47-0.87,4.46,1.82,5.62,4.06
			c0.96,1.68,0.45,3.83-1.17,4.89c-1.91,1.53-3.9,2.52-6.35,1C94.53,69.07,93.59,68.7,92.62,68.42z"/>
		<path fill="#EDE590" d="M103.53,59.35c1.36-1.66,2.69-0.45,3.9,0.16c3.55,1.8,7.78,2.06,10.9,4.81c-1.58,1.92-3.19-0.2-4.78,0
			L103.53,59.35z"/>
		<path fill="#735127" d="M97.29,59.57c0,2.43-0.51,4.6-2.7,6l-1.34-1.36l1.27-2.79l1.83-2.95L97.29,59.57z"/>
		<path fill="#A67E37" d="M76,70.4l2.48-1.92c3.65,0.19,7.31,2.57,11,0c2.47,3.32,3.17,6.61-0.23,9.79
			c-4.58-1.51-8.69-4.34-13.69-4.69c-0.56,0-0.67-1.37-0.11-2.14L76,70.4z"/>
		<path fill="#C19B4A" d="M89.39,68.47c-3.65,4.5-7.3,2.52-11,0c2.49-4.73,5.53-4.32,8.88-0.94C87.74,68.44,88.62,68.33,89.39,68.47
			z"/>
		<path fill="#735127" d="M75.36,71.43c0.28,0.56,0.65,1.64,0.83,1.61c5.43-1,8.81,3.1,13,5.23c-0.29,0.75-0.57,1.5-0.85,2.25
			c-2.61-1.23-3.52-4.85-6.93-5c-2.71,1.72-5.38,1.82-8-0.19L75.36,71.43z"/>
		<path fill="#E3C66F" d="M136.17,77.48l0.93,3.09c-3.11,0.78-3.88,3.41-4.75,6l-2.93-2.05C130.34,81.19,132.88,78.54,136.17,77.48z
			"/>
		<path fill="#FEFDCC" d="M91.38,55.46c0.72,1.43,2.19,3,0.44,4.41c-1.08,0.87-2.23-0.16-2.79-1.24c-1.32-2.56,0.92-2.6,2.37-3.16
			L91.38,55.46z"/>
		<path fill="#FCF8CE" d="M53.56,94.37l-4.24-5.72C52.7,89.17,53.53,90.29,53.56,94.37z"/>
		<path fill="#EDC85E" d="M73.38,75.38l8,0.19c0.17,0.28,0.36,0.55,0.57,0.8c6.68,7.34,6.64,7.63-1.68,13.11
			c-1.13-0.59-1.86-1.73-1.92-3c-0.36-0.86,0.08-1.59,0.36-2.36c1.45-4,0.72-5.43-3.3-6.33c-1.42-0.32-3,0-4.1-1.39L73.38,75.38z"/>
		<path fill="#F7E27A" d="M71.31,76.39c1.47,0,3,0.1,4.42,0.06c2.71-0.09,4.33,1.6,5.34,3.69c1.42,2.94-1.71,4.25-2.72,6.33
			c-3-3-4-7.87-8.91-9c-0.04-0.3-0.01-0.6,0.08-0.89L71.31,76.39z"/>
		<path fill="#735127" d="M58.36,73.29c2.12-0.14,4.18-0.79,6-1.9c3.05,0,5.94-1.56,9.05-0.86c-5.19,1.9-10.36,3.91-16,3.91
			L58.36,73.29z"/>
		<path fill="#D1A552" d="M88.71,64.85c-4.1-1.34-4.47-3.29-4.24-6.07C87,59.86,86.87,62.2,88.71,64.85z"/>
		<path fill="#E3C56A" d="M139.32,81.47c-1.45-1.46-0.67-3.34-0.92-5c5.79-0.63,11.24,1.47,16.86,2.17
			c0.87,0.11,2.06,0.59,0.91,1.91c-3.02,1.09-5.93,2.47-8.69,4.1C145.45,78.73,142.75,77.69,139.32,81.47z"/>
		<path fill="#727B5E" d="M147.48,84.63c1.69-3.93,4.78-4.89,8.69-4.1c4.58,4.92,4.67,8,0.34,11c-0.35,0.31-0.87,0.34-1.26,0.09
			c-0.45-1.32,0.62-2.1,1.11-3.08c0.74-1.14,0.59-2.65-0.35-3.63c-0.92-0.99-2.35-1.33-3.62-0.86c-1.55,0.53-1.67,1.85-1.58,3.23
			c0.08,0.66,0.08,1.34,0,2c-0.23,0.7-0.8,1.22-1.52,1.38c-0.3-0.07-0.6-0.15-0.89-0.26C147.63,88.58,147.32,86.6,147.48,84.63z"/>
		<path fill="#61705A" d="M155.13,91.23l1.38,0.31l-0.21,1.86c-1.78-1.13-3.83-0.79-5.77-1c-0.43-0.58-0.85-1.17-1.28-1.76l0.75-1.2
			C152,89.26,153.82,89.49,155.13,91.23z"/>
		<path fill="#83A99C" d="M133.77,89.46c1.39,1.73,1.58,3.78,1.58,5.88L134,98.1l-1.55,0.4c1.31-2.9,1.28-6.22-0.07-9.1
			L133.77,89.46z"/>
		<path fill="#FBF4BE" d="M138.43,86.42c0.67,2.31,1.33,4.62,2,6.91c-3.63,0.89-4.33-1.88-5-4.27S136.59,86.36,138.43,86.42z"/>
		<path fill="#D5E6EA" d="M155.13,91.23c-1.83-0.16-3.6-0.78-5.13-1.8c-0.81-2.26-1.51-4.58,0.79-6.37
			c1.38-1.02,3.22-1.18,4.76-0.42c1.85,0.79,2.61,2.37,2.67,4.41C158.29,89.34,156.52,90.11,155.13,91.23z"/>
	</g>
</g>
</svg>
