<?xml version="1.0" encoding="utf-8"?>
<!-- Generator: Adobe Illustrator 25.2.1, SVG Export Plug-In . SVG Version: 6.00 Build 0)  -->
<svg version="1.1" id="Layer_1" xmlns="http://www.w3.org/2000/svg" xmlns:xlink="http://www.w3.org/1999/xlink" x="0px" y="0px"
	 viewBox="0 0 504 618.67" enable-background="new 0 0 504 618.67" xml:space="preserve">
<path fill="#866B36" d="M318.27,490.34L269.75,546c-1.14-0.42-1.98-1.39-2.22-2.58c4.77-13.33,16.74-21.51,23.74-33.27
	c1.86-2.57,4-4.93,5.83-7.49c5.22-10.21-3.12-8.33-7.91-8.31c-29.2,0.11-58.41-0.93-87.61,0.72c-6.16-2-9.16-7.12-12.23-12.29
	c-2.95-5-0.24-6.84,3.92-8.25c26.87-2.21,53.79-0.72,80.68-0.91c15.16-0.11,30.33-0.88,45.5-0.13
	C325.82,479.57,321,484.88,318.27,490.34z"/>
<path fill="#836833" d="M454.49,509.79c-11.13,18.4-26.83,33.19-40.61,49.37c-7.48,8.78-8.41-4.41-12.12-7.94
	c-0.86-0.97-0.91-2.42-0.11-3.44c5-1.8,6.91,3.61,10.33,4.78c7.11-12.35,17.52-21.8,25.64-33c1.68-2.32,5.14-4.39,3.33-7.73
	c-1.7-3.12-5.42-2.15-8.33-2.14c-19.95,0.09-39.91-0.57-59.86,0.54c-7.64-6.2-17.15-11.31-14-23.84c16.77-4.47,33.73-1,50.62-1.24
	c1.53,0.21,3.01,0.66,4.39,1.34c10,6.2,21.15,5.34,32.19,5.58c4,0.09,9.18-2.2,11.59,2.68
	C460.18,500.14,459.24,505.52,454.49,509.79z"/>
<path fill="#CCB177" d="M354.51,323.39c8.63-15.54,10.88-32.36,10.62-49.88c-0.3-20.3,0.17-40.61,0-60.91
	c-0.07-8.13,1.77-14.53,10.58-16.84c3.41-1.64,6.23-4.77,10.54-4.13c18.57,0.45,37.13,0.1,55.7,0.29c6,0.06,12.18-0.73,17.5,3.17
	c2.28,5.33,1.3,10.81,0.71,16.27c-4.43,4.66-10.29,3.86-15.81,3.9c-19.87,0.15-39.75-0.08-59.62,0.17c-4.3,0-9.77-2.47-12.55,3.53
	c-0.41,2.74-0.31,5.49-0.47,8.24c0.1,3.51,0.06,7,0,10.53c0.13,4.27,0.1,8.54,0,12.8c0.09,4.26,0.12,8.52,0,12.78
	c0,4.21,0.08,8.42-0.05,12.62c0,2.75,0.11,5.5,0,8.24c0,3.34,0,6.69-0.34,10c-0.35,3.88-1.67,7.56-2.46,11.35
	c-0.98,4.3-2.34,8.51-4.07,12.57c-1.43,2.87-3.84,5.14-6.79,6.4C356.73,324.71,355.43,324.3,354.51,323.39z"/>
<path fill="#A88A51" d="M195.39,440.91c3.25-15,6.05-30,10-44.81c1.88-7.12,1.56-13.33-1.9-19.58c-0.27-4.48-5-8.42-1.63-13.35
	c3.3-3.3,7.58-4.07,11.91-4.14c25-0.43,50-0.48,75,0c4.34,0.09,8.57,1,12.2,3.64c4.79,4.52,3.27,10.19,2.82,15.65
	c-4.93,4.85-11.29,3.78-17.24,3.84c-19.53,0.21-39.07,0.26-58.6,0c-8.29-0.11-13.23,3-14.69,11.19c-1.58,5.18-3.13,10.37-4.38,15.65
	c-1.33,4.28-1.84,8.74-2.83,13.09c-1,3.6-1.82,7.27-2.82,10.89c-1,3-1.87,6.1-4.22,8.43C197.8,441.91,196.42,441.72,195.39,440.91z"
	/>
<path fill="#CBAF73" d="M151.8,211.38c4.93,0.68,5.4,4.28,4,7.67c-7.29,17.4-10.32,36.36-19.6,53c-1.02-0.72-1.8-1.74-2.21-2.92
	c-0.4-1.84-0.36-3.75,0.1-5.58c0.83-3,1.77-6,2.69-8.95c1.93-6.69,5.17-13,5.6-20.09c-1.31-7.54-7.37-6.1-12.23-6.15
	c-20.22-0.2-40.43,0-60.65-0.11c-5.14,0-10.35,0.33-15.33-1.64c-1.42-0.67-2.6-1.78-3.35-3.16c-1.06-4.84-2.1-9.68,2.44-13.5
	c7.34-3.65,15.26-2.59,23-2.47c22.89,0.37,45.81-1.39,68.67,1.1C147.32,209.25,149.62,210.19,151.8,211.38z"/>
<path fill="#B19359" d="M333.89,343.86l2.62-2c5.17-3.12,9.76-7.35,16-8.36c17.65-0.77,35.31-0.6,52.95-0.15
	c8.55,0.22,15.95,2.51,12.18,14c-2.41,2.66-3.3,6.72-7.29,7.91c-6.3,2.56-7.79,9.95-13.36,13.25h0.07c-7.49,0-8.52-7.4-12.89-10.93
	c-3.74-2.84-7.92-5.04-12.38-6.5c-9.7-0.39-19.16,0.13-27,6.87l0.2-0.09c-3.95,1.89-5.75,10.25-10.32,6.77
	c-3.09-2.35-5.07-9.36-3.42-15C331.83,347.62,333.17,345.86,333.89,343.86z"/>
<path fill="#CEBD8E" d="M167.11,107.21C164.75,95.52,162.39,83.82,160,72c4.69-0.7,7.37,1.45,10,3.59c5.6,5.64,13,8.46,19.64,12.4
	c11.13,6.56,13.7,24.6,4.67,33.64c-5.2,5.2-12.39,2.06-18.64,2.2c-5.66,0.12-6.23-5-7.08-9.28
	C168.15,112.11,169.28,109.32,167.11,107.21z"/>
<path fill="#CDB883" d="M151.8,211.38l-5.48,0.13c-7.72-2.69-12.43-8.95-17.55-14.75c-4.25-6.29-9.53-11.71-14.62-17.29
	c-5.34-11.35-14.53-14.35-26.56-14.2c-11,0.14-22.5,3.12-33-3c-0.55-8,0.27-15.64,5.11-22.4c6-0.75,12,0.72,17.94-0.06
	c14.33-1.89,25,2.1,29.86,16.82C120.5,176.24,135.33,194.57,151.8,211.38z"/>
<path fill="#B5975C" d="M144.42,328.7l15.1,26c-12.64-6.13-23.2-0.81-33.85,3.35c-0.91-1.02-1.18-2.45-0.71-3.73
	c4.09-7.48,12.5-6.41,19.66-9.5c-3.24-7.11-9.38-6.85-15.17-7.13c-14.14-0.7-28.36,1.19-42.47-1.16c-4-0.89-3.85-5.25-6.23-7.51
	l0.12,0.18c-7.12-12-6.11-13.9,8.19-14.49c7.82-0.32,15.71,0.53,23.47-0.23C126.09,313.13,137.38,315.9,144.42,328.7z"/>
<path fill="#C1A56A" d="M320.82,308.2c-2.86-2.84-2-6.59-2.5-10c-2.81-3.92-2.93-9-5.68-13c-4.55-2-7.58-6.74-12.93-7.39
	c-3.29-1-6-3.09-9.45-4c-9.95-2.58-10-7.3-1.79-12.83c14.63-1.33,29.24-1.93,43.83,0.42c1.39,0.61,2.56,1.63,3.36,2.92
	c2,4.8,0.32,10.12,2,15c0.47,4.13,0.52,8.29,0.16,12.43C332.59,297.64,333.31,309.75,320.82,308.2z"/>
<path fill="#CFBE90" d="M272,107.08c0.51,11-7.57,16.45-15.48,20c-5.82,2.61-10-2.85-11.11-9.17c-7.48-4.65-8.6-10.83-4.48-18.34
	c3.26-5.94,4.56-12.62,7-18.87c-0.62-5.15,1.5-9.31,4.76-13.06c6.24-0.43,6,5.16,7.45,8.61C264.39,86.4,268.29,96.71,272,107.08z"/>
<path fill="#E1D1AB" d="M292,217.13c-29.57-3.69-59.26-6.7-88.66-11.44c-11.12-1.79-19.69-6.7-18.62-22.76
	c2.08-31.29,1.08-33.13,30.93-25.7c34.33,8.54,69.56,13.6,103.07,25.44c-1.43,1.77-3.49,2.93-5.75,3.22
	c-13.94,0.17-27.41-2.82-40.8-6.27c-8-4.94-17.41-4.75-26.17-6.91c-11.34-2.8-23-4.18-34.09-8.13c-17.65-6.26-20-4.33-20.33,14.57
	c0.77,5.51-2.62,12.36,5.1,15.63c23.46,3.55,46.18,10.92,69.91,12.9c8.55,1.53,17.4,1.68,25.43,5.55c1.07,1.04,1.09,2.76,0.05,3.83
	C292.05,217.09,292.02,217.11,292,217.13z"/>
<path fill="#C2A569" d="M302.83,378.47c-0.53-4.42,1.7-9.35-2.44-13.1c-3.55-4.47-3.68-10.05-5-15.24c-1-5.25-1.73-10.57-3.08-15.77
	c-0.69-4.66-1.8-9.25-3.3-13.72c-1.94-6.63-7.91-5.44-12.67-6.52c-16.39-3.74-33.38-1-49.79-4.66c-5.53-1.24-11-2.17-13.82-8
	c-2-4.66-2-9.56-1.75-14.5c0.26-2.75,0.85-5.37,2.9-7.43c1.06-0.88,2.62-0.76,3.54,0.27c-0.84,20.6-0.84,20.6,24.88,20.72
	c6.45,4.89,15.11-0.4,21.52,4.66c33.47,3,30.06-1.9,36.67,34.88c7.56,42,15.28,84,22.35,126.13c1.36,8.09,6.83,18-4.53,24.12
	c-0.15-5.32,4.18-9.82,2.86-15.36c-2.87-2.75-4.19-6.27-5-10c-0.4-1.84-0.66-3.7-0.79-5.57c-0.07-4.35-1.65-8.44-2.35-12.68
	c-0.57-3.68-1.35-7.33-2.36-10.92c-0.92-4.38-2.33-8.65-2.93-13.1c-0.35-3.21-0.4-6.44-0.69-9.66c-0.78-6.42-2.39-12.67-3.75-19
	C302.5,388.87,300.53,383.72,302.83,378.47z"/>
<path fill="#BEA064" d="M214.06,284.58c0,5.22,0.03,10.44,0.1,15.65c-0.48,6-5.49,6-9.37,6.1c-12.68,0.36-25.43,1.82-38-1.18
	c-2.39-0.91-3.42-3.35-5.34-4.79c-2.54-2.17-6.15-4-2.62-8.12c3.29-2.94,1.17-9.78,7.55-10.53
	C182.36,281.07,198.56,277,214.06,284.58z"/>
<path fill="#CEBD8E" d="M459.31,211.53c0-5.22,0-10.44,0-15.65c-4.17-2.31-5.59-6.12-5.78-10.6c-0.28-4.08-0.17-8.18-0.24-12.27
	c-0.11-5.34-2-10.4-2.61-15.65c-1.54-7.12-2.9-14.27-4.51-21.37c-0.68-3.35-1.26-6.72-1.88-10.08c-2.22-12-5.28-23.39-19.37-26.84
	c1.4-8.37,3.8-16.54,4.63-25c0.23-2.33,1-4.13,3.89-3.55l0,0c2.53,7.87,5.28,15.67,7.91,23.51c9.39,22,14,45.27,17.28,68.64
	c5.93,41.83,5.7,83.6-7.29,124.41c-3,9.32-4.65,19.4-12.29,26.64c-1.01-0.61-1.75-1.58-2.05-2.72c-0.16-1.16-0.12-2.33,0.1-3.48
	c1.25-4.39,2.83-8.69,4.72-12.84c1.09-2.57,2.03-5.2,2.84-7.88c0.92-2.7,1.74-5.42,2.53-8.16c1.1-3.39,1.6-6.92,2.46-10.36
	c1.32-4.16,1.41-8.55,2.43-12.77c1.85-5.58,1.1-11.44,1.82-17.14c0.14-1.3,0.38-2.59,0.72-3.86c1.87-5.06,1.25-10.39,1.62-15.61
	C456.43,216.17,457.5,213.58,459.31,211.53z"/>
<path fill="#C7AA6F" d="M164.62,284.56c-3.37,1.47-1.75,6.72-5.8,7.68c4.35-20.36,14.33-38.69,21-58.2c2-5.92,7.46-5,10.85-3.56
	c17.28,7.59,35.86,8.41,54,10.64c13,1.6,16.07,6.95,11.57,18.48c-0.9,2.32-0.29,5.21-2.55,7.08l-1.59-1.21
	c-1.05-1.66-1.7-3.54-1.88-5.5c-1.27-13.78-13.65-10.81-20.9-11.53c-12.68-1.25-25.77,0.26-38.68,0.61
	c-6.31,0.17-10.32,3.77-12.93,9.22c-2.32,4.36-3.67,9.12-5.7,13.59S168.65,281.24,164.62,284.56z"/>
<path fill="#CCB57D" d="M456.69,172.4c0,4.34,0.03,8.67,0.1,13c-7.16,5.68-15.64,3-23.59,3.75c-16.47,1.47-33.49-3.67-49.44,4.08
	l-8.07,2.51c2.9-6.4,6.8-12,13-15.61c4.16-10.24,11.37-13.67,22.47-12.05c10.16,1.49,20.61,0.29,30.93,0.47
	C447.26,168.67,452.51,168.55,456.69,172.4z"/>
<path fill="#CDB780" d="M456.69,172.4c-18.46-0.92-37,1.81-55.41-1.59c-7.54-1.4-6.69,8.51-12.58,9.34
	c0.55-7.19,5-11.76,10.51-15.62c2.89-8.72,9.44-12.19,18-11.6c12.31,0.85,25.2-3.45,36.84,3.82
	C454.95,161.97,455.83,167.19,456.69,172.4z"/>
<path fill="#B89B60" d="M144.42,328.7c-17.06-11.85-17.06-11.85-65.57-9.84c-2.33,4,3.55,6.52,2,10.33
	c-3.85-2.28-6.66-5.97-7.85-10.28c0.14-5-6.51-9.41-1.47-15c17-4.78,34.28-2.13,51.47-1.74c4.86,1.09,7.59,5,10.75,8.27
	C137.31,316.55,140.87,322.63,144.42,328.7z"/>
<path fill="#CDB985" d="M107.48,156.67C100.16,142.15,87,143,73.74,143.56c-4.53,0.19-9.67,1.79-13.51-2.5
	c-3.62-7.74,0.3-14.58,2.55-21.63c7.84-4.56,16.06-3.18,24.31-1.63c7.6,3.6,6.62,12,10,18C102.61,141.73,105.38,149,107.48,156.67z"
	/>
<path fill="#CDB883" d="M454.1,156.75c-12.47,0-25,0.46-37.39-0.19c-7.64-0.41-13.27,1.78-17.5,8c-0.18-4.42,1.06-8.15,5.15-10.47
	c5.07-6,4.34-15.51,12.18-19.8c10.77,1.3,21.74-1.48,32.42,1.63C450.67,142.85,452.39,149.8,454.1,156.75z"/>
<path fill="#A78F55" d="M354.73,491.23c-7.2-26.75-10.1-54.32-15.48-81.41c-0.79-2.67,0.52-3.43,2.92-3.19
	c20.67,23,37.93,48.92,59.91,70.83c0.86,0.91,0.83,2.35-0.07,3.23c-7.69,1.29-10.95-4.52-14.9-9.25c-6.63-6.88-12-14.8-18.52-21.81
	c-6.16-8.37-13-16.16-20-25.75c1.79,10.28,2.12,19.43,4.6,28.28c1.94,7.59,2.29,15.46,4.28,23c0.66,2.71,0.86,5.52,0.58,8.3
	C357.12,486.16,356.78,489.06,354.73,491.23z"/>
<path fill="#CFBF92" d="M63,120.25c-0.32,7-4,13.6-2.73,20.82c-3.82,6.45-3.9,13.81-5.09,20.9c5.06,6.73,0.52,13.86,0.9,20.79
	c0,4.94,0,9.88-0.17,14.82c-0.01,2.79-0.45,5.56-1.28,8.22c-4,5.86-4.93,12.08-2.25,18.74h0.1c3.16,3.61,3.58,8,3.49,12.48
	s0.23,8.84-1.1,13.14c-0.51,1.39-1.44,2.6-2.65,3.46c-4-11.59-4.57-23.84-4.42-35.73c0.58-47.06,7.92-93,25.24-137.08
	c1.08-0.82,2.61-0.61,3.43,0.46c0.03,0.04,0.07,0.09,0.1,0.14C75.47,95.57,73,109.23,63,120.25z"/>
<path fill="#DDD3B6" d="M351.29,71.3c-3.19,16.42-6.54,32.36-9.3,48.4c-1.25,7.27-6.57,6.48-10.86,5.73
	c-6.05-1.06-15.29,5.12-17.68-5.14c-5.8-24.82-9.95-25.79,13.19-36.7C334.56,79.86,339.75,70.82,351.29,71.3z"/>
<path fill="#886D38" d="M114.66,468.9c-0.15-0.61,0.04-1.25,0.51-1.66c3-1.93,5.61-4.68,9.57-4.66c10.76,2.21,22.34-1.78,32.61,4.27
	c1.68,5.08,0.51,9.29-3.85,12.52c-13.52,2-27.24,6.42-39.77-3.34C112.97,473.63,113.31,471.02,114.66,468.9z"/>
<path fill="#D0BD8B" d="M313.31,182.93l5.42-0.26c19.49,1.22,20.37,2.14,20.43,21.27c0.08,26.71,0.22,53.42,0.15,80.13
	c0,4.55,1.56,9.59-2.54,13.44c-1.44-1.44-1.44-3.78,0-5.22c0,0,0,0,0,0c0-4.34-0.03-8.67-0.08-13c-2.2-4.38-0.66-9.07-1.17-13.59
	c-3.43-9.62-2.06-19.62-2.35-29.48c-0.06-12.72,0.53-25.45-0.32-38.13c-0.51-1.14-1-2.31-1.5-3.45c-2.36-4.4-6.92-4.68-11-6
	C317.39,187.65,312.92,188.19,313.31,182.93z"/>
<path fill="#E2D9BF" d="M167.11,107.21c5.14,4.14,0.95,15.17,10.81,15.46c6,0.18,14.43,3.37,16.48-5.45
	c1.81-7.8,8.48-15.68-1.64-24.52c-7.26-6.35-19.58-5.78-22.71-17.1c8.95,4.76,18.33,8.9,26.72,14.51c6.1,4.08,6.08,27.09-0.29,32.57
	c-7.11,6.11-16.83,4.26-24.57,1.76C164.4,122,167.88,113.31,167.11,107.21z"/>
<path fill="#8C713B" d="M354.73,491.23c0.16-2.8,0.32-5.6,0.49-8.4c4.17,0.14,4.22,2.25,2.5,5.21c3.38,8.32,8.3,15.48,15.63,20.83
	c11.61,8.59,18.65,21.19,27.88,31.87c1.82,1.99,2.16,4.93,0.84,7.28l-0.3,3.2C384.69,532.31,368,513.1,354.73,491.23z"/>
<path fill="#9A7D45" d="M190.7,477.59c0.51,7.19,4.51,12.06,10.42,15.65c5.84,1.94,8,7.65,11.9,11.58c2,2.06,3.87,4.25,5.59,6.55
	c2.78,5.24,8.31,8.54,10.2,14.42c0.16,1.94-0.24,3.66-2,4.81c-12.11-13.73-24.12-27.6-36.41-41.15c-7.68-8.49-3.26-16.71-0.18-25.09
	c1.12-0.64,2.53-0.36,3.32,0.66C194.99,469.41,193.89,474.25,190.7,477.59z"/>
<path fill="#CDB278" d="M292,217.13c0.08-1,0.16-2,0.25-3c3.94-0.9,4.5,2.12,5.46,4.68c0.86,4.8-0.09,9.41-1.45,14
	c-0.77,4.41-2.36,8.64-3,13.08c-0.55,3.76-1.38,7.47-2.46,11.11c-0.48,2.53-1.73,4.86-3.57,6.66c-3.07,3-3.57,7,1,7.14
	c6,0.13,9.43,4.86,14.61,5.9c0.77,0.7,1,1.38,0.71,2s-0.57,1-0.84,1c-23.61-5.11-23.21-5-17.34-28.42
	C288.23,240.08,292.46,229,292,217.13z"/>
<path fill="#A0854C" d="M154.11,477.59c1.84-3.23,3-6.61,2.54-10.41c-2.08-4.6-0.12-9,0.66-13.46c1.39-3.7,1.38-8.11,5.21-10.62
	c4,0.88,3.65,3.36,2.27,6.2c-2,26.49-12.61,49-31.37,67.78c-1.49-1.19-2.34-3.01-2.3-4.92c0.06-1.23,0.33-2.44,0.78-3.59
	c4.65-6.85,9.77-13.38,15.32-19.52C150.52,485.83,150.76,480.77,154.11,477.59z"/>
<path fill="#AD955A" d="M122.75,464.46l-7.57,2.78c13.88-16.53,25.2-35.21,41.61-49.63c0.8-0.85,2.14-0.88,2.98-0.08
	c0.03,0.02,0.05,0.05,0.08,0.08c-0.39,8.57-8.44,12.43-11.79,19.19c-4.13,4-7.31,8.79-10.74,13.37
	C132.12,454.61,129.86,462,122.75,464.46z"/>
<path fill="#806530" d="M226.83,530.59c0.12-2,0.24-4.02,0.35-6.05c14.06,5.73,19.06,20,28.5,29.69c-0.77,2.13,1.86,0,0.19,0.5
	c1.18-7.32,4.59-11.64,12.8-9.5c0.33,0.29,0.69,0.55,1.07,0.77c-16.14,18-16.52,18.27-30.58-0.82
	C235.32,540,230.39,535.9,226.83,530.59z"/>
<path fill="#E2DAC1" d="M75.84,80.94L73,80.82c-0.85-7.77,3.82-13.77,7.24-23c3.23,18.9,6.05,35.37,8.87,51.84
	c-0.95,0.76-2.26,0.89-3.35,0.34C79.12,101.43,80.06,90.3,75.84,80.94z"/>
<path fill="#B29459" d="M417.68,347.29c0.67-9-4.57-10.75-12.2-10.65c-18.54,0.24-37.09,0.08-55.64,0.08
	c-0.99-1.17-0.93-2.89,0.12-4c1.4-1.83,3.61-2.85,5.91-2.74c17.31,0.46,34.63,0.21,51.94,0.34c4.75,0,9.56-0.15,13.94,2.28
	c4.09,3.23-0.53,5.23-1.11,7.8C420.72,343.15,421.56,346.23,417.68,347.29z"/>
<path fill="#C0AD68" d="M159.52,417.79l-2.74-0.19c4-9.9,11.42-17.17,19.78-26.28c2.49,10.87-0.84,18.82-3.84,26.81
	c-1.83-0.82-2.89-2.7-4.76-3.42C164.77,414.77,163,418.78,159.52,417.79z"/>
<path fill="#91763F" d="M65.06,517.64c-4-4.24-7.94-8.52-12-12.72c-5.25-5.46-5.28-11.09-0.73-16.94c7.5-4.75,15.81-1.75,23.7-2.45
	c1.34,0.05,2.65,0.37,3.86,0.94c-1.07,6.63-1.08,6.56-10,7.39c-3.71,0.34-8.65-1.48-10.71,2.45c-2.53,4.83,2.93,7.34,5.08,10.78
	c1.28,1.5,2.22,3.27,2.74,5.17C67.26,514.39,66.87,516.28,65.06,517.64z"/>
<path fill="#866B36" d="M454.49,509.79c4.37-15.88,3.9-16.53-12.61-16.52c-10.14,0-20.32,0.47-29.41-5.28
	c1.6-1.44,3.99-1.55,5.71-0.26c10.22,1.89,20.45,3.66,30.91,3c5.46-0.32,10,0.05,11.88,6.81S459.47,507.22,454.49,509.79z"/>
<path fill="#D7CAA6" d="M433.42,70.54c-5.34,8.87-3.49,19.68-7.77,28.83c4.51,8.84-0.59,15.86-4.35,23.15
	c-1.05,0.96-2.64,1.05-3.79,0.21c1.75-18.57,10.72-35.7,10.83-54.59c1.2-1.42,1.72-4.18,4.58-2.32
	C433.09,67.39,433.25,69,433.42,70.54z"/>
<path fill="#CDB67F" d="M70.57,305.43C70.92,310,74.4,314,73,318.91c-9.17-16.28-16.43-33.22-18.22-52.08
	c-0.75-1.06-0.78-2.47-0.08-3.56c1.19-0.44,2.53-0.3,3.6,0.39c2.75,3.61,2.43,8.18,3.81,12.21c0.79,2.79,1.58,5.58,2.54,8.31
	c0.81,2.71,1.77,5.39,2.86,8C69.25,296.44,71.49,300.57,70.57,305.43z"/>
<path fill="#D0C196" d="M272,107.08c-6.84-8.9-8.86-20-13.39-29.92c-1.59-3.48-2.37-7.32-5.92-9.53c0.45-2.48,0.91-4.95,1.69-9.16
	C261.38,75.45,269.83,90.08,272,107.08z"/>
<path fill="#957A42" d="M81.21,488.2L78,487.78c-1.07-1.79-1-3.38,0.87-4.61c13.79-0.1,24.57-7.75,35.79-14.27
	c0.12,2,0.23,4,0.35,6.06c-5.88,7.3-15.51,8.39-22.61,13.69C88.59,490.53,84.81,491.52,81.21,488.2z"/>
<path fill="#B4995E" d="M80.76,329l5.61,5.12c10.51,8.15,20.44,16.76,24.17,30.32l-1.14,1.43C97.57,355.37,85.76,344.83,80.76,329z"
	/>
<path fill="#BDA065" d="M161.43,300.36l3.31,2.53c7.09,3.24,9.42,10.21,12.83,16.33c3.38,5.42,6.13,11.18,9.07,16.85
	c0.38,1.14,0.54,2.34,0.46,3.54c-0.27,1.17-0.96,2.21-1.93,2.92C175.26,329.59,166.64,315.93,161.43,300.36z"/>
<path fill="#9D7B39" d="M102.65,553.53c-0.3,4.44-1.42,7.15-5.53,2.33c-7.33-8.59-14.56-17.27-21.83-25.9c0.8-0.92,1.9-1.52,3.1-1.7
	c11.32,2.51,14.63,13.59,21.9,20.45C101.45,550.11,102.26,551.76,102.65,553.53z"/>
<path fill="#D0C196" d="M247.93,80.69c0.7,5.85-1.32,11.39-4.06,16c-4.68,7.87-3.86,14.5,1.54,21.22
	c-9.76-2.24-11.13-8.51-7.06-16.33C241.89,94.75,242.48,86.6,247.93,80.69z"/>
<path fill="#B4965B" d="M185.17,342.52c0.14-1.06,0.28-2.12,0.41-3.18c6.29,0.11,6.11,6.49,9.34,9.58
	c2.93,5.17,7.09,9.89,6.25,16.49c1.89,3.47,3.14,7.06,2.27,11.1C196.77,365.49,188.78,355.18,185.17,342.52z"/>
<path fill="#C4A66B" d="M133.74,310.49l-8.26-5.09c-2.53-2.63-2.89-5.79-2.29-9.2c1-3.67,1.76-7.38,2.84-11
	c1.27-3.46,3.09-6.7,3.94-10.33c1.25-2.64,1.22-6.56,5.8-5.93c0.14,1,0.27,2.09,0.41,3.13c0.41,4.38-1.14,8.27-2.88,12.17
	C129.39,293,127.92,301.83,133.74,310.49z"/>
<path fill="#B79E63" d="M333.89,343.86c-1.73,6.43-1.28,13.24,1.27,19.39c4.44,0.78,4.78-7.32,9.83-5.41
	c-0.46,7.51-7.35,8.13-13.41,14.88C333.29,360.62,323.08,351.87,333.89,343.86z"/>
<path fill="#C7AA6F" d="M253.75,266.68c-2.7,10.09-9.6,13.43-19.52,12.78c-5.59-0.37-11.23,0.21-16.85,0.36l-0.82-0.54
	c-0.68-1.22-0.37-2.76,0.74-3.62c12.23-1.92,24.23-5.11,35.8-9.52L253.75,266.68z"/>
<path fill="#D7C8A7" d="M78.87,483.17c-0.29,1.54-0.57,3.08-0.87,4.61l-25.65,0.2C59.48,477,70,484.8,78.87,483.17z"/>
<path fill="#AD955A" d="M169.73,409.85c3.37,1.91,2.32,5.41,3,8.29c-2.35,10.46-3.5,21.23-7.93,31.17c-0.34-2.17-0.53-4.42-2.8-5.64
	c-1.51-2.52-0.83-5.13-0.32-7.73C164.75,427.37,164.41,417.73,169.73,409.85z"/>
<path fill="#BB9D62" d="M420.64,340.39l2.25-6.28c-0.16-5.76,4.18-9.47,6.43-14.14c3.19-2.94,2.8-9.43,9.11-9.31
	c0.19,1,0.38,2.07,0.58,3.1C434.86,324,431.89,335.05,420.64,340.39z"/>
<path fill="#CEBD8E" d="M417.51,122.73l2.79,0.09c2.12,5.86-1.81,9.35-5.13,13.07c-4.81,5.33-3.09,14.55-10.8,18.15
	C406.85,142.82,412.13,132.76,417.51,122.73z"/>
<path fill="#B59B60" d="M373.33,349.75c10.81,2.58,15.77,12.58,23.77,18.73c-6.4,4.64-8.33-2.48-10.35-5.08
	c-3.78-4.89-8.7-7.54-13.62-10.54C371.83,351.74,371.9,350.7,373.33,349.75z"/>
<path fill="#F4EFE3" d="M263.79,305.21c-7.3-1-15.93,4.2-21.52-4.67C249.49,301.87,258.43,295.26,263.79,305.21z"/>
<path fill="#D1BD85" d="M336.75,292.29v5.22c-1.77,5.68-5.44,10.58-10.4,13.87c-3.87,2.53-5.3,0.68-5.56-3.17
	C330.49,307.26,330.66,296.81,336.75,292.29z"/>
<path fill="#CFBF92" d="M86.37,109.62h2.73c4.12,8.28,7.42,16.81,8,26.16c-4.68-4.16-4.69-10.79-8.21-15.56
	C86.24,117.12,84.2,113.88,86.37,109.62z"/>
<path fill="#B4995E" d="M125.47,355c0.07,1,0.13,2,0.2,3.06c-4,5.6-4.61,18.16-16.27,7.85l0.56-0.7
	C115.34,362.11,117.87,354.7,125.47,355z"/>
<path fill="#B79E63" d="M373.33,349.75c-0.07,1-0.13,2.07-0.2,3.1C363,350.77,354,355,344.78,357.92
	C352.12,347.59,363.13,350.09,373.33,349.75z"/>
<path fill="#D7CAA6" d="M441.32,94.08c-4.52-7.2-8.62-14.55-7.91-23.51C439,77.41,441.13,85.42,441.32,94.08z"/>
<path fill="#9F8249" d="M193.31,464.56l-3.09-0.21c0.52-8.03,2.26-15.94,5.17-23.44l3.13,0.16c1.25,1.23,1.83,2.99,1.57,4.72
	c-0.6,2.77-1.38,5.5-2.31,8.17c-1.2,3.12-1.54,6.53-3.21,9.48C194.16,463.82,193.73,464.19,193.31,464.56z"/>
<path fill="#866A33" d="M78.52,529.68l-3.23,0.28l-10.23-12.32c0.13-2,0.27-4.1,0.4-6.15C74,514.52,80.23,519.26,78.52,529.68z"/>
<path fill="#91763F" d="M123,530.18l-13,15.76c-1.59-1.31-2.43-3.32-2.26-5.38c2.95-7.53,6.43-14.56,15.59-16.08
	C124.27,526.3,124.15,528.48,123,530.18z"/>
<path fill="#B89F65" d="M418.18,487.73l-5.71,0.26l-1.13-0.13h-1.14c-2.73-2.58-7.33-3.23-8.07-7.85c0-0.85-0.05-1.71-0.05-2.56
	C407.57,480.69,415.77,479.68,418.18,487.73z"/>
<path fill="#B59B60" d="M397,368.45c3.94-4.93,4.45-13.32,13.36-13.25C407.13,360.82,404.32,366.9,397,368.45z"/>
<path fill="#957A42" d="M123,530.18c-0.08-1.9-0.15-3.81-0.23-5.71c0-7.07,3.35-11.54,10.38-13.06l0.24,5.68L123,530.18z"/>
<path fill="#B89A60" d="M352.47,331.52l-2.61,2.66c-1.19,1.21-2.24,1.1-3.18-0.31c0.06-5.4,4.39-7.61,7.83-10.48l3.16,0.28
	C359.22,328.45,355.63,329.84,352.47,331.52z"/>
<path fill="#866A33" d="M109.76,540.18l0.27,5.76l-7.37,7.59l-3.36-2.84C101.26,545.68,103,540.45,109.76,540.18z"/>
<path fill="#C9AC71" d="M302.75,279.72c0-1,0.09-2,0.13-3c3.49,2.61,6.98,5.22,10.46,7.84c1.22,1.13,1.14,2.15-0.25,3.08
	L302.75,279.72z"/>
<path fill="#B4965C" d="M346.69,333.87l3.18,0.3c0,0.85,0,1.7,0,2.54c-5.27-0.44-7.93,5.9-13.34,5.11
	C338.79,337.98,342.42,335.14,346.69,333.87z"/>
<path fill="#C3A66B" d="M313.09,287.63c0.08-1,0.17-2.05,0.25-3.08c3.49,3.87,4.43,8.67,5,13.62
	C315,295.45,312.72,292.2,313.09,287.63z"/>
<path fill="#E7E1CD" d="M432.92,65.82l-4.58,2.32c0.4-2.88-2.06-7.23,2-8.15C432.83,59.43,433.05,63.33,432.92,65.82z"/>
<path fill="#CDB985" d="M55.13,263.53l-0.36,3.3c-3.53-3.88-2-8.74-2.58-13.2c0.15-1,0.3-2.11,0.46-3.16
	c2.49-0.19,3.67,1.37,4.51,3.38C58.28,257.21,57.51,260.91,55.13,263.53z"/>
<path fill="#E4DCC0" d="M342.17,406.62l-2.92,3.19c-2.66-2.44-3.36-5.23-1.51-8.47L342.17,406.62z"/>
<path fill="#7F6430" d="M268.68,545.24c-6.83,0.88-9.6,6.8-14.08,11.38l-27.42-32.08c-4.79-3.3-9.77-6.44-10.42-13
	c1.69-2.03,4.14-3.26,6.78-3.41c20.7-0.81,41.4-0.81,62.09,0c2.64,0.15,5.09,1.38,6.78,3.41c-3.12,9.58-11.1,15.68-16.91,23.31
	C273,538.15,269.07,540.52,268.68,545.24z"/>
<path fill="#8A6F39" d="M190.7,477.59c-0.23-4.56,0.12-9,2.61-13h0.08c4.55-4.21,10.28-4.16,15.89-4.18
	c31.13-0.14,62.26-0.14,93.4,0c5.63,0,11.32,0.08,15.93,4.16c1.66,3.28,3.08,6.62,2.52,10.44c-7.46,2.49-15.14,2.7-22.94,2.67
	C262.36,477.51,226.53,477.59,190.7,477.59z"/>
<path fill="#826733" d="M211.56,506.28c-5.34-2.86-6.83-8.8-10.43-13c6.34-3.89,13.39-2.53,20.19-2.57
	c23.69-0.12,47.38-0.12,71.06,0c4.54,0,11.32-2.27,13,2.5c1.88,5.26-3,9.88-7.75,13.08C268.98,508.33,240.21,508.33,211.56,506.28z"
	/>
<path fill="#806531" d="M211.56,506.28c8.12-4.54,17-2.81,25.49-2.43c20.19,0.9,40.6-3.23,60.59,2.43
	c-0.92,2.41-2.82,4.31-5.23,5.22h-75.65L211.56,506.28z"/>
<path fill="#7F6430" d="M402.07,548c-7.24-14.76-21.88-24.1-28.72-39.15c10.58-5.53,21.91-1.76,32.86-2.44
	c10.75-0.67,21.57-0.27,32.36-0.07c3.18,0.06,7.72-1.76,9.06,2.54c1,3.33-1.72,6.44-3.94,9.1c-10.73,12.84-21.47,25.67-32.09,38.36
	L402.07,548z"/>
<path fill="#866B36" d="M402.12,480c3.22,2.07,7.72,2.83,8.06,7.85l-52.47,0.18c-0.09-2.09-0.49-4-2.5-5.21
	c-0.06-2.61-0.11-5.22-0.17-7.83c-2.75-7.5,3.29-8,7.61-8.6c9-1.31,18.11-1.83,26.39,3.32C392.49,474.31,396.36,478.36,402.12,480z"
	/>
<path fill="#C6A96D" d="M456.8,237.6c-1,6.08,2.35,12.77-2.56,18.3c-22.88-2.1-45.83-0.93-68.74-1.29c-6-0.09-12.24,0.54-17.27-4
	c0-4.34,0-8.67,0-13C380.56,231.58,444.36,231.56,456.8,237.6z"/>
<path fill="#C4A66B" d="M368.23,250.66h72.6c5.15,0,10.64-0.84,13.41,5.26c-0.64,4.4,1.64,9.38-2.58,13.08
	c-22-2.13-44.1-1-66.15-1.33c-6-0.09-12.24,0.55-17.27-3.94C368.23,259.35,368.23,255,368.23,250.66z"/>
<path fill="#B4965C" d="M352.47,331.52l5.2-7.85l5.11-5.27c8.87-6.45,19.1-3.53,28.77-3.93c9.01-0.51,18.05-0.37,27.05,0.39
	c4.8,0.48,9.35,1.69,12.13,6.21c-0.61,5.55-4.45,9.16-7.83,13c-18.48,0-37,0-55.43,0C362.29,334.15,357.12,334.38,352.47,331.52z"/>
<path fill="#C2A468" d="M368.24,263.7h70c5.16,0,10.64-0.8,13.39,5.29c-0.4,3.61,1.1,7.67-2.55,10.5c-23.77,2.4-47.6,0.69-71.4,0.94
	c-3.52,0.06-6.93-1.26-9.49-3.67C368.22,272.39,368.24,268.04,368.24,263.7z"/>
<path fill="#B89A60" d="M430.73,321.07c-22.47-5.41-45.32-1.29-68-2.67c0.95-4.32,1.91-8.65,2.86-13c3.77-3.48,8.47-4,13.25-4
	c14.62-0.17,29.24-0.35,43.85,0.1c6,0.19,12.17,0.67,16,6.53c-0.09,0.87-0.18,1.74-0.28,2.61
	C434.82,313.36,436.13,319.7,430.73,321.07z"/>
<path fill="#C9AB70" d="M456.8,237.6h-88.58c0-3.48,0-7,0-10.45c3.41-3.21,7.63-3.86,12.07-3.87c21.69-0.05,43.39-0.3,65.08,0.15
	c6.85,0.14,15.1,0.38,11.49,11.58C456.85,235.89,456.84,236.74,456.8,237.6z"/>
<path fill="#BEA065" d="M446.45,287.23c-0.14,2.83,0.47,5.89-2.5,7.82c-3.04,2.48-6.84,3.84-10.76,3.86
	c-18.1,0.45-36.2,0.45-54.31,0c-3.95-0.1-7.68-1.09-10.7-3.9c0-3.48,0-7,0-10.43c3.37-3.19,7.56-3.84,12-3.86
	c18.06-0.07,36.12-0.23,54.18,0.11C439.15,280.9,445.18,279.93,446.45,287.23z"/>
<path fill="#BB9D62" d="M368.18,295l75.76,0.05c-1.3,4.52-1.8,9.36-5.23,13c-24.2-5.44-48.73-1.4-73.08-2.62
	C366.49,301.95,367.34,298.47,368.18,295z"/>
<path fill="#CCB37A" d="M383.76,193.25c1-5.58,2.91-8.81,10-8.54c21,0.81,42,0.55,63,0.72c0.83,3.48,1.66,6.96,2.5,10.45
	c-21.14,0-42.27,0.06-63.4-0.08C391.75,195.77,387.14,197.22,383.76,193.25z"/>
<path fill="#CAAD72" d="M456.84,235c0.61-8.87-5.64-7.88-11.26-7.88c-25.79,0-51.58,0-77.38,0c0-2.61,0-5.22,0-7.82
	c3.76-3.55,8.45-3.88,13.27-3.89c21.53,0,43.06,0,64.59,0c4.8,0,9.51,0.31,13.26,3.88C458.67,224.6,461.37,230.38,456.84,235z"/>
<path fill="#CCAF74" d="M459.3,219.35h-91.11c0.11-4.48-1.7-8.61,6.78-8.31c28.09,1,56.22,0.44,84.34,0.48
	C459.31,214.14,459.31,216.74,459.3,219.35z"/>
<path fill="#C0A266" d="M446.45,287.23c-4.24-4.56-9.76-2.53-14.71-2.58c-21.17-0.22-42.34-0.09-63.51-0.08v-7.82
	c22.5,0,45-0.1,67.48,0.06c4.54,0,9.64-1.71,13.4,2.67C448.93,282.3,449.39,285.35,446.45,287.23z"/>
<path fill="#9F8249" d="M305.61,394.05c4.11,5.43,2.3,12.47,5,18.3c-14.57,3.53-29.35,1-44,1.42s-29.52,0.24-44.28,0
	c-5.57-0.08-11.43,0.49-15.92-4c-0.84-5.51,1.64-10.43,2.75-15.6C222.25,388.12,292.93,388,305.61,394.05z"/>
<path fill="#A4864D" d="M305.61,394.05l-96.51,0.12c-0.65-16.8,10.28-16.21,22.4-15.89c23.76,0.62,47.55,0.19,71.33,0.19
	C306.08,383.25,305.46,388.72,305.61,394.05z"/>
<path fill="#967942" d="M310.69,422.81c0.89,4.35,1.77,8.69,2.66,13c-4.42,4.58-10.27,4.08-15.8,4.12
	c-26.78,0.19-53.56,0.29-80.34-0.08c-5.93-0.08-13.29,1.7-16.09-6.65c0.39-3.6-1.15-7.68,2.59-10.45c4.19-3.79,9.4-4.09,14.61-4.12
	c25.92-0.16,51.84-0.16,77.76,0C301.3,418.71,306.52,419,310.69,422.81z"/>
<path fill="#9A7D45" d="M310.69,422.81h-107c0.71-4.38-1.66-9.38,2.64-13c29.73,0,59.47,0,89.2,0c5.17,0,10.38-0.36,15,2.6
	C310.61,415.83,310.65,419.32,310.69,422.81z"/>
<path fill="#AC8F55" d="M201.17,365.41l-7.87-15.65c4-4.18,9.39-4.07,14.54-4.11c25.08-0.21,50.16-0.21,75.25,0
	c5.22,0,10.43,0.35,14.64,4.1c4.57,4.59,1.66,10.45,2.65,15.64c-5.56-3.31-11.72-2.55-17.75-2.56c-22.11,0-44.23,0-66.34,0
	C211.08,362.78,205.85,362.46,201.17,365.41z"/>
<path fill="#927640" d="M201.12,433.24c3.83,4.26,8.92,2.51,13.47,2.53c32.92,0.14,65.83,0.08,98.75,0.07
	c1.77,3.25,3.16,6.6,2.59,10.44c-4.19,3.88-9.41,3.88-14.64,3.88c-29.41,0-58.82,0-88.23,0c-5.16,0-10.5,0.4-14.56-3.86
	c0-1.74,0-3.47,0-5.21C198.68,438.22,198.08,435.13,201.12,433.24z"/>
<path fill="#C6A86C" d="M55.1,253.26l-2.46-2.79c-0.04-4.29-0.09-8.57-0.14-12.85c3.75-3.53,8.47-4,13.26-4.09
	c22.41-0.24,44.81-0.24,67.22,0c4.78,0.05,9.51,0.57,13.25,4.11c-3.42,5.71-3,13.05-7.74,18.21c-25,2.65-50.13,1-75.2,0.94
	C60.22,256.67,57.3,255.41,55.1,253.26z"/>
<path fill="#C9AC70" d="M146.23,237.63H52.5l-0.06-13.07c27.53,0,55.09,0.63,82.59-0.29C146.48,223.87,149.5,227.29,146.23,237.63z"
	/>
<path fill="#C2A569" d="M135.78,268.93c-3,1.91-2.39,5-2.61,7.82c-3.98,2.58-8.64,3.92-13.38,3.86c-15.87-0.07-31.75,0-47.62-0.05
	c-4.4,0-8.55-0.76-12-3.85c-4.27-3.65-1.94-8.65-2.65-13c1.68-4.15,5.26-5.85,9.23-6c20.68-0.84,41.39-0.95,62.06,0.1
	c3.19,0.16,7.13,1,7,5.9C135.86,265.43,135.82,267.18,135.78,268.93z"/>
<path fill="#CCB177" d="M52.36,206.3c0-2.61,0.03-5.22,0.1-7.82c2.21-2.14,5.12-3.4,8.19-3.54c23.35-0.35,46.72-2,70,1l15.65,15.62
	H52.43c-1.47-1.37-1.55-3.67-0.18-5.14C52.28,206.38,52.32,206.34,52.36,206.3z"/>
<path fill="#C4A66B" d="M135.9,263.68c-4.67-4.68-10.62-2.68-15.9-2.45c-20.81,1-41.84-3.16-62.45,2.47
	c-0.82-0.01-1.64-0.07-2.45-0.17v-10.28c23.32,0,46.64-0.1,70,0.07c4.54,0,9.61-1.72,13.44,2.52
	C138.38,258.71,139,261.79,135.9,263.68z"/>
<path fill="#CDBC8B" d="M52.36,206.3c0,1.74,0,3.48,0.07,5.22c0,4.34-0.03,8.67-0.08,13C48.38,218.46,48.35,212.38,52.36,206.3z"/>
<path fill="#CDB67F" d="M52.53,182.85L55.14,162c11.17,0,22.49,1.12,33.48-0.3c15.58-2,24.56,4.19,29,18.55
	c-0.9,2-2.17,4.19-4.33,4.47C93,187.28,72.57,190.26,52.53,182.85z"/>
<path fill="#CCB37A" d="M52.53,182.85c16.71,0,33.43-0.06,50.14,0c5.16,0,10.31,0.23,15-2.61c6.42,3.5,10.23,9.17,13,15.67
	c-6.1,5-13.3,2.28-19.93,2.42c-19.42,0.41-38.86,0.15-58.28,0.15C52.48,193.26,52.5,188.05,52.53,182.85z"/>
<path fill="#B19359" d="M125.47,355c-5.86,2.35-6.47,12.7-15.47,10.2l-23.6-31.06h46.93c4.33,0,8.67-0.37,12.18,3.17
	c3,3,4.84,6.84,3.82,10.53s-5.27,1.94-8,1.81C135.21,349.36,130.55,352.67,125.47,355z"/>
<path fill="#C3A66B" d="M287.23,263.68l0.12-7.81c15.52-2.42,31-2.67,46.31,1.41c2.08,2,2.08,4.12,0.53,6.4H287.23z"/>
<path fill="#CCAF75" d="M334.19,263.68v-5.22c-3-3.06-3.22-7-3.25-10.91c-0.04-3.15,0.24-6.3,0.82-9.4c0.33-1.19,0.9-2.31,1.66-3.29
	c0.97-0.76,2.35-0.69,3.24,0.16c0,10.45,0,20.89,0,31.34c-0.85,1.08-1.67,1.11-2.44-0.09C334.2,265.41,334.2,264.55,334.19,263.68z"
	/>
<path fill="#C5A76C" d="M334.2,266.28c0.82,0,1.63,0,2.44,0.09v12.92C332.5,275.58,334.8,270.65,334.2,266.28z"/>
<path fill="#CCB47B" d="M313.31,182.93c5.82,5.71,17.55-0.5,20.84,10.33c-5.36,5.12-12.17,4-18.56,4
	c-37.82,0.17-75.63,0.08-113.45,0c-3,0-6.1-0.74-8.84,1.2c-9.71-3.82-3.58-12.12-5.17-18.23c2.58-2.4,5.98-3.73,9.5-3.73
	c24.7-0.09,49.43-1.71,74.09,1L313.31,182.93z"/>
<path fill="#CDB278" d="M193.31,198.45c8.31-3.82,17.07-5.23,26.17-5.22c38.22,0.06,76.44,0.06,114.67,0l0,0
	c1.93,4.39,1.93,9.4,0,13.79c-17.72,6.47-36,2.07-54.05,2.69c-4.72,0.16-9.44-1.35-13.75,1.7
	C241.55,209.75,218,200.78,193.31,198.45z"/>
<path fill="#CDB67F" d="M271.73,177.49c-8.05,4.66-16.88,2.5-25.37,2.63c-19.4,0.3-38.82,0.1-58.23,0.1
	c-1-25.71-2-26.89,28.18-17.94c15.18,4.5,31,6.9,46.59,9.94C266.69,173,271,171.92,271.73,177.49z"/>
<path fill="#CCAF75" d="M266.37,211.47c2.8-6.08,8.31-5.17,13.43-5.17c18.13,0,36.25,0,54.38,0c1.82,4.74,2.2,9.45-0.37,14.08
	c-13,4.24-25.92,5.31-38.65-1c-0.15-2.19-0.63-4.2-2.89-5.22C283.39,215.68,275.12,211.29,266.37,211.47z"/>
<path fill="#B89A5F" d="M175.11,321.1c-3.46-6.07-6.92-12.14-10.37-18.21c16.44-1.59,33.21,3,49.42-2.65
	c6.6,8,16.66,6.71,24.94,7.27c14.1,0.95,28.21,2,42.32,3c7.38,0.51,11.59,2.62,10.93,10.61c-4.43,4.54-10.26,4.06-15.79,4.1
	c-28,0.2-56.08,0.08-84.12,0.09C186.3,325.28,180.4,324.54,175.11,321.1z"/>
<path fill="#B4965B" d="M175.11,321.1h117.25c2.58,4,2.95,8.45,2.67,13c-3,6.19-8.84,6.46-14.44,6.55
	c-27.22,0.41-54.43,0.27-81.65,0.1c-4.78-0.01-9.46-1.42-13.45-4.06C179.08,333.47,179.91,325.42,175.11,321.1z"/>
<path fill="#B09258" d="M185.49,336.72c31.5,0,63,0,94.49,0c5.19,0,10.38,0.28,15-2.61c3.18,4.81,2.56,10.27,2.7,15.6H193.25
	c-5.41-1.38-4.1-7.73-7.72-10.42L185.49,336.72z"/>
<path fill="#8D713B" d="M318.61,464.54H193.39c0.3-3.62-1.22-7.67,2.53-10.46c4.22-3.89,9.47-3.88,14.72-3.88h91.24
	c7.22,0,14.14,0.4,16.59,9.07C318.51,461,318.56,462.79,318.61,464.54z"/>
<path fill="#90743E" d="M318.46,459.3c-3.68-5.49-9.23-5.26-15-5.25c-35.86,0.11-71.72,0.06-107.58,0.06
	c0.13-2.85-0.44-5.94,2.59-7.83h117.47L318.46,459.3z"/>
<path fill="#C0A266" d="M216.76,276.71c-0.02,0.86-0.09,1.72-0.21,2.57c-0.83,1.77-1.66,3.53-2.5,5.3h-49.44
	c1.11-4.6,1.7-9.4,5.2-13c13.24-2.89,26.56-1.24,39.84-0.57C212.88,271.1,216.8,271.85,216.76,276.71z"/>
<path fill="#CDBA88" d="M415.16,135.9c0.06-5,3.41-8.72,5.13-13.07c1.78-7.82,3.56-15.64,5.35-23.45c11.55-2.24,17.09,3,19,14.19
	c1.26,7.46,4.73,14.51,4.33,22.32C437.99,139.52,426.14,139.52,415.16,135.9z"/>
<path fill="#C4A66B" d="M175,258.46c1.19-9.45,7.11-13.85,16-12.89c17.2,1.85,34.18-2.82,51.92,1.41c11,2.63,11.09,6.27,10.22,14.11
	c-3.42,3.1-7.64,3.88-12,3.94c-17.68,0.25-35.37,0.44-53-0.12C183,264.76,177.61,264.22,175,258.46z"/>
<path fill="#C2A569" d="M175,258.46c10.68,5.08,22,2.1,33,2.48c15,0.52,30.08,0.14,45.12,0.15l-0.09,5.05
	c-9.78,11.54-23,11.36-36.34,10.57c-7-5.29-15.11-1.67-22.66-2.53c-8.09-0.92-16.56,1.74-24.28-2.67
	C170.93,266.91,171.52,262.1,175,258.46z"/>
<path fill="#BC9E63" d="M125.45,295c0,3.48,0,6.95,0,10.43h-54.9c-3.41-3.67-4-8.47-5.2-13c1-2.61,2.9-4.73,5.53-5.07
	c16.43-2.14,32.93-1.7,49.37-0.32C124.35,287.35,127.88,289.63,125.45,295z"/>
<path fill="#CDBC8B" d="M86.37,109.62c1.58,3.36,3,6.75,2.55,10.6h-26c4.32-13.08,8.63-26.15,12.92-39.22
	c3.43-7.12,4.07,0.52,4.23,1.19C82.37,91.24,84.33,100.44,86.37,109.62z"/>
<path fill="#8C713B" d="M389.05,469.72c-8.07,0-16.14,0-24.21,0.07c-4.11,0-8.93-1-9.8,5.21c-3.89-7.35-3.47-15.62-5.06-23.46
	c6.41-4.83,13.49-4.43,20.75-2.66C378.69,454.2,382.53,463.13,389.05,469.72z"/>
<path fill="#927740" d="M370.74,448.87c-6.51,4.05-13.78,2.19-20.75,2.66c-1.84-10.42-3.67-20.84-6.15-34.91
	C356.51,427.35,364.09,437.7,370.74,448.87z"/>
<path fill="#CEBD8F" d="M347.35,75.37c-3,15.57-5.37,28.9-8.19,42.15c-1,4.74-14.67,7.75-20.14,4.8c-6-3.23-7.62-22.66-2.54-27.36
	C325,87.05,336.18,83.57,347.35,75.37z"/>
<path fill="#876C37" d="M91.62,485.46c7.44-4.29,15-8.22,23.4-10.5c12.7,5.77,26.11,1.12,39.1,2.62c0,5,0.88,10.41-5.14,13.08
	c-15.52,2.46-31.13,1.18-46.7,0.85C97.86,491.42,93.64,490.16,91.62,485.46z"/>
<path fill="#8D723C" d="M122.75,464.46c4.35-5.21,6.46-12.31,13.09-15.62c8.37-0.51,17.66-5.11,23.58,5.3
	c0.22,4.59-0.16,9.05-2.76,13C145.37,466,133.7,469.73,122.75,464.46z"/>
<path fill="#CCB47B" d="M334.18,219.34v-26.05c5.38,13.64,1.34,27.85,2.48,41.74c-0.82,0-1.64,0-2.46,0
	C329.66,229.77,330.33,224.56,334.18,219.34z"/>
<path fill="#C9AC71" d="M334.18,219.34c0,5.21,0,10.43,0,15.64l0,0c-14.27,5.53-28.32,7.69-41.61-2.57c2.29-4.06,2.77-8.49,2.6-13
	L334.18,219.34z"/>
<path fill="#C5A76C" d="M334.18,245.42c0,4.35,0,8.69,0,13c-15.61-0.88-31.45,2.24-46.84-2.59l2.66-10.39
	C304.7,239,319.44,239.06,334.18,245.42z"/>
<path fill="#C7A96E" d="M334.18,245.42h-44.22l2.61-13c13.65,4.52,27.74,1.86,41.62,2.57C334.18,238.47,334.18,241.94,334.18,245.42
	z"/>
<path fill="#7F6430" d="M109.76,540.18c-3.77,3.22-5.31,8.67-10.47,10.51c-8.65-5.3-11.43-16.39-20.77-21
	c-1.34-8.23-9.27-11.72-13.06-18.19l-2.59-2.61c2-4.68,6.15-6,10.52-6.2c16.78-0.85,33.6-0.85,50.38,0c4,0.19,9,0.37,9.6,6.33
	c0,0.82-0.09,1.63-0.18,2.44l-10.38,13.06C118.45,529.73,114.1,534.95,109.76,540.18z"/>
<path fill="#826733" d="M133.37,509c-6.42-5.32-14.05-2.73-21-2.46c-16.52,0.66-33.28-3.2-49.55,2.36c-2.24-2-4.95-3.61-6.61-6
	c-1.88-2.71-4.46-5.83-2.93-9.44c1.77-4.16,6-2.29,9.16-2.77c6.23-0.92,13,2.15,18.72-2.48c3.57-0.52,7.69,1,10.4-2.73
	c13.48,5.22,27.52,1.28,41.24,2.6c5.41,0.52,11.38-2.14,16.12,2.59C143.34,496.4,140.73,504.71,133.37,509z"/>
<path fill="#91763F" d="M159.42,454.14c-6.92-6-16.59,0.34-23.58-5.3c2.59-5.06,4.83-10.41,10.47-13
	c6.45-1.79,12.63-1.77,18.17,2.65l-2.48,5.18C161.6,447.27,163.14,451.35,159.42,454.14z"/>
<path fill="#957A42" d="M164.48,438.47c-6.16-0.21-12.52,1-18.17-2.65c2.39-7.48,9.05-11.85,13.21-18
	c3.26-2.83,4.22-8.62,10.21-7.94C170.68,419.89,166.47,429,164.48,438.47z"/>
<path fill="#C0A266" d="M60.23,276.72h73l-5.1,7.79c-21.53,4.22-43.68,4.22-65.21,0C59.82,282.66,60.35,279.59,60.23,276.72z"/>
<path fill="#BFA166" d="M62.86,284.54h65.21c-0.4,3.59,1.19,7.69-2.62,10.43c-0.36-2.23-1.24-4.84-3.56-4.78
	C103,290.69,84,287,65.37,292.41C62.37,290.47,63,287.4,62.86,284.54z"/>
</svg>
