<?xml version="1.0" encoding="utf-8"?>
<!-- Generator: Adobe Illustrator 25.2.1, SVG Export Plug-In . SVG Version: 6.00 Build 0)  -->
<svg version="1.1" id="Layer_1" xmlns="http://www.w3.org/2000/svg" xmlns:xlink="http://www.w3.org/1999/xlink" x="0px" y="0px"
	 viewBox="0 0 526 532" enable-background="new 0 0 526 532" xml:space="preserve">
<path fill="#CDB47B" d="M217.7,196.4c2.7-5.9,5.5-11.7,9.6-20.6l-25.8,9.9c-6,3.1-7.5-1.6-9.8-5.4c-3.6-5.7-4.9-12.2-7.3-18.4
	c0.7-1.4,1.7-2.7,3.1-3.5c4.8-2.7,10.2-4,15.6-3.8c24.8,0,49.6-0.9,74.4,0.4c7,1.4,10,6.7,12.1,12.8c-0.2,1.5-1.2,2.7-2.5,3.4
	c-10.9,3.3-22.1,1.6-33.2,1.6c-9.8,0-17.6,2.4-21.9,11.8c-3.2,4.3-5.7,9.3-10.5,12.2C220.2,197.2,218.8,197.1,217.7,196.4z"/>
<path fill="#CDB780" d="M288.9,169.2c-2.3-4-3.3-8.9-8.2-10.9c-2-1.8-4.2-3.9-7-3.8c-29.3,0.5-58.7-3.1-87.9,2.1
	c-7.7-5.4-4.6-13.8-5.5-21c10-5.5,20.9-2.3,31.4-3.1c5.8-0.4,11.5-1.2,17.3-1.6c7.5,2.5,15.5,2.9,23.3,1.4
	c9.8-6.7,15.5-1.3,20.3,6.8c6.3,10.1,16.2,17.8,19.4,29.9C291.1,169.9,289.8,169.9,288.9,169.2z"/>
<path fill="#8A6F39" d="M324.9,423.4c-9.4,9.5-21.6,16.2-30.2,30.1c10.4,0,19.2,0.3,28-0.1c6.5-0.3,9.5,1.1,9.8,8.8
	c1,25.9,1.3,25.9-25,25.9c-33.5,0-67-0.4-100.5,0.2c-9.8,0.2-13.5-1.8-13-12.5c1.2-26.5-2.8-21.8,22.5-22.3c4.5-0.1,9,0,14.8,0
	c-5.1-11.3-15.2-16.4-21.9-24.5c-0.6-0.6-0.9-1.4-0.8-2.3c0.1-0.8,0.2-1.2,0.4-1.2c1-0.8,2.3-1.2,3.6-1c7.6,4,12.4,11.2,18.7,16.7
	c3.4,3.9,6.1,8,4.6,13.5c-0.5,1.4-1.4,2.6-2.5,3.6c-5.9,4.5-12.9,3.5-19.6,3.9c-6.1,0.3-10.7,2-10.7,9.3c0,7,4,9.7,10.3,9.8
	c34,0.3,68,0.3,101.9,0c5.7-0.1,9.6-2.4,9.7-8.8c0.1-6.9-3.8-9.6-10.1-10.1c-7.2-0.6-14.5,0.6-21.6-1.9c-1.4-0.6-2.5-1.6-3.3-2.8
	c-2.7-6.2-0.3-11.2,3.7-15.9c6.9-7.5,15-13.5,23.1-19.5c1.6-1,3.5-1.4,5.4-1.2C323.5,421.5,324.5,422.3,324.9,423.4z"/>
<path fill="#9A7D46" d="M194.2,359.8c9,4.1,14.6,12.3,21.6,18.7l-1.2,1.6c-1.9,0.8-4.1,0.8-5.9-0.1c-4.7-3-9.1-6.5-14-9.3
	c-20.2-2.8-40.4-0.7-60.6-1.1c-18.9-0.4-37.8,0-56.8-0.1c-5.8,0-11.8,0.6-17-3c-3.3-4.9,0.3-7.7,3.3-10.8c5.9-3.2,12.3-2.3,18.6-2.4
	c30.8-0.5,61.5,1,92.2-0.9C182.1,352,187.6,357.2,194.2,359.8z"/>
<path fill="#CBAE73" d="M220.8,196.5c2.3-4,3.3-8.9,8.2-10.9c4.8-4.3,10.8-4.1,16.6-4.1c16.2-0.1,32.4-0.1,48.5-0.1
	c7.4-1.2,7.4,6.7,11.6,9.5c7.7,9.1,14.5,18.8,19.1,30c-0.9,0.8-2.1,1.2-3.3,1c-2.4-1-3.8-2.9-5.2-4.9c-2.8-4-5.1-8.2-8.5-11.7
	c-1.5-1.4-3-2.6-4.7-3.7c-20.7-2.4-41.4-0.4-62-1.1c-6.2-0.2-12.6,0.8-18.6-2.3C221.9,197.6,221.4,197.1,220.8,196.5z"/>
<path fill="#CDBC8B" d="M226.2,66l5.6-3c7.2-2.8,7.5,1.6,6.3,6.6c-0.9,3.9-4.6,6.3-6.5,9.8l-2.8,5.5c-4.1,5.3-1.8,14-9.2,17.6
	c-9.1-0.3-18.3,0.6-27.2-2.1c-4.7-3.4-1.1-6.1,1.1-8.5c6.1-6.3,12-12.8,19-18.2h-0.1C216.9,70.9,221.8,68.9,226.2,66z"/>
<path fill="#9C8048" d="M193.4,417.9c-41.4-25-87.2-23.9-133.1-23.1c-4,0.1-14,4.1-8.7-7.7c1.3-0.9,2.9-1.4,4.4-1.5
	c21.1,1.7,42.4-1.8,63.3,3.1c11.3,0.1,22.4,1.4,33.1,5.1c8.4,3.3,17.1,5.5,25.4,9.2c5.7,3.4,12.6,5,16.5,11.2
	C194.6,415.5,194.2,416.9,193.4,417.9z"/>
<path fill="#A68B50" d="M54.7,387.3l-3.2-0.2c4-15.2,8-30.4,11.9-45.7c1-3.9,3.2-6.3,7.5-6.4c40.2-0.9,80.5-1.7,116.9,19.8
	c2.2,1.5,4.3,3.1,6.3,4.9c-6.4,0.8-10.8-5.1-17-5.2c-7.7-0.3-14.6-3.4-21.7-5.6c-24.1-7.5-49-7.6-73.9-6.8c-5.1,0.1-10,1.1-12.3,6.6
	c-1.2,3.5-3.8,6-6.3,8.5c-0.9,2.7-1.8,5.5-2.7,8.2c1.3,1.4,1.8,3.3,1.5,5.1c-0.7,3-1.5,5.9-2.5,8.8
	C58.2,382.4,57.4,385.4,54.7,387.3z"/>
<path fill="#957942" d="M474.6,384.3c5.1,8.5,1.7,10.6-7.1,10.8c-26.9,0.5-54.1-2.8-80.7,3c-10.9,2.4-21.6,6-32.4,9
	c-1-1.1-1.3-2.6-0.7-4c4-4.5,9.5-6.4,15-8.3c13.3-4.4,27.2-5.2,40.8-7.6c15.1-2.1,30.2-0.7,45.4-1.1c5.3-0.1,10.7,0.5,15.6-2.4
	C472,383.2,473.5,383.4,474.6,384.3z"/>
<path fill="#A68A50" d="M474.6,384.3l-3.4,0.3c-1.6-1.2-2.8-2.8-3.4-4.6c-1.7-4.2-3.9-8.3-4.9-12.8c-0.9-4.7-2-9.3-3.3-13.8
	c-1.6-7-5.4-11.1-13.1-11.4c-30-0.9-59.8-0.5-88.1,11.5c-2.2,0.7-4.5,0.8-6.7,0.5c-1.5-0.4-2.8-1.3-3.7-2.5
	c16.9-10.6,35.8-14.3,55.1-15.7c16.2-1.2,32.5-0.3,48.7-0.8c6.9-0.2,10.8,1.7,12.4,8.8C467.4,357.4,471.2,370.8,474.6,384.3z"/>
<path fill="#B3975D" d="M217.8,322.5c-7.7-7-14.1-15.3-19.1-24.5c-2.1-4.1-3.4-8.9-7.7-11.6c-0.5-0.7-0.8-1.6-0.8-2.5l1-2.1
	c10.5-7.6,22-4.5,33.3-3.3c2.8,1.1,5.2,3.2,6.6,5.9c1.2,2.6,2.3,5.2,0.6,8c-5,3.8-10.9,2.7-16.5,2.8c-9.7,0.2-7.4,4.5-3.4,9.6
	C214.1,310.6,222.8,314.3,217.8,322.5z"/>
<path fill="#AC9056" d="M217.8,322.5c1.3-7.5-8.4-9.9-7.9-17c8.7-6.4,19.1-2.8,28.5-4.8c8.4,1.4,12.8,6.4,13.2,14.9
	c-4.5,5.9-11.2,3.5-17,4.1c-5.3,0.6-8.9,1.8-5.2,8c1,1.6,1.4,3.5,1.2,5.4c-0.3,1.2-1.1,2.2-2.2,2.8
	C223.9,332.2,219.9,328.1,217.8,322.5z"/>
<path fill="#B0945A" d="M322,304c0.3,0.5,0.1,1.2-0.4,1.6c-1.1,1-2.6,1.3-3.9,0.8c-8.4-5.2-20.1,1-27.5-7.7c-0.8-2.1-0.8-4.4,0-6.6
	c1.4-3.6,4.5-6.3,8.2-7.5c10.3,0.6,20.9-0.5,30.9,3.3C334.8,296.8,323.9,298.4,322,304z"/>
<path fill="#D3C59D" d="M212.5,73.7l-21.6,24.7c2.2,5.8-2.2,10.2-3.3,15.3c-2.5,7.6-1,16.6-7.4,22.9c4.5,5.6,0,13.7,5.2,19.1
	c1.5,1.8,1.7,3.6,0.2,5.4c0,0.9,0,1.8,0,2.7c0.7,0.8,0.9,1.5,0.6,2.1c-0.3,0.6-0.6,0.9-0.9,0.9C168.1,132.4,181.2,88.8,212.5,73.7z"
	/>
<path fill="#C7A96E" d="M322,304c0.1-6.2,8.2-8.3,7.7-14.8c-0.3-4.1,2-7.5,2.7-11.4c0.3-1.1,0.6-2.2,1-3.2c0.9-2.7,1.3-5.5,1.2-8.4
	c0-2.4-0.1-4.7-0.1-7.1c0-4.8-0.8-9.5-2.5-14c-1.7-6.5-6.1-11.5-9.4-17.1c-1.2-2.2-2.4-4.3-1.1-6.9l3.2-0.2
	c18.8,22.8,21.9,49,8.4,72.1C330.4,297.6,327.9,302.5,322,304z"/>
<path fill="#D3C59D" d="M220.8,101.1c3.3-5.2,2.6-12.2,8.1-16.3c-0.5,8-3.7,15.4-3.1,23.7c1.3,19,6.2,23.2,27.6,22.5
	c0.9,0.6,1.1,1.2,0.9,1.9s-0.5,1-0.8,1c-7.3,0.6-14.5,3.8-21.8,0c-9.8-4.4-10.2-14.3-13.3-22.6C217.8,107.4,217.9,104,220.8,101.1z"
	/>
<path fill="#C7A96E" d="M190.2,284c-10.9-25.3-2.6-46.5,13.9-66.1l1.4,1.2c1.3,3.2,0,5.9-1.3,8.7c-2,3.6-4.4,6.9-6.2,10.6
	c-2.3,4.1-3.8,8.5-4.6,13.2c-0.9,2.9-1.4,5.9-1.7,8.9c-0.2,4.5,0.3,8.9,1.5,13.2c0.8,3.6-0.3,6.7-2,9.8L190.2,284z"/>
<path fill="#9A7D46" d="M282.7,408.9c10.6-14.8,22.4-28.5,38.1-38.2c1-0.7,2.3-0.8,3.4-0.3c1.7,5.6-3.8,6.7-6.1,9.8
	c-3,2.6-5.8,5.4-8.6,8.2c-2,2-4,3.9-5.9,5.9c-2.8,2.8-5.6,5.5-8.3,8.4c-3,2.7-5.5,6.1-9.5,7.5C284.7,410.2,283.5,409.8,282.7,408.9z
	"/>
<path fill="#A5884F" d="M258.2,377l-29.9-41l0.9-0.6c1-0.7,2.3-0.8,3.4-0.4c3.8,2.2,6.6,5.5,9.3,8.9c6.8,9.6,15.9,17.9,18.4,30.2
	C260.2,375.4,259.4,376.4,258.2,377z"/>
<path fill="#D3C59D" d="M231.7,79.3c-3-5.5,13.2-10.7,0.1-16.3c5.1-5.7,12.3-6.1,20.5-6.3C245.4,64.2,238.6,71.8,231.7,79.3z"/>
<path fill="#957942" d="M215.9,378.5c13.6,9.6,23.3,22.7,33.1,35.7c-0.8,1-2,1.5-3.2,1.4c-1.8-0.5-3.4-1.4-4.8-2.7
	c-3.5-3.3-6.9-6.7-10.2-10.2c-2.3-2.6-3.9-5.6-6-8.4c-1.8-2.2-3.7-4.2-5.7-6.1c-2.1-2.6-5.2-4.8-3.9-8.9L215.9,378.5z"/>
<path fill="#A1854C" d="M281.4,357.9c-3.2,8-8.1,14.8-13.4,21.5c-5.5,7-7.6,2.8-9.8-2.4l0.9-0.6c8.9-4,9.7-15.9,19-19.6
	C279.3,356.4,280.6,356.9,281.4,357.9z"/>
<path fill="#9F824A" d="M324.3,371l-3.4-0.4c5.9-10.9,16.4-15.3,27.2-19.1l3.4,0.5c-2.6,10.7-15.4,9.2-20.3,17.1
	C329.1,370.7,327.1,372.4,324.3,371z"/>
<path fill="#CDBA87" d="M253.5,133.8c0-1-0.1-1.9-0.1-2.9c2.9-3.3,8.1-4.2,9.1-10.3c4.3,6.8,9.3,11.6,10,18.7
	C266.6,136.1,262.3,127.1,253.5,133.8z"/>
<path fill="#8F743D" d="M354.2,403.7l0.3,3.5L325,423.5l-0.9-0.9c-0.5-7.3,6.3-8.4,10.1-12.1c4.2-2.4,8.6-4.5,13-6.5
	C349.5,403.2,351.8,402.3,354.2,403.7z"/>
<path fill="#B4975D" d="M318.8,305.5h2.9c-4.2,9.9-11.2,17.8-18.9,25.2c-1-0.8-1.6-1.9-1.9-3.1c0-4.1,2.8-6.8,5-9.8
	C309.8,313.3,312.1,307.1,318.8,305.5z"/>
<path fill="#8A6F39" d="M245.3,414.6l3.6-0.4c6.8,3.3,8,13.7,17.4,13.6c1-0.9,2.5-0.9,3.6-0.2c-0.7,8.3-5.7,7.7-11.1,5
	c-3.6-1.8-6.2-5-9.1-7.9C247.3,421.8,243.7,419.3,245.3,414.6z"/>
<path fill="#CDBC8B" d="M185.2,166.8c0.1-1,0.2-2.1,0.3-3.1c6.3,6.6,4,19.5,16,21.8c-4.4,5.3-7.6,2.6-10-1.8
	C188.7,178.5,185.3,173.2,185.2,166.8z"/>
<path fill="#CDB47B" d="M305.7,190.9c-4.8-0.6-5.2-6-8.6-8c-5.5-2.9-9.1-6.9-8.2-13.6l0,0l3-0.1
	C298.1,175.3,302.8,182.7,305.7,190.9z"/>
<path fill="#957942" d="M269.8,428.2l-3.5-0.4c4.1-7.5,10.1-13.4,16.5-19l3.4,0.3c0.7,0.9,1,2.1,0.7,3.2c-1.8,3.7-4.9,6.2-7.6,9.1
	C276.4,424,274,427.5,269.8,428.2z"/>
<path fill="#CBAE73" d="M217.7,196.4l3.1,0.1l0,0c1.2,1.7,0.6,3.3-0.1,5c-0.5,1-1.1,2-1.8,3c-2.7,3.8-5,8-7.9,11.8
	c-1.8,1.7-3.7,3.2-6.5,2.2l-0.5-0.6C207,209.7,211.6,202.4,217.7,196.4z"/>
<path fill="#957942" d="M193.4,417.9l0.2-3.3c1-0.7,2.2-1,3.4-0.7c5.1,3,11,5.1,13,11.6c-0.1,1.2-0.2,2.4-0.4,3.5L193.4,417.9z"/>
<path fill="#A4884F" d="M291.9,344.4c-2.1,5.6-6.1,9.7-10.5,13.5l-0.9-0.6c-3.5-7.3,3.1-10.4,6.1-15c1.5-1.4,3.2-2.3,5.4-1.5
	C292.7,341.9,292.7,343.3,291.9,344.4z"/>
<path fill="#AC8F55" d="M291.9,344.4l-0.4-3.4c-1.4-2.4,0-4.3,1.2-6.1c1.8-2.1,3.5-4.2,5.3-6.4c1.2-1.2,2.5-2.1,4.4-1.1
	c0.1,1.1,0.3,2.3,0.4,3.4C300.5,336.4,296.5,340.6,291.9,344.4z"/>
<path fill="#D3C59D" d="M226.2,66c-3.1,5.1-8,7.2-13.7,7.7C215.4,69,220.6,66.1,226.2,66z"/>
<path fill="#B6995E" d="M191.1,286.5c6.5,1.2,7.3,6.2,7.7,11.6C194.9,295.2,192.2,291.1,191.1,286.5z"/>
<path fill="#CDB178" d="M288.8,169.3l8.2,13.6c-11,5.8-22.9,1.8-34.3,2.5c-11.2,0.7-22.5,0.1-33.8,0.1c2-12.5,9.3-17.4,21.9-16.5
	S276.2,169.3,288.8,169.3z"/>
<path fill="#CDB57E" d="M185.5,161.1c0-1.8-0.1-3.6-0.2-5.4c2.5-5.6,7.5-5.5,12.6-5.5c23.3,0.1,46.7,0.1,70,0
	c6.1,0,12.1-0.1,12.8,8.2c-21.5,0-43.1,0.2-64.6-0.1C205.8,157.9,195.6,158.9,185.5,161.1z"/>
<path fill="#CDB985" d="M220.8,112c5.2,6.5,4.8,15.8,10.9,21.8c-17,5.2-34.4,1.7-51.6,2.8c1.5-8.2,1.1-16.9,5.2-24.6
	C197.1,114.5,209.1,114.5,220.8,112z"/>
<path fill="#7A602B" d="M291.5,458.3c8.2,0,16.4,0.5,24.5-0.2c11.1-0.9,13.7,4.4,14,14.6c0.3,10.4-3.2,13.1-13.3,13
	c-35.4-0.5-70.8-0.5-106.1,0c-10.3,0.2-12.1-4.3-11.7-13c0.3-8.1-0.7-15.6,11.5-14.6c8,0.6,16.4,1.9,24-2.4
	C253.4,458.8,272.6,455,291.5,458.3z"/>
<path fill="#836833" d="M269.8,428.2c1.7-3.6,4.6-6.4,8.2-8.1c13.7-1.1,27.6-4.7,40.8,2.7c-5.6,8.2-14.8,12.4-21.8,19.1
	c-22.6,2.2-45.4,2.2-68,0c-6.5-4.3-12-9.9-16.4-16.3c12-11.3,25-7.8,38.1-2.7C257.3,424,259.9,439,269.8,428.2z"/>
<path fill="#7E6430" d="M229,441.8c22.4-4.4,45.6-4.4,68,0c-2.5,4.3-6.5,7.9-5.6,13.6c-18.8-3-37.9,0.5-56.7-2.7
	C234.8,448.1,230.6,445.6,229,441.8z"/>
<path fill="#7C622F" d="M234.7,452.7c19.1-2.9,38.2-7.4,56.7,2.7c0,1,0.1,1.9,0.2,2.8c-18,5.4-36.3,2.2-54.5,1.6
	c-0.9,0-1.8-2.8-2.6-4.3C234.5,454.7,234.6,453.7,234.7,452.7z"/>
<path fill="#886D37" d="M318.8,422.8c-13.6-1.5-27.5,3.2-40.8-2.7c1.7-3.6,4.5-6.5,8.1-8.2c16.4-6.2,32.7-6.5,49,0L324,422.5
	L318.8,422.8z"/>
<path fill="#876C36" d="M250.7,422.8c-12.7,1.2-25.7-2.8-38.1,2.7h-2.7c-4.5-3.7-10.6-5.4-13.6-10.9c14.8-12,30.5-7.6,46.3-2.7
	l2.8,2.8C247.1,417.3,248.9,420,250.7,422.8z"/>
<path fill="#957942" d="M57.4,379.1c0.1-3-0.5-6.2,2.7-8.2c24.7-3,49.5-1.1,74.2-1.2c21.6,0,43.2-1.8,64.7,1.1
	c5.5,0.2,8.5,3.8,10.9,8.2c-3.6,5.8-9.5,6.4-15.4,6.4c-40.1,0.1-80.2,0.5-120.3,0.3C67.8,385.8,61.5,385.3,57.4,379.1z"/>
<path fill="#927640" d="M57.4,379.1c6.9,2,14.1,3,21.3,2.9c36.6-0.2,73.2-0.2,109.8,0c7.2,0.1,14.4-0.8,21.3-2.8l5.3,0.3l5.6,7.9
	c-3.8,4-8.9,4.1-13.8,4c-23.8-0.5-47.6,1.4-71.3-1.1c-5.2-0.5-10.8-1.3-15.6,2.4c-17-3.8-34.2-2.2-51.3-2.6
	c-4.8-0.1-10.1,1.8-14.1-2.6C54.8,384.3,54.2,381.1,57.4,379.1z"/>
<path fill="#977A43" d="M199,371c-3.6,1.9-7.7,2.9-11.8,2.8c-39.5-0.1-79-0.1-118.4,0c-3.2,0-6.4,0.2-8.7-2.7
	c0.1-1.8,0.1-3.6,0.2-5.4c43.5-0.9,87,1.9,130.4-1.5C196.8,363.5,196.9,367.9,199,371z"/>
<path fill="#9C8048" d="M158.1,346.5c6.9,1.4,13.1,4.5,19.1,8.1c-4.9,3-10.3,2.7-15.7,2.7c-32.8,0-65.7,0-98.6,0l2.7-8.2
	c5.2-4.7,11.7-4.2,18-4.2C108.5,344.8,133.4,344.5,158.1,346.5z"/>
<path fill="#C9AB70" d="M218.1,202l2.7-5.4c25.1,0,50.3-0.1,75.4,0.1c4.5,0,10.5-2.1,11.8,5.4c-3.6,5.8-9.5,6.3-15.3,6.4
	c-19.7,0.3-39.4,0.3-59.1,0C227.5,208.3,221.6,207.8,218.1,202z"/>
<path fill="#C4A66B" d="M321.5,221.1l2.7,5.4c-3,6.5-9.1,6.4-14.7,6.6c-9.3,0.2-18.6,0.9-27.8-0.9c-7.1-2.8-11.8-6.9-9.1-15.5
	c15.2-8.6,30.6-6.8,46.1-1.1C319.7,217.4,320.6,219.2,321.5,221.1z"/>
<path fill="#C7A96E" d="M318.7,215.6c-15.4,1.2-31.1-2.9-46.2,2.7c-6.8-0.6-9.2-4.4-8.2-10.9c15.3-3.3,31,0.4,46.3-2.8
	C313.3,208.3,316,212,318.7,215.6z"/>
<path fill="#C8AB70" d="M310.6,204.7c-9.4,5-19.6,1.7-29.4,2.8c-5.6,0.6-11.9-2.2-16.9,2.6c-1.3,1-2.9,1.5-4.6,1.4
	c-10.8-0.3-21.7,0.6-32.5-0.6c-4.6-0.5-12.1,0.1-9.3-8.9l0,0c29.8,4.4,60.1,4.4,89.8,0L310.6,204.7z"/>
<path fill="#CDBA87" d="M220.8,112c-9.3,7.9-26.1,7.9-35.4,0l5.5-13.6c10,0.9,20.3-2.3,29.9,2.7L220.8,112z"/>
<path fill="#8F743D" d="M120.1,392.6c1.4-7.5,7.4-5.1,11.9-5.2c29.6-0.2,59.2-0.1,88.8-0.1c2.5,1,4.5,3,5.4,5.5
	c-3.8,7.6-11,6.5-17.6,6.7c-18.6,0.5-37.2,0-55.8-1.4C142.4,393.9,131.3,392.1,120.1,392.6z"/>
<path fill="#8D723C" d="M152.8,398c10.2-5.4,21.2-1.4,31.8-2.5c13.8-1.4,28,2.7,41.6-2.8l5.5,8.2c-1.5,7.6-7.8,6.3-12.8,6.5
	c-13.9,0.7-27.8,0.3-41.6-1.2L152.8,398z"/>
<path fill="#8A6F39" d="M177.3,406.3c11.8-5.6,24.4-1.1,36.5-2.6c6-0.8,12.5,2.3,17.8-2.7c4.6,2.6,8.3,6.3,10.9,10.9
	c-15.4,1.2-31.1-2.9-46.3,2.7h-2.7L177.3,406.3z"/>
<path fill="#9F824A" d="M158.1,346.5c-4,4.3-9.3,2.5-14.1,2.6c-26.1,0.2-52.3,0.1-78.4,0.1c0.9-5.6,2.3-10.9,9.6-10.8
	C103.1,338.4,131.2,336.2,158.1,346.5z"/>
<path fill="#92763F" d="M307.9,387.3c1.7-3.6,4.6-6.5,8.2-8.2c10.6-3,21.5-1.4,32.3-1.5c37.4-0.4,74.8,0.5,112.3-0.5
	c3.6-0.1,7.2-0.2,10.4,2l0.2,5.5c2.7,8.2-3.9,5.2-6.9,5.3c-18.6,0.2-37.1,0.1-55.7,0.1c-28,1.3-56.1,1.6-84.1,1.3
	C318.8,391.3,312.6,392.1,307.9,387.3z"/>
<path fill="#8F743D" d="M307.9,387.3c28.3,0,56.7,0,85,0c5.4,0,10.8-0.3,15.7,2.8l-40.9,8.1c-16.2,1.8-32.5,1.6-48.7,1.3
	c-6.2-0.1-13,0.5-16.5-6.6C303.4,390.3,305.4,388.3,307.9,387.3z"/>
<path fill="#8D713B" d="M302.5,392.8c15.9,5.6,32.3,1.3,48.4,2.8c5.6,0.5,11.9-2.2,16.8,2.6l-13.5,5.5l-5.5,2.7
	c-13.8,1.4-27.7,1.8-41.6,1.2c-4.9-0.2-11.3,1-12.8-6.5C296,397.4,298.9,394.5,302.5,392.8z"/>
<path fill="#957942" d="M471.1,379.2c-6.9,2-14.1,2.9-21.3,2.8c-38.9-0.2-77.7-0.1-116.5-0.1c-5.9,0-11.8,0.6-17.1-2.7
	c1.1-4.3,6-4.8,8.1-8.1l5.5-2.8c4.5-3.5,9.9-4.3,15.3-4.3c35.6-0.1,71.2-0.2,106.9,0.1c5,0,9.9,0.6,13.9,4.3
	C467.6,371.9,469.3,375.5,471.1,379.2z"/>
<path fill="#9A7D46" d="M465.8,368.2h-136c3.3-10.7,16-8.8,21.7-16.2l5.5-0.2c31.1-3.1,62.4-1,93.5-1.4c4.6,0,9,0.8,12.6,4.1
	C465.7,358.8,466.1,363.5,465.8,368.2z"/>
<path fill="#9F824A" d="M463.1,354.6c-30.1,0-60.3,0-90.5,0c-5.4,0-10.8,0.3-15.7-2.8c13.5-10.6,30.4-10.9,46.1-13
	c16.4-2.2,33.4-1,50.1-0.4C463.4,338.8,461.9,347.9,463.1,354.6z"/>
<path fill="#AE9157" d="M239.8,302.8c-9.6,5-20,1.8-29.9,2.7c-3.9-2.4-8.7-5-7.3-10.1c1.6-6,7.5-3.2,11.6-3.5
	c5.8-0.4,11.7-0.1,17.5-0.1C239.5,291.7,241.1,296.2,239.8,302.8z"/>
<path fill="#B6995E" d="M191.2,283.5l-0.4-10.7c3.3-9.5,11.7-6.2,18.2-6.7c5.8-0.5,11.8-0.5,17.1,2.9c3.3,4,3.5,8,0.1,12
	C214.6,282,202.6,278.5,191.2,283.5z"/>
<path fill="#C4A66B" d="M226.2,281c0-3.6-0.1-7.2-0.1-10.9c-3-3.7-0.8-7.2,0.6-10.7c1.7-3.3,3.5-6.5,5.2-9.8
	c2.2-3.8,4.6-7.4,7.4-10.8c2.2-1.5,4.4-3,6.9-0.4c1.3,3,0.8,6.5-1.2,9c-8.3,11.2-12.7,24.9-12.4,38.9c-1,1-2.5,1-3.5,0.1L226.2,281z
	"/>
<path fill="#B6995E" d="M229,286.5l3.3-0.2c14.9,7.2,22.6,20.4,28.8,34.8c-0.2,1.3-0.7,2.5-1.5,3.6c-6.4,1-7.4-3.8-8.8-8.2
	c-2.6-5.4-5-10.9-10.9-13.6c-2.2-4-3.3-8.9-8.2-10.9C230.8,290.1,229.9,288.3,229,286.5z"/>
<path fill="#A5884F" d="M250.7,316.5c4.3,1.2,4.8,6.2,8.1,8.3c1,1.4,1.2,3.1,0.6,4.7c-10,6.8-20.2,5.7-30.4,0.6
	c-3.6-2.5-8.9-4.5-6.6-10.1c1.8-4.4,6.8-3.5,10.8-3.5C239,316.4,244.9,316.5,250.7,316.5z"/>
<path fill="#A4884F" d="M229,330.1c9.9-1.4,20.4,3.1,30-2.7c2.5-2.1,5.7-2.9,8.9-2.3c10.4,3.1,22.1-2.2,31.9,5.1
	c-0.9,2.5-2.9,4.5-5.4,5.4c-20.8,2.1-41.8,2.1-62.6,0c-0.8,0-1.6-0.1-2.4-0.2C229.2,333.6,229.1,331.8,229,330.1z"/>
<path fill="#AC8F55" d="M318.8,305.5l-10.9,13.6c-10.3,5.9-21.2,4.4-32.2,2.6c-9.2-8.5,2.8-11.6,4.5-17.4c3.1-3.4,5.2-8.7,11.4-7
	c5,4.9,11.1,2,16.8,2.7C312.6,300.6,317.9,298.8,318.8,305.5z"/>
<path fill="#B4975D" d="M335.1,278.3c-0.4,4.3-1.8,8.1-5.3,10.9c-10.9-0.2-22,1.2-32.6-2.7c-1.7-4.7,0.1-8,4.2-10.4
	C312.8,274.4,324.2,271.8,335.1,278.3z"/>
<path fill="#C2A56A" d="M299.9,278.3c-0.9,2.7-1.8,5.5-2.7,8.2l-5.5,5.9l-1.3-1.5c2.5-12.1,3.6-24.2-1-36.1c0.2-1.3,0.8-2.6,1.6-3.7
	c5.7-1.6,6.4,3.4,8.7,6.4c1.6,3,2.6,6.2,3,9.5c0.3,2,0.2,4-0.1,6C302.2,275,301.2,276.8,299.9,278.3z"/>
<path fill="#B4975D" d="M291.6,297.4c-3.6,1.7-6.4,4.6-8.2,8.2c-0.8,0.9-2.1,1.1-3,0.3c-0.2-0.1-0.3-0.3-0.4-0.5
	c-1.5-8.8,3.3-12.7,11.2-14l0.6,1C291.7,294,291.6,295.7,291.6,297.4z"/>
<path fill="#BD9F64" d="M297.1,259.2l-5.4-8.2c-4.6-2.7-6-5.9-1.5-9.9c15.1-3.1,30.1-5,44.8,1.9c1.1,5.4,3.8,10.5,2.7,16.3
	C324.2,265.6,310.7,265.1,297.1,259.2z"/>
<path fill="#C2A56A" d="M335,242.9l-46.1-0.1c-9-0.8-11.1-5.7-8.2-13.6c14.5-1.3,29.3,2.9,43.6-2.7
	C328.8,231.2,332.5,236.8,335,242.9z"/>
<path fill="#BB9C61" d="M297.1,259.2h40.6c0,2.7,0,5.5,0,8.2c-12.6,6-25.2,5.8-37.8,0L297.1,259.2z"/>
<path fill="#B89A5F" d="M299.9,267.4h37.8c0,3,0.6,6.2-2.5,8.2c-11.8-0.4-23.9,2.2-35.3-2.7V267.4z"/>
<path fill="#B7995E" d="M299.9,272.8c11.8,0.3,23.8-1.4,35.3,2.7c0,0.9-0.1,1.8-0.1,2.7h-35.2C299.9,276.5,299.9,274.7,299.9,272.8z
	"/>
<path fill="#C2A56A" d="M245.6,237.7l-5.8,2.4c-14.9,5.4-29.7,8.8-43.5-2.7c-0.4-4.8,3.9-7.1,5.5-10.9c14.7-6.3,29.5-5.5,44.4-0.8
	c3.7,3.1,3.5,6.6,1.2,10.4L245.6,237.7z"/>
<path fill="#C4A66B" d="M248,229.2c-15.1-5.6-30.8-1.5-46.2-2.7c0.9-2.6,1.9-5.3,2.8-8l5.3-2.9c14.3-6.6,28.7-5.5,43.2-0.8
	c3.1,3.5,2.7,7.1,0.5,10.9C252.4,227.6,250.3,228.9,248,229.2z"/>
<path fill="#BFA166" d="M196.3,237.4c14.2,5.6,29,1.4,43.5,2.7c0.4,4.8-3.9,7.1-5.5,10.9c-14.5,5.9-29,6.7-43.4,0
	C190.7,245.7,192,240.9,196.3,237.4z"/>
<path fill="#BA9C61" d="M228.9,259.2c-0.9,3.6-1.9,7.3-2.8,10.9c-11.7,1.5-23.9-3.3-35.3,2.7c-4.5-3.9-2.1-9-2.6-13.6
	C201.8,252.9,215.4,252.9,228.9,259.2z"/>
<path fill="#BD9F64" d="M228.9,259.2h-40.7c0.9-2.7,1.8-5.5,2.6-8.2h43.4L228.9,259.2z"/>
<path fill="#8A6F39" d="M294.3,401c11.4,5.9,23.5,1.1,35.2,2.7c6.4,0.9,13.4-2.5,19.2,2.6l-13.6,5.5h-49v-2.7
	C287.9,405.6,290.8,402.7,294.3,401z"/>
<path fill="#A0854B" d="M288.8,343.7c-2,5-8.2,7.4-8.4,13.5c-5.5,2.9-7.8,8.2-10.5,13.2c-2.2,4.1-4.2,9.5-10.8,5.9
	c-3.4-12.7-14.6-20.7-19.3-32.6C250.7,334,278,334,288.8,343.7z"/>
<path fill="#A1854C" d="M288.8,343.7c-16-4.4-33-4.4-49,0c-3.6-1.7-6.5-4.6-8.1-8.2c20.9-4.7,41.7-4.2,62.6,0l-2.7,5.5
	C290.6,341.9,289.7,342.8,288.8,343.7z"/>
<path fill="#A5884F" d="M272.6,319.2h35.3l-5.5,8.1l-2.7,2.8c-10.8-1.4-22.1,3-32.6-2.8C265.5,322.3,268.6,320.5,272.6,319.2z"/>
<path fill="#C7A96E" d="M253.5,218.3c-14.2-5.8-29.1-1.3-43.6-2.7c0.6-5.8,4.6-9.6,8.2-13.6c1.3,7.6,7.4,4.8,11.9,5.4
	c10.5,1.4,21.5-2.9,31.7,2.7c0.1,1.8-0.2,3.5-1,5.1c-0.6,1-1.4,1.9-2.3,2.7C256.8,218.9,255.2,219.5,253.5,218.3z"/>
<path fill="#C9AB70" d="M259.2,215.9c-0.2-2.4,0.2-4.4,2.4-5.8h2.8l8.2,8.2c2.2,4,3.2,8.9,8.1,10.9c1,5.6,2.7,10.7,8.2,13.6
	c0.9,2.7,1.9,5.4,2.8,8.1c-0.1,1.1-0.2,2.2-0.3,3.3c-8-0.1-9.6-7.4-12.9-12.3C272.4,232.9,267.8,222.9,259.2,215.9z"/>
<path fill="#B0945A" d="M259.2,321.1c4.6,3.7,6.9,0.5,9.6-2.8c3.6-4.5,7.6-8.7,11.4-13l3.3,0.2l-10.8,13.7l-5.5,8.1H259
	c0-0.9,0-1.7-0.1-2.5C259,323.6,259.1,322.4,259.2,321.1z"/>
<path fill="#C8AB70" d="M250.9,229.6c-0.2,3.5-2.2,6.6-5.4,8.1l2.4-8.4l2.7-2.8c0.9,0.6,1.2,1.3,0.9,2S251.1,229.6,250.9,229.6z"/>
<path fill="#C9AB70" d="M250.9,229.6c-0.1-1-0.1-2.1-0.2-3.1l2.8-8.1l5.7-2.6C258,221.3,255.5,226,250.9,229.6z"/>
</svg>
