<?xml version="1.0" encoding="utf-8"?>
<!-- Generator: Adobe Illustrator 25.2.1, SVG Export Plug-In . SVG Version: 6.00 Build 0)  -->
<svg version="1.1" id="Layer_1" xmlns="http://www.w3.org/2000/svg" xmlns:xlink="http://www.w3.org/1999/xlink" x="0px" y="0px"
	 viewBox="0 0 380.1 391.9" enable-background="new 0 0 380.1 391.9" xml:space="preserve">
<path fill="#BC9E63" d="M175.4,317c5-15.4-1.4-30.1-3.1-45c-2.7-22.8-7.6-45.3-10.4-68.1c-1.2-10.1-4.5-14.9-15-12.9
	c-3.6,0.7-7.2,1.1-10.8,1.2c-8,0.3-9.9,4.4-4.1,9.3c15.3,12.9,14.1,31.5,19,48.3c-3.2,0.2-5.4-0.6-7.2-2.4
	c-1.3-9.7-3.1-19.3-6.7-28.6c-2.4-7.3-9.2-11.2-13.3-17.2c-3.7-7.6-10.1-9.6-17.9-9.6c-20.4,0.1-40.9,0-61.3-0.1
	c-5.5,0-11.3,0.8-16.2-2.9c-1.5-5.4,1.1-8.5,5.8-10.4c3.6-1,7.2-0.9,10.8-0.9c96.3,0,192.6,0,288.9,0c3.6,0,7.3-0.1,10.9,0.7
	c4.3,2,8.6,4.1,7,10.1c-4.7,4.1-10.5,3.3-16,3.4c-20,0.1-40.1,0-60.1,0.1c-7,0-13.6,1-18.3,7c-1.5,2.4-3.9,4-6.7,4.5l-1.9-0.9
	c3-7.2,1-11.1-7.1-11.2c-2.8,0.1-5.7-0.1-8.5-0.5c-9.2-1.6-13.5,1.2-14.8,11.4c-2.5,19.9-6.7,39.6-10.1,59.3
	c-0.6-0.2-1.1-0.4-1.7-0.6c-1.4-1.2-2.3-2.9-2.4-4.8c0.2-4.8,0.8-9.5,1.6-14.3c1-4,1.5-8.1,1.7-12.2c0.5-4.1,1.8-8.1,2.1-12.2
	c0.1-1.8,0.4-3.6,0.7-5.3c0.9-3.4,1.5-6.9,1.8-10.4c2-8.7-1.1-13-10.3-12.7c-8,0.2-16-0.1-24,0.1c-6.7,0.2-10.6,3.2-10.2,10.4
	c0.2,4.1,1.8,8.1,2,12.2c0.2,3,0.7,5.9,1.6,8.7c1.3,5.2,0.5,10.8,2.3,16c0.5,1.8,0.8,3.6,1,5.4c0.2,4.8,1.6,9.5,2.3,14.3
	c0.3,4.2,0.5,8.4,1.7,12.4c1.1,4.7,0.8,9.6,2.4,14.2c0.3,1.2,0.6,2.4,0.8,3.6c0.5,5.6,0.4,11.2,1.9,16.7c0.7,5.4,1.2,10.8-4,14.5
	C177.8,318.3,176.3,318,175.4,317z"/>
<path fill="#C2A468" d="M351.1,188.5c0.2-3.2-1.8-6.2-4.9-7.3c-2-2.1-4.8-3.4-6.7-5.5c-4.3-4.6-9.9-2.9-14.9-2.9
	c-88.6-0.1-177.2-0.1-265.8-0.1c-5.6,0-11.4,0.8-16.8-1.5c-5.8-8.4,3-9.3,6.5-13c43.1-0.3,86.1,0.1,129.2-0.3
	c7.5,6.6,15.3,7.2,23.3,0.8c43.9-0.5,87.8-1.7,131.7,0.6c1.4,0.6,2.8,1.4,4.1,2.3c8.2,8.4,14.8,18.2,19.4,29l-1.5,0.9
	C353.1,191.3,351.6,190.1,351.1,188.5z"/>
<path fill="#B79A5F" d="M10.2,216.9c-0.6-4.4,4-5.8,5.4-9c4-4.4,3.4-12,10-14.6c17.9-2.2,35.8-0.8,53.8-0.8c3.9,0,8.1,0.7,9.9,5.2
	c0.3,3.1-1.8,3.7-4.3,4.4c-11.5,2.9-22.4,7.4-33.3,11.9c-7.6,3-15,6.3-21.6,11.4l0.1-0.1c-3,2.3-7.1,2.5-9.9,5.2l-4,4.6
	c-3.8,0.7-5.8,4.1-8.9,5.8c-6.3,3.5-5.6-0.6-4.6-4.7c-0.1-2.4-0.2-4.7,1.6-6.6C9,226.5,8.5,221.2,10.2,216.9z"/>
<path fill="#CFBA86" d="M275.8,91.4c-0.4,6.4-1.5,12.3-10,11.5c-7.7-0.7-18.3,3.7-19.3-9.4c-0.6-7.2-10.5-14.6-0.2-21.9
	c4-2.6,8.8-4,12.4-7.4l-0.1,0.1c3.9-2.7,8.7-4,12.3-7.3l-0.1,0.1c3.9-2.7,8.7-4,12.3-7.3l-0.1,0c6.9-2.6,5.2,1.7,4.2,5.3
	C283.7,67.3,278.6,79,275.8,91.4z"/>
<path fill="#BA9C60" d="M88.4,200.5c-1.3-6.6-6.6-4.6-10.6-4.6c-18.3-0.2-36.7-0.1-55-0.1c-1.6-3.6,1.7-4.6,3.4-6.5l1.5-0.8
	c26.1,0,52.3,0.6,78.4-0.3c11.8-0.4,19.4,2.4,21.3,14.9c-6.3,5-14.2,2.8-21.3,4.6c-3.8,0.7-5.5-2.6-8.1-4.2l-2.5-2.2
	C93.4,197.9,90.5,202.5,88.4,200.5z"/>
<path fill="#B4985D" d="M360,232.6l-6.7-4.3c-8.9-8-20.3-11.4-30.7-16.8c-3.6-1.1-7.9-1.1-9-6c2-6.1,7.4-5.8,12-5.8
	c10.1-0.1,20.2-0.8,30.3,0.5c10.9,5.8,11.3,18.3,17.5,27.1l-0.1-0.1c-0.8,5.1,9.1,10.6-0.6,15.4l0.1-0.1
	C368.6,239,365.5,234.2,360,232.6z"/>
<path fill="#C8AB6F" d="M47.1,159.3l-7.3,9.7c1.7,3.6-1.3,5.6-2.7,8.3c-1.2,1.7-3.2,2.5-4.7,3.9l-4.9,7.3l0,0c-1.1,1.1-2.1,1-3-0.2
	c9.4-19,22.3-35.6,36.6-51c2.6-2.5,4.7-5.4,7.3-8c8.6-8.6,9.1-8.9,15.7,1.5c2.6,4.2,9.7,3.1,9.6,9.4c-5.6,7.4-13.7,5-20.8,4.8
	c-6.8-0.3-12.6,0.4-16.3,6.9C54.3,155.2,50.9,157.8,47.1,159.3z"/>
<path fill="#B2965B" d="M139.4,217.6c3.2,9.6,8.8,18.9,4.2,29.7l-4.4-2.2c-4.1-4.6-9.9-6.8-14.7-10.3l0.1,0.1
	c-3.7-3.6-7.8-6.7-11.1-10.8c-1.7-2.1-2.3-4.1,0.5-5.9C122.5,216.2,130.9,215.6,139.4,217.6z"/>
<path fill="#CEBB87" d="M171.1,54.7c0.9-1.6,1.8-3.3,2.7-4.9c1.3-2.7,1.6-6.2,5.3-7.1c6.7-1.5,13.6-0.7,20.3-1.5
	c4.3-0.2,3.9,4,5.8,6.2c0.4,2.6-0.2,5.5,2.4,7.3c0.9,1.1,0.8,2.7-0.3,3.6c-10.7,6.7-21.8,5.9-33,1.4C172.6,58.5,172,56.5,171.1,54.7
	z"/>
<path fill="#D1B882" d="M93.3,139.8c-2.6-1.8-6.5-3-7.6-5.4c-7.5-17.4-13.8-5.5-20.4,0.5c-1.3,0.9-2.6,1.7-4.1,2.4
	c4.8-10,13.8-16.3,20.8-25.7c2.9,24.4,11.6,29.9,34.2,22.7c7.7-2.4,15.5-4.6,23.2-6.9c0.8,1.1,0.8,2.5,0,3.6
	c-8.4,6.6-18.9,7.6-28.5,11.3C104.8,143.1,98.6,144.6,93.3,139.8z"/>
<path fill="#876C37" d="M207.4,383.4c-20.3-12.1-36.6,3.6-55.8,8.5c-0.4-13.9-6.5-27.1-0.8-40.8c0.9-0.8,2.3-0.8,3.3-0.2
	c1.8,2.8,0.7,5.8,0.7,8.8c0,1.6,0-0.4,0,1.2c-0.1,23.4,0.8,24.2,22,14.7c11.6-5.2,21.8-3.9,31.1,4.6
	C208.4,381.3,208.2,382.5,207.4,383.4z"/>
<path fill="#CCB077" d="M219.4,132.2c3.3-9.4,9-10.2,18-6.9c15.3,5.7,30.4,13.2,47.6,11.9c0.9-0.9,2.3-0.9,3.2,0
	c0.1,0.1,0.2,0.2,0.3,0.4c0.3,1.3-0.2,2.7-1.3,3.5c-6.2,3-12.6,2.1-19.1,1.2c-8.8-2.7-17.7-5.4-26.3-8.8c-7.1-2.8-13.9-3.1-21-0.4
	L219.4,132.2z"/>
<path fill="#D2C49B" d="M205.2,47.4l-4.9-4.9c-5.3-5.7-6.8-13.2-9.4-20.2c-1.1-2.4,0.1-5.2-1.8-7.9c1,2.9,0.2,5.1-0.4,7.4
	c-1.5,3.6-2.3,7.7-6.7,9.1l-1.5-0.8L189.6,0C194.9,18,202.8,31.7,205.2,47.4z"/>
<path fill="#876C37" d="M218.1,336.5c18.9,13.6,12.6,32.9,10.6,50.7c-0.9,8.5-6,2.6-9.4,0.9c0.5-1,1.1-1.8,1.9-2.6
	c5.4-7.8,1.5-17,3.6-25.2c1.4-4.7-1.8-7.8-4.2-11c-1.9-4.4-7.6-7.1-5.5-13.1C216,335.6,217.2,335.7,218.1,336.5z"/>
<path fill="#B99D62" d="M244.6,242.6c-3.9,3.7-8.5,6-15.6,7.7c4.5-17.5,2.7-36.1,19.5-47.6l0.6,0.5c2.9,4.8-1.1,7.6-3.2,10.8
	c-5.3,6-6,13.8-8,21.1c-1.1,3.9,1.3,5,4.4,5.4C243.4,240.8,244.2,241.6,244.6,242.6z"/>
<path fill="#D1BC89" d="M132.5,93.8c-0.2,5-0.6,10.8-7.6,9c-6.6-1.7-16.8,6.6-19.5-6.5c-0.9-0.7-1-2-0.3-2.9
	c0.1-0.1,0.2-0.2,0.3-0.3c8.5-0.9,17.1,0.2,25.6-0.3L132.5,93.8z"/>
<path fill="#CFB57F" d="M287.9,137.5l-3-0.3c7.9-4.7,14-10.6,11.4-23.7c12.3,8.5,19.5,18.3,25.9,28.6c-0.8,0.8-2,1.1-3.1,0.9
	c-1.6-0.6-3-1.5-4.3-2.7c-4.3-3.6-7.3-8.3-11.6-12.2C297.6,130.3,297.3,141.7,287.9,137.5z"/>
<path fill="#D0BD8D" d="M105.5,93.6c0,0.9-0.1,1.8-0.2,2.7c-7.3-16.1-11.7-33-17.4-50.4c6.6,0.1,10.1,2.4,12.8,6.2
	c-0.5,0.4-0.9,0.8-1.3,1.1c-0.8,1.3-4.2-1.3-3.1,1.1c3.8,8.8,6.3,18,9.3,27C107,85.3,109.1,89.6,105.5,93.6z"/>
<path fill="#B99D62" d="M280.9,205.8c-8.3,16-20.1,28.5-36.2,36.8l-0.7-0.8c-0.1-7.5,7.3-8.9,11-13.3c4.9-5.9,11.1-10.6,15.6-16.8
	c2.3-3,4.1-6.5,7.1-9.1c1.1-0.4,2.2-0.4,3.3,0.1C281.6,203.7,281.6,204.9,280.9,205.8z"/>
<path fill="#C9B276" d="M88.4,200.5c2.4-0.4,5.8-9.6,7,0.8l-45.8,14.4c-0.8-0.6-1.1-1.2-0.8-1.8s0.5-1,0.7-1
	C62.5,209,74.2,200.6,88.4,200.5z"/>
<path fill="#C8AB6F" d="M197.9,161.7c-6.6,5.8-12.6,6.6-17.1-2.4c-3.4-1.5-6.5-3.7-9-6.4c-2.6-3.3-7.2-5.6-5.7-11
	c0.9-0.7,2.1-0.6,2.9,0.2c2.9,2.8,5.9,5.4,8.6,8.4c11.9,13.1,11.9,13.1,24.8,1.4c0.9-0.7,2.1-0.5,2.8,0.4
	C206.4,158.2,201,159.1,197.9,161.7z"/>
<path fill="#CFBD8B" d="M275.8,91.4c-0.4-11.6,6-21.4,8.4-32.3c0.6-2.9,5.9-7.3-1.3-9.4c1.9-3.3,4.7-5.1,9.5-5.5
	C286.4,60.2,283.1,76.4,275.8,91.4z"/>
<path fill="#BA9C62" d="M205.3,278.8c-0.5,5.2-0.9,10.5-1.7,15.6c-1.5,9.7-2.3,19.2,4.3,27.6c-0.8,0.8-1.8,1.3-2.9,1.4
	c-1.6-0.2-3.2-1.1-4.2-2.3c-4.7-4.7-4.9-10.4-4.2-16.5c0.8-5.7,1.4-11.5,2.2-17.2c0.4-3.2,0.9-6.5,1.3-9.7c0.3-1.7,1.1-3.3,2.3-4.6
	c1.1-0.4,2.4-0.2,3.3,0.6C206.5,275.4,206.3,277.3,205.3,278.8z"/>
<path fill="#D4C38F" d="M280.9,205.8c-0.1-0.9-0.3-1.9-0.5-2.8c-0.3-10.5,5.2-9.4,11.9-6c7.6,3.4,17.1,2.8,22.4,10.8l9.5,2.6
	c1.3,1,1.3,1.9-0.1,2.8c-9.5-2.9-19.1-5.8-28.6-8.8C290.3,202.8,285.4,201.7,280.9,205.8z"/>
<path fill="#CFB781" d="M217.7,81.3c-1.5,13.7-11.5,22.3-19.6,32l-1.2-1.3c1.7-12.7,11.6-20.8,17.6-31
	C215.5,80.4,216.8,80.5,217.7,81.3z"/>
<path fill="#CEBB8A" d="M171.1,54.7l2.4,2.4c1.8,6.6-3,11.6-4,17.5c-2,4.5-2.1,9.2-1.8,14c-0.2,1.1-0.8,2-1.6,2.7
	c-5.8-2.9-6.7-7.3-4.3-13.1C165.1,70.5,168.1,62.6,171.1,54.7z"/>
<path fill="#CFB47D" d="M169,142.1l-2.8,0.2c-1.7-0.2-3.3-0.9-4.5-2.1c-5.6-7.4-13-10.8-22.2-10.1c0-0.9,0-1.8-0.1-2.7
	C153.5,120.8,157.7,122.9,169,142.1z"/>
<path fill="#B9A167" d="M373.4,227.2c-7.5-6.5-8-17.4-15-24.2c-2.5-2.4-3.9-5.6-3.9-9c0.1-1.1,0.6-2.2,1.3-3l0.5-0.6
	C363.4,202.1,369.9,214,373.4,227.2z"/>
<path fill="#8C713B" d="M154.1,351.4l-3.2-0.3c5.6-9.6,12.1-18.5,19.5-26.7c0.8-0.8,2-1,3-0.4c2.4,5.4-2.8,7.7-4.6,11.5
	c-2.7,3.9-5.9,7.4-8.4,11.4C158.7,349,157,351,154.1,351.4z"/>
<path fill="#B9A167" d="M324,213.2c0-0.9,0.1-1.9,0.1-2.8c9.7,6,22.3,7.2,29.2,17.9L324,213.2z"/>
<path fill="#D0BD8D" d="M125.1,66.6c16.4,6.5,16.4,6.5,7.4,27.2l-0.5-0.3c-3.4-8.3-0.2-18.5-7.7-25.5
	C124.6,67.5,124.8,67.1,125.1,66.6z"/>
<path fill="#B9A166" d="M2.9,236.2c0.5,3.2,1.2,6,5,2.4c2.4-2.4,4.9-4.2,8.5-3.5c-4.9,5.8-9.7,11.7-14.6,17.5
	C-1.6,245.1,0.5,240.6,2.9,236.2z"/>
<path fill="#CEBB8A" d="M217.7,81.3l-2.8,0.2c-2.8-1.6-4-4.4-5.1-7.2c-1.1-5.7-5.9-10.8-2.3-17.1c0-0.8,0.1-1.6,0.1-2.4
	C213.6,62.6,215.4,72,217.7,81.3z"/>
<path fill="#CCB077" d="M205.2,152l-2.8-0.2c3.8-8.2,10.6-13.8,17-19.6l0.6,0.5c2.3,2.9,0.6,5.4-0.9,7.8c-3.8,4-7.3,8.4-12.2,11.2
	L205.2,152z"/>
<path fill="#B9A167" d="M372.7,242.5c6-4.9-1.6-10.4,0.6-15.4c4.6,6.2,6.4,13.2,6.8,20.9C375.7,248.1,374.4,245.1,372.7,242.5z"/>
<path fill="#BEA064" d="M24.6,188.2l3,0.2c-1.6,2.4-3.2,4.9-4.8,7.3c-0.9,4.9-2.4,9.4-7.1,12.1C17,200.6,19,193.6,24.6,188.2z"/>
<path fill="#B99C61" d="M112.7,220.1c2.7,6,9.7,8.6,12,15c-7.9-3.5-13.3-9.5-17.3-17l1.4-1C110.6,217.2,112.2,218.4,112.7,220.1z"/>
<path fill="#B79C62" d="M49.5,212.8l0.1,2.8c-6.2,3.9-12.4,7.6-19.5,9.7C34.3,217.5,43.2,217.1,49.5,212.8z"/>
<path fill="#CDB984" d="M166.1,91.4c0-0.9,0.1-1.8,0.1-2.7c7.9,1.5,10.5,7.2,11.5,14.2c-0.2,1.2-0.9,2.3-1.9,3.1
	C170.8,102.4,168.7,96.7,166.1,91.4z"/>
<path fill="#B99C61" d="M97.9,203.4c3.3-3.4,2.9,2.5,5.1,2c3,3.5,8.3,5.9,5.1,12c0,0-0.7,0.6-0.7,0.6
	C102.7,214.3,99.4,209.2,97.9,203.4z"/>
<path fill="#CFB781" d="M198.1,113.3c-6.8,12.2-7.4,12.5-12.6,4.9c0.4-0.3,0.8-0.7,1.1-1.1c3.9-0.9,6.5-5.4,11.2-4.1L198.1,113.3z"
	/>
<path fill="#D2C49B" d="M178.4,45l-4.6,4.8c0-7.3,2.7-13.7,6.6-19.7l0.5,0.4C184.9,36.2,181.9,40.6,178.4,45z"/>
<path fill="#8C713B" d="M205.2,322.4l2.7-0.4c4,4.4,7.8,8.9,10.2,14.4l-3.2,0.3c-1.6-0.2-3-1-4.1-2.1
	C208.3,330.9,204,327.9,205.2,322.4z"/>
<path fill="#CFB781" d="M175.9,106c0-0.9,0.1-1.8,0.1-2.7c7.6,1.9,11.5,6.3,9.8,14.5c0,0-0.4,0.3-0.4,0.3
	C181.2,114.9,177.2,111.5,175.9,106z"/>
<path fill="#B49A5F" d="M124.6,234.9c6.5,1.1,11.8,4,14.7,10.3C133.7,242.8,128.1,240.3,124.6,234.9z"/>
<path fill="#B9A167" d="M360,232.6c7-0.3,10.1,4.4,12.8,9.8C367.3,240.6,363.9,236.3,360,232.6z"/>
<path fill="#836833" d="M222.2,387.7l-3,0.4c-4.3-0.4-8.4-2-11.8-4.7c0.1-1,0.1-1.9,0.1-2.9C214,379.9,219.8,380.3,222.2,387.7z"/>
<path fill="#CFBD8B" d="M270.8,57c-2.5,5.2-7.1,6.7-12.3,7.3C261.4,59.8,265.9,58,270.8,57z"/>
<path fill="#CFBD8B" d="M283,49.7c-2.5,5.1-7.1,6.7-12.3,7.3C273.6,52.6,278,50.7,283,49.7z"/>
<path fill="#D0BD8D" d="M112.9,59.3c4.8,1.1,9.2,3.1,12.2,7.3l-0.3,0.4c-6.6,2.9-10.2-0.4-12.6-6C112.4,60.4,112.7,59.8,112.9,59.3z
	"/>
<path fill="#BC9E63" d="M205.3,278.8l-0.4-5.6c-2.9-4.7-4.3-9.1,2.1-12.1l1,0.6C207.3,267.5,208.6,273.5,205.3,278.8z"/>
<path fill="#CFBD8B" d="M258.6,64.2c-2.5,5.2-7.2,6.8-12.4,7.4C249.2,67.3,253.6,65.2,258.6,64.2z"/>
<path fill="#D0BD8D" d="M100.7,52.1c4.8,1.2,9.2,3,12.2,7.2l-0.3,0.4c-6.9,2.3-11.2,0.3-12.2-7.3L100.7,52.1z"/>
<path fill="#C8AB6F" d="M319.5,142.3l2.8-0.2c3.4,2.5,6.3,5.3,7.2,9.6l-1.3,1.1c-1.1,0.1-2.3-0.2-3.3-0.7
	C322,149.4,318.2,147.2,319.5,142.3z"/>
<path fill="#C6A86C" d="M336.9,161.5l-2.9,0.2c-2.9-2.5-8.3-3.7-5-9.5l0.5-0.6C333.1,154.1,336,157.1,336.9,161.5z"/>
<path fill="#B9A166" d="M10.2,216.9c0.3,5.2,0.1,10.2-5.7,12.6C6.4,225.3,8.3,221.1,10.2,216.9z"/>
<path fill="#947942" d="M173.5,324.7l-3.1-0.3l5-7.3l2.9,0.1c0.7,0.7,1,1.8,0.9,2.8C178.3,322.4,176.1,324.2,173.5,324.7z"/>
<path fill="#B79C62" d="M20.4,230.4c2.1-4,5.7-5.1,9.9-5.2C28.1,229,24.4,230,20.4,230.4z"/>
<path fill="#BEA064" d="M32.5,181.2l2.5-4.9c4.9-3.4,10.5-3.7,16.2-3.7c92.1,0,184.3,0,276.4,0c5.7,0,11.3,0.2,16.2,3.7
	c2,1,2.4,2.9,2.4,4.9H32.5z"/>
<path fill="#BA9C60" d="M355.8,191.1c0.1,0.8,0.1,1.5,0.1,2.3c-3.1,6.3-9.1,5.9-14.5,5.8c-14.3-0.1-28.7,0.9-43-0.4
	c-2.8-0.3-5.6,0.2-8,1.7c-5.3-6.8-7.6-2.1-10,2.6h-2.3c-8.4,1.8-16.6,2.6-24.3-2.4c1.2-9.7,7.5-12.3,16.3-12.2c27,0.1,54,0.1,81,0.1
	L355.8,191.1z"/>
<path fill="#BA9C62" d="M163.9,200.7c-1.8-11.2,3.6-15.2,14.2-14.7c7.2,0.4,14.4,0,21.6,0.1c17.4,0.1,17.8,0.6,15.1,17.1
	C197.5,208.6,180.5,210.3,163.9,200.7z"/>
<path fill="#AE9157" d="M212.3,217.7c-0.8,4-1.6,8.1-2.4,12.1c-4.8,4.2-10.6,3.5-16.2,3.3c-7.9-0.2-15.1,2.7-22.6,3.9
	c-4.6-5.1-1.4-11.4-2.4-17c0.9-2.4,2.7-4.5,5.1-4.6C186.7,214.5,199.8,211.4,212.3,217.7z"/>
<path fill="#A6884F" d="M173.7,256.6c-1-4.8-3.4-9.4-2.4-14.6c12.1-5.9,24.2-5.9,36.3,0c-0.8,4.9,2.1,10.4-2.6,14.6
	C194.6,262.2,184.1,262,173.7,256.6z"/>
<path fill="#B3955B" d="M108,217.5c-1.7-4-3.4-8-5.1-12c7.9-2.9,16.1-2.5,24.3-2.4c5.1,3.9,11,7.3,12.1,14.6
	c-8.6,4.5-17.8,1.6-26.7,2.4L108,217.5z"/>
<path fill="#B5965C" d="M163.9,200.7c16.8,3.9,33.9,1.8,50.9,2.4c0.4,3.5-0.7,6.7-2.4,9.7c-15.4,3.7-30.7,4.1-46.1,0
	C165.5,208.8,164.7,204.7,163.9,200.7z"/>
<path fill="#AA8D53" d="M207.6,242h-36.3c-0.1-1.6-0.1-3.3-0.1-4.9c3.5-7.7,11.1-6.3,17.3-7.1c7.1-0.9,14.4-0.2,21.6-0.2
	C209.4,233.9,211.6,238.6,207.6,242z"/>
<path fill="#9F834A" d="M173.7,256.6l31.3,0l2,4.6c-3.1,3.6-1.4,8.1-2.1,12.1c-0.7,0.2-1.4,0.4-2.2,0.4c-8.8-2.6-18.7,0.8-26.9-4.9
	C172.1,265.2,174.1,260.7,173.7,256.6z"/>
<path fill="#947942" d="M200.3,288.2c-0.2,5.8,1.9,11.9-2.5,17c-6.1,1.5-12,1.6-17.3-2.3c-4.1-5.3-1.5-11.4-2.1-17.1
	C186.3,281.2,193.9,279.9,200.3,288.2z"/>
<path fill="#B5985E" d="M253.8,200.6c8.1,0.7,16.5-1.9,24.3,2.4c0.3,4.2-3.5,6.4-4.9,9.8c-9.7,4.8-19.4,5.9-29.1,0
	c1.4-3.3,5.1-5.5,5-9.6L253.8,200.6z"/>
<path fill="#8C713B" d="M180.6,302.8c5.8,0.8,12-2.3,17.3,2.3c1.2,5,0.7,10.6,4.9,14.6c-8.1,5.2-16.2,5.2-24.3,0
	c0-0.9-0.1-1.8-0.1-2.7C181.3,312.7,180.9,307.8,180.6,302.8z"/>
<path fill="#9C8047" d="M175.9,268.7c6.3,0,12.7,0,19,0c3.7,0,7.3,0,7.9,4.9c0,1.6-0.1,3.2-0.1,4.8c-7.2,5.9-16.5,1.6-24.3,5
	C174.1,279.1,176.7,273.6,175.9,268.7z"/>
<path fill="#B3965C" d="M166.3,212.8h46.1l-0.1,4.9c-14.5,1.1-29.4-2.7-43.7,2.4C165.8,218.3,166.3,215.5,166.3,212.8z"/>
<path fill="#977C43" d="M178.3,283.4c6.3-10.6,16.4-2.4,24.3-5c0.6,3.6-0.8,6.6-2.3,9.7c-6.9-4-14.6-1.9-21.9-2.4
	C178.4,285,178.3,284.2,178.3,283.4z"/>
<path fill="#C0A266" d="M343.8,176.3H34.9l4.9-7.3c96.1,0,192.1,0,288.2,0C334.5,169,341.4,167.8,343.8,176.3z"/>
<path fill="#C4A66B" d="M173.5,152c3.2,1.5,5.8,4.1,7.3,7.3c-3.6,2.1-7.6,2.4-11.7,2.4c-36.8-0.1-73.6-0.1-110.3,0
	c-4.1,0-8-0.4-11.7-2.4c1.5-3.2,4-5.8,7.3-7.3c4.3-3.8,9.6-3.9,14.8-3.9c29.4-0.1,58.8-0.1,88.2-0.1
	C163.1,148,168.6,148.8,173.5,152z"/>
<path fill="#C3A56A" d="M329,152.2c0,4.1,3.6,6.2,5,9.5H197.9l7.3-9.7l0,0c7.1-2.5,14.4-1.3,21.6-1.4c29-0.1,57.9,0.1,86.9-0.1
	c4.4,0,8.9,0,13.1,1.5C327.5,152,328.3,152.1,329,152.2z"/>
<path fill="#B89A60" d="M290.4,200.4c2.4-5,7-4.7,11.5-4.7c13.7,0,27.5,0,41.2,0c4.5,0,8.9,0,12.9-2.4c1.9,2.9,2.8,6.3,2.5,9.7
	c-11.5,0-23-0.1-34.5,0c-3.8,0-8.4-1.1-9.2,4.8L290.4,200.4z"/>
<path fill="#C6A76C" d="M173.5,152H54.3c2.3-8.7,6.7-12.3,16.5-10.2c7.1,1.5,15.2,2.1,22.4-2h19.4c17-1,34.1-2.3,51.1,0.1l2.4,2.4
	L173.5,152z"/>
<path fill="#CDB984" d="M207.5,57.2c1.6,5.7,3.3,11.3,4.9,17c-15.4,6.1-30.7,6-46.1,0l7.2-17C184.8,61.6,196.2,60,207.5,57.2z"/>
<path fill="#CEBB8A" d="M178.4,45l2.6-14.5c2.8-2.6,4.5-6.1,4.8-9.8c2.4-1.8,4.8-2.1,7.1,0c2.3,7.3,7.2,13.8,7.4,21.8
	C193.4,47.4,185.7,43.9,178.4,45z"/>
<path fill="#C8AB6F" d="M163.8,139.9c-16.8,3.9-34.3,3.9-51.1-0.1c8.3-5,17.7-6.9,26.8-9.7C152.2,121.9,157.6,131.8,163.8,139.9z"/>
<path fill="#7C612E" d="M222.2,387.7l-14.6-7.2c-15.6-10.2-29.8-3.1-43.8,3.9c-7,3.5-9.2,2.9-10.4-5.5c-1.1-6.7-1.6-13.4-1.7-20.2
	c1.9-1.6,3.9-3,6.4-3.2c20.9-1.2,41.8-1.2,62.6,0c2.4,0.2,4.7,1.3,6.3,3.2c-0.6,8.2,1,16.4-1.1,24.5
	C225.4,385.6,225.6,388,222.2,387.7z"/>
<path fill="#7F6531" d="M227.1,358.7h-75.3c0.8-2.4,1.5-4.9,2.3-7.3l4.9-4.9c18.5-2.8,37-1.1,55.6-0.9c2.9,0.2,5.6,1.3,7.7,3.3
	C224.6,351.8,231.8,352.3,227.1,358.7z"/>
<path fill="#C6A86C" d="M326.8,152c-3.2,1.7-6.8,2.5-10.5,2.5c-33.5-0.1-67.1-0.1-100.6,0c-3.6,0.1-7.2-0.8-10.5-2.5
	c3-5,7.2-9.1,12.1-12.2c16.2-2.6,32.4-0.9,48.7,0h21.9c9.7-0.8,19.5-1.8,29.2,0l2.4,2.4L326.8,152z"/>
<path fill="#C8AB6F" d="M266,139.8c-16,3.9-32.7,3.9-48.6,0c0.9-2.4,1.7-4.8,2.6-7.2c5.1-5.7,10.8-6.8,18.1-3.4
	C247.1,133.4,257.4,134.4,266,139.8z"/>
<path fill="#C8AB6F" d="M317,139.9c-9.3,3.9-19.8,3.9-29.2,0c0-0.8,0-1.5,0.1-2.3c8.8-1.3,10.3-9.1,13.6-16.8L317,139.9z"/>
<path fill="#CFBE8F" d="M192.9,20.7h-7.1l3.2-7.8C192.3,14.7,192.6,17.7,192.9,20.7z"/>
<path fill="#826732" d="M222.2,349c-17.3,0-34.6,0.1-51.9,0c-3.9,0-8.2,1.3-11.3-2.4c-0.2-5.6,5.6-7.7,7.4-12.1
	c15.4-5.9,30.8-6,46.1,0l2.4,2.4C216.6,341.3,222.4,343.3,222.2,349z"/>
<path fill="#B1955A" d="M244.1,212.8h29.1c-8.2,11.2-19.1,19.7-29.3,29c-8.6,3.7-12.9,2-8.9-7.9
	C237.9,226.8,236.2,217.7,244.1,212.8z"/>
<path fill="#CFBB87" d="M100.4,52.4c2.7,4.6,7.3,6.2,12.2,7.3c2.7,4.7,7.3,6.2,12.2,7.3c12.2,6.2,9.2,16.5,7.2,26.5
	c-8.8,3.9-17.7,3.7-26.6,0.1c-1.6-12.4-6.8-23.7-10.8-35.4C92.2,50.7,95.1,51,100.4,52.4z"/>
<path fill="#876C37" d="M212.4,334.4h-46.1l7.2-9.7c1.6-1.6,3.2-3.3,4.9-4.9h24.3l2.5,2.6L212.4,334.4z"/>
<path fill="#CDB780" d="M166.3,74.2h46.1l2.5,7.3c-0.3,10.4-10.5,15.3-13.6,24.2c-0.8,2.4-3.4,4.3-3.6,7.3
	c-4.2,1.1-5.6,8.8-11.9,4.9c-1-6.4-6.5-9.7-9.8-14.5c-0.8-6.5-6.4-9.8-9.7-14.6C162.3,83.9,165.3,79,166.3,74.2z"/>
</svg>
