<svg id="Camada_1" data-name="Camada 1" xmlns="http://www.w3.org/2000/svg" viewBox="0 0 48.4 53.44"><title>champion-icon</title><path d="M5.65,26.75C5.09,14.47,9.29,5,21.27.08h4c.59,2.11-1,3-2.37,3.7C20.11,5.21,19.29,7.33,20,10.24c-.07,4.4-4.77,3.8-6.69,6.21-2.68,1.55-3.14,4.11-3.11,6.89a6.75,6.75,0,0,1-2,2.72A2.41,2.41,0,0,1,5.65,26.75Z" transform="translate(-0.53 -0.08)" fill="#6190a1"/><path d="M33.12.08a1.13,1.13,0,0,0,0,.92c.35,2.09-1.42,2.25-2.64,2.91a13.14,13.14,0,0,0-6.77,3.7c-1.22,1.16-2.23,3-4.45,2.35-2.17-3.28-.94-5.52,2.34-6.83a6.34,6.34,0,0,0,3.58-3Z" transform="translate(-0.53 -0.08)" fill="#6190a1"/><path d="M2.46,44.91.53,42.59V37.65l5-5a7.09,7.09,0,0,0,.13-4.91v-1l1.8-1c2,2.36,1.28,5.1,1.07,7.76-1,3.79-4.56,6.27-5.14,10.27A2.72,2.72,0,0,1,2.46,44.91Z" transform="translate(-0.53 -0.08)" fill="#6190a1"/><path d="M45.93,45.52a21.28,21.28,0,0,1-7.87,8H32.14V52.44c-.16-.9.39-1.34,1.07-1.69a16.55,16.55,0,0,0,7.21-3.6C41.92,45.79,43.56,44.16,45.93,45.52Z" transform="translate(-0.53 -0.08)" fill="#6190a1"/><path d="M13.37,53.47l-2.15-1.75c2.26-1.82,5-3,7-5.1,4,2.86.65,4.74-.93,6.85Z" transform="translate(-0.53 -0.08)" fill="#6190a1"/><path d="M48.93,44.57l-1-.12a6.14,6.14,0,0,1,0-7.68l1-.11Z" transform="translate(-0.53 -0.08)" fill="#6190a1"/><path d="M27.38,34.81c-.44,2.43-2.34,1.9-3.83,1.7-2-.26-1.07-2-1.23-3.13-.56-4.09,1.25-8.4-1.15-12.32a2.7,2.7,0,0,1-.3-2.13Q26.59,13.2,32.41,7.58c1.83-1.77,3.68-3.93,6.78-2.82,1.63,2.52-.24,4.2-1.48,6s-2.27,3.49-3.57,5.12a17.16,17.16,0,0,1-1.41,1.54c-.79.81-1.64,1.56-2.45,2.36C26.5,24.24,27.4,29.61,27.38,34.81Z" transform="translate(-0.53 -0.08)" fill="#6190a1"/><path d="M18.25,46.62c-.68,4-3.6,4.9-7,5.1a15.7,15.7,0,0,1-4.84-4.15c3.72-1.49,5.47-4.1,4.66-8.18,0-2.14-.17-4.29.6-6.35a2.51,2.51,0,0,1,1.9-1.49c2.27,1.58,1.81,4,1.69,6.18A11.91,11.91,0,0,0,18.25,46.62Z" transform="translate(-0.53 -0.08)" fill="#6190a1"/><path d="M32.14,16.88l1-1a19.06,19.06,0,0,0,8.26-5.5c1.48-.33,2.66-.08,3.11,1.59a24.44,24.44,0,0,1-.19,11.44,6,6,0,0,1-3.07,3.67,1.68,1.68,0,0,1-1.51-.34,12.75,12.75,0,0,0-.69-6.83C37.83,16.38,33.93,19,32.14,16.88Z" transform="translate(-0.53 -0.08)" fill="#6190a1"/><path d="M21.33,18.83c0,.75-.11,1.49-.16,2.23-.68-.43-1.34-.91-2-1.28-5.19-2.71-7.78-1.16-7.74,4.59v3.4c-3.91.27-2.6-2.09-2-4.06,0-3-.18-6.06,3.1-7.74,1.94-1.51,4.13-1.26,6.34-.93C20.35,15.8,21.65,16.77,21.33,18.83Z" transform="translate(-0.53 -0.08)" fill="#6190a1"/><path d="M27.38,34.81c-2.85-3.65-1.57-11.34,2.68-16,1.12-.55,2.22-.87,3.24.2-3.6,1.55-4.2,4.6-4.21,8.08C29.09,29.73,30.09,32.7,27.38,34.81Z" transform="translate(-0.53 -0.08)" fill="#6190a1"/><path d="M9.31,23.71c.36,1.51-.62,3.7,2,4.06.72,1.26,1.45,2.52,2.18,3.78l-1,1.23C11,33.87,9.64,35.6,7.35,34.68v-8.9Z" transform="translate(-0.53 -0.08)" fill="#6190a1"/><path d="M33.05,51.35c-.3.35-.61.69-.92,1-3-2-3.36-4.15.14-5.83a10.34,10.34,0,0,0,3.63-3,1,1,0,0,1,1.31,0C37.72,47.1,36.1,49.61,33.05,51.35Z" transform="translate(-0.53 -0.08)" fill="#6190a1"/><path d="M37,43.57l-1.07,0c.21-4.66-1-9.57,2.31-13.7,1.55-.06,1.65,1.16,2,2.21C39.64,36,40.45,40.39,37,43.57Z" transform="translate(-0.53 -0.08)" fill="#6190a1"/><path d="M33.3,19l-3.24-.2,2.08-1.89c2.3,1,6.52-2.4,6.89,3C37.32,18.36,35.22,19.24,33.3,19Z" transform="translate(-0.53 -0.08)" fill="#6190a1"/><path d="M39.12,31.73c-.31-.64-.61-1.27-.91-1.91l1.51-3.09H41C41.52,28.86,42,30.92,39.12,31.73Z" transform="translate(-0.53 -0.08)" fill="#6190a1"/><path d="M5.67,27.78a3.49,3.49,0,0,1-.13,4.91C5.58,31.05,5.63,29.41,5.67,27.78Z" transform="translate(-0.53 -0.08)" fill="#6190a1"/><path d="M19.23,16H12.41c0-1.77,1.28-1.84,2.59-2.18,2-.52,4.14-1.13,4.3-3.83C23,7.86,24.9,2.8,30.16,3.07,29.63,8.35,24.34,14.61,19.23,16Z" transform="translate(-0.53 -0.08)" fill="#6190a1"/><path d="M39.12,31.73l1.89-5,2-3A1,1,0,0,1,44.4,24c1.38,2.43.77,5.12,1,7.71.13,1.77-.18,3.69,1.73,4.81a3,3,0,0,1,.77.2v7.68l-2,1.07c-2.45.25-4.11,1.82-5.76,3.44A7.6,7.6,0,0,1,33,51.27c1.53-2.48,3.21-4.89,3.91-7.78Q38.05,37.66,39.12,31.73Z" transform="translate(-0.53 -0.08)" fill="#6190a1"/><path d="M19.23,16A35.25,35.25,0,0,0,30.16,3l3-2L39,3.14a1.19,1.19,0,0,1,.2,1.66A1.26,1.26,0,0,1,39,5c-3.93.51-5.83,3.86-8.54,6.1-3.07,2.55-4.93,6.53-9.13,7.73Z" transform="translate(-0.53 -0.08)" fill="#6190a1"/><path d="M39,5V3.14l3,3.76a3.67,3.67,0,0,1-1,4c-.92,4.47-4,5.53-8,5C34.32,11.83,38.89,9.62,39,5Z" transform="translate(-0.53 -0.08)" fill="#6190a1"/><path d="M47.11,36.57c-2.34.31-3.2-.77-3.13-3,.1-3.23,0-6.47,0-9.71-.32-1.85.91-2.93,2-4.06C47.84,25.27,46.16,31,47.11,36.57Z" transform="translate(-0.53 -0.08)" fill="#6190a1"/><path d="M46,19.75c0,1.69-1.39,2.68-2,4.06H43C44.24,19.94,44,16,44,12c.31-.49.64-.53,1,0C47.09,14.32,45.86,17.13,46,19.75Z" transform="translate(-0.53 -0.08)" fill="#6190a1"/><path d="M45,11.94H44c-.68-1.17-1.84-1-2.91-1.07a6.09,6.09,0,0,1,1-4C43.67,8.23,45,9.68,45,11.94Z" transform="translate(-0.53 -0.08)" fill="#6190a1"/><path d="M12.3,39.59c.21,7.79.21,7.79-5.92,8-1.33-.85-3.13-1-3.92-2.66a.41.41,0,0,1,0-.53C5.19,41.65,8.28,39.65,12.3,39.59Z" transform="translate(-0.53 -0.08)" fill="#6190a1"/><path d="M12.3,39.59c-3.23,1.69-6.13,4.08-9.85,4.79-.42-4.3,2.67-6.8,5-9.7,1.71-.64,3.15-2,5.14-1.9Q12.44,36.18,12.3,39.59Z" transform="translate(-0.53 -0.08)" fill="#6190a1"/></svg>