<svg id="Camada_1" data-name="Camada 1" xmlns="http://www.w3.org/2000/svg" viewBox="0 0 1280.14 853.05"><title>Czech (Czech Republic)</title><path d="M1.3.1Q638.2.1,1275.1,0c4.6,0,5,1.4,5,5.3q-.15,210.9-.1,421.8a7.94,7.94,0,0,1-5.1,1.6c-2,.1-4,0-6,0H651.4a67.69,67.69,0,0,1-9-.3c-2.2-.3-3.9-1.7-5.7-2.9Q577,385.75,517.4,346,261.8,176.65,7.2,6.1C4.9,4.6,1.3,4,1.3.1Z" transform="translate(0.04)" fill="#fdfdfd"/><path d="M640,426.5h633.5c2.1,0,4.3-.5,6.4.4q0,210.75.1,421.4c0,3.7-.8,4.6-4.6,4.6q-637.05-.15-1274.2-.1c-.5-2.2,1.3-2.9,2.6-3.8,2-1.5,4.1-2.8,6.2-4.2Q258.85,678.9,507.7,513.1q63-42,126.1-83.8C635.7,428.1,637.5,426.4,640,426.5Z" transform="translate(0.04)" fill="#d6141a"/><path d="M640,426.5Q500.2,519.65,360.3,612.9,182.25,731.7,4.1,850.4c-1.1.7-2.5,1.1-2.9,2.6-.3-.2-1,.5-1-.5v-4Q.2,426.55.3,4.7C.3,3.2-.9,1.3,1.2.2c.7,1.7,2.5,2.1,3.8,3Q254.45,169.55,503.8,335.7,571.9,381.15,640,426.5Z" transform="translate(0.04)" fill="#11457d"/></svg>