<svg id="Camada_1" data-name="Camada 1" xmlns="http://www.w3.org/2000/svg" viewBox="0 0 1235 650"><title>English (United States)</title><rect width="1235" height="650" fill="#bb133e"/><path d="M0,75H1235M0,175H1235M0,275H1235M0,375H1235M0,475H1235M0,575H1235" stroke="#fff" stroke-width="50"/><rect width="494" height="350" fill="#002664"/><g id="u"><g id="s6"><path id="s" d="M49,23.75,60.76,59.93,30,37.57H68L37.24,59.93Z" fill="#fff"/><path id="s-2" data-name="s" d="M115,23.75l11.76,36.18L96,37.57h38L103.24,59.93Z" fill="#fff"/><path id="s-3" data-name="s" d="M181,23.75l11.76,36.18L162,37.57h38L169.24,59.93Z" fill="#fff"/><path id="s-4" data-name="s" d="M247,23.75l11.76,36.18L228,37.57h38L235.24,59.93Z" fill="#fff"/><path id="s-5" data-name="s" d="M313,23.75l11.76,36.18L294,37.57h38L301.24,59.93Z" fill="#fff"/><path id="s-6" data-name="s" d="M379,23.75l11.76,36.18L360,37.57h38L367.24,59.93Z" fill="#fff"/><path id="s-7" data-name="s" d="M445,23.75l11.76,36.18L426,37.57h38L433.24,59.93Z" fill="#fff"/></g><g id="s6-2" data-name="s6"><path id="s-8" data-name="s" d="M49,111.25l11.76,36.18L30,125.07H68L37.24,147.43Z" fill="#fff"/><path id="s-9" data-name="s" d="M115,111.25l11.76,36.18L96,125.07h38l-30.78,22.36Z" fill="#fff"/><path id="s-10" data-name="s" d="M181,111.25l11.76,36.18L162,125.07h38l-30.78,22.36Z" fill="#fff"/><path id="s-11" data-name="s" d="M247,111.25l11.76,36.18L228,125.07h38l-30.78,22.36Z" fill="#fff"/><path id="s-12" data-name="s" d="M313,111.25l11.76,36.18L294,125.07h38l-30.78,22.36Z" fill="#fff"/><path id="s-13" data-name="s" d="M379,111.25l11.76,36.18L360,125.07h38l-30.78,22.36Z" fill="#fff"/><path id="s-14" data-name="s" d="M445,111.25l11.76,36.18L426,125.07h38l-30.78,22.36Z" fill="#fff"/></g><g id="s6-3" data-name="s6"><path id="s-15" data-name="s" d="M49,198.75l11.76,36.18L30,212.57H68L37.24,234.93Z" fill="#fff"/><path id="s-16" data-name="s" d="M115,198.75l11.76,36.18L96,212.57h38l-30.78,22.36Z" fill="#fff"/><path id="s-17" data-name="s" d="M181,198.75l11.76,36.18L162,212.57h38l-30.78,22.36Z" fill="#fff"/><path id="s-18" data-name="s" d="M247,198.75l11.76,36.18L228,212.57h38l-30.78,22.36Z" fill="#fff"/><path id="s-19" data-name="s" d="M313,198.75l11.76,36.18L294,212.57h38l-30.78,22.36Z" fill="#fff"/><path id="s-20" data-name="s" d="M379,198.75l11.76,36.18L360,212.57h38l-30.78,22.36Z" fill="#fff"/><path id="s-21" data-name="s" d="M445,198.75l11.76,36.18L426,212.57h38l-30.78,22.36Z" fill="#fff"/></g><g id="s6-4" data-name="s6"><path id="s-22" data-name="s" d="M49,286.25l11.76,36.18L30,300.07H68L37.24,322.43Z" fill="#fff"/><path id="s-23" data-name="s" d="M115,286.25l11.76,36.18L96,300.07h38l-30.78,22.36Z" fill="#fff"/><path id="s-24" data-name="s" d="M181,286.25l11.76,36.18L162,300.07h38l-30.78,22.36Z" fill="#fff"/><path id="s-25" data-name="s" d="M247,286.25l11.76,36.18L228,300.07h38l-30.78,22.36Z" fill="#fff"/><path id="s-26" data-name="s" d="M313,286.25l11.76,36.18L294,300.07h38l-30.78,22.36Z" fill="#fff"/><path id="s-27" data-name="s" d="M379,286.25l11.76,36.18L360,300.07h38l-30.78,22.36Z" fill="#fff"/><path id="s-28" data-name="s" d="M445,286.25l11.76,36.18L426,300.07h38l-30.78,22.36Z" fill="#fff"/></g></g></svg>