<svg id="Camada_1" data-name="Camada 1" xmlns="http://www.w3.org/2000/svg" viewBox="0 0 1200 600"><title>English (Republic of the Philippines)</title><path d="M1.25.13Q598.13.13,1195,0c4.5,0,5,1.27,5,5.23q-.18,147.39-.09,294.79c-1.37,1.74-3.28,2.12-5.35,2.18-2.66.09-5.32.09-8,.09h-655c-3.5,0-7,.09-10.47-.21-9.43-3.05-17.4-8.93-25.88-13.77-36.4-20.8-72.64-41.86-108.95-62.82q-52.72-30.47-105.42-61Q234,137.39,187,110.42,105.32,63.29,23.61,16.16c-6.06-3.48-12-7.07-18.13-10.52C3.32,4.42,1.08,3.18,1.25.13Z" transform="translate(0)" fill="#00468b"/><path d="M519.23,300h680.68q0,147.69.09,295.39c0,3.75-.85,4.59-4.59,4.59q-597.08-.15-1194.16-.09c-.16-2.79,1.77-4.08,3.8-5.26Q44.4,572,83.73,549.25,130.83,522,178,494.84q50.58-29.23,101.2-58.41,52.49-30.39,105-60.71c35.88-20.7,71.69-41.52,107.67-62.06,6.93-4,13.77-8.09,20.73-12A11.45,11.45,0,0,1,519.23,300Z" transform="translate(0)" fill="#cd1126"/><path d="M519.23,300c-21.26,12.38-42.49,24.81-63.79,37.11Q230.55,467,5.64,596.89c-1.53.88-3.42,1.3-4.39,3-.3-.22-1,.5-1-.5,0-1.33,0-2.67,0-4Q.26,300,.32,4.63c0-1.46-1.16-3.39.93-4.5C7.17,4.69,13.88,8,20.3,11.66Q267.68,154.52,515.11,297.3C516.53,298.12,517.86,299.1,519.23,300Z" transform="translate(0)" fill="#fefefe"/><path d="M279.23,303c1.36,1,2.08,2.15,1.29,3.81-.89,1.86-2.63,1.7-4.3,1.81-2.52.18-6.06-2.15-6.06,3.55,0,2.9-3.75,1.74-5.94,1.67s-4.77-1.29-5.55,2.59c-.35,1.74-2.64,1.48-4.38,1.2q-17-2.7-34-5.28c-2-.31-4.15-1.15-5.36,1.87-1.29,3.2,1.42,3.29,2.83,4.17,9.16,5.73,18.43,11.29,27.6,17,2.28,1.42,5.28,2.46,2.94,6.48-1.14,2,1.78,2.55,3,3.48,4.71,3.54,4.83,4.15.76,8.16,8,7.51,8,7.51,3.14,10.72.62,2.54,5.88,4.12,2.59,7.26-3.53,3.36-5.14-1.9-8.28-3-.28,1.53-.33,3.48-2.42,3.9s-3.22-1.3-4.53-2.5c-1.73-1.59-2.71-4.84-6.05-1.18-1.72,1.89-3.68-.89-5.13-2.48-1.65-1.83-2.51-5.11-6.36-2.52-1.66,1.11-3-1.4-4.11-2.84q-9.93-13.46-19.82-26.94c-1.25-1.7-2.11-3.68-5.09-2.35s-1.45,3.21-1.05,4.93c2.49,10.68,5,21.35,7.62,32,.66,2.71.86,4.53-2.54,5.78-2.68,1-.63,3.77-.4,5.66.58,5-.47,5.94-5.41,4.25-1.21.47-.26,1.2-.21,1.82.13,1.31.27,2.61.38,3.92.52,5.64-.52,6.51-5.81,4.89-1.1,2.36,1.66,7.09-2.93,7-4.93-.09-2.6-5-3.48-7.82-1.08-1.14.08-2.84-1-4.07a4.3,4.3,0,0,1,0,4.12c-3.07,2.79-4.71,1.62-5.21-2a39.61,39.61,0,0,1,0-5c0-.95.25-2.1-1.4-1.91-5,.59-4.32-2.72-4-5.82.3-2.48,1.37-5-2.61-6-2-.52-1.26-3.16-1-4.94,1.51-10.2,3.08-20.39,4.6-30.58.31-2.12.51-4.25.75-6.29-2.23-.78-2.59.92-3.29,1.87-6.65,8.95-13.22,18-19.87,26.91-1.62,2.19-2.84,5-6.7,2.61-2-1.25-2.63,1.8-3.79,2.92-2.24,2.16-4,5.59-7.39,1.35-1.36-1.68-1.81.51-2.55,1-2.76,1.89-4.77,8.08-8.85,1.28-.57-.94-1.48.05-2.08.55-1.87,1.56-3.89,4.19-6.2,1.2s1.24-4.24,2.55-6.12c.81-2.14-1.65-1.16-2.06-2.15-2.86-4,1.11-5,3-7,1.11-1.21,4.51-1.7.73-4.4-2.56-1.83-.28-4,1.74-5.51s5.49-2.26,3.11-6.44c-1-1.66,1.63-2.91,3.19-3.86,9.36-5.73,18.74-11.44,28.07-17.24,1.49-.92,4-1.22,2.84-4.27s-3.29-2.17-5.34-1.86c-11.18,1.69-22.37,3.38-33.54,5.19-2.55.42-4.66.5-5.58-2.48s-3.07-1-4.63-1.1c-3-.27-7,1.59-6.62-4.44.12-2.15-3-.89-4.52-.9-5.56,0-6.44-1.16-4.35-6.63-1.61,0-3.1.06-4.58,0-1.88-.1-3.3-1-3.3-3s1.36-2.9,3.3-2.91c1.5,0,3,0,4.5,0a1.86,1.86,0,0,0,.87-.11c-.2-.38-.62-.56-.86-.9-2.54-3-1.61-4.71,2.08-5.1a20.86,20.86,0,0,1,3.91.3c1.24.56,2.57.22,3.86.3.65,0,1.08-.27.42-.16,0,0-.1-.21-.16-.32-1.64-4.28-.82-5.55,3.44-5.21,3,.24,6.08,1.88,7.95-2.57.79-1.86,3.72-.41,5.58,0,10.68,2.5,21.32,5.17,32,7.65,1.52.35,3.45,1.79,4.66-.89s-.55-3.6-2.17-4.79l-27.76-20.38c-2.17-1.59-4.55-2.85-2.46-6.36,1.32-2.2-1.56-2.73-2.63-3.88-2.13-2.28-6.18-3.7-1.57-7.7,1.4-1.22-1.52-2.65-2.6-3.77-3.89-4-3.79-5.32,1-7.78-1.05-2.58-6.13-4.45-2.5-7.77,3-2.75,4.65,1.64,6.86,2.94,2.88-5,2.88-5,11.34,3.24,2.46-3.93,4.13-4.11,6.8-.73,1.74,2.21,2.54,5.69,6.91,3.43,1.62-.83,2.83,1.86,3.77,3.39,5.93,9.63,11.79,19.3,17.77,28.9.84,1.33,1,3.84,3.78,3s2.17-2.75,1.85-4.8c-1.8-11.67-3.52-23.35-5.25-35-.38-2.54-.8-5,2.77-5.83,2.49-.61,1-2.78.93-4.19-.13-3.37-1.93-7.17,4.39-7,1.93.05.64-3.61.76-5.54.26-4.62,1-5.18,5.23-3.33.65-.4.05,1.88.94.51,1.32-2,0-4.52.93-6.66a2.59,2.59,0,0,1,3.58-1.58,3,3,0,0,1,1.81,3.18c0,1.47-.08,2.94-.12,4.4.68,1.21.22,2.38.3,3.25.61-.65-.49-2.18.53-3.13,1.21-1.45,2.68-2,4.33-.87,1.42.95,1.37,2.47,1.15,4s-.4,3.27-.59,4.9c-.17.91-1.09,2.25,1.05,1.81,4.22-2.08,5,.26,4.62,3.72-.31,2.86-2.17,5.89,2.29,7.52,1.77.65,1,2.85.61,4.51-2.67,11-5.22,22-8,33-.74,3-1.13,4.87,2.6,6.52,4.09,1.81,4.87-.66,6.32-3q8.73-14.26,17.49-28.5c1.35-2.2,2.6-4.55,5.78-2.37,2.28,1.56,2.21-1.12,3-1.91,2.42-2.29,3.71-8.21,8.28-2,.76,1,1.34-.39,1.78-.88,1.24-1.35,2.29-2.87,3.54-4.2,1.49-1.57,3.35-1.94,4.65,0s2.15,2.27,3.68.43,3.3-2.7,5.12-.85.42,3.64-1,5.16l-2.41,2.54c5.32,2,5.64,3.51,1.74,7.41-1.68,1.69-4.82,2.71-1.28,6.09,1.89,1.81-.94,3.7-2.47,5.16-1.79,1.71-5,2.58-2.55,6.38,1.12,1.76-1.4,3.08-2.83,4.13Q232.09,274,218,284.36c-1.56,1.15-3.42,1.87-2.15,4.67s3.13,1.24,4.57.9c10.85-2.51,21.66-5.24,32.5-7.78,2.6-.6,5.27-1.91,6.73,2.48.82,2.46,4,.25,6.11.13,3.31-.18,5.39.26,4.38,4.24.38,1.73.52,1.78,3.1,1.16l4.35-.28a2.93,2.93,0,0,1,3.19,1.67,2.5,2.5,0,0,1-1.44,3.57,5.2,5.2,0,0,0-1,.77,1.47,1.47,0,0,0,.84,0l4.92.07c1.91,0,3.18.86,3.21,2.9s-1.28,2.9-3.13,3c-1.63.12-3.28.13-4.91.18a5.14,5.14,0,0,1-4.12.07C276.28,303.11,278,301.92,279.23,303Z" transform="translate(0)" fill="#e87b0c"/><path d="M399.55,280.48c7.1,2.13,12.85,3.66,18.46,5.61,3.13,1.1,5,.79,7-2.17,3.29-4.94,7.12-9.51,10.73-14.24l1.38.2c0,6.19.12,12.39-.06,18.57-.08,2.76.75,4.1,3.53,4.94,5.93,1.8,11.72,4.07,18.95,6.64-7.11,2.51-12.75,4.78-18.55,6.45-3.24.94-4.05,2.58-3.94,5.68.21,5.92.06,11.86.06,17.79l-1.26.46c-3.76-4.9-7.62-9.71-11.23-14.72-1.57-2.19-2.93-3-5.73-2-5.77,2-11.72,3.58-19,5.75,2.25-3.45,4-5.94,5.55-8.51,2.36-3.77,7.14-7.1,6.79-11.18-.32-3.75-4.38-7.18-6.81-10.75C403.75,286.56,402.06,284.12,399.55,280.48Z" transform="translate(0)" fill="#e87c0e"/><path d="M75.61,94.23c-5.94-.44-11.92-.57-17.79-1.43-3.6-.53-5,.88-6.28,3.83-2.35,5.46-5,10.79-8.1,17.3C41.8,106.88,40.23,101,39.11,95c-.64-3.37-2.3-4.61-5.6-4.9-5.91-.51-11.78-1.42-19-2.32,6.19-3.77,11.26-7.09,16.56-10,2.79-1.54,3.7-3.26,3-6.37-1.3-5.6-2.29-11.28-3.47-17.23,3.47-.19,4.89,2.67,7,4.23,3.71,2.78,6.9,7.52,10.9,8.25s8.1-3.8,12.25-5.85c2.36-1.16,4.64-2.5,8.41-4.55-2.9,6.89-5.1,12.52-7.66,18-1.34,2.86-1,4.69,1.44,6.79,4.53,3.85,8.74,8.07,13.09,12.14Z" transform="translate(0)" fill="#e87c0e"/><path d="M76.07,506.77c-4.2,3.93-8.22,8.09-12.67,11.72-3,2.47-3.21,4.65-1.59,8,2.5,5.15,4.46,10.55,7.2,17.18-6.21-3.39-11.24-5.84-15.94-8.8-3.29-2.07-5.68-2.37-8.58.72s-6.49,5.7-9.79,8.49c-1.1.93-2,2.34-4,1.52,1.1-5.59,2.09-11.24,3.36-16.84.68-3,.14-4.86-2.77-6.45-5.34-2.89-10.43-6.25-16.7-10.08,7.27-.92,13.25-1.87,19.28-2.36,3.23-.26,4.59-1.68,5.21-4.7,1.23-6,2.72-11.94,4.37-19,3.2,6.7,6,12.28,8.51,18,1.09,2.48,2.31,3.5,5.21,3.14,6.1-.74,12.25-1,18.38-1.46Z" transform="translate(0)" fill="#e87c0e"/><path d="M183.07,198.9c.53,3.62-.3,7.08-1.16,10.88-1.11-1.68-.6-3.25-.71-4.73C183.33,203.46,181.22,200.58,183.07,198.9Z" transform="translate(0)" fill="#efa458"/><path d="M90.24,295c1.68-.19,3.11.51,4.94,1.31a4.35,4.35,0,0,1-5-.3Z" transform="translate(0)" fill="#ed9a46"/><path d="M279.2,295.93c-1.36,1.22-2.89,1.34-4.95.67a6.92,6.92,0,0,1,5.09-1.48A2.75,2.75,0,0,0,279.2,295.93Z" transform="translate(0)" fill="#ed963e"/><path d="M100.35,290h2.27c-2.15,1.2-4.29,1.49-6.39.18Z" transform="translate(0)" fill="#ec9339"/><path d="M273.24,290.16a26.7,26.7,0,0,1-3.12.85c-.5.07-1.06-.32-1.6-.5l1.62-1.51C270.8,290.39,272.24,289.69,273.24,290.16Z" transform="translate(0)" fill="#f1b272"/><path d="M195.11,214.86c-.42.71-.57,2.42-1.55,1.66s-.27-2.37.5-3.47C194.35,213.69,194.17,214.6,195.11,214.86Z" transform="translate(0)" fill="#ec9136"/><path d="M189.17,205c-.07,1.21-.14,2.43-.24,4.25a6,6,0,0,1-.59-4.37C188.62,204.93,188.9,205,189.17,205Z" transform="translate(0)" fill="#f0ae69"/><path d="M279.23,303h-4c1.64-1.27,2.86-.91,4.05-.85A1.88,1.88,0,0,0,279.23,303Z" transform="translate(0)" fill="#f1ae6b"/><path d="M112.25,362.94c1.08.49,2.56-.4,3.32.94.07.13-.82.8-1.26,1.21Z" transform="translate(0)" fill="#f7d2ad"/><path d="M194,386a12.91,12.91,0,0,1-.8-2.2c-.09-.48-.28-1.32.61-1.32.14,0,.27,1.1.4,1.7Z" transform="translate(0)" fill="#ed9740"/><path d="M181.26,394.06c0-1.24-.34-2.51.43-3.73.86,1.18.58,2.44.5,3.68l-.47,0Z" transform="translate(0)" fill="#efa357"/><path d="M215.25,300.59A30.08,30.08,0,0,1,184.85,331c-16.64,0-30.65-14-30.59-30.58S168.27,270,185,270C202,270,215.27,283.43,215.25,300.59Z" transform="translate(0)" fill="#e4b943"/><path d="M120.37,359.38c-.34,1.76-1.4,2.21-2.92,3.48C117.77,360.6,118.64,359.9,120.37,359.38Z" transform="translate(0)" fill="#ec9135"/><path d="M246.4,233.94a4.9,4.9,0,0,1-.86,1c-.44.29-.94.14-.79-.48.09-.37.54-.7.89-1C245.74,233.47,246.08,233.76,246.4,233.94Z" transform="translate(0)" fill="#eb8a28"/><path d="M192.37,291.78c2.29-1.63,4.07-2.74,6.08-2.42,2.68.42,5.75.23,7.69,2.49.65.77-1,1.63-1.82,1.83-3.24.79-6.7,4.41-9.69-.52C194.28,292.59,193.37,292.37,192.37,291.78Z" transform="translate(0)" fill="#c05c06"/><path d="M177.63,292.52c-5.7,3.57-7.26,3.4-13.82-1.55C168.79,289.14,173.44,288,177.63,292.52Z" transform="translate(0)" fill="#bf5b04"/><path d="M181.13,291.14c-2-3.33-4.85-4.54-8.71-4.16-3,.29-6,.06-9.4.06,1-2.31,2.24-1.83,3.31-1.87a23.15,23.15,0,0,0,8.74,0c3.35.17,5.45,2.15,7,4.87C181.88,290.53,181.77,291.07,181.13,291.14Z" transform="translate(0)" fill="#c66c10"/><path d="M182.31,301.29v8.1c-3.44-.57-4.8-1.8-3.33-4.8.87-1.79,1.63-3.63,2.45-5.45C183.35,299.19,182.56,300.36,182.31,301.29Z" transform="translate(0)" fill="#c05d06"/><path d="M191.49,321.27c-4.78,1.18-8.3.72-12.22.65C182.63,319.65,185.46,319.44,191.49,321.27Z" transform="translate(0)" fill="#cb7a19"/><path d="M204.8,287l-11.52,1.5C196.55,284.42,200.76,286.24,204.8,287Z" transform="translate(0)" fill="#c05c06"/><path d="M179,318.23h12.67A28.8,28.8,0,0,1,179,318.23Z" transform="translate(0)" fill="#bf5a04"/><path d="M182.31,301.29c-.29-.71-.59-1.43-.88-2.15.75-2.7,1.3-5.39-.3-8l1-1.07C184.62,293.77,183.52,297.53,182.31,301.29Z" transform="translate(0)" fill="#c16008"/><path d="M175.07,285.2a10.32,10.32,0,0,1-8.74,0Z" transform="translate(0)" fill="#be5803"/></svg>