<svg id="Camada_1" data-name="Camada 1" xmlns="http://www.w3.org/2000/svg" viewBox="0 0 900 600"><title>German (Germany)</title><path d="M.1,200q0-98-.1-195.94C0,.67.67,0,4.1,0Q450,.15,895.9,0c3.43,0,4.11.67,4.1,4.09q-.19,98-.1,195.94a6.37,6.37,0,0,1-5.2,2.4c-2.32.12-4.66.09-7,.09q-437.72,0-875.42-.06C8.15,202.46,3.55,203.83.1,200Z" transform="translate(0 0)"/><path d="M.1,200H899.9V400a6.38,6.38,0,0,1-5.2,2.41c-2.32.11-4.66.09-7,.09q-437.72,0-875.42-.06C8.15,402.4,3.55,403.76.1,400Z" transform="translate(0 0)" fill="#dc0000"/><path d="M.1,400H899.9q0,97.94.09,195.86c0,3.26-.43,4.18-4,4.18q-446-.16-892,0c-3.58,0-4-.92-4-4.18Q.19,497.9.1,400Z" transform="translate(0 0)" fill="#fecd00"/></svg>