<svg id="Camada_1" data-name="Camada 1" xmlns="http://www.w3.org/2000/svg" viewBox="0 0 1366 767"><title>Italian (Italy)</title><path d="M455.64,767H0V0H455.64A5.39,5.39,0,0,1,458,4.81c.07,2.25.08,4.49.08,6.73q0,372,0,743.92c0,2.24,0,4.48-.08,6.73A5.39,5.39,0,0,1,455.64,767Z" fill="#009146"/><path d="M455.64,767c.68-1.6.36-3.26.36-4.89q0-378.61,0-757.22c0-1.63.32-3.29-.36-4.89H911.36a5.41,5.41,0,0,1,2.3,4.81c.07,2.25.08,4.49.08,6.73q0,372,0,743.92c0,2.24,0,4.48-.08,6.73a5.41,5.41,0,0,1-2.3,4.81Z" fill="#fefefe"/><path d="M911.36,767c0-1.65,0-3.29,0-4.94V4.94c0-1.65,0-3.29,0-4.94H1366V767Z" fill="#cd2b37"/></svg>