<svg id="Camada_1" data-name="Camada 1" xmlns="http://www.w3.org/2000/svg" viewBox="0 0 800 560"><title>Portuguese (Brazil)</title><path d="M400,559.91q-197.7,0-395.41.09C.84,560,0,559.16,0,555.41Q.17,280,0,4.59C0,.84.84,0,4.59,0Q400,.15,795.41,0c3.74,0,4.59.84,4.59,4.59q-.16,275.41,0,550.82c0,3.75-.84,4.59-4.59,4.59Q597.7,559.84,400,559.91Z" transform="translate(0 0)" fill="#009a3a"/><path d="M400,68.16c1.23.76,2.5,1.51,3.74,2.3l213,136,110.71,70.67c4.5,2.88,4.5,2.9-.13,5.85Q565.92,386,404.54,489.16c-3.49,2.24-5.76,2.07-9.15-.1Q234.28,386,73,283.12c-4.88-3.11-4.88-3.11.13-6.31l322-205.62C396.68,70.21,398.24,69.27,400,68.16Z" transform="translate(0 0)" fill="#fdde00"/><path d="M533.68,321.48c-23.56,73-99.17,114.11-171.45,93.31-74-21.29-116.38-95.3-97.6-170.23a11.77,11.77,0,0,1,6.22-2.73A380.18,380.18,0,0,1,313,238.38a312.31,312.31,0,0,1,50.62,2.73,331.77,331.77,0,0,1,56.68,13A341.63,341.63,0,0,1,485.83,284c15.67,9.13,30.15,20.05,44,31.73A15.32,15.32,0,0,1,533.68,321.48Z" transform="translate(0 0)" fill="#002776"/><path d="M272.26,223.14c18.7-40.81,49.86-67.4,93.1-78.64,69.19-18,139.88,19,165.48,85.81a137.67,137.67,0,0,1,7.75,69.19c-1.82.64-3.32-.17-4.59-1.25a311.31,311.31,0,0,0-30.93-22.64,281.69,281.69,0,0,0-38.76-21.34q-18.19-8.21-37-14.92c-17.74-6.37-36.1-10-54.58-13.25-8.5-1.47-17.11-2.95-25.68-3.2-7.92-.22-15.74-1.73-23.77-1.07-7.39.61-14.87.1-22.34.47s-14.8,1.81-22.24,2.15C276.46,224.55,274.06,225.38,272.26,223.14Z" transform="translate(0 0)" fill="#002776"/><path d="M272.26,223.14c16.88-1.81,33.77-3.38,50.79-3.11q119.22,1.88,212,76.66l3.5,2.81a120.63,120.63,0,0,1-4.91,22c-14.9-12.56-30.23-24.51-46.94-34.64a318.31,318.31,0,0,0-145-46.06c-25.91-1.82-51.56,0-77.15,3.78A96.44,96.44,0,0,1,272.26,223.14Z" transform="translate(0 0)" fill="#fefefe"/><path d="M493.35,327.79c3.24-2.89,6.3-2.4,9.24-.27-1.24,3.3-3.27,5.67-7.62,5.29C496.11,330.58,494.9,329,493.35,327.79Z" transform="translate(0 0)" fill="#e8ebf2"/><path d="M339.12,353.27c3.11-3.75,6.2-2.75,9.18-.56-2.75-.12.25,4.22-4.33,4.8C338.22,358.23,343.18,351.57,339.12,353.27Z" transform="translate(0 0)" fill="#e5e9f1"/><path d="M289.4,259.28c-2.62-1.65-4.48-2.32-6-.4-2.36-3.76-1-6.5,2.44-8.6.86,1.22,1.88,3.31,4.45,2.95C289.66,255.09,286.16,256.09,289.4,259.28Z" transform="translate(0 0)" fill="#edeff5"/><path d="M294.91,317.56c1-2.18.62-4-2.65-5.59,3.67.3,5.26-.77,5.91-3.62.67,2.85,2.15,4,4.37,3.69C301.58,316,299,317.56,294.91,317.56Z" transform="translate(0 0)" fill="#eceff4"/><path d="M400.51,337.6c.3,2.91,1.54,4.1,4.21,3.13-1.51,3.6-3.19,7.73-7,5S397.69,340.36,400.51,337.6Z" transform="translate(0 0)" fill="#edeff5"/><path d="M327.12,330.25c-4.32,2.86-1.2-3.65-3.58-3.58,1.39-.8,3-1.31,3.75-2.94.5,1.86,2.52,1.92,3.62,3.07C328.79,326.88,330.92,331.17,327.12,330.25Z" transform="translate(0 0)" fill="#e6eaf1"/><path d="M500.37,340.43c1-.69,2.94-1,3.29-2.83a6.07,6.07,0,0,0,3.87,2.91c-1.81.67-.49,3.54-2.58,3.86A4.06,4.06,0,0,1,500.37,340.43Z" transform="translate(0 0)" fill="#e4e8f0"/><path d="M496.26,355.26c-5,2.68-2.95-2.72-4.7-3.41,1.14-1.27,3.16-1.44,4-3.14.16,2.1,2.29,2,3.39,3.05C497,352.17,498.46,355.62,496.26,355.26Z" transform="translate(0 0)" fill="#e5e9f1"/><path d="M346.61,288.12c-4.37,2.75-.91-3.58-3.4-3.06.41-1.84,3.46-1.08,3.37-3.41.71,1.82,2.41,2.31,4,3C348.42,284.84,350.44,289.67,346.61,288.12Z" transform="translate(0 0)" fill="#e4e8f0"/><path d="M469.86,373.44c-4,2.8-1.5-2.92-3.28-3.4,1.19-1,2.35-2.64,3.57-2.69s2.29,1.69,3.44,2.64C471.37,370,473.92,374.41,469.86,373.44Z" transform="translate(0 0)" fill="#e6eaf1"/><path d="M400,305c-4.17,1.58-1-3.55-3.47-3.3,1.19-1,2.4-2.68,3.58-2.66s2.33,1.77,3.49,2.76C401.29,301.71,404,307.78,400,305Z" transform="translate(0 0)" fill="#e4e7f0"/><path d="M415.93,317.59c-3.59,1.13-1.13-3.31-3.3-3.36,1.19-1,2.37-2.71,3.58-2.74s2.38,1.7,3.57,2.66C418,314.78,419.07,318.69,415.93,317.59Z" transform="translate(0 0)" fill="#dadfea"/><path d="M441.73,376.73c-4.39,2-.44-3.66-3.24-3,.73-1.4,2.82-1.58,3.07-3.42l3.82,3.4C442.8,373.16,446.4,380.63,441.73,376.73Z" transform="translate(0 0)" fill="#e9ecf3"/><path d="M280.77,328.74c-4,2.25-1.17-3-3.23-3.05,1.1-1.06,2.4-3.11,3.27-2.95,1.29.25,2.28,2.08,3.4,3.23C281.87,325.49,285.09,331.45,280.77,328.74Z" transform="translate(0 0)" fill="#e9ecf3"/><path d="M483.9,362c-3.06,1.23-2.12-1.84-2.49-2.72-.49-1.18,1.7-1.41,2.4-2.4.95.87,3.14.86,2.71,2.57C486.28,360.43,486.73,363.36,483.9,362Z" transform="translate(0 0)" fill="#bcc6da"/><path d="M517.54,332.35c-3.59,2.17-.92-2.79-2.84-2.53l2.91-2.4c-.21,1.88,3.26.79,2.34,2.61C519.62,330.68,520.74,334.28,517.54,332.35Z" transform="translate(0 0)" fill="#dae0eb"/><path d="M437.78,275.06c-3.1,1.43-.78-2.15-2.23-2.2.13-1.67,1.84-1.78,2.69-2.75.35,1.27,2.79,1,2.23,2.78C440.09,274.07,440.08,276.3,437.78,275.06Z" transform="translate(0 0)" fill="#dbe0eb"/><path d="M385.87,317.09c-3,1.47-1.23-2.22-2.66-2.46l2.52-2.44c.82,1,2.92,1.12,2.64,2.63C388.24,315.53,388.76,318.75,385.87,317.09Z" transform="translate(0 0)" fill="#dfe4ed"/><path d="M325.83,340.78c-.9,1.58-.84,3.13-3.23,3.11-2.76,0-.82-2.58-2.25-3a3.6,3.6,0,0,1,3.15-2.1C324.36,338.87,325.15,340.17,325.83,340.78Z" transform="translate(0 0)" fill="#d7dde9"/><path d="M431,360.49c-2.67,1.31-2.26-1.4-2.61-2.46-.55-1.63,2-1.16,2.3-2.47.41,1.34,3.16.71,2.49,2.55C432.94,358.84,434,361.73,431,360.49Z" transform="translate(0 0)" fill="#dce2ec"/><path d="M453.85,364c-2.9,1.56-2-1.56-2.23-2.21-.52-1.53,1.45-1.76,2.33-2.59.38,1.25,3.14.7,2.22,2.91C455.74,363.11,456.32,365.45,453.85,364Z" transform="translate(0 0)" fill="#e3e7f0"/><path d="M469.78,387c-2.92,1.5-2.06-1.78-2.15-2.23-.27-1.37,1.32-1.87,2.39-2.51.13,1.4,3.11.6,2.17,2.92C471.7,386.36,472,388.27,469.78,387Z" transform="translate(0 0)" fill="#e4e8f0"/><path d="M470.61,359.47c-2.44-.14-2.84-1.91-3.86-3l2.89-2.2c.16,1.44,2.5,1.19,2.27,2.7A8.1,8.1,0,0,1,470.61,359.47Z" transform="translate(0 0)" fill="#eef0f5"/><path d="M311.7,306.85c-1.45.29-1.47-.89-1.55-1.77-.12-1.1.64-1.87,1.64-1.64.65.15,2.16.14,1.66,1.63C313.18,305.88,313.22,307.14,311.7,306.85Z" transform="translate(0 0)" fill="#ced5e4"/><path d="M394.07,323c0,.05.85.85.73,1.47a1.79,1.79,0,0,1-2.18,1.49c-.75-.19-1.62-.76-1.35-1.64C391.48,323.68,392.05,322.9,394.07,323Z" transform="translate(0 0)" fill="#d1d8e6"/><path d="M442,234c1,.68.36-4.85,2.41-.61.75,1.54,4,1.33,1.92,4.9-1.26,2.18-.94,2.36-2.83,1-.43-.3-1.92.9-3.15,1.53,0-1.81,1.65-4.06-1.25-4.92C438.71,233.27,441.5,235.36,442,234Z" transform="translate(0 0)" fill="#eff1f6"/><path d="M442,234c-.23,1.76-2.58.31-2.9,1.92C438.11,232.36,441.26,235,442,234Z" transform="translate(0 0)" fill="#5c75a7"/><path d="M351.07,233.09a16.54,16.54,0,0,1-.66,1.87c-.54,1.12-.43,3-2.22,2.88s-1.19-2.08-1.66-3.19a20.69,20.69,0,0,1-.82-3.5c-.25.2-.49.29-.56.45-.77,1.86.69,5.66-1.73,5.41-2.72-.29-.37-3.58-.59-5.53a21.13,21.13,0,0,1,.24-4.48c.13-1.23-.25-2.86,1.86-2.82,1.82,0,2,1.32,2.26,2.71.3,1.74.77,3.46,1.2,5.31,1.82-1.23,1.82-3.25,2.59-4.83.58-1.22.88-2.57,2.69-2.36,2.2.26,1.39,1.92,1.36,3.08a33.79,33.79,0,0,1-.57,6.45c-.26,1.22.69,3.77-1.57,3.41-1.86-.3-.5-2.53-.71-3.88C352.42,233.05,352.24,232.51,351.07,233.09Z" transform="translate(0 0)" fill="#0c9f43"/><path d="M291.08,232.35c-.26-7.95,1.64-9.6,8-8.26,2.89.6,4.63,2.58,3.36,5.4-.88,1.95-.42,3.4,0,5.11.21.86,1,2-.63,2.36-1.05.23-1.51-.52-1.6-1.42-.24-2.31-1.5-2.94-3.73-2.91-2.82.05-2.67,1.74-2.58,3.65,0,.63-.06,1.38-1,1.48-1.05.13-1.51-.5-1.59-1.42C291.18,234.52,291.1,232.69,291.08,232.35Z" transform="translate(0 0)" fill="#12a147"/><path d="M308,230.12c.6-2.86-1.93-7.13,4.11-6.9,5.7.22,8.1,2,8.08,6.95,0,4.71-2.25,6.32-7.75,6.8C305.89,237.54,309,232.65,308,230.12Z" transform="translate(0 0)" fill="#14a249"/><path d="M467.82,270c.77-2.25-.44-3.2-2.27-4.23-2.35-1.32-2.87.15-3.6,1.71-.37.77-.84,1.52-1.86,1-1.41-.67-.64-1.6-.2-2.46l2-4c3.15-6.11,5.25-6.52,10.42-2.14,1.78,1.5,2.48,3.51,1.18,5.26-1.54,2.07-3.68,3.64-3.88,6.52a1.06,1.06,0,0,1-1.51.81C466.77,271.79,467.56,270.83,467.82,270Z" transform="translate(0 0)" fill="#0b9f42"/><path d="M335.45,229.8c-1.05,1.87-2.53,1-3.69,1.24-1.36.34-3.84-1.17-3.75,1.63.09,2.59,2.54,1.26,3.94,1.6a24.59,24.59,0,0,0,3.46.28c.84.09,1.71.29,1.68,1.37s-1,1.06-1.79,1.11h-.5c-8.85.74-12.17-3.82-9-12.28a1.89,1.89,0,0,1,2.21-1.43,11.53,11.53,0,0,1,3,.2c2,.71,5.62-1.28,5.69,1.66.05,1.89-3.64.48-5.61.86-1,.2-2.66-.66-2.84,1-.24,2.09,1.68,1.46,2.84,1.7C332.44,229,334,228.3,335.45,229.8Z" transform="translate(0 0)" fill="#0fa046"/><path d="M481.18,264.32c2.78,1.62,5.65,3.26,8.46,5,.26.16.34,1,.16,1.35a1.17,1.17,0,0,1-1.7.42c-1.76-.93-3.49-1.93-5.24-2.87a1.42,1.42,0,0,0-2.13.42c-.69,1.11.39,1.31.9,1.86,1.34,1.42,5.21,1.38,4,3.85-.85,1.7-3.2-1-4.9-1.69-1-.4-1.78-.85-2.55.28-.9,1.34-.21,2.11.92,2.74a4.64,4.64,0,0,1,.89.45c1.58,1.5,4.67,1.25,5,4.14.08.75-.87,1-1.5.64-3.08-1.81-7.55-2.64-8.73-5.81-.68-1.83,2.45-5.11,3.93-7.7C479.28,266.31,479.54,264.91,481.18,264.32Z" transform="translate(0 0)" fill="#0c9f43"/><path d="M416.25,246.21c-1-.15-1.05.79-1.43,1.49-.53,1-.46,3.17-2.41,2.15-1.26-.66-.2-2.07.1-3.11s.74-2.19,1.11-3.28c2.09-6.27,4.47-7.15,10-3.65,2.07,1.32,3.25,3.27,1.73,5.4-1.37,1.91-2.66,3.6-2.47,6.09.07.83-.4,1.68-1.48,1.51s-1-1.08-.8-1.9C421.58,247.18,418.7,247,416.25,246.21Z" transform="translate(0 0)" fill="#0c9f43"/><path d="M500.89,283.16c.56,2,.87,4-1.43,5.18s-4.16-.11-6-1.25-3.08-2.56-3.13-4.77a1.44,1.44,0,0,1,.78-1.09c1-.39,1.65.41,1.89,1.13.8,2.43,1.95,4.13,4.93,3.42.08-2.55-2.1-3.41-3.19-5s-2.13-3.07-.63-4.9,3.24-1.51,5-.78a7.62,7.62,0,0,1,4.18,3.36c.75,1.5,1.67,3.23-1.26,3.46-.42-.2-1-.56-1.29-.34C500.18,282.06,500.79,282.64,500.89,283.16Z" transform="translate(0 0)" fill="#0fa045"/><path d="M511.1,287.2c.26,2.65,2.56,3.64,3.55,5.49.72,1.36,1.35,2.72.27,4.17a3.55,3.55,0,0,1-4.43,1.24c-3.33-1.35-6.29-3.09-5.49-7.6,3.09-.19,2.12,3,3.61,4,.92.63,1.87,1.91,3,1.11,1.3-.94.24-2-.49-2.93-.31-.39-.67-.74-1-1.14-1.24-1.69-3.2-3.27-1.7-5.67a3.21,3.21,0,0,1,4.3-1.43c2.45,1.1,4.85,2.32,5.4,5.31.13.74.23,1.8-.8,2a1.62,1.62,0,0,1-1.81-1.37C515,288,513.94,286.53,511.1,287.2Z" transform="translate(0 0)" fill="#0c9f43"/><path d="M457.53,256.76c-2.25.62-2.37-1.15-3.14-2.08-1.51-1.8-3.27-1.63-4.76-.22-1.71,1.62-2.39,3.71-.7,5.76,1,1.19,3.6,1.39,3.44.27-.6-4.15,1.55-1.9,3-1.63,2.57.5,1.79,2.11.78,3.2s.24,4.2-3.5,2.36c-6.29-3.09-8.25-4.88-6.63-9.07,1.21-3.09,3.49-4.92,6.94-4.36C456.11,251.51,457.46,253.67,457.53,256.76Z" transform="translate(0 0)" fill="#10a146"/><path d="M404.75,242.8c-3.21-.55-6.38-2.84-6.91,2.19-.08.75-.8,1-1.53.74a1.2,1.2,0,0,1-.78-1.58c.88-3.37,1.11-7.17,2.88-10,2-3.13,5.06,0,7.59.45s3.55,2.46,3,4.95A3.9,3.9,0,0,1,404.75,242.8Z" transform="translate(0 0)" fill="#0ea045"/><path d="M523.93,308.06c-2.86-.27-4.69-2.36-4.82-5.78-.15-3.63,3.51-7.26,7-7s5.42,2.41,5.54,5.87C531.82,304.85,528.29,308.18,523.93,308.06Z" transform="translate(0 0)" fill="#13a248"/><path d="M273.89,232.27c0-3.79,2.63-6.6,6.07-6.32,4.06.34,5.66,3.14,5.86,6.75a6,6,0,0,1-6.14,6.36C276.37,238.91,273.87,236,273.89,232.27Z" transform="translate(0 0)" fill="#0d9f44"/><path d="M373.85,232.11c.72,2.25,2.49,1.58,3.77,1.93.83.22,1.68.36,1.47,1.49s-1.1.93-1.91.79c-.65-.1-1.31-.22-2-.26-.94-.07-2.07-.43-2.28,1.06-.18,1.27.62,1.56,1.69,1.9,1.8.57,5.43-.49,4.84,2.29-.4,1.85-3.78-.28-5.84-.18-3.73.2-4.06-1.8-3.14-4.71a17.94,17.94,0,0,0,.45-2.43c.75-4.79,5.44-6.7,9.46-3.81a1.6,1.6,0,0,1,.59,1.2c0,.83-.7.89-1.41.89C377.74,232.26,375.86,231.32,373.85,232.11Z" transform="translate(0 0)" fill="#0ea045"/><path d="M441.69,250.42c0,3.74-3.11,7.07-6.5,7-3.87-.13-5.56-2.56-5.64-6.15s3-7.1,6.37-6.9C439.69,244.55,441.33,247,441.69,250.42Z" transform="translate(0 0)" fill="#0b9f42"/><path d="M500.89,283.16a17.57,17.57,0,0,1-1.77-1.68c-.89-1.09-2.55-1.74-2.27-3.53a1.29,1.29,0,0,1,1-.79,3.52,3.52,0,0,1,3.28,3.12,5.64,5.64,0,0,0,.95,1.67Z" transform="translate(0 0)" fill="#ecf7f0"/><path d="M351.07,233.09c-.11-1.07.69-2.5,1.21-2.2,1.36.79.56,2.11-.1,3.18Z" transform="translate(0 0)" fill="#67c389"/><path d="M296.14,230.06c-1.45,0-3.1.14-2.79-1.79.39-2.38,2.6-1.23,4-1.51,1.06-.22,2.64-.11,2.51,1.43C299.65,230.58,297.48,229.78,296.14,230.06Z" transform="translate(0 0)" fill="#f3faf5"/><path d="M310.92,230.12c-.18-2.42-.5-4.43,2.76-4.18,2.61.2,4.1,1.37,4.21,3.91.13,2.85-1.46,4.12-4.3,4.31C309.66,234.43,311.3,231.5,310.92,230.12Z" transform="translate(0 0)" fill="#fcfdfc"/><path d="M469.3,264.76c-1.34-.9-3.79-.76-4.27-3.09a1.43,1.43,0,0,1,1.81-1.69c1.74.66,4.09.89,4.36,3.38C471.28,264.12,470.61,264.88,469.3,264.76Z" transform="translate(0 0)" fill="#ebf7ef"/><path d="M418.64,240.76c1.4.73,4,.11,4.33,2.75a1.37,1.37,0,0,1-2,1.39c-1.51-.78-4.29.3-4.38-2.61C416.58,241.45,417,240.26,418.64,240.76Z" transform="translate(0 0)" fill="#eef8f1"/><path d="M406.24,238.67c-.4,1.58-1.6,1.61-2.7,1.25-1.37-.44-3.55.05-3.63-2.28-.07-2,1.44-1.88,2.72-1.44S406,236.46,406.24,238.67Z" transform="translate(0 0)" fill="#f3faf6"/><path d="M529,301.23a4.2,4.2,0,0,1-4,4.23,2.63,2.63,0,0,1-3.21-2.87c0-2.7,1.35-4.42,4.14-4.58C528,297.89,529,299.15,529,301.23Z" transform="translate(0 0)" fill="#f8fcfa"/><path d="M283.18,232.49c0,2.24-.92,4-3.33,4s-3.45-2-3.5-4.06,1-4.1,3.4-4C282,228.49,283.11,230.21,283.18,232.49Z" transform="translate(0 0)" fill="#f0f9f3"/><path d="M435.32,255a3.28,3.28,0,0,1-3.25-3.6c0-2.35,1.16-4.19,3.73-4.38,2.3-.17,3.2,1.42,3.21,3.45A4.32,4.32,0,0,1,435.32,255Z" transform="translate(0 0)" fill="#f6fbf8"/></svg>