<svg id="Camada_1" data-name="Camada 1" xmlns="http://www.w3.org/2000/svg" viewBox="0 0 640 427"><title>Russian (Russia)</title><path d="M.06,285V142a6.19,6.19,0,0,1,4.86-2.13c2.33-.07,4.67-.1,7-.1q308.09,0,616.16.06c4,0,8.43-1.37,11.86,2.17V285a6.19,6.19,0,0,1-4.86,2.13c-2.33.07-4.67.1-7,.1q-308.09,0-616.16-.06C7.92,287.14,3.49,288.51.06,285Z" transform="translate(0)" fill="#0039a5"/><path d="M639.94,142c-1.83.08-3.65.24-5.48.24H5.54c-1.83,0-3.65-.16-5.48-.24Q.06,72.85,0,3.67C0,.9.29,0,3.49,0q316.52.17,633,0c3.2,0,3.5.9,3.49,3.67Q639.87,72.85,639.94,142Z" transform="translate(0)" fill="#fefefe"/><path d="M.06,285c1.83-.08,3.65-.23,5.48-.23H634.46c1.83,0,3.65.15,5.48.23q0,69.18.06,138.36c0,2.77-.29,3.67-3.49,3.67q-316.51-.17-633,0c-3.2,0-3.5-.91-3.49-3.67Q.14,354.15.06,285Z" transform="translate(0)" fill="#d42b1e"/></svg>