<svg id="Camada_1" data-name="Camada 1" xmlns="http://www.w3.org/2000/svg" viewBox="0 0 1024 683"><title>Thai (Thailand)</title><path d="M1023.93,228V455c-1.38,1.72-3.29,2.11-5.36,2.16-2.5.07-5,.08-7.49.08H12.92c-2.5,0-5,0-7.5-.08-2.07-.05-4-.44-5.35-2.16V228c1.38-1.72,3.29-2.11,5.36-2.16,2.5-.07,5-.08,7.49-.08h998.16c2.49,0,5,0,7.49.08C1020.64,225.92,1022.55,226.31,1023.93,228Z" transform="translate(0 0)" fill="#2d2a4a"/><path d="M.07,114.06C.07,77.25.11,40.44,0,3.63,0,.78.42,0,3.53,0Q512,.15,1020.47,0c3.11,0,3.54.78,3.53,3.63-.11,36.81-.07,73.62-.07,110.43-1.38,1.72-3.29,2.11-5.36,2.16-2.5.07-5,.08-7.49.08H12.92c-2.5,0-5,0-7.5-.08C3.35,116.17,1.45,115.78.07,114.06Z" transform="translate(0 0)" fill="#a41931"/><path d="M.07,114.06c1.67,0,3.33-.1,5-.1H1018.93c1.67,0,3.33.07,5,.1V228c-2-.08-4-.24-6-.24H6.05c-2,0-4,.16-6,.24Z" transform="translate(0 0)" fill="#f3f4f7"/><path d="M.07,455c2,.08,4,.24,6,.24q506,0,1011.9,0c2,0,4-.16,6-.24v114c-1.38,1.72-3.29,2.11-5.36,2.16-2.5.07-5,.08-7.49.08H12.92c-2.5,0-5,0-7.5-.08-2.07-.05-4-.44-5.35-2.16Z" transform="translate(0 0)" fill="#f3f4f7"/><path d="M.07,568.94c1.67,0,3.33.1,5,.1H1018.93c1.67,0,3.33-.07,5-.1,0,36.81,0,73.62.07,110.43,0,2.85-.42,3.63-3.53,3.63Q512,682.85,3.53,683C.42,683,0,682.22,0,679.37.11,642.56.07,605.75.07,568.94Z" transform="translate(0 0)" fill="#a41931"/></svg>