<?xml version="1.0" encoding="utf-8"?>
<!-- Generator: Adobe Illustrator 25.2.1, SVG Export Plug-In . SVG Version: 6.00 Build 0)  -->
<svg version="1.1" id="Layer_1" xmlns="http://www.w3.org/2000/svg" xmlns:xlink="http://www.w3.org/1999/xlink" x="0px" y="0px"
	 viewBox="0 0 486 452" enable-background="new 0 0 486 452" xml:space="preserve">
<path fill="#CCB985" d="M88.6,236.3c14.4-17.5,32.3-31.3,48.7-46.7c22.9-21.6,33.7-47.8,33.5-78.9c0-7.3,1.6-13.8,6.7-19.3
	c3.5-2.9,7.7-3.6,12-3.6c34.4-0.2,68.9-0.2,103.4,0c2.3,0,4.6,0.4,6.8,1.2c7.9,5.4,12,12.2,8.5,22c-5.2,3.5-11.2,2.6-17,2.7
	c-34.2,0.1-68.3,0.1-102.5,0c-6.2,0-12,0.2-12.3,8.5c-0.2,3.8-0.9,7.6-2.1,11.3c-0.5,4.1-1.5,8.1-2.7,12.1
	c-1.2,3.6-2.5,7.2-3.7,10.8c-1.2,2.9-2.7,5.6-4.1,8.4c-0.9,1.8-1.8,3.6-2.7,5.4c-1.9,4.8-5.4,8.4-9.1,11.8c-2.5,3-5.1,6-8,8.8
	c-2.5,2.4-4.9,4.8-7.3,7.3c-3.3,3.2-6.4,6.4-9.6,9.7c-4.2,4.1-9.4,6.8-13.3,11.1c-4.1,3.9-8.1,8-12.1,12.1c-2.8,2.5-5.1,5.6-8.8,6.9
	C91.2,238.2,89.6,237.6,88.6,236.3z"/>
<path fill="#CBAD72" d="M161.4,164.1c1.5-2.4,3-4.7,4.6-7.1c3.1-2.8,6.9-3.6,10.8-3.6c45-0.1,90-0.6,135,0.3
	c1.2,0.1,2.3,0.3,3.4,0.6c3.2,0.6,5.2,2.9,7.5,4.9c17.3,32.3,47.6,52.2,73.3,76.4c0.7,0.6,2.2,0.4,3.4,0.5c0.5,0.6,0.8,1.3,0.7,2.1
	c0,0.8-0.1,1.1-0.3,1.1c-1.9,1.6-4.1,1.7-6.5,1.2c-5.7-3.1-10.6-7.4-15.6-11.5c-3.2-3.3-6.4-6.6-9.7-9.8c-3.1-3.3-6.3-6.5-9.6-9.6
	c-4-4.6-9.6-7.3-13.9-11.6c-3.4-3.5-6.9-6.8-10.2-10.4c-3.4-4.2-6.2-8.9-9.7-13.1c-5.6-5.7-13-4.5-19.8-4.5
	c-42.3-0.3-84.6,0-126.8-0.5C172,169.4,165.1,171.2,161.4,164.1z"/>
<path fill="#B2945A" d="M88.6,236.3l4.9,0.1c21.6-1,43.3-3.1,64.8,1.2c3.4,2.7,1.7,6.4,1.6,9.7c-6.4,7.3-16.1,2.1-23.3,6.4
	c-1.2,0.3-2.6,0.1-3.6-0.7c-5.8,17-3.1,34.3-0.8,51.3c1.7,12.6,5.5,24.9,8.4,37.4c-0.9,0.7-2.1,0.9-3.2,0.6
	c-2.7-1.5-3.8-4.1-4.5-6.9c-0.8-3.2-1.7-6.3-2.4-9.5s-1.7-6.3-2.2-9.5c-0.4-2.7-1-5.4-1.7-8c-0.7-3.2-1-6.5-1.1-9.9
	c-0.3-2.7-0.8-5.5-1.5-8.1c-0.4-2.2-0.6-4.5-0.6-6.8c-0.1-1.2-0.1-2.3-0.1-3.5c0-2.3,0-4.7-0.1-7c-0.1-3-0.1-6-0.1-9
	c-0.3-3,0.2-6.1-1-9c-4.2-4.9-10-3.3-15.2-3.5c-20.9-0.7-41.8,1-62.6-0.8c-1.6-4.7-1-9.4-0.4-14.2c9-6.6,19.7-2,29.3-4.3
	c4.7-0.3,6.2,4.4,9.6,6.1C84.2,236.6,86.4,236.4,88.6,236.3z"/>
<path fill="#B2945A" d="M392.5,238.8h6.9c1.6-4.3,6.4-4.9,9.1-7.9l2.4-1.9c8.5,3.6,18.7-1.1,26.6,5.4c0.3,4.8,1.2,9.6-0.6,14.2
	c-4.3,3.5-9.5,2.8-14.4,2.9c-16.6,0.1-33.1-0.1-49.7,0.1c-3.9,0.1-8.7-1.9-11.4,3c-0.7,2.4-0.5,4.9-0.8,7.4c0,3.7,0,7.3-0.1,11
	c0,2.4,0,4.9-0.1,7.3s0,4.9-0.1,7.3c0,1.9-0.1,3.8-0.5,5.6c-0.5,2-1.2,3.7-3.2,4.6c-1.4,0-2.6-0.8-3.1-2c-0.9-6-2-12,1.4-17.6
	c0-6.2,0-12.5-0.2-18.7c-0.1-2.2,0.8-5.2-2.3-5.8c-2.5-0.5-4,1.7-5.4,3.7c-4,5.7-7,12.1-12.5,16.7l-1.3-1.1c-1-8.2,6-12.7,8.8-19
	c3-4.2,0.6-4.9-3.2-5.5c-5.3-0.8-11.9,2.4-15.3-4.8c0.1-2.6-0.2-5.4,2.6-6.9C348.4,234.8,370.5,232.2,392.5,238.8z"/>
<path fill="#CCBB89" d="M301.4,91.4l-123.9-0.1c0.1-3,1.9-5.7,4.6-7c3-4,7.2-5.9,11.7-7.4c30.2-1.3,60.4,0.1,90.6-0.4
	c7.8-0.1,13.1,4,17.1,10.2l-0.1-0.1C302.6,88.3,302.8,89.9,301.4,91.4z"/>
<path fill="#CCBB8C" d="M275.6,61l14.1,11.7c-1.7,4.3-5.5,5.6-9.4,5.6C254,78.6,227.8,79,201.5,78c-1.5-0.2-3-0.8-4.3-1.6
	c0.6-8.1,9.7-18.7,17.6-18.8c17.4-0.2,34.9,0.2,52.4-0.2C270.5,57.4,272.9,59.4,275.6,61z"/>
<path fill="#CDBD8F" d="M275.6,61c-21.2-1.1-42.4,0.6-63.6-0.4c-6.6-0.3-11.2,8.6-15.6,14.4c-0.4,2.7-3.1,3.1-4.7,4.7l-9.6,4.7
	c14.6-15.6,27.8-33,48.1-41.8C245.7,35.8,261.3,42.6,275.6,61z"/>
<path fill="#856A35" d="M348.3,380c-2.9,3.3-6.8,5.6-11,6.6c-7.2,2.8-13.6,7.2-21.2,9.2c-1.9,0.5-3.7,1.7-5.2-0.4s0.6-3.4,1.5-5
	c3.2-5.3,8.8-8.5,11.8-13.9l-0.1,0.2c3.8-3.5,5.5-8.5,8.8-12.4c1.2-3.6,3.9-6.5,4.6-10.3c0.2-3.1,2.2-3.9,4.9-4
	c11.2,1.1,22.6-1.3,33.8,1.7c3.3,1.9,2.6,4.1,0.6,6.6c-2.9,3.6-6.8,6.2-9.8,9.8l0.1-0.2C360.9,372.1,354.1,375.3,348.3,380z"/>
<path fill="#BFA266" d="M324.8,238.9c0,2.3,0,4.7,0,7c1.8,2.1,2.8,4.7,2.9,7.4c-0.4,4.5,1.2,9.9-5.1,11.7c-1.5-1.5-1.7-3.8-0.4-5.5
	c2.3-19-6.6-35.5-11.7-52.9c-0.9-3.1-4.3-5.8-1.5-9.5c12.2-6.1,24.4-5.3,36.7-0.4c4.8,3.8,11.1,5.7,14,11.7
	c-5.4,7.1-13.2,4.9-20.3,5.4c-4.2,0.3-8.5-0.2-12.7,0.2c-6.1,0.5-5.8,3.8-3.1,7.9c1.4,3.3,2.4,6.7,3,10.1
	C327,234.5,326.4,237,324.8,238.9z"/>
<path fill="#9D8048" d="M224.3,285.7l2.5,4.1c1.7,3,4.8,1.1,7.1,2.2c4.7,1.2,9.6,1.1,14.3-0.2c9,1.9,11.5-9,19.2-9.8
	c5.3,0.8,11.2-0.7,15.6,4c1,2.9-0.9,4.7-2.4,6.7c-1.9,2.6-2.2,6.6-6.3,7.2c-14.6,1.9-29.4,0.6-44,0.9c-7,0.1-13.9,0.1-20.7,2.1
	c-8.6-4.1-11.4-11.3-10.8-20.4c5.6-3.3,11.5-2.5,17.5-1.8C219.6,281.2,222.6,282.5,224.3,285.7z"/>
<path fill="#9A7E46" d="M207.9,302.1c2.4-5.5,7.4-4.8,12-4.8h55.8c2.8,6.2-3.4,9.6-4.4,14.6c-4.1,7.6,3.9,11.8,5,17.9
	c-0.8,0.7-1.9,1-3,0.7c-2-0.9-3.7-2.4-4.8-4.3c-2.2-3.2-4.2-6.4-4.4-10.4c-0.1-1.1-0.3-2.1-0.5-3.2c-3-4.7-7.8-2.5-11.7-2.7
	c-13.1-0.8-26.4,1.1-39.5-1.1c-1.8-0.7-2.9-2.1-4.2-3.5C207.2,304.6,207.1,303.2,207.9,302.1C207.9,302.2,207.9,302.2,207.9,302.1z"
	/>
<path fill="#9B7E46" d="M355,297.4h2.3c1.5-1.2,3.1-2.5,5.1-2.6c20.5-0.5,40.9-2.2,61.3,0.9c5,6.7,0.8,9.9-4.7,12.8
	c-16.1-1.2-32.3-0.6-48.5-0.8c-6.4,0-12.4,0.7-15.2,7.8c-0.6,0.9-1.2,2-1.6,3c-0.4,1.6-1,3.2-1.5,4.8c-1.5,4.1-2.2,8.4-3.6,12.5
	c-1.1,3.1-2.2,6.3-5,8.4c-1,0.5-2.2,0.4-3.1-0.2c3.4-14.7,8.8-28.9,10.2-44C351.5,298.3,353.2,297.2,355,297.4z"/>
<path fill="#AF9459" d="M135.6,252.9c6.1-10,15.7-2.2,23.3-4.7c4.5,6.1,2.2,13.4,3.6,20.1c2.3,3,1.5,7.2,3.5,10.3
	c1.1,4.6,2.1,9.2,3.2,13.7c-6.2,2.1-7.1-4.2-10.6-6.5l0.1,0.1c-1.6-4.6-5.6-6.9-9.5-9.4h0.1C145.4,268.3,137.6,262.3,135.6,252.9z"
	/>
<path fill="#C4A76B" d="M308.4,199.1l2.1,7.5c-6.2-7.7-12.5-15.4-18.7-23.1c-1.5-2.3-4.3-4.2-2.4-7.6c13.3-6.3,26.6-5.3,39.9-0.2
	l7.1,11.7c-5.2,8.3-13.5,4.9-20.6,5.1C310.6,192.6,308.1,193.8,308.4,199.1z"/>
<path fill="#A0844B" d="M126.2,283.3c0,2.3,0,4.7,0,7c-4.1,3.9-9.3,3.2-14.2,3.2c-13.1,0.2-26.1-0.2-39.2,0.2
	c-4.1,0.1-10-1.6-10.3,5.8c0.7,2.6,1.7,5.1,2.9,7.5c1.8,3.8,4.7,7,6.1,11c0.3,1,0.4,2.1,0.2,3.2c-0.3,1-0.9,1.9-1.8,2.5
	c-7.8-8.8-12.7-19.3-16.3-30.5c-1.6-2.8-2.3-5.7-0.8-8.8c2.1-3.4,5.5-4.1,9.1-4.2c18.6-0.4,37.2-0.3,55.8-0.1
	C120.8,280.1,123.8,281.2,126.2,283.3z"/>
<path fill="#8B703A" d="M343.4,344.2c0.8-3.1,1.6-6.2,2.5-9.3c17.1-6.4,34.6-4.2,52-1.7c4.2,2.7,0.5,4.9-0.5,7.3
	c-3.1,6.1-5.7,12.8-13.8,13.7l-1-1.2c2.1-4.8,0-5.6-4.6-5.8c-11.2-0.4-22.5,1.9-33.5-1.7L343.4,344.2z"/>
<path fill="#C8AC72" d="M289.7,178c0.7,1.8,1.4,3.6,2.1,5.5c-9.4-7-16.1-3.7-23,4.6c-5.6,6.8-13.3,11.9-19.3,18.1
	c-8.1,8.5-12.1,4.9-18.2-1.4c-8-8.3-17.2-15.5-25.4-23.5c-3.7-3.6-6.3-3.1-9.8,0c-6,5.4-12.2,10.5-18.4,15.8
	c-0.8-0.8-1.3-1.8-1.5-2.9c1.1-6.9,7.1-9.5,11.7-13.4c3.9-3,7.1-7.1,12.6-7.4c1.6-0.1,3.3,0.2,4.8,0.8c5.2,2.9,8.5,7.9,13.1,11.4
	c4.3,3,8.3,6.3,12,10c6,8.6,12.6,9.7,19.9,1.6c4.9-3.1,8.6-7.5,12.6-11.5c4.5-4,8-9.3,13.9-11.8C282,172.7,286.4,173.6,289.7,178z"
	/>
<path fill="#866B36" d="M210.3,358.2l-2.7-3.7c0-3.2-4.7-6.1-0.5-9.6c22.2-2.2,44.5-4.9,66.5,1.5c2.2,3.7,0.9,6.7-1.8,9.5
	c-1.1,0.8-2.4,1.2-3.8,1.4c-18,0.2-36.1-2.4-54,1.5C212.8,359.2,211.4,359,210.3,358.2z"/>
<path fill="#A68A50" d="M217.3,283.3h-18.7c-7.4-6.9-8.3-15.8-8-25.2c2-3.1,5.1-3.6,8.4-3.5l4.3,5.3c2.6,4.5,5.4,8.8,8.1,13.3
	C212.4,277.1,218.8,277.9,217.3,283.3z"/>
<path fill="#C2A86E" d="M53.8,285.8c-0.1,2.5-0.2,5-0.2,7.5c-10.1-6.2-9.4-17.6-10.3-26.7c-1.7-18-0.5-36.3-0.5-56.2
	c15.2,8.6,30.2,14.5,40,28.2l-7.9-4.3C64.2,232.4,57.3,222.9,47,220c-0.1,5.6,1.9,11.6-2.3,16.6c0,4.7,0,9.3,0,14
	c4.2,4.2,2.2,10.1,3.9,14.9c0.8,3.1,1.2,6.4,2.1,9.4c0.3,0.9,0.5,1.9,0.7,2.9C52.1,280.5,51.8,283.5,53.8,285.8z"/>
<path fill="#CDBB8A" d="M191.6,79.8c0.8-2.2,2.5-3.9,4.7-4.7c24.4,5,49,1,73.5,2.4c7.2,0.4,13.7-0.9,19.8-4.7
	c4.6,4.1,10.6,7,11.9,14c-12.6-12.6-28.5-5.8-42.8-6.6C236.5,78.7,214,79.8,191.6,79.8z"/>
<path fill="#B89C61" d="M436.6,234.3c-8.5-2.1-18.8,4.6-25.8-5.2l1.7-2.2c5.4-3,11.1-5.2,16.2-8.8c6-4.3,10-4.1,9.1,4.9
	C437.5,226.7,439.1,230.7,436.6,234.3z"/>
<path fill="#A4894F" d="M282.9,286c-5.4-1.5-11.7,2-16.6-2.6c-0.8-0.7-1.2-1.7-1.1-2.8c1.3-4.8,6.3-7,8-11.5l2.2-2.4
	c5-0.6,9.9-0.9,14.4,2c3.7,8.2-2.7,12.5-6.9,17.6L282.9,286z"/>
<path fill="#BEA267" d="M436.6,234.3v-17.6c-9.4,2.5-15,10.6-24,10.2l26.7-17.4c-1.9,27.9,5,54-6.9,78.9c-0.9-0.6-1.6-1.5-2-2.6
	c-0.4-1.6-0.5-3.3-0.3-4.9c0.5-2.7,1.3-5.2,1.7-7.9c0.2-1.6,0.6-3.2,1-4.8c1.4-4.4,0.8-9,1.1-13.4c0.2-2.4,1.1-4.7,2.7-6.4
	C436.7,243.6,436.6,238.9,436.6,234.3z"/>
<path fill="#CDBB8A" d="M301.4,91.4l0.1-4.8c5.4,4,8.7,10.2,8.9,16.9c0.9,19.3,3.2,38.2,12.2,55.7c-2,0.1-3.9-0.2-5-2.2
	c-4.4-2.5-5.5-7-7-11.3c-1.2-3.3-2.1-6.7-2.7-10.1c-0.4-4.2-1.5-8.3-2.2-12.5c-0.5-4.6-0.6-9.1,2.6-12.9
	C309,102.8,306.2,96.8,301.4,91.4z"/>
<path fill="#BBA267" d="M283,286.2c0.6-6.3,7.8-9.9,6.7-16.9c-0.5-2.6-0.6-5.3-0.2-8c0.6-3.7,1.8-7.2,1.9-11
	c0.3-1.5,0.2,0.3-0.1-1.1c-0.4-2.3,4.8-8.7-3.7-5.6c1.8-4.6,3.5-9.2,5.9-15.6c6,20,3.3,37.6-3.7,55
	C288.5,286.3,285.6,285.9,283,286.2z"/>
<path fill="#C4A66A" d="M161.4,269.3l-2.5-21c0-3.1,0-6.2,0-9.4c-2.7-3.1-0.8-6.5-0.6-9.7c0.4-3.3,1.3-6.6,2.6-9.7
	c1.9-4,3.1-8.2,5-12.2c1.8-2.7,2.7-6.6,7.2-6.1c0.6,0.5,0.8,1.3,0.6,2c-0.2,0.6-0.4,1-0.6,1c-10.3,20.7-12.4,42.5-9.2,65.1
	c-0.4,0.7-1.3,0.9-2,0.4C161.6,269.6,161.5,269.4,161.4,269.3z"/>
<path fill="#866B34" d="M324.4,376.5c-0.3,8.3-9.7,10.2-11.8,17.8c9.3,0.8,15.8-7.8,24.8-7.7c-9.6,8.6-22.5,10.5-33.5,16.2
	c-2.6,0.7-3.3-0.5-2.8-2.8C309.5,392.8,314.6,382.3,324.4,376.5z"/>
<path fill="#957A42" d="M69.9,323.8c0.2-1,0.3-2,0.4-3c4.7-0.8,5.5,3.7,7.9,6c1.8,3.4,4.3,6.4,7.4,8.9c4.1,2.7,7.9,5.9,11.4,9.4
	c2.4,2.5,4.9,5,7.4,7.4c3.7,4.3,8.7,7.4,11,12.9c0.1,1-0.3,2.1-1.1,2.8C98.1,354.8,79.9,343.4,69.9,323.8z"/>
<path fill="#8C713A" d="M138,341.8l2.6-0.1c6.2,17.5,19,31,28.4,46.6c-0.8,0.8-1.9,1.2-3,1.1c-12.7-9.6-20.1-23.1-27-37
	c-1.2-2.5-2.3-5-2.4-7.8C136.7,343.6,137.2,342.5,138,341.8z"/>
<path fill="#866B36" d="M264.3,370.5c-4.1,12.6-14.6,20.9-21.1,32c-2.1,3.7-3,3.2-7.8-6.3l1.1-1.2c1.7-1.3,3.2,4.7,6.2-1
	c5.3-10,10.8-20.8,21.7-26.6C265,368.4,264.9,369.6,264.3,370.5z"/>
<path fill="#CEBB83" d="M189.2,262.5c-9-7.2-4.2-16.5-2.9-24.8c0.4-2.3,2.7-5.5,3.8-8.9c3.4,3.2,4,6.5,4,10
	c-0.1,1.6-0.5,3.1-1.1,4.6c-1.4,4.1-0.3,8.6-1.8,12.8C190,258.1,191,260.7,189.2,262.5z"/>
<path fill="#866A35" d="M166,388.6l3-0.2l8.9,9.3c0.2,4.4-2.1,4.1-5.1,2.8l-28.1-13.5c-0.5-0.5-0.8-1.2-0.7-1.9c0.1-0.7,0.2-1,0.4-1
	c6.5-1.7,11,3.3,16.5,4.9C162.6,389.5,164.5,392.5,166,388.6z"/>
<path fill="#BAA065" d="M189.2,262.5c0.1-2.4,0.2-4.8,0.3-7.2c0.7-0.7,1.8-0.7,2.6-0.1c0.6,0.8,0.4,1.9-0.4,2.6
	c-0.4,9.3,2.2,17.8,6.9,25.7c1.7,6.9,4.8,13.3,9.3,18.8c0.1,0.8,0.1,1.5,0.2,2.3c1,1.1,0.8,2.1-0.5,2.8
	C197.7,294.2,191.3,278.7,189.2,262.5z"/>
<path fill="#A5884F" d="M431.8,285.7c0.2,0.9,0.4,1.8,0.5,2.7c-2.7,13-9.4,23.6-18.7,32.9c-0.8-0.6-1.4-1.5-1.7-2.5
	c-0.1-1,0-2.1,0.3-3.1c1.5-3.3,2.6-6.8,5.9-8.9c5.5-0.7,6.2-5.1,7-9.4c-0.1-1.8,0.3-3.6,1.1-5.2c0.7-1.7,1.3-3.4,2.2-5
	C429.2,286,430.2,285,431.8,285.7z"/>
<path fill="#856A35" d="M144.9,383.9l-0.3,3c-11-4.7-20.1-12.8-30.3-18.8l0.3-2.9C127.6,366.8,136.5,375,144.9,383.9z"/>
<path fill="#A88D53" d="M266.4,281c0,0.8,0,1.5,0,2.3c-6,3.5-9.8,11.5-18.6,9.5c-4.6,1.6-9.5,1.6-14.1,0c-2.6-0.2-5.6,0.5-6.8-3
	c13.2,1,27,4.2,36.7-9C264.5,279.6,265.5,279.7,266.4,281z"/>
<path fill="#A88D53" d="M292,262.3c-0.1,2.6,0.5,5.3-2.2,7c-4.8-0.8-10.2,2.1-14.2-2.7c0-0.7,0.1-1.4,0.3-2c1.1-2.3,3.1-4,5.6-4.7
	C285.2,259.1,288.9,259.5,292,262.3z"/>
<path fill="#937740" d="M270.9,355.8l2.4-7c1.1-2.9,2.5-5.6,2.8-8.7c-0.3-1.8-1-3.4-2.1-4.9c-0.8-1.1-1.2-2.5-1.3-3.9
	c0.2-0.4,0.4-0.8,0.6-1.2l2.9-0.2c13.1,12.2,0.6,20-4.9,29c-1-0.6-1.2-1.9-0.6-2.9C270.8,355.9,270.9,355.9,270.9,355.8z"/>
<path fill="#D1C393" d="M355,297.4l-4.3,2.6c1-7.3-3.8-15.6,4.1-21.6L355,297.4z"/>
<path fill="#937740" d="M205.7,346.5c1.1,2.5,2.6,5,1.9,7.9c-9.1-8.9-11-17.9-0.4-27c0.7-0.7,1.8-0.9,2.7-0.5
	c0.8,0.6,1.2,1.5,1.3,2.5c-0.4,2.4-2.1,4.2-3.3,6.2c-1,1.5-1.8,3.2-2.2,4.9C205.6,342.6,206.9,344.5,205.7,346.5z"/>
<path fill="#C7B475" d="M322.1,259.5l0.3,5.2c4.2,6,1.5,10.4-3.5,14.2c-1.1,0.6-2.5,0.5-3.5-0.2
	C317.6,272.2,314.7,264.1,322.1,259.5z"/>
<path fill="#B1945A" d="M135.6,252.9c4.2,8.1,11.9,14.2,13.8,23.7c-7-6.7-12.6-14.7-16.3-23.6L135.6,252.9z"/>
<path fill="#9D8048" d="M413.3,318.4c0.1,1,0.2,1.9,0.4,2.9c-4.1,7.5-7.7,15.4-16.2,19.1l2-5.6c0.6-3.7,3.6-6.2,5.3-9.3
	c1.4-2.1,3-4,4.6-6C410.4,318.5,411.6,317.6,413.3,318.4z"/>
<path fill="#B9A45C" d="M315.5,295.1c-0.9,4.5-3.5,7.4-8.6,9.4c-0.5-6.9,3-11.8,5.9-16.8C316,289.4,313.5,293.1,315.5,295.1z"/>
<path fill="#B0965B" d="M191.7,257.6c0-0.8-0.1-1.6-0.1-2.4c-1.7-4.6-1.7-9.6,0-14.2l2.5-2.3l0,0c2.2,4.5,1.8,9.9,4.8,14.1
	c0.2,0.6,0.3,1.2,0.1,1.7C197.4,257.8,194.5,257.5,191.7,257.6z"/>
<path fill="#9D8048" d="M210.3,327.8l-3.1-0.4c4.9-6.6,5.7-13.4,0.4-20.2c0.2-1,0.3-1.9,0.5-2.8l2.2,2.3c2.5,1.8,4.9,3.7,5.9,6.8
	c0.3,1,0.6,2,0.6,3c-0.1,3.1-1.1,6.2-2.8,8.8C213.3,326.6,211.9,327.5,210.3,327.8z"/>
<path fill="#B1955C" d="M287.6,243.6c10.4-5.3,5.8,3.4,6.6,7c-2.9,2.3-5.9,2.6-9,0.8c-1-0.8-1.2-2.2-0.4-3.2c0-0.1,0.1-0.1,0.2-0.2
	L287.6,243.6z"/>
<path fill="#C3B073" d="M170.6,292.5c4.4,3.1,4.6,8.2,7.9,13.8c-7.2-0.6-8.8-4.8-10.8-8.6C168.1,295.7,169.1,293.9,170.6,292.5z"/>
<path fill="#856A35" d="M348.3,380c4.4-7,11.4-9.9,18.9-12C362.1,373.9,356,378.2,348.3,380z"/>
<path fill="#846934" d="M235.4,396.3c-4.8-5.6-8.3-12-11.5-18.6c-0.7-1-0.6-2.4,0.2-3.3c8.7,4.4,13.4,11,12,21.2L235.4,396.3z"/>
<path fill="#B29A5F" d="M315.5,295.1c-3-1.7-2.4-4.7-2.7-7.3v0.1c0.7-0.6,1.6-1.1,2.5-1.4c4-0.4,6.9-3.9,11-3.8l1.1,1
	C326,290.2,320.2,292,315.5,295.1z"/>
<path fill="#8B703A" d="M367.1,368.1c1.7-6.5,8.8-8.8,11.3-14.6l1-0.9c1.2-0.6,2.7-0.3,3.6,0.8l0.6,0.8
	C378.9,359.7,373.9,365,367.1,368.1z"/>
<path fill="#A4894F" d="M271.3,312c-0.7-5.5,4.4-9.3,4.4-14.6l4.9-4.7C280.8,300.7,275.9,306.3,271.3,312z"/>
<path fill="#B0965B" d="M217.3,283.3l-7-9.4c0.9-1.3,1.9-1.4,2.9-0.2c3,4.6,10.5,5.1,11.1,12L217.3,283.3z"/>
<path fill="#BBA267" d="M284.9,248l0.2,2.6c1.8,5.3-1.7,8.4-4.8,11.6l-4.5,2.4C276.8,258.2,280,252.3,284.9,248z"/>
<path fill="#B0985C" d="M170.6,292.5c-0.1,2.2-0.7,4.2-2.9,5.2c-3.7-3.5-7.6-6.8-9.1-11.9l10.6,6.5
	C169.6,292.2,170.2,292.3,170.6,292.5z"/>
<path fill="#B4995F" d="M213.2,273.7l-2.9,0.2c-2.6-4.5-6.8-8.3-7-14.1C208.4,263.2,210.6,268.6,213.2,273.7z"/>
<path fill="#B0985C" d="M149.2,276.6c6.1,0.1,9.2,3.4,9.5,9.4C155.8,282.6,150.7,281.4,149.2,276.6z"/>
<path fill="#AA8E54" d="M266.4,281l-2.8-0.2c2.2-4.8,4.9-9.2,9.7-11.8C273.8,274.7,268,276.6,266.4,281z"/>
<path fill="#856A35" d="M334,365.2c-3.4,3.7-4.3,9.6-9.8,11.4c1.2-4.5,3.9-8.2,6.9-11.7C332.2,363.8,333.2,363.9,334,365.2z"/>
<path fill="#8B703A" d="M270.9,355.8c0.2,1,0.3,2.1,0.5,3.1c-1.3,4.4-3.7,8.4-7.1,11.6c-0.1-1-0.2-2-0.4-3c-1.5-2.6,0-4.9,0.9-7.2
	c1-1.8,2-3.5,3.9-4.5C269.4,355.9,270.2,355.9,270.9,355.8z"/>
<path fill="#CEBB83" d="M198.9,252.9c-4.7-3.6-5.1-8.7-4.8-14.1C197.7,242.8,199.6,247.4,198.9,252.9z"/>
<path fill="#A98C52" d="M172.7,400.4c2-0.4,4.1-0.5,5.1-2.8l6.7,5.1c0.5,2.2,0,3.3-2.4,2.4C178.7,404.1,175.2,403.2,172.7,400.4z"/>
<path fill="#937740" d="M340.5,344l2.9,0.2h0.1c1.3,2.3,0.2,4.2-1,6.1l-1.3,1c-1.9,1-2.3,2.8-2.4,4.7c-0.6,0.8-1.8,0.9-2.6,0.3
	c-0.2-0.1-0.3-0.3-0.4-0.5L340.5,344z"/>
<path fill="#AE9056" d="M210.3,358.2c0.8,0.1,1.5,0.2,2.2,0.2c1.6,0.1,3,1,3.9,2.3c1.6,2.1,2.3,4.7,2.2,7.4c-0.2,1-0.9,1.9-1.9,2.3
	C213.8,366.8,210.6,363.3,210.3,358.2z"/>
<path fill="#B89C61" d="M408.5,231c-1.8,4.1-5.9,5.4-9.1,7.9c-0.1-0.9-0.1-1.9-0.2-2.8C401.5,232.9,404.8,231.5,408.5,231z"/>
<path fill="#8B703A" d="M335.7,355.6l3,0.3c-1.6,3.1-3.1,6.2-4.7,9.4l-2.9-0.3C332.6,361.9,334.2,358.7,335.7,355.6z"/>
<path fill="#B0945A" d="M334.5,274.4c-1.2,4-3.9,6.9-7,9.4l-0.5-0.6c-2.2-6.5,0.9-9,7-9.3L334.5,274.4z"/>
<path fill="#AE9056" d="M224.4,374.6c-0.2,1-0.3,2-0.5,3c-2.1-2.6-6.4-3.2-7.1-7.2l0.9-0.8C222.4,367.9,224.7,369.5,224.4,374.6z"/>
<path fill="#C5B18B" d="M182.1,405.2l2.4-2.4c2.6,0.3,5.4,0.3,6,3.9C187.7,408.3,184.2,407.7,182.1,405.2z"/>
<path fill="#C7AA6E" d="M173.1,204.1l-0.2-2.7c-0.7-0.7-1-1.6-0.9-2.6c0.5-1.9,1.5-3.6,3-4.9c0.9-0.4,1.9-0.2,2.6,0.5
	c0.1,0.9,0.1,1.8,0.2,2.7C177.4,200.1,175.7,202.6,173.1,204.1z"/>
<path fill="#B6A05E" d="M315.3,288l-2.5-0.1l2.7-9.2l2-0.2C320.6,282.6,318.2,285.4,315.3,288z"/>
<path fill="#C0A267" d="M161.4,269.3l2.5,0c2.4,2.8,2.2,6.1,2.1,9.4C162.8,276.3,163.4,272.1,161.4,269.3z"/>
<path fill="#B49B68" d="M301.1,400l2.8,2.8c-1.7,2.1-4.9,4.3-6.5,2.4C295,402.1,299.3,401.4,301.1,400z"/>
<path fill="#CCB781" d="M308.3,110.2c0,4.7,0,9.3,0.1,14c-4.4,4.4-10,3.7-15.3,3.7c-34.8,0.1-69.7,0.1-104.6,0
	c-5.4,0-10.9,0.3-15.4-3.7c0-3.5-0.1-7,0-10.5c0.1-2.9,0.5-5,4.6-4.7C221.2,111.6,264.7,109.5,308.3,110.2z"/>
<path fill="#CCB076" d="M313,145.3c1.5,3.9,3.1,7.8,4.6,11.7H166l2.5-11.7c4.7-3.3,10-3.8,15.5-3.8c37.9,0,75.8,0,113.7,0
	C303,141.5,308.5,141.3,313,145.3z"/>
<path fill="#CCB57D" d="M173,124.2h135.3c2.2,3.6,2.6,7.6,2.3,11.7c-3.7,3.5-8.4,3.6-13,3.7c-37.1,0.1-74.1,0.2-111.2,0
	c-5.9,0-11.6-0.8-15.6-6C171.5,130.5,172.3,127.4,173,124.2z"/>
<path fill="#CCB37A" d="M170.8,133.6c5.9,1.7,12.1,2.5,18.2,2.4c40.6-0.1,81.1-0.1,121.7-0.1c0.8,3.1,1.5,6.2,2.3,9.4H168.4
	C170.4,141.6,170.9,137.7,170.8,133.6z"/>
<path fill="#C8AB6F" d="M289.7,178c-4.7-0.8-9.1-3.2-14-2.3c-9.4,3.7-19.1,1.1-28.6,1c-13.8-0.1-27.7,2.3-41.4-1l-4.7-0.1
	c-9.1-2.9-18.4-0.4-27.6-1.3c-5.3-0.5-11.2,0.6-14.2-5.6l2.3-4.7c4.6,2.9,9.7,2.3,14.7,2.3c45.2,0,90.5,0.2,135.7-0.2
	c8.3-0.1,14.3,1.7,17.6,9.6C316.1,176.9,302.6,172.9,289.7,178z"/>
<path fill="#BD9F64" d="M168.2,208.5l-4.7,11.7c-15.5,6.5-31.4,3.7-47.3,2.3c-2.3-0.1-4.1-2-4-4.3c0-0.1,0-0.3,0-0.4
	c3-5.9,9.3-7.8,14-11.6C140.5,201.1,154.7,199.3,168.2,208.5z"/>
<path fill="#B99B5F" d="M112.2,217.7c10.2,5,21.1,1.4,31.6,2.3c6.5,0.5,13.1,0.1,19.7,0.1c-0.8,3.1-1.6,6.2-2.4,9.4
	c-2.7,2.9-5.9,5.2-10,5.4c-13.6,0.7-27.2,0.7-40.8-0.1c-4-0.2-7.6-1.7-9.8-5.4C103.5,224.8,107.5,220.8,112.2,217.7z"/>
<path fill="#B6985D" d="M100.5,229.5c20.1,3.8,40.6,3.8,60.7,0.1c-0.8,3.1-1.5,6.2-2.3,9.3c-18.2,0-36.4,0.1-54.6-0.1
	c-3.7,0-7.9,1.3-10.8-2.4C95,233.4,97.5,231,100.5,229.5z"/>
<path fill="#C4A66A" d="M177.6,194.4c-0.8,0-1.5,0-2.3,0c-8,1.7-16.1,0.9-24.1,0.6c-3.6-0.1-8,0.2-8.6-5.3l7.1-9.3
	c9.3-4.5,19.3-3.9,29.2-3.3c4.2,0.2,8.4,1,10.4,5.6C185.4,186.6,180.1,189.1,177.6,194.4z"/>
<path fill="#C7AA6E" d="M189.3,182.7c-13-4.8-26.4-1.3-39.6-2.3c4-3.2,7.6-6.7,9.4-11.7c9.6,4.5,19.9,1.5,29.8,2.2
	c4.6,0.4,9.6-0.8,12.1,4.6C195.6,175.5,193.6,181,189.3,182.7z"/>
<path fill="#C0A267" d="M168.2,208.5c-13.9-3.5-28-2.1-42-2.4c2.2-3.9,5.5-7.1,9.4-9.4c12.7-2.5,25.4-6.2,37.4,2.4
	c0,0.8,0,1.6-0.1,2.3C171.3,203.8,169.8,206.1,168.2,208.5z"/>
<path fill="#C2A469" d="M172.9,199.1c-12.2-4.9-24.9-1.2-37.4-2.4c1.5-3,4-5.5,7-7c6.1,4.8,13.2,1.4,19.8,2.4
	c4.3,0.7,9.2-1.6,12.9,2.4C175.2,196.3,174.8,198.1,172.9,199.1z"/>
<path fill="#B5975C" d="M324.8,238.9c0-2.3-0.1-4.7-0.1-7c2-4.8,6.4-5.5,10.7-5.6c14.4-0.1,28.7-1.4,43,0.9
	c4.8,3.8,11.1,5.7,14.1,11.7C369.9,238.9,347.4,238.9,324.8,238.9z"/>
<path fill="#B99B60" d="M378.4,227.1c-7.3,4.9-15.5,1.5-23.3,2.3c-10.1,1.1-20.6-2.2-30.4,2.4c-3.4-2.5-2-6.1-2.3-9.4
	c-0.2-3.7,2.7-4.8,5.2-5c13.8-0.8,27.7-2.8,41.5,0.3C373,220,376.2,223.2,378.4,227.1z"/>
<path fill="#BD9F64" d="M369.1,217.8c-10.9,3.9-22.3,1.8-33.5,2.4c-4.5,0.3-9.4-1.8-13.3,2.3c-5.9-0.9-6.4-5.8-5.4-9.7
	c0.9-3.6,5.3-1.8,8.2-2c11.5-0.6,23.2,1.5,34.6-2.4C363.6,210.6,366.9,213.9,369.1,217.8z"/>
<path fill="#C2A56A" d="M308.4,199.1c-1.8-2.5-3.6-5-5.9-8.1c11.3-3.7,23.3,1.9,33.8-3.6c3.9,2.2,7.2,5.4,9.3,9.4
	C333.3,197.9,320.6,194.2,308.4,199.1z"/>
<path fill="#AF9157" d="M46.9,267c-4.3-5-1.5-10.9-2.2-16.4c7.2-4.1,15.1-2.1,22.8-2.2c16.6-0.3,33.2,0,49.9-0.1
	c5.1,0,9.6,0.1,8.9,7.1c-3.5,6.2-9.6,5.6-15.3,5.7c-16.5,0.2-33.1-0.1-49.6,0.1c-4,0-8.7-1.5-11.5,3.2
	C49.1,265.4,48.1,266.4,46.9,267z"/>
<path fill="#A88B51" d="M46.9,267c0-0.8,0-1.6,0-2.3c3-2.8,6.8-3.5,10.7-3.5c19.3-0.1,38.6-0.1,57.8,0c4,0,7.7,0.6,10.7,3.5
	c0,3.1,0,6.2,0,9.4c-2.7,2.3-6.1,3.6-9.7,3.4c-22.5-0.3-45,1.2-67.4-0.9C45.9,273.9,47.2,270.2,46.9,267z"/>
<path fill="#9C8048" d="M60.9,302c-6.8-8.9-1.7-11.5,6.5-11.6c19.6-0.2,39.2-0.1,58.8-0.1c0.7,2.4,1.5,4.7,2.2,7
	c-2.6,3.1-5.8,5.2-9.9,5.3C99.3,303.2,80.1,304.5,60.9,302z"/>
<path fill="#9A7D46" d="M60.9,302c5.5-4.6,11.9-1.8,17.9-2.2c16.5-1.2,33.3,2.2,49.6-2.4c0.1,3.9,0.1,7.8,0.2,11.6
	c-1.8,2-4.4,3.2-7.2,3.2c-16.5,0.5-33,0.4-49.6,0.1c-3.1,0-5.9-1.7-8.5-3.2L60.9,302z"/>
<path fill="#92763F" d="M77.2,327.8c-3.6-1-4.1-5.2-6.9-7c0-0.8-0.1-1.6-0.1-2.4c1.5-3.7,4.7-5.2,8.2-5.4c15.4-0.8,30.8-0.8,46.2,0
	c2.3,0.3,4.5,1.3,6.1,3c0.8,3.1,1.6,6.2,2.4,9.4c-3.8,3.5-8.5,3.7-13.1,3.5C105.8,328.4,91.4,330.7,77.2,327.8z"/>
<path fill="#AC8E54" d="M126.2,264.6H46.9c-0.6-7,3.9-7.1,9-7.1c19,0.1,37.9,0,56.8,0c4.7,0,9.3,0.3,13.5-2.3
	C126.2,258.4,126.2,261.5,126.2,264.6z"/>
<path fill="#8E723C" d="M77.2,327.8c14.2-5,28.9-1.2,43.3-2.3c4.2-0.3,8.4,0,12.6,0l2.4,9.4c-14.4,7-29.6,2.4-44.4,3.2
	c-2.3,0-4.6-0.3-6.9-0.8C80.5,335.1,77.4,332.5,77.2,327.8z"/>
<path fill="#A5884E" d="M49.1,276.5c3.3-4,7.9-2.4,12-2.4c21.7-0.1,43.4,0,65.1,0v7c-23.1,2.1-46.3,1.5-69.4,0.2
	c-2.7-0.1-5.4-0.5-7.5-2.6C49.2,277.9,49.1,277.2,49.1,276.5z"/>
<path fill="#957942" d="M130.8,316.1c-15.7,0-31.4,0-47.2,0c-4.6,0-9.2-0.2-13.4,2.4c-2.3-3.1-4.6-6.2-6.9-9.3l65.3-0.1
	C131.3,310.8,130.9,313.5,130.8,316.1z"/>
<path fill="#8B6F39" d="M84.3,337.1c16.9-4.9,34.2-1.1,51.3-2.3l2.4,7c0,0.8,0,1.6-0.1,2.4c-13.7,6.4-27.9,3-42,2.3L84.3,337.1z"/>
<path fill="#B89B60" d="M44.7,236.6c0.4-6.4-3-15.8,1.5-18.4c6-3.5,12,4.5,17.6,8.1c3.8,2.4,7.4,5.3,11.1,8
	C65.1,238.8,54.7,235.5,44.7,236.6z"/>
<path fill="#A2864D" d="M49.2,278.6c25.5,4.3,51.3,1.6,76.9,2.4c0,0.8,0,1.6,0,2.3c-20.1,0-40.3-0.1-60.4,0.1c-4.1,0-8.6-1.5-12,2.4
	C49.1,285.4,49.2,282,49.2,278.6z"/>
<path fill="#A88A51" d="M434.4,269.3l-0.1,4.7c-25.3,5.6-51.5,5.6-76.8,0v-11.7c1.9-2,4.5-3.1,7.3-3.2c19.7-0.5,39.5-0.8,59.2,0.2
	C429.4,259.5,436.1,260.6,434.4,269.3z"/>
<path fill="#AD8F55" d="M434.4,269.3c-2-7.8-8.4-6.9-14-7c-21-0.1-41.9,0-62.9,0c0-2.4,0-4.7,0-7c3-2.9,6.8-3.5,10.7-3.5
	c19.3-0.1,38.5-0.1,57.7,0c3.9,0,7.7,0.6,10.7,3.5C436.1,260,438.6,265.1,434.4,269.3z"/>
<path fill="#AF9157" d="M436.6,255.3h-79.1c-0.8-8.1,5-7,10-7c23.1,0,46.1,0,69.2,0L436.6,255.3z"/>
<path fill="#A5884F" d="M357.5,274h76.8l-2.3,7c-24.5,5.7-50,5.7-74.5,0C357.5,278.7,357.5,276.3,357.5,274z"/>
<path fill="#A1844B" d="M357.5,281H432c-0.1,1.6-0.1,3.1-0.2,4.7l-2.1,2.3c-2.7,2.2-6.2,3.3-9.6,3.2c-17.6,0.2-35.3,0.2-52.9,0
	c-3.5,0-6.9-0.6-9.6-3.2C357.5,285.7,357.5,283.3,357.5,281z"/>
<path fill="#AC9156" d="M315.3,288c0.8-3.2,1.5-6.3,2.3-9.5c3.5-4,5.5-8.5,4.9-13.9c3.7-3.3,1.7-7.8,2.3-11.7
	c6.7-3.4,13.4-7,18.5,2.3c-0.9,7.4-8.3,11.4-9.5,18.6c-3.5,2.2-6.5,4.8-7,9.3C323,284.8,320.9,290.6,315.3,288z"/>
<path fill="#9F824A" d="M357.5,288h72.1c0,1.9-0.4,3.7-2.3,4.7c-3.7,3-8.1,2.3-12.3,2.3c-15.1,0.1-30.2,0.1-45.4,0
	c-4.2,0-8.6,0.8-12.3-2.3C357.5,291.1,357.5,289.6,357.5,288z"/>
<path fill="#9D8048" d="M357.5,292.7h69.9c0,1.9-0.4,3.7-2.3,4.7h-67.8C357.4,295.8,357.4,294.2,357.5,292.7z"/>
<path fill="#B09359" d="M343.4,255.2c-5.7-4.7-12.4-1.3-18.5-2.3c0-2.3,0-4.7,0-7c5.3,0,10.6,0,15.9,0c3,0,6.9-0.6,7.9,2.8
	S346,253.7,343.4,255.2z"/>
<path fill="#856A35" d="M378.4,353.5c-12.4-1.2-25.1,2.6-37.3-2.3l0,0c11.1-6,22.8-3.7,34.4-1.9
	C377.4,349.6,378.6,351.3,378.4,353.5L378.4,353.5z"/>
<path fill="#A68A50" d="M233.6,292.8h14.1C243,296.1,238.3,296.2,233.6,292.8z"/>
<path fill="#937740" d="M212.6,325.5c0.8-3.1,1.6-6.2,2.4-9.3c16.7-5.3,34.5-5.3,51.2,0c-0.3,4,3.4,6.1,4.6,9.4
	c-2.2,2.5-5.2,3.2-8.4,3.3c-13.9,0.3-27.7,0.3-41.6,0C217.9,328.7,214.9,327.9,212.6,325.5z"/>
<path fill="#8D723C" d="M212.6,325.5h58.3l2.4,4.6l0,0c-2.1,4.7-6.3,5.3-10.7,5.4c-13.9,0.3-27.8,0.3-41.7,0
	c-4.3-0.1-8.6-0.6-10.6-5.4c0-0.8,0-1.5,0-2.3C211.1,327,211.9,326.2,212.6,325.5z"/>
<path fill="#967A42" d="M215,313.7c-1.5-2.3-3.1-4.6-4.6-7c16.6,0,33.3-0.1,49.9,0.1c4,0,11.4-1.8,6,6.9
	C249.2,313.7,232.1,313.8,215,313.7z"/>
<path fill="#957942" d="M215,313.7c16.9-3.8,34.4-3.8,51.3,0l-0.1,2.4h-51.2C215.1,315.3,215,314.5,215,313.7z"/>
<path fill="#967B43" d="M418.1,306.7c-0.4,3.7-1.6,7-4.7,9.3c-21,1.2-41.9,2-62.9,0c4.6-12.5,14.7-12.9,25.6-11.8
	C390.1,305.8,404.4,301.5,418.1,306.7z"/>
<path fill="#8E723C" d="M406.4,325.4c-0.2,4.7-3.3,7.3-7,9.4h-53.5c2.7-3.4,0.9-8.6,4.5-11.7c16.2-2.4,32.5-0.9,48.8-0.8
	C401.9,322.2,404.6,323.4,406.4,325.4z"/>
<path fill="#927640" d="M406.4,325.4c-15,0-30.1,0.1-45.2,0c-3.7,0-7.8,1.3-10.9-2.3c0-1.6,0.1-3.1,0.1-4.7
	c17.9-4.5,36.1-1.7,54.2-2.1c3-0.1,5.1,1.6,6.2,4.4C410.2,322.9,408.6,324.6,406.4,325.4z"/>
<path fill="#937740" d="M411,320.8c-12.6-4.9-25.8-1.4-38.7-2.2c-7.2-0.5-14.5-0.1-21.8-0.1c-0.1-0.8-0.1-1.5,0-2.3
	c21-3.2,41.9-4.3,62.9,0c0,0.8,0,1.5-0.1,2.3C412.5,319.2,411.8,320,411,320.8z"/>
<path fill="#876C36" d="M378.4,353.5c-12.2-5-24.9-1.1-37.4-2.3c0.8-2.3,1.6-4.7,2.4-7h47c-0.3,6-5.5,6.1-7.5,9.1L378.4,353.5z"/>
<path fill="#C6A86C" d="M205.7,175.7c23.2-3.8,46.8-3.8,70,0c-2.9,4.7-6.9,8.7-11.7,11.7c-15.6,2-31.1,1.4-46.7,0
	C212.6,184.5,208.6,180.5,205.7,175.7z"/>
<path fill="#C4A66A" d="M217.3,187.4c15.3-3.8,31.4-3.8,46.7,0c-2.9,4.8-6.9,8.7-11.7,11.6c-7.9,0.2-15.9,2.9-23.3-2.3L217.3,187.4z
	"/>
<path fill="#C1A367" d="M229,196.8c7.7,1,15.9-2.4,23.3,2.3C239.2,209.6,239.2,209.6,229,196.8z"/>
<path fill="#896E39" d="M205.7,346.5c0-2.6-5.1-3.5-2.4-7c3.2-2.1,7-3.3,10.9-3.2c17.7-0.1,35.3-0.1,53,0c3.9,0,7.7,0.6,10.8,3.2
	c2.1,4.9-1.4,7.1-4.7,9.4c-5.4-4.6-11.9-2.1-17.8-2.2C238.9,346.3,222.3,346.5,205.7,346.5z"/>
<path fill="#846934" d="M214.8,360.6l-2.2-2.2c0.4-1.9,1-4.4,3-4.4c17.7,0.4,35.6-3.2,53.1,1.9c-0.1,1.9-0.5,3.7-2.4,4.7
	C249.1,366.5,232,366.4,214.8,360.6z"/>
<path fill="#AA8E54" d="M280.3,262.2c1.6-3.9,3.2-7.8,4.8-11.6h9.1c-0.7,3.9-1.5,7.8-2.2,11.6L280.3,262.2z"/>
<path fill="#856A35" d="M144.9,383.9l-30.3-18.7c-4.7-3-8.7-7-11.7-11.7c-0.2-2.2,1-3.9,3-4.2c11.6-1.8,23.2-4.1,34.4,1.9
	c7.7,13,16.3,25.6,25.7,37.4l4.5,8.1C160.6,391.8,152.7,387.9,144.9,383.9z"/>
<path fill="#876C37" d="M140.3,351.2c-12.4,1.3-25.2-2.6-37.4,2.4c-3.1-1.5-5.5-3.9-7-7c13.8-5.2,28-1,42-2.3L140.3,351.2z"/>
<path fill="#826733" d="M214.8,360.6l51.6-0.1l-2.4,7c-6.4,9.1-13.5,17.8-19.1,27.4c-3.5,6-5.7,2.3-8.7,0.5
	c-2-8.1-7.2-14.3-11.8-20.9c-1.3-3-3.7-4.4-6.7-5.1C216.7,366.6,215.7,363.6,214.8,360.6z"/>
<path fill="#B4995F" d="M191.6,241.1c0,4.7,0,9.5,0,14.2l-2.1-0.1C189.8,250.4,187.5,245.3,191.6,241.1z"/>
<path fill="#8B703A" d="M278,339.5h-74.7c0.8-1.6,1.6-3.1,2.4-4.7c9.8-3,19.8-1,29.7-1c13.4,0,26.9-1.7,40.2,1
	C277.5,335.8,278,337.6,278,339.5z"/>
<path fill="#8D723C" d="M275.6,334.8h-70c0.8-2.2,2.5-3.9,4.6-4.7c20.8,3.8,42.2,3.8,63,0L275.6,334.8z"/>
</svg>
