<svg id="Camada_1" data-name="Camada 1" xmlns="http://www.w3.org/2000/svg" viewBox="0 0 408.66 408.63"><title>gear</title><g id="Camada_2" data-name="Camada 2"><g id="Camada_1-2" data-name="Camada 1-2"><path d="M178,408.66c-5.76-2.06-8.69-6.26-10.06-12.14-3.12-13.3-6.62-26.51-9.82-39.8-.56-2.32-1.52-3.64-3.86-4.36a109.62,109.62,0,0,1-18.35-7.59,5.46,5.46,0,0,0-6.13.21c-11.76,7.24-23.62,14.29-35.46,21.39-7.83,4.69-12.4,4.14-18.8-2.25l-30.2-30.2c-6.36-6.37-6.89-11-2.2-18.81,7-11.73,14-23.48,21.15-35.13,1.39-2.26,1.71-4.06.43-6.46a101,101,0,0,1-7.45-18c-.8-2.65-2.36-3.63-5-4.24C38.47,248,24.7,244.55,10.94,241.11,3.24,239.18,0,235.12,0,227.2V182.9c0-7.65,3.29-11.85,10.67-13.7,13.9-3.47,27.79-7,41.74-10.25,2.68-.63,4.09-1.8,4.86-4.38a112.5,112.5,0,0,1,7.6-18.34,4.91,4.91,0,0,0-.3-5.4Q53.85,113.09,43.23,95.36c-4.89-8.16-4.32-12.61,2.49-19.42L75.63,46c6.23-6.21,10.89-6.78,18.48-2.24,12,7.16,23.92,14.3,35.81,21.56a5.15,5.15,0,0,0,5.77.24A107.44,107.44,0,0,1,154,58c2.5-.76,3.47-2.24,4.05-4.66,3.33-14.07,6.79-28.11,10.24-42.15,2-8,5.93-11.14,14.1-11.16h43.89c8.12,0,12.06,3.18,14,11.23,3.45,14,6.92,28.08,10.24,42.15.58,2.46,1.65,3.86,4.11,4.61A108.77,108.77,0,0,1,273,65.63c2.2,1.15,3.77.9,5.76-.31q17.81-10.8,35.55-21.39c7.94-4.76,12.48-4.17,19.1,2.44q15.11,15.09,30.19,30.19c6.05,6.07,6.62,10.76,2.2,18.16-7.21,12.08-14.42,24.16-21.73,36.18a4.85,4.85,0,0,0-.24,5.4,117,117,0,0,1,7.76,18.7c.72,2.33,2,3.31,4.36,3.86,13.55,3.23,27,6.75,40.6,9.88,5.89,1.36,10.11,4.26,12.14,10v52.68c-.82,6.33-5.11,9.23-10.73,10.71-13.11,3.46-26.36,6.37-39.53,9.63-3.49.86-5.56,2.46-6.62,5.95a113.36,113.36,0,0,1-6.43,15.45,6.65,6.65,0,0,0,.43,7.06c6.44,10.55,12.76,21.18,19.12,31.79,1,1.71,2,3.43,3,5.19,3,5.66,2.2,11-2.09,15.43Q349.19,349.87,332,366.48c-5.12,4.93-10.39,5.16-17.16,1.2-10.93-6.32-21.8-12.68-32.49-19.49-4.22-2.68-7.83-3.67-12.43-1A57.36,57.36,0,0,1,257,352.54c-3.73,1.07-5.24,3.41-6.08,7-2.63,11.26-5.56,22.46-8.36,33.68-.42,1.68-.81,3.36-1.28,5-1.55,5.5-4.6,9.48-10.62,10.42Z" transform="translate(0 -0.03)" fill="#099eb9"/><path d="M321,342.35c-1.06-.6-2-1.11-2.88-1.65-11-6.63-22.16-13.11-33.07-19.95-5.65-3.55-10.94-4-16.77-.57a110.68,110.68,0,0,1-27.83,11.57c-6.43,1.7-9.8,5.62-11.29,11.92-3,12.77-6.39,25.47-9.46,38.24-.48,2-1.08,2.89-3.32,2.85q-12-.19-23.93,0c-2.19,0-2.87-.73-3.37-2.8-3.06-12.77-6.42-25.46-9.45-38.24-1.49-6.29-4.81-10.25-11.25-12A114,114,0,0,1,140.18,320c-5.55-3.23-10.64-2.89-16.06.48C113,327.43,101.59,334,90.39,340.87c-2.1,1.29-3.27,1.1-4.94-.65q-8-8.36-16.36-16.36c-1.68-1.6-1.76-2.66-.55-4.63,6.89-11.23,13.56-22.74,20.53-34,3.26-5.28,3.54-10.29.42-15.72a114.76,114.76,0,0,1-11.74-28.19C76,234.7,72,231.34,65.5,229.85c-12.92-3-25.75-6.37-38.66-9.4-2.3-.54-3-1.39-2.93-3.67q.19-11.78,0-23.54c0-2.16.69-2.89,2.79-3.39,13-3.07,26-6.43,39.05-9.48,6.3-1.47,10.25-4.83,12-11.26a114.67,114.67,0,0,1,11.71-28.19c3.24-5.56,2.88-10.65-.49-16.06-6.87-11-13.36-22.31-20.2-33.37-1.48-2.4-1.25-3.7.76-5.59,5.47-5.2,10.81-10.59,16-16.07,1.61-1.7,2.68-1.74,4.63-.54,11.31,6.93,22.78,13.62,34.07,20.58,5.28,3.25,10.29,3.54,15.72.41a117.51,117.51,0,0,1,28.57-11.86c6.28-1.66,9.53-5.6,11-11.74,3.08-13.31,6.45-26.55,9.53-39.86.53-2.3,1.39-3,3.68-2.92q11.57.23,23.14,0c2.23,0,3.19.49,3.74,2.85,3,13,6.47,26,9.34,39.09,1.5,6.84,4.95,11,11.84,12.83a108.18,108.18,0,0,1,27.47,11.41c5.65,3.29,10.83,3.09,16.41-.4,11.14-7,22.53-13.53,33.74-20.37,1.87-1.14,3-1.29,4.64.46q8.11,8.52,16.65,16.64c1.78,1.69,1.54,2.81.42,4.65-6.83,11.22-13.4,22.6-20.36,33.74-3.5,5.58-3.66,10.77-.38,16.41a115.11,115.11,0,0,1,11.68,28.22c1.69,6.28,5.69,9.47,11.8,10.9,12.92,3,25.75,6.39,38.66,9.42,2.33.55,3.32,1.2,3.26,3.82-.2,7.71-.15,15.43,0,23.14,0,2.24-.51,3.17-2.87,3.72-12.91,3-25.73,6.45-38.67,9.38-6.7,1.51-10.68,5.12-12.43,11.79a109,109,0,0,1-11.41,27.46c-3.29,5.65-3.08,10.84.41,16.42,7,11.13,13.52,22.52,20.36,33.74,1.15,1.88,1.28,3-.47,4.63-5.77,5.51-11.33,11.24-17,16.88C322.16,341.28,321.57,341.79,321,342.35Z" transform="translate(0 -0.03)" fill="#010116"/><path d="M204.47,120.54c46.19.12,84,38.1,83.66,84.13s-38,83.58-83.93,83.46C158,288,120.26,250,120.55,204S158.52,120.42,204.47,120.54Z" transform="translate(0 -0.03)" fill="#099eb9"/><path d="M144.49,203.8a59.85,59.85,0,1,1,59.32,60.38A59.86,59.86,0,0,1,144.49,203.8Z" transform="translate(0 -0.03)" fill="#010116"/><path d="M204.37,168.44c19.65,0,36.09,16.58,35.86,36.12s-16.45,35.7-35.92,35.67c-19.67,0-36.09-16.59-35.86-36.13A36.22,36.22,0,0,1,204.37,168.44Z" transform="translate(0 -0.03)" fill="#010116"/></g></g></svg>