<?xml version="1.0" encoding="utf-8"?>
<!-- Generator: Adobe Illustrator 25.2.1, SVG Export Plug-In . SVG Version: 6.00 Build 0)  -->
<svg version="1.1" id="Layer_1" xmlns="http://www.w3.org/2000/svg" xmlns:xlink="http://www.w3.org/1999/xlink" x="0px" y="0px"
	 viewBox="0 0 1920 1080" enable-background="new 0 0 1920 1080" xml:space="preserve">
<g>
	<g>
		<path fill="#FEFEFE" d="M1222.77,541.36c0,84.96-0.14,169.91,0.23,254.87c0.04,8.13-1.64,9.78-9.76,9.77
			c-168.83-0.3-337.65-0.3-506.48,0c-8.12,0.01-9.77-1.64-9.76-9.77c0.3-170.82,0.3-341.65,0-512.47c-0.01-8.13,1.63-9.78,9.76-9.77
			c168.83,0.3,337.65,0.3,506.48,0c8.12-0.01,9.8,1.63,9.76,9.77C1222.63,369.63,1222.77,455.5,1222.77,541.36z"/>
		<path fill="#CDB47B" d="M914.67,470.35c2.74-5.86,5.47-11.71,9.65-20.64c-10.49,4.01-18.13,6.93-25.76,9.85
			c-5.97,3.15-7.49-1.63-9.84-5.35c-3.6-5.68-4.89-12.23-7.29-18.38c0.68-1.48,1.7-2.64,3.06-3.52c4.84-2.82,10.17-3.84,15.62-3.84
			c24.8-0.01,49.61-0.89,74.4,0.44c7.03,1.45,10.04,6.72,12.13,12.84c-0.29,1.54-1.15,2.67-2.54,3.38
			c-10.9,3.3-22.11,1.59-33.16,1.6c-9.77,0.01-17.55,2.42-21.9,11.83c-3.23,4.3-5.68,9.29-10.54,12.19
			C917.16,471.2,915.88,471.09,914.67,470.35z"/>
		<path fill="#CDB780" d="M985.87,443.22c-2.28-3.97-3.27-8.91-8.18-10.9c-2.04-1.83-4.18-3.85-7-3.8
			c-29.32,0.49-58.73-3.07-87.94,2.1c-7.7-5.45-4.55-13.75-5.48-20.99c10.03-5.52,20.94-2.33,31.45-3.06
			c5.78-0.4,11.5-1.2,17.26-1.58c7.62,2.54,15.38,2.86,23.26,1.42c9.8-6.72,15.53-1.33,20.32,6.84
			c6.26,10.09,16.2,17.78,19.37,29.87C987.93,443.89,986.91,443.88,985.87,443.22z"/>
		<path fill="#8A6F39" d="M1021.93,697.42c-9.4,9.48-21.57,16.18-30.19,30.1c10.44,0,19.23,0.29,27.99-0.09
			c6.54-0.29,9.53,1.14,9.81,8.79c0.98,25.91,1.34,25.9-24.95,25.9c-33.49,0-66.99-0.37-100.47,0.23
			c-9.8,0.17-13.53-1.84-13.04-12.53c1.21-26.46-2.82-21.79,22.5-22.28c4.49-0.09,8.98-0.01,14.82-0.01
			c-5.12-11.32-15.23-16.4-21.86-24.51c-0.64-0.71-0.91-1.46-0.81-2.26c0.1-0.81,0.25-1.22,0.43-1.22c1.07-0.8,2.26-1.16,3.59-1.01
			c7.62,4.01,12.42,11.17,18.72,16.69c3.41,3.86,6.15,7.95,4.64,13.5c-0.54,1.4-1.38,2.59-2.47,3.61
			c-5.9,4.48-12.91,3.53-19.61,3.89c-6.08,0.33-10.68,1.97-10.68,9.3c-0.01,7.03,4.02,9.72,10.32,9.79
			c33.97,0.33,67.94,0.35,101.91-0.01c5.66-0.06,9.59-2.39,9.68-8.84c0.1-6.94-3.84-9.56-10.14-10.08
			c-7.19-0.6-14.54,0.65-21.56-1.86c-1.38-0.62-2.49-1.57-3.34-2.82c-2.73-6.21-0.27-11.21,3.66-15.87
			c6.87-7.46,14.96-13.5,23.08-19.51c1.64-1.02,3.42-1.43,5.35-1.18C1020.54,695.45,1021.4,696.25,1021.93,697.42z"/>
		<path fill="#9A7D46" d="M891.21,633.76c9.05,4.11,14.58,12.3,21.64,18.71c-0.4,0.54-0.81,1.08-1.22,1.62
			c-1.99,0.88-3.97,0.77-5.94-0.09c-4.73-3-9.14-6.49-14.02-9.29c-20.17-2.77-40.41-0.7-60.6-1.11
			c-18.91-0.38-37.84-0.03-56.76-0.12c-5.81-0.03-11.79,0.57-17-3.04c-3.34-4.93,0.31-7.74,3.26-10.77
			c5.9-3.2,12.34-2.27,18.63-2.38c30.75-0.52,61.52,0.98,92.25-0.91C879.07,626.04,884.64,631.24,891.21,633.76z"/>
		<path fill="#CBAE73" d="M917.79,470.49c2.27-3.97,3.27-8.9,8.17-10.9c4.81-4.29,10.77-4.06,16.6-4.08
			c16.18-0.05,32.36-0.13,48.53-0.1c7.4-1.17,7.44,6.68,11.6,9.5c7.71,9.12,14.55,18.79,19.06,29.95c-0.94,0.84-2.03,1.2-3.29,1.02
			c-2.35-0.99-3.83-2.91-5.23-4.92c-2.76-3.96-5.15-8.19-8.5-11.74c-1.49-1.34-2.98-2.64-4.69-3.71
			c-20.67-2.36-41.37-0.39-62.02-1.06c-6.25-0.2-12.65,0.77-18.55-2.29C918.9,471.61,918.35,471.05,917.79,470.49z"/>
		<path fill="#CDBC8B" d="M923.21,339.97c1.87-1,3.75-2,5.62-3c7.19-2.76,7.49,1.61,6.33,6.55c-0.92,3.89-4.64,6.27-6.48,9.75
			c-0.94,1.83-1.88,3.65-2.82,5.48c-4.06,5.35-1.81,14.02-9.22,17.63c-9.09-0.3-18.28,0.59-27.19-2.09
			c-4.73-3.45-1.14-6.14,1.1-8.47c6.07-6.32,11.98-12.82,19-18.16l-0.06,0.05C913.91,344.86,918.82,342.87,923.21,339.97z"/>
		<path fill="#9C8048" d="M890.35,691.87c-41.4-24.95-87.22-23.93-133.1-23.08c-3.97,0.07-14.05,4.11-8.69-7.66
			c1.36-0.87,2.85-1.37,4.45-1.53c21.06,1.71,42.38-1.77,63.28,3.11c11.29,0.07,22.39,1.44,33.12,5.11
			c8.37,3.29,17.13,5.55,25.39,9.17c5.71,3.4,12.65,5.01,16.51,11.17C891.57,689.54,891.25,690.78,890.35,691.87z"/>
		<path fill="#A68B50" d="M751.7,661.31c-1.05-0.06-2.1-0.12-3.15-0.18c3.98-15.22,7.95-30.45,11.94-45.66
			c1.01-3.86,3.16-6.27,7.52-6.36c40.23-0.85,80.46-1.7,116.91,19.76c2.27,1.34,4.19,3.25,6.28,4.9c-6.42,0.78-10.82-5.12-17-5.16
			c-7.66-0.26-14.58-3.36-21.74-5.58c-24.15-7.52-48.99-7.57-73.88-6.83c-5.08,0.15-10,1.09-12.35,6.6
			c-1.22,3.5-3.75,6.03-6.28,8.55c-0.88,2.73-1.77,5.46-2.65,8.19c1.34,1.47,1.74,3.22,1.51,5.15c-0.59,3.02-1.6,5.92-2.54,8.84
			C755.17,656.36,754.39,659.4,751.7,661.31z"/>
		<path fill="#957942" d="M1171.65,658.31c5.1,8.5,1.73,10.57-7.06,10.75c-26.93,0.54-54.06-2.79-80.74,3.02
			c-10.93,2.38-21.6,5.99-32.39,9.04c-1.02-1.18-1.24-2.5-0.69-3.97c4-4.55,9.51-6.35,14.96-8.27c13.27-4.41,27.21-5.16,40.84-7.64
			c15.08-2.1,30.25-0.71,45.38-1.07c5.32-0.13,10.74,0.51,15.64-2.36C1169.03,657.23,1170.39,657.41,1171.65,658.31z"/>
		<path fill="#A68A50" d="M1171.65,658.31c-1.12,0.11-2.23,0.21-3.35,0.32c-1.68-1.13-2.64-2.79-3.42-4.59
			c-1.66-4.23-3.85-8.27-4.91-12.75c-0.89-4.66-1.95-9.27-3.33-13.81c-1.57-7-5.44-11.13-13.06-11.35
			c-29.99-0.87-59.79-0.48-88.11,11.46c-2.2,0.68-4.43,0.86-6.7,0.46c-1.53-0.41-2.76-1.25-3.69-2.52
			c16.85-10.62,35.83-14.32,55.15-15.72c16.16-1.17,32.45-0.26,48.67-0.84c6.93-0.25,10.81,1.69,12.44,8.84
			C1164.43,631.38,1168.17,644.82,1171.65,658.31z"/>
		<path fill="#B3975D" d="M914.8,596.49c-7.83-7-13.97-15.31-19.05-24.46c-2.14-4.14-3.4-8.87-7.69-11.59
			c-0.55-0.74-0.82-1.58-0.82-2.51c0.32-0.7,0.64-1.4,0.96-2.11c10.47-7.56,21.97-4.49,33.3-3.26c2.97,1.09,5.06,3.17,6.62,5.85
			c1.21,2.59,2.29,5.21,0.65,8.03c-4.99,3.78-10.87,2.67-16.47,2.8c-9.73,0.23-7.42,4.54-3.43,9.57
			C911.1,584.63,919.77,588.28,914.8,596.49z"/>
		<path fill="#AC9056" d="M914.8,596.49c1.33-7.5-8.39-9.85-7.9-16.97c8.69-6.42,19.07-2.78,28.49-4.82
			c8.44,1.38,12.79,6.42,13.23,14.9c-4.52,5.94-11.16,3.52-16.97,4.13c-5.31,0.56-8.86,1.8-5.25,8.01c0.94,1.68,1.4,3.46,1.19,5.39
			c-0.34,1.26-1.08,2.19-2.23,2.8C920.85,606.23,916.86,602.12,914.8,596.49z"/>
		<path fill="#B0945A" d="M1019.05,577.97c0.25,0.61,0.13,1.13-0.37,1.56c-1.16,0.98-2.47,1.24-3.93,0.81
			c-8.44-5.18-20.07,0.99-27.55-7.7c-0.81-2.19-0.77-4.37-0.03-6.57c1.68-3.64,4.24-6.31,8.18-7.45
			c10.34,0.62,20.88-0.54,30.89,3.28C1031.81,570.82,1020.86,572.35,1019.05,577.97z"/>
		<path fill="#D3C59D" d="M909.54,347.65c-7.21,8.24-14.42,16.48-21.63,24.72c2.19,5.81-2.22,10.17-3.33,15.26
			c-2.47,7.64-1.01,16.57-7.42,22.93c4.49,5.62-0.05,13.69,5.19,19.1c1.49,1.76,1.69,3.55,0.16,5.4c-0.01,0.9-0.01,1.8,0.01,2.7
			c0.74,0.76,0.94,1.47,0.6,2.13c-0.32,0.63-0.63,0.94-0.91,0.94C865.15,406.44,878.21,362.74,909.54,347.65z"/>
		<path fill="#C7A96E" d="M1019.05,577.97c0.15-6.2,8.22-8.26,7.72-14.79c-0.32-4.09,1.95-7.54,2.73-11.36
			c0.26-1.1,0.61-2.17,0.96-3.24c0.88-2.72,1.23-5.52,1.17-8.37c-0.05-2.37-0.08-4.73-0.12-7.09c0.08-4.84-0.92-9.48-2.48-14.03
			c-1.71-6.49-6.07-11.53-9.4-17.14c-1.16-2.17-2.43-4.34-1.09-6.9c1.07-0.06,2.14-0.12,3.2-0.18c18.78,22.76,21.85,49,8.37,72.11
			C1027.42,571.6,1024.94,576.53,1019.05,577.97z"/>
		<path fill="#D3C59D" d="M917.78,375.08c3.28-5.16,2.65-12.25,8.08-16.34c-0.5,7.95-3.67,15.44-3.11,23.67
			c1.29,18.96,6.2,23.21,27.65,22.49c0.85,0.61,1.15,1.24,0.9,1.9c-0.25,0.66-0.52,0.99-0.79,0.99c-7.26,0.65-14.52,3.82-21.77-0.04
			c-9.75-4.42-10.21-14.27-13.27-22.63C914.77,381.44,914.91,377.94,917.78,375.08z"/>
		<path fill="#C7A96E" d="M887.24,557.94c-10.93-25.29-2.57-46.53,13.86-66.07c0.45,0.41,0.9,0.82,1.36,1.23
			c1.28,3.18-0.02,5.95-1.34,8.72c-1.96,3.61-4.45,6.92-6.22,10.65c-2.35,4.09-3.71,8.54-4.57,13.16c-0.7,2.94-1.57,5.84-1.67,8.9
			c-0.28,4.5,0.34,8.88,1.54,13.21c0.77,3.56-0.33,6.74-1.99,9.81L887.24,557.94z"/>
		<path fill="#9A7D46" d="M979.72,682.85c10.65-14.79,22.42-28.47,38.13-38.21c1.08-0.7,2.22-0.79,3.42-0.34
			c1.71,5.62-3.77,6.73-6.1,9.83c-2.98,2.63-5.81,5.42-8.6,8.25c-1.98,1.96-3.97,3.9-5.91,5.89c-2.8,2.75-5.56,5.54-8.27,8.38
			c-2.99,2.73-5.47,6.13-9.55,7.48C981.6,684.21,980.57,683.75,979.72,682.85z"/>
		<path fill="#A5884F" d="M955.22,650.95c-9.95-13.67-19.91-27.34-29.86-41.01c0,0,0.94-0.61,0.94-0.61
			c1.08-0.72,2.23-0.81,3.44-0.37c3.82,2.2,6.64,5.46,9.29,8.9c6.84,9.63,15.9,17.91,18.4,30.19
			C957.13,649.35,956.4,650.32,955.22,650.95z"/>
		<path fill="#D3C59D" d="M928.68,353.26c-2.95-5.46,13.19-10.74,0.15-16.3c5.13-5.66,12.27-6.14,20.47-6.27
			C942.43,338.22,935.55,345.74,928.68,353.26z"/>
		<path fill="#957942" d="M912.85,652.47c13.55,9.56,23.27,22.68,33.07,35.73c-0.84,1-1.92,1.45-3.22,1.43
			c-1.85-0.45-3.38-1.46-4.8-2.68c-3.49-3.28-6.86-6.68-10.16-10.16c-2.3-2.56-3.91-5.62-5.96-8.36c-1.71-2.2-3.7-4.15-5.66-6.12
			c-2.07-2.61-5.2-4.77-3.9-8.87L912.85,652.47z"/>
		<path fill="#A1854C" d="M978.38,631.86c-3.18,7.97-8.15,14.8-13.39,21.52c-5.48,7.01-7.61,2.76-9.77-2.43c0,0,0.9-0.64,0.9-0.64
			c8.9-4.05,9.71-15.92,18.95-19.65C976.4,630.44,977.5,630.85,978.38,631.86z"/>
		<path fill="#9F824A" d="M1021.26,645.04c-1.14-0.13-2.27-0.27-3.41-0.4c5.94-10.85,16.37-15.29,27.23-19.13
			c1.13,0.18,2.27,0.36,3.41,0.54c-2.57,10.71-15.41,9.16-20.32,17.1C1026.13,644.73,1024.08,646.34,1021.26,645.04z"/>
		<path fill="#CDBA87" d="M950.51,407.8c-0.04-0.96-0.07-1.93-0.11-2.89c2.94-3.3,8.12-4.17,9.11-10.33
			c4.34,6.84,9.34,11.58,10.05,18.67C963.58,410.14,959.28,401.12,950.51,407.8z"/>
		<path fill="#8F743D" d="M1051.19,677.66c0.09,1.15,0.18,2.3,0.27,3.45c-9.84,5.43-19.69,10.87-29.53,16.3c0,0-0.9-0.88-0.9-0.88
			c-0.48-7.28,6.27-8.44,10.12-12.06c4.22-2.38,8.6-4.47,13.03-6.45C1046.48,677.2,1048.78,676.25,1051.19,677.66z"/>
		<path fill="#B4975D" d="M1015.8,579.51c0.96,0.01,1.92,0.01,2.87,0.02c-4.24,9.94-11.22,17.81-18.89,25.17
			c-1-0.82-1.63-1.85-1.85-3.13c0-4.11,2.77-6.79,4.98-9.77C1006.78,587.25,1009.1,581.07,1015.8,579.51z"/>
		<path fill="#8A6F39" d="M942.29,688.6c1.21-0.14,2.41-0.27,3.62-0.41c6.79,3.27,7.97,13.7,17.36,13.65
			c1.15-0.88,2.34-0.94,3.57-0.16c-0.71,8.28-5.73,7.69-11.12,5.05c-3.61-1.76-6.25-5.01-9.07-7.88
			C944.29,695.82,940.72,693.3,942.29,688.6z"/>
		<path fill="#CDBC8B" d="M882.21,440.82c0.1-1.02,0.21-2.05,0.31-3.07c6.27,6.59,3.99,19.47,16.03,21.8
			c-4.35,5.27-7.63,2.62-9.97-1.76C885.73,452.47,882.31,447.24,882.21,440.82z"/>
		<path fill="#CDB47B" d="M1002.68,464.91c-4.77-0.64-5.19-5.97-8.65-8.02c-5.53-2.85-9.13-6.88-8.19-13.63c0,0,0.03-0.04,0.03-0.04
			c1.02-0.03,2.03-0.06,3.05-0.1C995.11,449.37,999.87,456.52,1002.68,464.91z"/>
		<path fill="#957942" d="M966.81,702.21c-1.18-0.12-2.36-0.25-3.54-0.37c4.11-7.52,10.07-13.44,16.45-18.99
			c1.15,0.09,2.29,0.18,3.44,0.27c0.71,0.96,0.97,2.02,0.73,3.19c-1.75,3.69-4.93,6.19-7.59,9.12
			C973.35,698,971.04,701.45,966.81,702.21z"/>
		<path fill="#CBAE73" d="M914.67,470.35c1.04,0.05,2.08,0.09,3.12,0.14c0,0,0.02,0.03,0.02,0.03c1.19,1.68,0.64,3.33-0.08,4.98
			c-0.52,1.06-1.14,2.06-1.8,3.04c-2.73,3.84-5.04,7.96-7.85,11.76c-1.81,1.73-3.7,3.25-6.46,2.22c0,0-0.52-0.65-0.52-0.65
			C903.96,483.65,908.59,476.55,914.67,470.35z"/>
		<path fill="#957942" d="M890.35,691.87c0.07-1.1,0.14-2.21,0.21-3.31c1.02-0.72,2.14-0.99,3.38-0.74
			c5.13,2.98,11.02,5.11,12.98,11.64c-0.12,1.18-0.25,2.37-0.37,3.55C901.15,699.3,895.75,695.58,890.35,691.87z"/>
		<path fill="#A4884F" d="M988.9,618.39c-2.1,5.59-6.11,9.68-10.52,13.47c0,0-0.9-0.64-0.9-0.64c-3.48-7.26,3.09-10.39,6.13-14.98
			c1.54-1.38,3.21-2.32,5.37-1.5C989.71,615.97,989.68,617.19,988.9,618.39z"/>
		<path fill="#AC8F55" d="M988.9,618.39c-0.13-1.14-0.26-2.29-0.39-3.43c-1.42-2.41,0-4.26,1.2-6.15c1.75-2.13,3.55-4.23,5.32-6.35
			c1.25-1.16,2.55-2.13,4.36-1.15c0.13,1.13,0.26,2.26,0.4,3.39C997.54,610.36,993.55,614.64,988.9,618.39z"/>
		<path fill="#D3C59D" d="M923.21,339.97c-3.15,5.12-8.03,7.17-13.74,7.74C912.74,342.79,917.31,340.2,923.21,339.97z"/>
		<path fill="#B6995E" d="M888.06,560.45c6.53,1.22,7.33,6.25,7.69,11.58C891.78,569.1,889.37,565.14,888.06,560.45z"/>
		<path fill="#CDB178" d="M985.84,443.26c2.73,4.54,5.46,9.09,8.19,13.63c-11.05,5.76-22.87,1.83-34.31,2.54
			c-11.22,0.7-22.51,0.15-33.77,0.15c2.02-12.52,9.26-17.36,21.89-16.53C960.46,443.87,973.17,443.25,985.84,443.26z"/>
		<path fill="#CDB57E" d="M882.51,435.06c-0.05-1.8-0.11-3.6-0.16-5.4c2.52-5.63,7.49-5.54,12.55-5.53
			c23.33,0.05,46.66,0.05,70,0.01c6.08-0.01,12.08-0.1,12.8,8.19c-21.53,0-43.07,0.2-64.6-0.09
			C902.75,432.1,892.58,432.74,882.51,435.06z"/>
		<path fill="#CDB985" d="M917.8,385.97c5.22,6.47,4.75,15.8,10.93,21.79c-16.96,5.22-34.39,1.73-51.57,2.8
			c1.46-8.25,1.15-16.88,5.23-24.57C894.19,388.48,906,388.49,917.8,385.97z"/>
		<path fill="#7A602B" d="M988.55,732.25c8.16-0.02,16.37,0.48,24.48-0.17c11.15-0.89,13.68,4.42,13.95,14.58
			c0.27,10.38-3.25,13.13-13.27,12.97c-35.37-0.54-70.76-0.55-106.14,0c-10.32,0.16-12.07-4.32-11.72-13.04
			c0.33-8.08-0.68-15.57,11.53-14.61c7.95,0.63,16.37,1.88,24.02-2.38C950.35,732.83,969.61,729.04,988.55,732.25z"/>
		<path fill="#836833" d="M966.81,702.21c1.81-3.64,4.52-6.37,8.18-8.15c13.73-1.07,27.63-4.66,40.8,2.69
			c-5.58,8.27-14.77,12.41-21.77,19.06c-22.68,2.18-45.35,2.2-68.03-0.02c-6.55-4.34-11.97-9.83-16.37-16.33
			c11.96-11.32,24.98-7.84,38.12-2.72C954.27,697.96,956.85,712.98,966.81,702.21z"/>
		<path fill="#7E6430" d="M925.99,715.79c22.68-4.42,45.35-4.44,68.03,0.02c-2.47,4.29-6.5,7.92-5.62,13.59
			c-18.79-3.05-37.89,0.49-56.68-2.67C931.78,722.06,927.6,719.6,925.99,715.79z"/>
		<path fill="#7C622F" d="M931.72,726.73c19.07-2.88,38.22-7.39,56.68,2.67c0.05,0.95,0.1,1.89,0.16,2.84
			c-18.02,5.36-36.32,2.25-54.52,1.61c-0.92-0.03-1.75-2.78-2.63-4.26C931.51,728.65,931.61,727.69,931.72,726.73z"/>
		<path fill="#886D37" d="M1015.79,696.75c-13.56-1.54-27.53,3.2-40.8-2.69c1.75-3.7,4.48-6.42,8.13-8.24
			c16.35-6.21,32.69-6.47,49.03,0.01c-3.71,3.57-7.42,7.14-11.13,10.71C1019.28,696.61,1017.54,696.68,1015.79,696.75z"/>
		<path fill="#876C36" d="M947.73,696.75c-12.69,1.18-25.73-2.73-38.12,2.72c-0.9,0-1.8,0-2.7-0.01
			c-4.48-3.71-10.62-5.35-13.64-10.89c14.77-11.95,30.5-7.56,46.26-2.71c0.92,0.92,1.84,1.83,2.76,2.75
			C944.11,691.32,945.92,694.03,947.73,696.75z"/>
		<path fill="#957942" d="M754.42,653.13c0.14-2.98-0.47-6.21,2.71-8.17c24.68-3,49.45-1.1,74.17-1.16
			c21.56-0.05,43.18-1.8,64.7,1.15c5.5,0.23,8.49,3.82,10.89,8.18c-3.63,5.8-9.51,6.4-15.45,6.41c-40.09,0.1-80.17,0.51-120.26,0.29
			C764.81,659.8,758.46,659.25,754.42,653.13z"/>
		<path fill="#927640" d="M754.42,653.13c6.96,2.06,14,2.86,21.31,2.81c36.62-0.21,73.23-0.21,109.85,0
			c7.31,0.04,14.35-0.77,21.31-2.82c1.77,0.1,3.54,0.2,5.32,0.3c1.85,2.63,3.7,5.25,5.55,7.88c-3.81,4.04-8.85,4.08-13.78,3.97
			c-23.76-0.53-47.55,1.38-71.3-1.06c-5.22-0.54-10.84-1.28-15.59,2.35c-16.95-3.79-34.17-2.18-51.29-2.62
			c-4.77-0.12-10.08,1.82-14.1-2.64C751.84,658.33,751.24,655.1,754.42,653.13z"/>
		<path fill="#977A43" d="M896.01,644.95c-3.67,1.97-7.53,2.79-11.75,2.78c-39.48-0.09-78.96-0.05-118.44-0.05
			c-3.17,0-6.43,0.24-8.68-2.71c0.06-1.81,0.11-3.62,0.17-5.43c43.45-0.92,86.95,1.85,130.36-1.53
			C893.76,637.53,893.86,641.91,896.01,644.95z"/>
		<path fill="#9C8048" d="M855.14,620.5c6.92,1.38,13.09,4.52,19.07,8.1c-4.87,3.01-10.28,2.74-15.7,2.73
			c-32.85-0.03-65.7-0.01-98.55,0c0.9-2.73,1.79-5.45,2.69-8.18c5.24-4.66,11.73-4.23,18.02-4.25
			C805.5,618.8,830.35,618.45,855.14,620.5z"/>
		<path fill="#C9AB70" d="M915.09,475.94c0.91-1.81,1.82-3.61,2.73-5.42c25.12-0.01,50.25-0.1,75.37,0.05
			c4.5,0.03,10.46-2.12,11.75,5.37c-3.57,5.84-9.46,6.31-15.34,6.39c-19.72,0.27-39.44,0.27-59.15,0
			C924.54,482.26,918.65,481.79,915.09,475.94z"/>
		<path fill="#C4A66B" d="M1018.54,495.04c0.9,1.81,1.81,3.63,2.71,5.44c-2.97,6.53-9.08,6.44-14.74,6.58
			c-9.26,0.22-18.57,0.91-27.79-0.85c-7.13-2.75-11.83-6.93-9.1-15.49c15.17-8.58,30.59-6.83,46.12-1.12
			C1016.67,491.42,1017.6,493.23,1018.54,495.04z"/>
		<path fill="#C7A96E" d="M1015.74,489.6c-15.37,1.22-31.06-2.91-46.17,2.71c-6.76-0.56-9.16-4.44-8.23-10.85
			c15.29-3.31,31,0.36,46.29-2.79C1010.33,482.32,1013.03,485.96,1015.74,489.6z"/>
		<path fill="#C8AB70" d="M1007.63,478.68c-9.43,4.98-19.62,1.72-29.41,2.76c-5.65,0.6-11.86-2.21-16.85,2.64
			c-1.36,1.01-2.88,1.48-4.56,1.43c-10.83-0.29-21.71,0.56-32.48-0.62c-4.64-0.51-12.1,0.15-9.27-8.91c0,0,0.03-0.04,0.03-0.04
			c29.95,4.38,59.89,4.38,89.84,0C1005.83,476.85,1006.73,477.76,1007.63,478.68z"/>
		<path fill="#CDBA87" d="M917.8,385.97c-9.31,7.88-26.07,7.89-35.41,0.02c1.84-4.54,3.68-9.07,5.52-13.61
			c9.96,0.88,20.28-2.31,29.86,2.71C917.78,378.71,917.79,382.34,917.8,385.97z"/>
		<path fill="#8F743D" d="M817.09,666.57c1.41-7.49,7.42-5.15,11.86-5.18c29.6-0.17,59.21-0.09,88.81-0.09
			c2.59,1.05,4.41,2.86,5.43,5.47c-3.83,7.56-11.04,6.54-17.57,6.66c-18.61,0.35-37.22,0.21-55.79-1.39
			C839.3,667.93,828.4,666.04,817.09,666.57z"/>
		<path fill="#8D723C" d="M849.83,672.04c10.23-5.42,21.21-1.44,31.8-2.52c13.82-1.41,28.01,2.7,41.57-2.75
			c1.83,2.72,3.65,5.45,5.48,8.17c-1.46,7.56-7.81,6.33-12.75,6.55c-13.88,0.61-27.79,0.45-41.62-1.21
			C866.15,677.53,857.99,674.79,849.83,672.04z"/>
		<path fill="#8A6F39" d="M874.3,680.28c11.84-5.61,24.41-1.13,36.54-2.65c5.96-0.75,12.52,2.34,17.83-2.68
			c4.63,2.63,8.26,6.25,10.86,10.91c-15.4,1.24-31.11-2.87-46.26,2.71c-0.9,0-1.81,0-2.71,0
			C885.14,685.8,879.72,683.04,874.3,680.28z"/>
		<path fill="#9F824A" d="M855.14,620.5c-4.04,4.33-9.32,2.53-14.07,2.56c-26.14,0.17-52.29,0.09-78.43,0.1
			c0.9-5.65,2.32-10.85,9.59-10.84C800.13,612.37,828.25,610.21,855.14,620.5z"/>
		<path fill="#92763F" d="M1004.93,661.31c1.77-3.68,4.51-6.39,8.18-8.17c10.65-2.98,21.53-1.4,32.3-1.52
			c37.42-0.4,74.84,0.46,112.26-0.49c3.64-0.09,7.23-0.21,10.4,2.04c0.08,1.82,0.16,3.63,0.24,5.45c2.68,8.19-3.88,5.24-6.91,5.28
			c-18.57,0.24-37.14,0.12-55.71,0.12c-28.03,1.29-56.07,1.65-84.12,1.29C1015.75,665.25,1009.64,666.1,1004.93,661.31z"/>
		<path fill="#8F743D" d="M1004.93,661.31c28.35,0,56.7,0.02,85.05-0.02c5.42-0.01,10.83-0.27,15.69,2.75
			c-13.65,2.7-27.29,5.39-40.94,8.09c-16.21,1.8-32.48,1.57-48.74,1.3c-6.23-0.1-12.99,0.48-16.51-6.65
			C1000.52,664.16,1002.34,662.34,1004.93,661.31z"/>
		<path fill="#8D713B" d="M999.49,666.76c15.87,5.61,32.31,1.29,48.4,2.77c5.65,0.52,11.85-2.23,16.84,2.58
			c-4.52,1.85-9.03,3.7-13.55,5.55c-1.83,0.89-3.65,1.78-5.48,2.68c-13.84,1.34-27.72,1.85-41.6,1.16
			c-4.94-0.24-11.28,1.02-12.78-6.52C993.09,671.29,995.82,668.55,999.49,666.76z"/>
		<path fill="#957942" d="M1168.07,653.18c-6.94,2.14-14,2.8-21.3,2.76c-38.85-0.18-77.69-0.09-116.54-0.08
			c-5.85,0-11.79,0.62-17.12-2.71c1.15-4.27,6.03-4.79,8.15-8.1c1.83-0.94,3.65-1.87,5.48-2.81c4.54-3.48,9.86-4.32,15.33-4.34
			c35.62-0.12,71.24-0.23,106.86,0.06c5.01,0.04,9.94,0.63,13.87,4.29C1164.56,645.89,1166.31,649.53,1168.07,653.18z"/>
		<path fill="#9A7D46" d="M1162.81,642.24c-45.35,0-90.71-0.01-136.06-0.01c3.29-10.72,16-8.76,21.74-16.18
			c1.82-0.07,3.63-0.13,5.45-0.2c31.14-3.15,62.36-1.03,93.55-1.37c4.58-0.05,9.03,0.83,12.59,4.14
			C1162.73,632.81,1163.15,637.45,1162.81,642.24z"/>
		<path fill="#9F824A" d="M1160.07,628.63c-30.15-0.01-60.3-0.05-90.45-0.02c-5.42,0.01-10.83,0.27-15.69-2.76
			c13.54-10.63,30.39-10.87,46.06-12.98c16.43-2.22,33.41-0.96,50.12-0.4C1160.39,612.82,1158.91,621.87,1160.07,628.63z"/>
		<path fill="#AE9157" d="M936.84,576.8c-9.61,5.03-19.96,1.81-29.94,2.72c-3.87-2.37-8.67-4.99-7.34-10.06
			c1.57-5.97,7.52-3.17,11.61-3.46c5.81-0.41,11.67-0.09,17.51-0.09C936.54,565.68,938.1,570.18,936.84,576.8z"/>
		<path fill="#B6995E" d="M888.22,557.54c-0.13-3.57-0.26-7.15-0.39-10.72c3.34-9.51,11.66-6.2,18.21-6.74
			c5.79-0.48,11.83-0.53,17.1,2.94c3.29,3.97,3.5,7.97,0.07,11.98C911.55,556.04,899.57,552.51,888.22,557.54z"/>
		<path fill="#C4A66B" d="M923.2,555c-0.03-3.62-0.07-7.25-0.1-10.87c-3-3.74-0.8-7.17,0.59-10.67c1.72-3.27,3.46-6.53,5.17-9.82
			c2.3-3.71,4.49-7.5,7.4-10.81c2.21-1.53,4.43-2.98,6.86-0.35c1.44,3.26,0.58,6.45-1.25,9c-8.37,11.65-12.64,24.53-12.39,38.9
			c-1.15,0.98-2.32,1.01-3.52,0.09C925.04,558.65,924.12,556.82,923.2,555z"/>
		<path fill="#B6995E" d="M925.96,560.47c1.11-0.08,2.21-0.17,3.32-0.25c14.88,7.23,22.56,20.41,28.77,34.82
			c-0.21,1.32-0.7,2.53-1.5,3.6c-6.39,0.99-7.43-3.79-8.81-8.2c-2.56-5.41-4.99-10.91-10.89-13.64c-2.23-4-3.28-8.88-8.16-10.89
			C927.77,564.1,926.86,562.28,925.96,560.47z"/>
		<path fill="#A5884F" d="M947.73,590.44c4.3,1.22,4.77,6.18,8.11,8.33c0.99,1.48,1.18,3.05,0.58,4.72
			c-10.03,6.83-20.2,5.69-30.45,0.56c-3.6-2.49-8.85-4.54-6.59-10.08c1.8-4.4,6.81-3.51,10.81-3.54
			C936.04,590.4,941.88,590.44,947.73,590.44z"/>
		<path fill="#A4884F" d="M925.97,604.06c9.94-1.43,20.42,3.12,29.95-2.74c2.61-2.16,5.61-2.8,8.91-2.31
			c10.39,3.1,22.14-2.23,31.87,5.06c-1.02,2.61-2.83,4.41-5.43,5.44c-20.85,2.21-41.71,1.94-62.56,0.01
			c-0.81-0.01-1.61-0.07-2.41-0.18C926.19,607.57,926.08,605.81,925.97,604.06z"/>
		<path fill="#AC8F55" d="M1015.8,579.51c-3.65,4.55-7.29,9.1-10.94,13.65c-10.32,5.91-21.24,4.38-32.17,2.59
			c-9.23-8.55,2.76-11.65,4.45-17.42c3.14-3.42,5.19-8.67,11.44-6.96c4.95,4.88,11.15,1.96,16.76,2.66
			C1009.58,574.56,1014.88,572.74,1015.8,579.51z"/>
		<path fill="#B4975D" d="M1032.09,552.28c-0.36,4.33-1.84,8.1-5.32,10.9c-10.92-0.22-21.98,1.16-32.6-2.7
			c-1.71-4.72,0.13-8,4.19-10.4C1009.75,548.4,1021.22,545.81,1032.09,552.28z"/>
		<path fill="#C2A56A" d="M996.91,552.29c-0.91,2.73-1.83,5.46-2.74,8.18c-1.82,1.96-3.64,3.91-5.46,5.86
			c-0.42-0.51-0.84-1.02-1.26-1.52c2.53-12.12,3.65-24.19-1.05-36.11c0.24-1.34,0.75-2.56,1.56-3.66c5.69-1.61,6.42,3.45,8.7,6.45
			c1.52,3.01,2.62,6.16,3.02,9.54c0.25,2,0.23,4-0.06,6C999.26,549.06,998.19,550.73,996.91,552.29z"/>
		<path fill="#B4975D" d="M988.58,571.38c-3.66,1.78-6.35,4.53-8.16,8.17c-1.22,1.12-2.37,1.06-3.48-0.17
			c-1.5-8.83,3.27-12.68,11.16-14.05c0,0,0.6,1,0.61,1.01C988.66,568.02,988.62,569.7,988.58,571.38z"/>
		<path fill="#BD9F64" d="M994.14,533.21c-1.81-2.75-3.63-5.51-5.44-8.26c-4.58-2.7-5.99-5.87-1.47-9.94
			c15.09-3.15,30.13-5.02,44.79,1.89c1.08,5.41,3.83,10.54,2.72,16.31C1021.21,539.63,1007.67,539.14,994.14,533.21z"/>
		<path fill="#C2A56A" d="M1032.02,516.91c-15.38-0.03-30.77-0.05-46.15-0.08c-9-0.77-11.06-5.72-8.17-13.63
			c14.49-1.32,29.34,2.93,43.56-2.72C1025.9,505.26,1029.47,510.75,1032.02,516.91z"/>
		<path fill="#BB9C61" d="M994.14,533.21c13.53,0,27.07,0,40.6,0c0,2.72-0.01,5.45-0.01,8.17c-12.61,5.95-25.22,5.79-37.83,0
			C995.98,538.66,995.06,535.94,994.14,533.21z"/>
		<path fill="#B89A5F" d="M996.9,541.39c12.61,0,25.23,0,37.84,0c0.03,3,0.6,6.16-2.53,8.18c-11.81-0.38-23.85,2.23-35.31-2.73
			C996.9,545.01,996.9,543.2,996.9,541.39z"/>
		<path fill="#B7995E" d="M996.9,546.83c11.82,0.3,23.79-1.42,35.31,2.73c-0.02,0.91-0.06,1.81-0.11,2.72
			c-11.73,0-23.46,0.01-35.19,0.01C996.9,550.47,996.9,548.65,996.9,546.83z"/>
		<path fill="#C2A56A" d="M942.63,511.69c-1.93,0.81-3.86,1.61-5.79,2.42c-14.91,5.45-29.69,8.83-43.54-2.72
			c-0.39-4.75,3.89-7.15,5.49-10.91c14.68-6.27,29.48-5.54,44.36-0.76c3.74,3.08,3.49,6.62,1.18,10.4
			C943.76,510.65,943.19,511.17,942.63,511.69z"/>
		<path fill="#C4A66B" d="M944.97,503.21c-15.12-5.62-30.81-1.46-46.19-2.72c0.95-2.65,1.89-5.31,2.84-7.96
			c1.76-0.98,3.52-1.97,5.28-2.95c14.28-6.6,28.7-5.51,43.19-0.82c3.13,3.49,2.74,7.15,0.53,10.91
			C949.22,501.61,947.41,502.92,944.97,503.21z"/>
		<path fill="#BFA166" d="M893.3,511.39c14.22,5.63,29.05,1.39,43.54,2.72c0.37,4.75-3.92,7.15-5.49,10.91
			c-14.48,5.89-28.97,6.72-43.45,0C887.69,519.68,888.98,514.93,893.3,511.39z"/>
		<path fill="#BA9C61" d="M925.91,533.19c-0.94,3.64-1.87,7.29-2.81,10.93c-11.71,1.47-23.9-3.27-35.27,2.69
			c-4.47-3.85-2.06-9.01-2.58-13.6C898.8,526.88,912.35,526.85,925.91,533.19z"/>
		<path fill="#BD9F64" d="M925.91,533.19c-13.56,0.01-27.11,0.02-40.67,0.02c0.88-2.73,1.76-5.46,2.65-8.2c14.49,0,28.97,0,43.45,0
			C929.53,527.74,927.72,530.47,925.91,533.19z"/>
		<path fill="#8A6F39" d="M991.34,674.98c11.36,5.87,23.53,1.09,35.2,2.7c6.39,0.88,13.38-2.48,19.18,2.65
			c-4.52,1.83-9.04,3.66-13.56,5.5c-16.34,0-32.69-0.01-49.03-0.01c0.01-0.9,0.02-1.8,0.03-2.71
			C984.97,679.48,987.66,676.74,991.34,674.98z"/>
		<path fill="#A0854B" d="M985.83,617.68c-1.98,5.01-8.23,7.38-8.35,13.54c-5.47,2.86-7.76,8.18-10.55,13.23
			c-2.25,4.07-4.19,9.54-10.81,5.85c-3.39-12.66-14.62-20.69-19.27-32.62C947.7,607.95,974.98,607.94,985.83,617.68z"/>
		<path fill="#A1854C" d="M985.83,617.68c-16.32-4.36-32.65-4.38-48.97,0.01c-3.66-1.78-6.38-4.51-8.15-8.18
			c20.86-4.73,41.71-4.19,62.57-0.01c-0.92,1.82-1.84,3.64-2.76,5.46C987.61,615.86,986.72,616.77,985.83,617.68z"/>
		<path fill="#A5884F" d="M969.58,593.2c11.76-0.01,23.52-0.03,35.28-0.04c-1.83,2.72-3.65,5.43-5.48,8.15
			c-0.9,0.92-1.79,1.84-2.69,2.76c-10.83-1.41-22.15,2.98-32.62-2.75C962.47,596.27,965.63,594.47,969.58,593.2z"/>
		<path fill="#C7A96E" d="M950.46,492.29c-14.22-5.76-29.07-1.26-43.56-2.72c0.6-5.81,4.61-9.56,8.16-13.6
			c1.34,7.55,7.37,4.84,11.87,5.41c10.52,1.35,21.53-2.93,31.69,2.69c0.15,1.79-0.18,3.49-0.96,5.12c-0.6,1.04-1.38,1.92-2.3,2.69
			C953.8,492.84,952.21,493.53,950.46,492.29z"/>
		<path fill="#C9AB70" d="M956.22,489.85c-0.22-2.35,0.18-4.44,2.41-5.77c0.92,0,1.83,0,2.75-0.01c2.73,2.75,5.46,5.49,8.19,8.24
			c2.23,3.99,3.24,8.88,8.12,10.89c0.97,5.6,2.71,10.73,8.17,13.63c0.94,2.71,1.89,5.41,2.83,8.12c-0.11,1.08-0.21,2.17-0.32,3.26
			c-8.03-0.15-9.62-7.35-12.93-12.31C969.44,506.89,964.84,496.9,956.22,489.85z"/>
		<path fill="#FEFEFD" d="M956.22,489.85c6.26-4.49,7.32,1.57,9.73,4.83c8.02,10.81,13.07,23.61,22.43,33.53
			c7.05,12.43,7.85,24.81-0.28,37.13c-4.45,4.04-8.87,8.11-10.95,14.01c-2.59,6.12-8.07,10.12-11.51,15.72
			c-2.16,3.52-6.28,7.54-9.44,0.06c-7.44-12.82-17.42-23.68-26.93-34.9c-5.42-12.68-1.45-23.71,5.81-34.28
			c3.04-4.43,6.56-8.69,7.55-14.24c0,0-0.1-0.03-0.1-0.03c1.73-2.99,3.45-5.98,4.9-9.12c4.24-3.38,5-9.15,8.78-12.84L956.22,489.85z
			"/>
		<path fill="#B0945A" d="M956.2,595.12c4.56,3.71,6.92,0.48,9.59-2.8c3.62-4.46,7.56-8.66,11.36-12.97
			c1.09,0.07,2.18,0.14,3.27,0.2c-3.61,4.55-7.23,9.11-10.84,13.66c-1.83,2.7-3.67,5.41-5.51,8.11c-2.72,0-5.44,0-8.16,0
			c0-0.85-0.03-1.7-0.08-2.54C955.96,597.55,956.08,596.34,956.2,595.12z"/>
		<path fill="#C8AB70" d="M947.88,503.55c-0.41,3.61-2.03,6.43-5.35,8.11c0.82-2.82,1.63-5.63,2.45-8.45
			c0.9-0.93,1.8-1.86,2.71-2.79c0.86,0.64,1.17,1.32,0.95,2.03C948.39,503.18,948.14,503.55,947.88,503.55z"/>
		<path fill="#C9AB70" d="M947.88,503.55c-0.07-1.04-0.13-2.08-0.2-3.12c0.93-2.71,1.86-5.42,2.79-8.13
			c1.91-0.87,3.83-1.73,5.74-2.6C955.02,495.27,952.48,500.03,947.88,503.55z"/>
	</g>
</g>
</svg>
