<?xml version="1.0" encoding="utf-8"?>
<!-- Generator: Adobe Illustrator 25.2.1, SVG Export Plug-In . SVG Version: 6.00 Build 0)  -->
<svg version="1.1" id="Layer_1" xmlns="http://www.w3.org/2000/svg" xmlns:xlink="http://www.w3.org/1999/xlink" x="0px" y="0px"
	 viewBox="0 0 1920 1080" enable-background="new 0 0 1920 1080" xml:space="preserve">
<g>
	<g>
		<path fill="#FEFEFE" d="M725.24,299.24c153.27,0,306.53,0.09,459.8-0.24c8.33-0.02,9.98,1.63,9.97,9.96
			c-0.32,154.02-0.32,308.05,0,462.07c0.02,8.33-1.63,9.98-9.97,9.96c-150.02-0.32-300.04-0.32-450.07,0
			c-8.33,0.02-9.98-1.63-9.97-9.96C725.32,613.77,725.24,456.5,725.24,299.24z"/>
		<path fill="#BC9E63" d="M946.02,663.69c5.04-15.4-1.35-30.13-3.12-45.02c-2.7-22.78-7.64-45.29-10.45-68.07
			c-1.25-10.1-4.52-14.87-15.04-12.9c-3.55,0.67-7.19,1.06-10.8,1.21c-8,0.32-9.91,4.41-4.1,9.3
			c15.31,12.87,14.08,31.49,18.98,48.26c-3.22,0.17-5.42-0.59-7.22-2.43c-1.31-9.73-3.14-19.34-6.69-28.55
			c-2.4-7.3-9.24-11.18-13.28-17.23c-3.6-7.59-10-9.57-17.84-9.55c-20.44,0.05-40.88,0.06-61.32-0.06
			c-5.54-0.03-11.31,0.76-16.25-2.9c-1.51-5.42,1.07-8.54,5.85-10.44c3.56-1.04,7.22-0.89,10.85-0.89c96.3-0.04,192.6-0.03,288.89,0
			c3.64,0,7.29-0.12,10.87,0.74c4.29,2.02,8.57,4.07,6.97,10.14c-4.7,4.13-10.51,3.31-16.04,3.35c-20.05,0.13-40.09,0.02-60.14,0.11
			c-7.02,0.03-13.65,0.96-18.34,7.02c-1.67,2.35-3.75,4.09-6.72,4.49c-0.62-0.3-1.24-0.59-1.87-0.89
			c3.04-7.17,1.05-11.09-7.12-11.16c-2.82-0.02-5.68-0.03-8.44-0.52c-9.23-1.64-13.51,1.17-14.79,11.4
			c-2.48,19.89-6.67,39.57-10.15,59.33c-0.58-0.21-1.15-0.42-1.74-0.62c-1.47-1.25-2.28-2.83-2.42-4.76
			c0.3-4.78,0.68-9.55,1.61-14.26c1.11-3.98,1.39-8.07,1.66-12.17c0.5-4.12,1.84-8.08,2.14-12.24c0.12-1.79,0.37-3.56,0.72-5.32
			c0.77-3.43,1.58-6.86,1.77-10.39c2.01-8.66-1.11-12.95-10.31-12.74c-8,0.19-16.01-0.14-24.02,0.15
			c-6.69,0.24-10.55,3.24-10.22,10.38c0.24,4.14,1.8,8.05,2.01,12.18c0.17,2.97,0.7,5.88,1.55,8.74c1.31,5.25,0.53,10.79,2.31,15.98
			c0.47,1.76,0.77,3.56,0.96,5.37c0.23,4.84,1.57,9.5,2.29,14.26c0.34,4.16,0.54,8.35,1.69,12.4c1.14,4.69,0.76,9.63,2.38,14.24
			c0.36,1.19,0.59,2.4,0.75,3.63c0.48,5.59,0.38,11.23,1.93,16.7c0.74,5.41,1.21,10.75-4.04,14.49
			C948.34,664.94,947.1,664.69,946.02,663.69z"/>
		<path fill="#C2A468" d="M1121.77,535.14c-0.01-3.5-1.65-5.93-4.86-7.3c-2.04-2.08-4.75-3.36-6.73-5.53
			c-4.26-4.56-9.86-2.93-14.92-2.94c-88.59-0.1-177.18-0.05-265.77-0.11c-5.62,0-11.36,0.81-16.79-1.49
			c-5.85-8.36,3.05-9.33,6.53-13.03c43.06-0.34,86.14,0.13,129.2-0.26c7.54,6.57,15.3,7.19,23.34,0.83
			c43.92-0.52,87.84-1.74,131.74,0.61c1.44,0.63,2.8,1.39,4.09,2.28c8.25,8.47,14.77,18.1,19.4,29c-0.48,0.3-0.97,0.61-1.45,0.91
			C1123.7,537.88,1122.42,536.9,1121.77,535.14z"/>
		<path fill="#B79A5F" d="M780.9,563.59c-0.57-4.45,3.97-5.83,5.45-9.04c3.97-4.43,3.42-11.97,10.02-14.63
			c17.9-2.17,35.85-0.84,53.78-0.83c3.94,0,8.09,0.66,9.89,5.2c0.26,3.13-1.84,3.73-4.32,4.35c-11.51,2.87-22.44,7.4-33.35,11.94
			c-7.61,2.97-15.05,6.29-21.57,11.37l0.14-0.11c-2.99,2.29-7.11,2.46-9.86,5.21c-1.35,1.56-2.7,3.11-4.05,4.67
			c-3.79,0.68-5.79,4.1-8.85,5.79c-6.31,3.5-5.62-0.58-4.64-4.66c-0.06-2.35-0.16-4.71,1.62-6.6
			C779.62,573.18,779.12,567.87,780.9,563.59z"/>
		<path fill="#CFBA86" d="M1046.46,438.09c-0.42,6.4-1.49,12.28-10.05,11.53c-7.67-0.67-18.27,3.7-19.32-9.43
			c-0.57-7.23-10.47-14.59-0.23-21.92c4.04-2.62,8.83-3.97,12.41-7.36l-0.09,0.08c3.93-2.72,8.71-4.01,12.27-7.35l-0.09,0.07
			c3.91-2.74,8.69-4.04,12.26-7.34l-0.07,0.05c6.93-2.56,5.2,1.66,4.18,5.33C1054.35,413.99,1049.26,425.68,1046.46,438.09z"/>
		<path fill="#BA9C60" d="M859.03,547.14c-1.27-6.61-6.58-4.6-10.55-4.63c-18.35-0.17-36.69-0.06-55.04-0.06
			c-1.6-3.58,1.68-4.64,3.37-6.52c0.48-0.26,0.96-0.52,1.45-0.78c26.14,0,52.29,0.55,78.41-0.27c11.76-0.37,19.4,2.41,21.3,14.86
			c-6.34,5.03-14.24,2.76-21.26,4.55c-3.77,0.71-5.48-2.64-8.14-4.16c-0.83-0.75-1.65-1.49-2.48-2.24
			C864.05,544.56,861.18,549.21,859.03,547.14z"/>
		<path fill="#B4985D" d="M1130.61,579.28c-2.22-1.43-4.45-2.86-6.67-4.29c-8.92-7.99-20.34-11.43-30.69-16.83
			c-3.64-1.08-7.94-1.15-9.05-6.02c1.99-6.11,7.36-5.76,12.05-5.83c10.11-0.15,20.25-0.79,30.34,0.49
			c10.88,5.76,11.32,18.26,17.45,27.11l-0.11-0.13c-0.8,5.12,9.14,10.64-0.57,15.43l0.07-0.12
			C1139.27,585.67,1136.17,580.87,1130.61,579.28z"/>
		<path fill="#C8AB6F" d="M817.72,505.98c-2.43,3.24-4.85,6.47-7.28,9.71c1.71,3.59-1.33,5.65-2.66,8.27
			c-1.18,1.74-3.21,2.48-4.68,3.89c-1.62,2.43-3.24,4.87-4.86,7.3c0,0-0.02,0.01-0.02,0.01c-1.08,1.08-2.07,1-2.97-0.24
			c9.42-19,22.26-35.55,36.62-51c2.64-2.47,4.73-5.42,7.3-7.97c8.64-8.58,9.07-8.92,15.65,1.51c2.63,4.18,9.68,3.09,9.64,9.4
			c-5.58,7.43-13.66,5.04-20.84,4.76c-6.84-0.27-12.62,0.41-16.34,6.85C824.78,501.85,821.77,504.58,817.72,505.98z"/>
		<path fill="#B2965B" d="M910.1,564.33c3.25,9.64,8.84,18.95,4.17,29.71c-1.45-0.72-2.9-1.44-4.35-2.16
			c-4.1-4.57-9.86-6.77-14.7-10.27l0.12,0.13c-3.72-3.57-7.82-6.74-11.07-10.78c-1.69-2.11-2.31-4.15,0.52-5.89
			C893.17,562.88,901.6,562.28,910.1,564.33z"/>
		<path fill="#CEBB87" d="M941.77,401.38c0.9-1.63,1.79-3.27,2.68-4.9c1.26-2.74,1.6-6.18,5.32-7.08c6.69-1.5,13.55-0.72,20.3-1.48
			c4.32-0.2,3.94,4.02,5.78,6.16c0.41,2.57-0.2,5.47,2.39,7.33c0.9,1.28,0.8,2.49-0.28,3.61c-10.72,6.69-21.77,5.92-32.99,1.42
			C943.26,405.18,942.63,403.21,941.77,401.38z"/>
		<path fill="#D1B882" d="M863.92,486.49c-2.6-1.78-6.52-2.98-7.57-5.42c-7.5-17.4-13.75-5.53-20.41,0.49
			c-1.14,1.03-2.69,1.59-4.06,2.37c4.81-9.97,13.78-16.35,20.76-25.66c2.9,24.44,11.6,29.86,34.23,22.74
			c7.69-2.42,15.47-4.6,23.2-6.89c0.78,1.19,0.78,2.37,0,3.56c-8.36,6.59-18.93,7.64-28.46,11.34
			C875.49,489.73,869.24,491.26,863.92,486.49z"/>
		<path fill="#876C37" d="M978.11,730.12c-20.34-12.12-36.6,3.61-55.8,8.47c-0.44-13.9-6.49-27.06-0.8-40.83
			c1.05-0.77,2.15-0.84,3.29-0.2c1.76,2.79,0.74,5.81,0.73,8.75c0.01,1.62,0.01-0.42,0,1.2c-0.1,23.42,0.77,24.17,21.99,14.72
			c11.62-5.18,21.76-3.9,31.11,4.6C979.04,728.01,978.83,729.11,978.11,730.12z"/>
		<path fill="#CCB077" d="M990.02,478.88c3.29-9.43,9.03-10.23,18-6.89c15.34,5.71,30.42,13.21,47.59,11.86
			c1.29-0.97,2.44-0.83,3.46,0.41c0.28,1.44-0.17,2.6-1.34,3.48c-6.19,2.97-12.63,2.07-19.07,1.23c-8.82-2.69-17.67-5.42-26.26-8.79
			c-7.12-2.8-13.92-3.07-20.95-0.36C990.99,479.51,990.51,479.2,990.02,478.88z"/>
		<path fill="#D2C49B" d="M975.85,394.09c-1.63-1.63-3.26-3.26-4.89-4.89c-5.32-5.72-6.81-13.22-9.45-20.19
			c-1.12-2.35,0.12-5.19-1.79-7.95c1.01,2.91,0.25,5.13-0.4,7.38c-1.46,3.62-2.28,7.73-6.73,9.15c-0.5-0.27-1-0.54-1.5-0.81
			c2.74-9.04,5.48-18.09,9.12-30.1C965.58,364.64,973.48,378.39,975.85,394.09z"/>
		<path fill="#876C37" d="M988.73,683.17c18.9,13.63,12.61,32.86,10.62,50.69c-0.95,8.5-6.02,2.64-9.44,0.93
			c0.48-0.98,1.12-1.83,1.9-2.57c5.43-7.81,1.46-16.98,3.63-25.24c1.37-4.73-1.75-7.75-4.22-11.03c-1.89-4.35-7.62-7.1-5.53-13.12
			C986.78,682.22,987.79,682.37,988.73,683.17z"/>
		<path fill="#B99D62" d="M1015.3,589.28c-3.9,3.66-8.48,6-15.61,7.67c4.46-17.53,2.7-36.05,19.53-47.57c0,0,0.58,0.53,0.58,0.53
			c2.91,4.81-1.08,7.55-3.23,10.84c-5.33,6.01-6.05,13.78-8.03,21.07c-1.07,3.92,1.27,4.95,4.42,5.35
			C1014.05,587.53,1014.83,588.24,1015.3,589.28z"/>
		<path fill="#D1BC89" d="M903.14,440.48c-0.22,5.02-0.56,10.79-7.63,8.99c-6.6-1.67-16.8,6.63-19.54-6.51
			c-1.02-1.08-1.01-2.16,0.02-3.23c8.51-0.94,17.06,0.17,25.59-0.26C902.1,439.8,902.62,440.14,903.14,440.48z"/>
		<path fill="#CFB57F" d="M1058.59,484.18c-0.99-0.11-1.98-0.22-2.97-0.33c7.93-4.74,14.05-10.57,11.42-23.72
			c12.34,8.53,19.46,18.27,25.91,28.64c-0.89,0.77-1.91,1.08-3.08,0.94c-1.63-0.57-3-1.53-4.27-2.67
			c-4.29-3.55-7.33-8.32-11.56-12.18C1068.24,477.02,1068,488.4,1058.59,484.18z"/>
		<path fill="#D0BD8D" d="M876.13,440.29c-0.05,0.89-0.1,1.78-0.16,2.67c-7.31-16.07-11.72-33.04-17.4-50.39
			c6.58,0.09,10.08,2.44,12.82,6.17c-0.46,0.37-0.91,0.75-1.34,1.11c-0.75,1.3-4.15-1.3-3.11,1.12c3.79,8.78,6.33,17.96,9.34,26.98
			C877.63,431.96,879.72,436.23,876.13,440.29z"/>
		<path fill="#B99D62" d="M1051.52,552.49c-8.27,16.01-20.11,28.5-36.22,36.79c0,0-0.69-0.81-0.69-0.81
			c-0.13-7.51,7.34-8.85,11-13.27c4.87-5.88,11.12-10.56,15.63-16.82c2.33-3.05,4.14-6.53,7.12-9.08c1.11-0.42,2.19-0.34,3.26,0.14
			C1052.28,550.48,1052.29,551.5,1051.52,552.49z"/>
		<path fill="#C9B276" d="M859.03,547.14c2.42-0.4,5.77-9.58,7.05,0.75c-15.27,4.8-30.54,9.59-45.8,14.38
			c-0.79-0.59-1.07-1.2-0.85-1.84c0.23-0.65,0.47-0.97,0.72-0.97C833.2,555.65,844.81,547.3,859.03,547.14z"/>
		<path fill="#C8AB6F" d="M968.54,508.39c-6.63,5.81-12.55,6.59-17.09-2.4c-3.56-1.37-6.36-3.79-8.99-6.45
			c-2.57-3.32-7.22-5.57-5.73-11c1.04-0.64,2.01-0.56,2.93,0.24c2.88,2.78,5.91,5.41,8.61,8.36c11.94,13.06,11.9,13.09,24.76,1.37
			c1.03-0.63,1.96-0.51,2.8,0.37C977.11,504.88,971.65,505.74,968.54,508.39z"/>
		<path fill="#CFBD8B" d="M1046.46,438.09c-0.42-11.62,6.04-21.42,8.42-32.27c0.63-2.88,5.94-7.34-1.33-9.4
			c1.86-3.32,4.68-5.12,9.46-5.49C1057.04,406.84,1053.75,423.13,1046.46,438.09z"/>
		<path fill="#BA9C62" d="M975.96,625.52c-0.54,5.21-0.87,10.46-1.68,15.63c-1.52,9.7-2.3,19.21,4.27,27.62
			c-0.79,0.83-1.77,1.26-2.91,1.36c-1.73-0.22-3.08-1.1-4.23-2.34c-4.66-4.66-4.91-10.44-4.16-16.47c0.84-5.72,1.4-11.47,2.25-17.19
			c0.39-3.25,0.89-6.48,1.34-9.73c0.33-1.75,0.99-3.33,2.32-4.58c1.2-0.37,2.3-0.17,3.31,0.58
			C977.07,622.18,977.06,623.9,975.96,625.52z"/>
		<path fill="#D4C38F" d="M1051.52,552.49c-0.15-0.92-0.3-1.85-0.46-2.77c-0.33-10.5,5.18-9.4,11.86-5.99
			c7.56,3.38,17.07,2.75,22.37,10.8c3.16,0.87,6.32,1.73,9.48,2.6c1.32,0.98,1.28,1.91-0.1,2.8c-9.52-2.92-19.07-5.78-28.56-8.8
			C1061,549.49,1056.04,548.35,1051.52,552.49z"/>
		<path fill="#CFB781" d="M988.33,427.98c-1.5,13.74-11.47,22.29-19.59,31.97c-0.38-0.43-0.77-0.87-1.16-1.3
			c1.66-12.71,11.55-20.76,17.56-31.02C986.28,427.08,987.34,427.2,988.33,427.98z"/>
		<path fill="#CEBB8A" d="M941.77,401.38c0.8,0.81,1.61,1.62,2.41,2.43c1.78,6.57-3.01,11.62-4.04,17.53
			c-2.03,4.48-2.09,9.22-1.76,14c-0.24,1.08-0.76,2-1.59,2.74c-5.81-2.92-6.67-7.3-4.27-13.05
			C935.79,417.22,938.71,409.27,941.77,401.38z"/>
		<path fill="#CFB47D" d="M939.65,488.77c-0.92,0.07-1.84,0.13-2.76,0.2c-1.75-0.16-3.2-0.98-4.52-2.07
			c-5.59-7.35-12.97-10.8-22.23-10.12c-0.02-0.89-0.05-1.78-0.07-2.67C924.18,467.5,928.4,469.59,939.65,488.77z"/>
		<path fill="#B9A167" d="M1144.04,573.91c-7.55-6.47-7.96-17.37-14.97-24.18c-2.59-2.43-3.72-5.49-3.94-8.96
			c0.11-1.14,0.55-2.14,1.32-2.99c0,0,0.55-0.56,0.55-0.56C1134.02,548.82,1140.53,560.67,1144.04,573.91z"/>
		<path fill="#8C713B" d="M924.73,698.09c-1.07-0.11-2.15-0.22-3.22-0.33c5.6-9.58,12.05-18.53,19.53-26.73
			c0.91-0.82,1.91-0.94,2.98-0.36c2.35,5.38-2.84,7.74-4.57,11.49c-2.69,3.88-5.95,7.35-8.43,11.4
			C929.39,695.69,927.61,697.67,924.73,698.09z"/>
		<path fill="#B9A167" d="M1094.68,559.93c0.04-0.93,0.07-1.87,0.1-2.8c9.68,6.01,22.32,7.2,29.16,17.86
			C1114.19,569.97,1104.43,564.95,1094.68,559.93z"/>
		<path fill="#D0BD8D" d="M895.78,413.23c16.42,6.5,16.42,6.5,7.36,27.24c0,0-0.46-0.27-0.46-0.27c-3.35-8.26-0.2-18.49-7.71-25.49
			C895.23,414.22,895.5,413.73,895.78,413.23z"/>
		<path fill="#B9A166" d="M773.53,582.84c0.49,3.23,1.23,6.04,4.97,2.37c2.39-2.35,4.91-4.2,8.52-3.5
			c-4.84,5.83-9.69,11.65-14.54,17.48C769.02,591.73,771.15,587.26,773.53,582.84z"/>
		<path fill="#CEBB8A" d="M988.33,427.98c-0.93,0.06-1.86,0.11-2.79,0.17c-2.84-1.6-3.96-4.41-5.11-7.21
			c-1.05-5.65-5.85-10.82-2.28-17.09c0.04-0.81,0.07-1.62,0.1-2.43C984.22,409.28,986.1,418.7,988.33,427.98z"/>
		<path fill="#CCB077" d="M975.82,498.69c-0.93-0.06-1.86-0.12-2.8-0.19c3.76-8.19,10.55-13.76,17.01-19.62c0,0,0.57,0.46,0.57,0.46
			c2.29,2.91,0.64,5.35-0.91,7.82c-3.79,4.04-7.34,8.36-12.23,11.22C976.92,498.49,976.37,498.59,975.82,498.69z"/>
		<path fill="#B9A167" d="M1143.35,589.21c6.02-4.93-1.57-10.36,0.57-15.43c4.61,6.16,6.44,13.17,6.84,20.87
			C1146.38,594.8,1145.01,591.81,1143.35,589.21z"/>
		<path fill="#BEA064" d="M795.25,534.93c0.99,0.08,1.98,0.16,2.97,0.24c-1.6,2.43-3.2,4.86-4.79,7.29
			c-0.92,4.88-2.44,9.4-7.09,12.09C787.71,547.28,789.7,540.29,795.25,534.93z"/>
		<path fill="#B99C61" d="M883.39,566.75c2.73,5.99,9.74,8.57,11.95,14.99c-7.9-3.5-13.32-9.51-17.34-16.98
			c0.48-0.34,0.96-0.68,1.44-1.01C881.37,563.95,882.69,564.95,883.39,566.75z"/>
		<path fill="#B79C62" d="M820.15,559.47c0.04,0.94,0.08,1.87,0.12,2.81c-6.18,3.86-12.42,7.6-19.48,9.67
			C804.94,564.21,813.83,563.83,820.15,559.47z"/>
		<path fill="#CDB984" d="M936.8,438.09c0.04-0.89,0.09-1.77,0.13-2.66c7.85,1.49,10.5,7.17,11.46,14.21
			c-0.26,1.24-0.89,2.26-1.87,3.07C941.44,449.06,939.35,443.42,936.8,438.09z"/>
		<path fill="#B99C61" d="M868.55,550.13c3.34-3.42,2.94,2.52,5.1,2.04c2.95,3.47,8.3,5.92,5.05,11.99c0,0-0.7,0.59-0.7,0.6
			C873.27,560.9,870.13,556.02,868.55,550.13z"/>
		<path fill="#CFB781" d="M968.74,459.95c-6.8,12.25-7.38,12.47-12.64,4.87c0.38-0.35,0.76-0.7,1.12-1.07
			c3.88-0.94,6.47-5.36,11.16-4.11L968.74,459.95z"/>
		<path fill="#D2C49B" d="M949.03,391.64c-1.53,1.61-3.05,3.23-4.58,4.84c-0.05-7.33,2.67-13.73,6.65-19.7c0,0,0.54,0.39,0.54,0.39
			C955.56,382.86,952.59,387.3,949.03,391.64z"/>
		<path fill="#8C713B" d="M975.85,669.12c0.9-0.12,1.81-0.24,2.71-0.35c4.04,4.35,7.75,8.93,10.18,14.41
			c-1.06,0.11-2.13,0.22-3.19,0.34c-1.65-0.18-2.97-1-4.13-2.12C978.96,677.57,974.64,674.59,975.85,669.12z"/>
		<path fill="#CFB781" d="M946.52,452.71c0.04-0.89,0.09-1.79,0.13-2.68c7.58,1.9,11.51,6.29,9.84,14.48c0,0-0.39,0.31-0.39,0.32
			C951.91,461.57,947.86,458.21,946.52,452.71z"/>
		<path fill="#B49A5F" d="M895.21,581.6c6.5,1.13,11.77,4.03,14.7,10.27C904.32,589.45,898.73,587.01,895.21,581.6z"/>
		<path fill="#B9A167" d="M1130.61,579.28c6.99-0.28,10.13,4.45,12.81,9.8C1138,587.33,1134.58,582.95,1130.61,579.28z"/>
		<path fill="#836833" d="M992.87,734.42c-0.99,0.13-1.97,0.25-2.96,0.38c-4.39-0.42-8.31-1.99-11.8-4.68
			c0.05-0.95,0.09-1.9,0.14-2.85C984.62,726.6,990.49,726.94,992.87,734.42z"/>
		<path fill="#CFBD8B" d="M1041.44,403.65c-2.46,5.16-7.1,6.7-12.26,7.35C1032.06,406.53,1036.52,404.7,1041.44,403.65z"/>
		<path fill="#CFBD8B" d="M1053.62,396.38c-2.48,5.12-7.11,6.67-12.26,7.34C1044.23,399.25,1048.68,397.41,1053.62,396.38z"/>
		<path fill="#D0BD8D" d="M883.57,405.98c4.83,1.14,9.16,3.11,12.2,7.25c0,0-0.35,0.44-0.35,0.44c-6.57,2.9-10.16-0.4-12.62-6.05
			C883.06,407.07,883.32,406.53,883.57,405.98z"/>
		<path fill="#BC9E63" d="M975.96,625.52c-0.13-1.86-0.26-3.73-0.39-5.59c-2.93-4.67-4.31-9.08,2.12-12.11c0,0,1.02,0.61,1.02,0.61
			C978,614.16,979.23,620.2,975.96,625.52z"/>
		<path fill="#CFBD8B" d="M1029.27,410.92c-2.49,5.23-7.16,6.78-12.41,7.36C1019.89,413.97,1024.28,411.93,1029.27,410.92z"/>
		<path fill="#D0BD8D" d="M871.4,398.74c4.81,1.15,9.19,3.02,12.18,7.25c0,0-0.31,0.4-0.31,0.4c-6.9,2.32-11.18,0.26-12.17-7.29
			L871.4,398.74z"/>
		<path fill="#C8AB6F" d="M1090.15,488.97c0.93-0.06,1.87-0.13,2.8-0.2c3.36,2.46,6.29,5.26,7.23,9.56
			c-0.44,0.36-0.88,0.72-1.32,1.08c-1.17,0.09-2.26-0.15-3.28-0.71C1092.62,496.1,1088.87,493.93,1090.15,488.97z"/>
		<path fill="#C6A86C" d="M1107.6,508.22c-0.96,0.05-1.91,0.11-2.87,0.16c-2.92-2.51-8.26-3.73-5.02-9.5c0,0,0.47-0.55,0.47-0.55
			C1103.73,500.82,1106.62,503.8,1107.6,508.22z"/>
		<path fill="#B9A166" d="M780.9,563.59c0.34,5.23,0.09,10.21-5.74,12.65C777.07,572.02,778.98,567.8,780.9,563.59z"/>
		<path fill="#947942" d="M944.19,671.36c-1.05-0.11-2.1-0.22-3.14-0.34c1.66-2.44,3.32-4.89,4.98-7.33
			c0.97,0.04,1.94,0.07,2.91,0.11c0.73,0.79,1.02,1.71,0.89,2.78C948.71,669.07,946.98,670.84,944.19,671.36z"/>
		<path fill="#B79C62" d="M791.07,577.04c2.11-3.96,5.72-5.08,9.86-5.21C798.77,575.7,795.08,576.67,791.07,577.04z"/>
		<path fill="#BEA064" d="M803.11,527.85c0.82-1.62,1.64-3.24,2.46-4.86c4.94-3.36,10.5-3.68,16.25-3.67
			c92.14,0.04,184.27,0.04,276.41,0c5.74,0,11.33,0.18,16.23,3.66c1.95,1.05,2.39,2.86,2.44,4.87
			C1012.31,527.84,907.71,527.85,803.11,527.85z"/>
		<path fill="#BA9C60" d="M1126.45,537.78c0.08,0.76,0.12,1.51,0.1,2.27c-3.1,6.27-9.07,5.87-14.54,5.84
			c-14.34-0.07-28.69,0.91-43-0.45c-2.94-0.28-5.51,0.21-7.98,1.68c-5.32-6.76-7.65-2.11-9.96,2.61c-0.76,0-1.52,0.01-2.28,0.01
			c-8.36,1.83-16.62,2.58-24.3-2.43c1.2-9.68,7.52-12.26,16.25-12.22c27.01,0.13,54.03,0.05,81.04,0.05
			C1123.33,536.02,1124.89,536.9,1126.45,537.78z"/>
		<path fill="#BA9C62" d="M934.58,547.37c-1.83-11.24,3.62-15.25,14.21-14.73c7.18,0.35,14.38,0.05,21.57,0.07
			c17.35,0.05,17.79,0.56,15.1,17.08C968.2,555.33,951.12,556.94,934.58,547.37z"/>
		<path fill="#AE9157" d="M982.99,564.37c-0.8,4.04-1.59,8.09-2.39,12.13c-4.75,4.21-10.65,3.46-16.21,3.34
			c-7.86-0.18-15.08,2.73-22.64,3.93c-4.61-5.13-1.45-11.37-2.45-17.02c0.91-2.41,2.67-4.49,5.06-4.65
			C957.32,561.22,970.45,558.05,982.99,564.37z"/>
		<path fill="#A6884F" d="M944.32,603.26c-0.96-4.84-3.4-9.43-2.42-14.59c12.1-5.86,24.2-5.87,36.31-0.04
			c-0.83,4.86,2.09,10.39-2.57,14.58C965.21,608.84,954.77,608.7,944.32,603.26z"/>
		<path fill="#B3955B" d="M878.7,564.16c-1.68-4-3.37-8-5.05-11.99c7.89-2.9,16.11-2.54,24.3-2.43c5.14,3.95,11.01,7.3,12.15,14.58
			c-8.57,4.48-17.81,1.61-26.71,2.42C881.83,565.89,880.27,565.02,878.7,564.16z"/>
		<path fill="#B5965C" d="M934.58,547.37c16.81,3.93,33.92,1.81,50.89,2.42c0.45,3.53-0.73,6.66-2.38,9.67
			c-15.36,3.7-30.72,4.15-46.08,0C936.19,555.43,935.38,551.4,934.58,547.37z"/>
		<path fill="#AA8D53" d="M978.21,588.64c-12.1,0.01-24.21,0.03-36.31,0.04c-0.05-1.64-0.09-3.27-0.14-4.91
			c3.51-7.72,11.12-6.3,17.27-7.08c7.09-0.89,14.38-0.2,21.58-0.19C980.07,580.6,982.25,585.23,978.21,588.64z"/>
		<path fill="#9F834A" d="M944.32,603.26c10.44-0.02,20.89-0.03,31.33-0.05c0.68,1.53,1.37,3.07,2.05,4.6
			c-3.06,3.63-1.41,8.08-2.12,12.12c-0.7,0.22-1.42,0.35-2.16,0.39c-8.79-2.6-18.67,0.78-26.89-4.91
			C942.72,611.92,944.71,607.38,944.32,603.26z"/>
		<path fill="#947942" d="M970.99,634.84c-0.19,5.76,1.93,11.87-2.49,17.02c-6.07,1.47-11.96,1.65-17.29-2.34
			c-4.07-5.28-1.47-11.39-2.12-17.09C956.98,627.91,964.51,626.62,970.99,634.84z"/>
		<path fill="#B5985E" d="M1024.48,547.3c8.11,0.68,16.55-1.88,24.3,2.43c0.33,4.25-3.51,6.39-4.92,9.75
			c-9.71,4.78-19.42,5.91-29.12-0.02c1.38-3.34,5.06-5.47,5.05-9.55C1021.36,549.04,1022.92,548.17,1024.48,547.3z"/>
		<path fill="#8C713B" d="M951.21,649.51c5.76,0.82,12.05-2.31,17.29,2.34c1.22,5,0.66,10.6,4.85,14.61c-8.1,5.21-16.2,5.18-24.29,0
			c-0.04-0.89-0.08-1.77-0.13-2.66C951.96,659.4,951.55,654.45,951.21,649.51z"/>
		<path fill="#9C8047" d="M946.53,615.42c6.33-0.01,12.66,0.01,18.99-0.03c3.71-0.03,7.33-0.01,7.9,4.94
			c-0.05,1.6-0.1,3.21-0.14,4.81c-7.23,5.9-16.54,1.61-24.29,4.97C944.78,625.78,947.39,620.31,946.53,615.42z"/>
		<path fill="#B3965C" d="M937,559.46c15.36,0,30.72,0,46.08,0c-0.03,1.64-0.06,3.28-0.09,4.92c-14.54,1.13-29.36-2.72-43.68,2.38
			C936.48,564.97,936.97,562.14,937,559.46z"/>
		<path fill="#977C43" d="M948.98,630.1c6.27-10.61,16.39-2.38,24.29-4.97c0.61,3.56-0.76,6.65-2.29,9.7
			c-6.94-4.02-14.57-1.9-21.9-2.42C949.01,631.65,948.98,630.88,948.98,630.1z"/>
		<path fill="#C0A266" d="M1114.47,522.97c-102.96,0-205.93,0.01-308.89,0.01c1.62-2.43,3.25-4.86,4.87-7.29
			c96.07,0,192.15,0,288.22-0.04C1105.13,515.66,1112.03,514.43,1114.47,522.97z"/>
		<path fill="#C4A66B" d="M944.17,498.65c3.27,1.61,5.74,4,7.27,7.33c-3.63,2.08-7.56,2.45-11.68,2.44
			c-36.78-0.07-73.57-0.07-110.35,0c-4.12,0.01-8.05-0.36-11.68-2.44c1.53-3.32,3.99-5.72,7.26-7.33c4.29-3.8,9.58-3.86,14.83-3.88
			c29.39-0.12,58.79-0.05,88.19-0.05C933.74,494.72,939.24,495.45,944.17,498.65z"/>
		<path fill="#C3A56A" d="M1099.71,498.88c0,4.05,3.64,6.18,5.02,9.5c-45.4,0-90.8,0.01-136.2,0.01c2.43-3.23,4.85-6.47,7.28-9.7
			c0,0,0.04,0,0.04,0c7.06-2.47,14.36-1.33,21.56-1.36c28.97-0.12,57.94,0.06,86.91-0.12c4.44-0.03,8.85-0.04,13.12,1.46
			C1098.2,498.69,1098.96,498.76,1099.71,498.88z"/>
		<path fill="#B89A60" d="M1061.03,547.12c2.39-5.04,6.96-4.7,11.45-4.69c13.73,0.03,27.46-0.04,41.19,0.04
			c4.48,0.03,8.89,0,12.89-2.41c1.79,2.98,2.86,6.15,2.51,9.68c-11.52,0-23.03-0.06-34.55,0.03c-3.8,0.03-8.37-1.1-9.22,4.77
			C1077.21,552.06,1069.12,549.59,1061.03,547.12z"/>
		<path fill="#C6A76C" d="M944.17,498.65c-39.73,0-79.46,0-119.19,0c2.26-8.68,6.66-12.32,16.55-10.2
			c7.13,1.53,15.24,2.09,22.38-1.97c6.48-0.01,12.96-0.02,19.43-0.04c17.03-1.01,34.07-2.34,51.09,0.08
			c0.81,0.81,1.63,1.62,2.44,2.44C939.31,492.2,941.74,495.43,944.17,498.65z"/>
		<path fill="#CDB984" d="M978.14,403.84c1.65,5.67,3.29,11.34,4.94,17c-15.36,6.13-30.73,5.96-46.09,0.02
			c2.4-5.68,4.8-11.37,7.2-17.05C955.5,408.24,966.82,406.68,978.14,403.84z"/>
		<path fill="#CEBB8A" d="M949.03,391.64c0.87-4.82,1.74-9.65,2.61-14.47c2.92-2.62,4.32-5.99,4.8-9.81c2.38-1.79,4.75-2.1,7.13,0
			c2.33,7.33,7.16,13.8,7.39,21.84C964.11,394.1,956.32,390.58,949.03,391.64z"/>
		<path fill="#C8AB6F" d="M934.44,486.54c-17.04,3.84-34.07,3.96-51.09-0.08c8.28-5.01,17.7-6.9,26.79-9.67
			C922.82,468.61,928.27,478.47,934.44,486.54z"/>
		<path fill="#7C612E" d="M992.87,734.42c-4.87-2.39-9.75-4.77-14.62-7.16c-15.59-10.16-29.84-3.06-43.79,3.86
			c-6.99,3.47-9.23,2.9-10.36-5.52c-0.91-6.75-1.8-13.4-1.68-20.19c1.85-1.61,3.93-3.04,6.38-3.18c20.86-1.25,41.74-1.21,62.61-0.03
			c2.41,0.14,4.65,1.26,6.31,3.18c-0.57,8.17,1.01,16.41-1.09,24.55C996.02,732.27,996.27,734.68,992.87,734.42z"/>
		<path fill="#7F6531" d="M997.71,705.37c-25.1,0.01-50.2,0.02-75.3,0.03c0.77-2.44,1.54-4.88,2.32-7.32
			c1.62-1.62,3.24-3.24,4.86-4.87c18.49-2.77,37.05-1.1,55.59-0.87c2.91,0.04,5.43,1.43,7.66,3.29
			C995.26,698.49,1002.46,698.94,997.71,705.37z"/>
		<path fill="#C6A86C" d="M1097.44,498.66c-3.27,1.75-6.71,2.48-10.46,2.47c-33.55-0.08-67.1-0.08-100.65,0
			c-3.76,0.01-7.2-0.7-10.47-2.45c3.07-5.02,7.15-9.05,12.13-12.18c16.22-2.6,32.43-0.86,48.65-0.02c7.3,0,14.59,0,21.89,0
			c9.73-0.79,19.46-1.77,29.18,0.04c0.81,0.81,1.63,1.62,2.44,2.44C1092.58,492.2,1095.01,495.43,1097.44,498.66z"/>
		<path fill="#C8AB6F" d="M1036.64,486.49c-16.22,4.04-32.43,3.88-48.65,0.02c0.87-2.39,1.74-4.77,2.62-7.16
			c5.15-5.73,10.82-6.77,18.07-3.44C1017.71,480.06,1028.01,481.07,1036.64,486.49z"/>
		<path fill="#C8AB6F" d="M1087.71,486.53c-9.73,3.8-19.46,3.86-29.18-0.04c0-0.77,0.02-1.54,0.07-2.31
			c8.83-1.33,10.32-9.06,13.59-16.84C1077.78,474.26,1082.75,480.39,1087.71,486.53z"/>
		<path fill="#CFBE8F" d="M963.57,367.36c-2.38,0-4.75,0-7.13,0c1.06-2.52,2.11-5.03,3.25-7.75
			C962.92,361.34,963.26,364.35,963.57,367.36z"/>
		<path fill="#826732" d="M992.84,695.64c-17.31,0-34.62,0.07-51.93-0.05c-3.86-0.03-8.16,1.33-11.32-2.37
			c-0.19-5.65,5.56-7.69,7.37-12.13c15.37-5.87,30.75-6.02,46.13-0.03c0.82,0.81,1.63,1.63,2.45,2.44
			C987.27,687.98,993.06,690.01,992.84,695.64z"/>
		<path fill="#B1955A" d="M1014.74,559.46c9.71,0.01,19.41,0.01,29.12,0.02c-8.18,11.24-19.11,19.72-29.26,28.99
			c-8.58,3.72-12.91,2.04-8.91-7.86C1008.56,573.51,1006.83,564.39,1014.74,559.46z"/>
		<path fill="#CFBB87" d="M871.09,399.1c2.73,4.64,7.29,6.24,12.17,7.29c2.73,4.65,7.28,6.25,12.17,7.29
			c12.19,6.18,9.15,16.51,7.25,26.53c-8.84,3.93-17.69,3.73-26.55,0.08c-1.56-12.4-6.85-23.71-10.78-35.37
			C862.81,397.36,865.74,397.64,871.09,399.1z"/>
		<path fill="#876C37" d="M983.09,681.06c-15.38,0.01-30.76,0.02-46.13,0.03c2.41-3.24,4.82-6.49,7.23-9.74
			c1.62-1.63,3.25-3.26,4.87-4.9c8.1,0,16.2,0,24.29,0c0.83,0.88,1.66,1.76,2.49,2.65C978.26,673.1,980.68,677.08,983.09,681.06z"/>
		<path fill="#CDB780" d="M936.99,420.87c15.36-0.01,30.73-0.01,46.09-0.02c0.82,2.43,1.64,4.87,2.46,7.3
			c-0.29,10.39-10.47,15.27-13.56,24.22c-0.83,2.4-3.43,4.3-3.6,7.27c-4.17,1.11-5.63,8.84-11.89,4.86
			c-1.03-6.36-6.51-9.69-9.84-14.48c-0.76-6.51-6.44-9.75-9.72-14.6C932.92,430.56,936,425.72,936.99,420.87z"/>
	</g>
</g>
</svg>
