<?xml version="1.0" encoding="utf-8"?>
<!-- Generator: Adobe Illustrator 25.2.1, SVG Export Plug-In . SVG Version: 6.00 Build 0)  -->
<svg version="1.1" id="Layer_1" xmlns="http://www.w3.org/2000/svg" xmlns:xlink="http://www.w3.org/1999/xlink" x="0px" y="0px"
	 viewBox="0 0 1920 1080" enable-background="new 0 0 1920 1080" xml:space="preserve">
<g>
	<g>
		<path fill="#FEFEFE" d="M960,765.8c-78.21,0-156.42-0.11-234.63,0.2c-6.97,0.03-8.38-1.41-8.36-8.39
			c0.26-145.08,0.26-290.15,0-435.23c-0.01-6.98,1.4-8.39,8.36-8.38c156.42,0.25,312.85,0.25,469.27,0c6.96-0.01,8.38,1.4,8.36,8.38
			c-0.26,145.08-0.26,290.15,0,435.23c0.01,6.98-1.4,8.42-8.36,8.39C1116.42,765.69,1038.21,765.8,960,765.8z"/>
		<path fill="#CCB985" d="M805.58,550.27c14.37-17.51,32.3-31.33,48.67-46.73c22.93-21.56,33.69-47.76,33.51-78.88
			c-0.04-7.28,1.65-13.83,6.66-19.29c3.49-2.9,7.66-3.56,11.99-3.58c34.45-0.16,68.91-0.22,103.36,0.03
			c2.33,0.02,4.63,0.34,6.82,1.19c7.91,5.36,12.01,12.21,8.54,22.02c-5.24,3.5-11.21,2.64-16.96,2.66
			c-34.17,0.07-68.34,0.14-102.52-0.03c-6.24-0.03-11.97,0.15-12.3,8.47c-0.34,3.84-0.79,7.65-2.07,11.31
			c-0.7,4.07-1.31,8.16-2.72,12.07c-1.18,3.63-2.46,7.23-3.74,10.83c-1.22,2.87-2.74,5.6-4.09,8.41c-0.89,1.82-1.82,3.61-2.72,5.43
			c-1.94,4.78-5.4,8.38-9.05,11.84c-2.54,3.03-5.15,6-7.96,8.78c-2.48,2.4-4.94,4.83-7.32,7.33c-3.26,3.16-6.42,6.42-9.59,9.68
			c-4.15,4.05-9.36,6.79-13.29,11.09c-4.14,3.9-8.13,7.96-12.08,12.06c-2.75,2.52-5.07,5.58-8.79,6.85
			C808.22,552.06,806.69,551.75,805.58,550.27z"/>
		<path fill="#CBAD72" d="M878.39,478.05c1.52-2.36,3.04-4.72,4.55-7.08c3.07-2.8,6.86-3.57,10.8-3.58
			c44.99-0.09,89.97-0.65,134.96,0.28c1.17,0.02,2.29,0.41,3.43,0.63c3.19,0.55,5.24,2.85,7.45,4.91
			c17.34,32.27,47.56,52.16,73.28,76.37c0.68,0.64,2.22,0.36,3.36,0.51c0.54,0.65,0.78,1.33,0.72,2.06
			c-0.05,0.75-0.15,1.12-0.3,1.12c-1.93,1.63-4.13,1.73-6.45,1.19c-5.7-3.11-10.58-7.37-15.57-11.47c-3.22-3.3-6.43-6.61-9.74-9.81
			c-3.12-3.26-6.32-6.46-9.58-9.58c-4.04-4.6-9.65-7.32-13.94-11.63c-3.35-3.49-6.92-6.75-10.16-10.36
			c-3.37-4.24-6.2-8.88-9.67-13.06c-5.65-5.72-12.97-4.47-19.79-4.53c-42.27-0.31-84.55,0-126.82-0.49
			C888.97,483.45,882.12,485.19,878.39,478.05z"/>
		<path fill="#B2945A" d="M805.58,550.27c1.64,0.04,3.29,0.08,4.93,0.13c21.63-1.01,43.28-3.06,64.82,1.2
			c3.45,2.74,1.7,6.37,1.62,9.7c-6.37,7.26-16.15,2.07-23.33,6.4c-1.31,0.34-2.51,0.1-3.6-0.69c-5.78,17.01-3.06,34.31-0.81,51.34
			c1.67,12.6,5.51,24.91,8.38,37.36c-0.95,0.7-2,0.94-3.16,0.63c-2.69-1.53-3.75-4.11-4.49-6.91c-0.76-3.19-1.71-6.34-2.44-9.54
			c-0.66-3.18-1.7-6.28-2.2-9.51c-0.39-2.69-0.96-5.34-1.7-7.96c-0.81-3.24-0.86-6.55-1.08-9.85c-0.15-2.77-0.99-5.42-1.51-8.12
			c-0.42-2.24-0.56-4.5-0.64-6.77c-0.09-1.16-0.09-2.31-0.09-3.47c-0.05-2.34-0.03-4.68-0.06-7.02c-0.1-2.99-0.07-5.98-0.11-8.97
			c-0.31-3,0.24-6.09-1.01-8.98c-4.23-4.87-10-3.32-15.21-3.49c-20.86-0.69-41.75,1-62.6-0.84c-1.57-4.69-0.97-9.45-0.42-14.21
			c9.02-6.55,19.65-2.02,29.29-4.28c4.67-0.31,6.18,4.39,9.59,6.09C801.25,550.58,803.4,550.41,805.58,550.27z"/>
		<path fill="#B2945A" d="M1109.49,552.83c2.31,0.01,4.62,0.02,6.93,0.04c1.58-4.32,6.36-4.89,9.11-7.85
			c0.79-0.64,1.59-1.29,2.38-1.93c8.51,3.58,18.72-1.15,26.62,5.44c0.34,4.77,1.17,9.56-0.6,14.24c-4.3,3.46-9.45,2.84-14.41,2.87
			c-16.57,0.1-33.14-0.11-49.71,0.14c-3.92,0.06-8.68-1.87-11.43,3.02c-0.68,2.41-0.54,4.92-0.78,7.37
			c-0.02,3.66-0.03,7.33-0.1,10.99c0,2.42,0.04,4.85-0.06,7.27c-0.01,2.43,0.01,4.87-0.08,7.31c0,1.9-0.12,3.78-0.5,5.64
			c-0.49,1.95-1.25,3.72-3.23,4.62c-1.46-0.02-2.49-0.69-3.12-2.01c-0.88-5.97-2.01-11.95,1.35-17.58
			c-0.05-6.23-0.02-12.45-0.18-18.68c-0.06-2.16,0.76-5.2-2.3-5.8c-2.52-0.5-4.02,1.73-5.42,3.7c-4.03,5.67-7.03,12.12-12.48,16.72
			c-0.42-0.37-0.84-0.74-1.26-1.1c-0.95-8.17,5.95-12.67,8.84-19.03c3.04-4.24,0.65-4.92-3.19-5.48c-5.3-0.77-11.94,2.4-15.31-4.75
			c0.12-2.6-0.22-5.35,2.65-6.89C1065.39,548.79,1087.56,546.18,1109.49,552.83z"/>
		<path fill="#CCBB89" d="M1018.37,405.45c-41.31-0.03-82.62-0.05-123.94-0.08c0.3-3.15,1.71-5.57,4.61-7
			c2.97-3.96,7.21-5.89,11.74-7.36c30.19-1.34,60.39,0.1,90.58-0.44c7.84-0.14,13.06,4.02,17.15,10.15l-0.06-0.09
			C1019.65,402.27,1019.82,403.88,1018.37,405.45z"/>
		<path fill="#CCBB8C" d="M992.57,375.03c4.69,3.91,9.38,7.81,14.07,11.72c-1.68,4.29-5.54,5.57-9.37,5.6
			c-26.24,0.23-52.49,0.66-78.72-0.31c-1.52-0.06-2.94-0.89-4.31-1.6c0.59-8.13,9.73-18.66,17.57-18.76
			c17.45-0.21,34.9,0.22,52.35-0.22C987.52,371.38,989.95,373.4,992.57,375.03z"/>
		<path fill="#CDBD8F" d="M992.57,375.03c-21.19-1.07-42.38,0.59-63.62-0.39c-6.58-0.31-11.23,8.57-15.64,14.43
			c-0.39,2.73-3.13,3.1-4.66,4.68c-3.2,1.54-6.41,3.08-9.61,4.62c14.59-15.63,27.82-32.99,48.13-41.79
			C962.71,349.84,978.29,356.59,992.57,375.03z"/>
		<path fill="#856A35" d="M1065.29,693.96c-3,3.3-6.66,5.51-10.97,6.63c-7.16,2.84-13.63,7.24-21.17,9.21
			c-1.85,0.48-3.72,1.7-5.16-0.38c-1.48-2.13,0.59-3.43,1.55-4.99c3.22-5.27,8.79-8.51,11.82-13.92l-0.14,0.16
			c3.79-3.5,5.46-8.51,8.79-12.35c1.17-3.6,3.87-6.5,4.65-10.28c0.22-3.07,2.24-3.88,4.87-3.95c11.22,1.15,22.62-1.34,33.75,1.69
			c3.26,1.9,2.65,4.08,0.61,6.58c-2.94,3.59-6.84,6.2-9.8,9.76l0.09-0.16C1077.95,686.08,1071.16,689.29,1065.29,693.96z"/>
		<path fill="#BFA266" d="M1041.84,552.89c0,2.34,0.01,4.67,0.01,7.01c1.77,2.15,2.75,4.59,2.85,7.39
			c-0.37,4.48,1.21,9.85-5.15,11.67c-1.56-1.73-1.63-3.56-0.38-5.48c2.29-18.99-6.62-35.5-11.66-52.87c-0.91-3.1-4.3-5.8-1.52-9.5
			c12.19-6.11,24.44-5.34,36.74-0.36c4.77,3.78,11.1,5.69,14.02,11.69c-5.37,7.09-13.23,4.89-20.32,5.38
			c-4.23,0.29-8.51-0.16-12.74,0.2c-6.15,0.53-5.77,3.78-3.08,7.88c1.49,3.24,2.25,6.69,3,10.15
			C1044,548.59,1043.49,550.89,1041.84,552.89z"/>
		<path fill="#9D8048" d="M941.32,599.69c0.83,1.36,1.66,2.72,2.49,4.08c1.66,3,4.8,1.14,7.07,2.16c4.79,1.15,9.56,1.16,14.32-0.19
			c9.01,1.93,11.52-8.99,19.17-9.76c5.32,0.81,11.24-0.7,15.57,3.98c0.95,2.86-0.91,4.7-2.4,6.67c-1.93,2.57-2.24,6.57-6.34,7.25
			c-14.64,1.94-29.35,0.58-44.03,0.89c-6.97,0.15-13.93,0.1-20.71,2.07c-8.64-4.1-11.38-11.34-10.75-20.37
			c5.55-3.32,11.54-2.46,17.51-1.83C936.65,595.16,939.58,596.47,941.32,599.69z"/>
		<path fill="#9A7E46" d="M924.94,616.13c2.45-5.49,7.37-4.76,11.98-4.77c18.59-0.01,37.18,0,55.77,0
			c2.76,6.16-3.39,9.63-4.41,14.65c-4.1,7.58,3.91,11.77,4.99,17.9c-0.88,0.71-1.86,0.97-2.97,0.7c-2.12-0.85-3.53-2.5-4.8-4.3
			c-2.18-3.17-4.24-6.4-4.39-10.43c-0.15-1.07-0.28-2.14-0.48-3.19c-3.04-4.68-7.77-2.49-11.74-2.73
			c-13.15-0.78-26.39,1.09-39.52-1.13c-1.8-0.67-2.94-2.14-4.21-3.45C924.16,618.36,924.09,617.28,924.94,616.13z"/>
		<path fill="#9B7E46" d="M1072.02,611.35c0.77-0.01,1.53-0.02,2.3-0.02c1.54-1.19,3.14-2.55,5.11-2.59
			c20.45-0.5,40.93-2.25,61.33,0.93c5.01,6.67,0.75,9.94-4.68,12.78c-16.12-1.24-32.29-0.61-48.45-0.75
			c-6.44-0.05-12.42,0.71-15.17,7.78c-0.63,0.96-1.19,1.96-1.64,3.02c-0.41,1.63-0.96,3.22-1.53,4.8c-1.52,4.07-2.18,8.4-3.61,12.51
			c-1.12,3.14-2.2,6.32-5.03,8.44c-1.08,0.48-2.11,0.4-3.1-0.25c3.4-14.66,8.8-28.85,10.21-43.97
			C1068.65,612.29,1069.99,611.26,1072.02,611.35z"/>
		<path fill="#AF9459" d="M852.59,566.91c6.07-9.96,15.69-2.18,23.26-4.67c4.5,6.11,2.2,13.44,3.62,20.1
			c2.32,3.05,1.51,7.17,3.51,10.32c1.05,4.58,2.11,9.15,3.16,13.73c-6.17,2.11-7.14-4.19-10.55-6.55l0.11,0.14
			c-1.65-4.65-5.64-6.94-9.48-9.37l0.13,0.02C862.44,582.32,854.63,576.3,852.59,566.91z"/>
		<path fill="#C4A76B" d="M1025.41,513.1c0.7,2.5,1.4,5,2.1,7.5c-6.24-7.7-12.48-15.4-18.71-23.11c-1.49-2.3-4.3-4.19-2.4-7.57
			c13.27-6.27,26.58-5.3,39.92-0.2c2.36,3.89,4.72,7.78,7.08,11.66c-5.18,8.26-13.52,4.89-20.57,5.07
			C1027.62,506.59,1025.15,507.79,1025.41,513.1z"/>
		<path fill="#A0844B" d="M843.18,597.34c0.02,2.34,0.03,4.68,0.05,7.02c-4.08,3.93-9.28,3.16-14.2,3.22
			c-13.07,0.17-26.14-0.22-39.2,0.22c-4.07,0.14-9.97-1.57-10.34,5.77c0.73,2.58,1.69,5.07,2.86,7.48
			c1.81,3.79,4.66,7.01,6.11,11.01c0.28,1.05,0.36,2.11,0.25,3.18c-0.3,1.06-0.89,1.92-1.82,2.53
			c-7.88-8.87-12.72-19.36-16.33-30.52c-1.6-2.82-2.28-5.72-0.85-8.83c2.14-3.35,5.55-4.09,9.11-4.17c18.6-0.4,37.21-0.3,55.82-0.06
			C837.83,594.23,840.78,595.09,843.18,597.34z"/>
		<path fill="#8B703A" d="M1060.4,658.16c0.82-3.11,1.65-6.22,2.47-9.34c17.15-6.37,34.57-4.16,52.01-1.74
			c4.19,2.7,0.5,4.92-0.45,7.31c-3.1,6.11-5.66,12.75-13.83,13.71c-0.35-0.42-0.7-0.84-1.05-1.25c2.13-4.83-0.01-5.65-4.56-5.81
			c-11.16-0.39-22.47,1.9-33.48-1.66C1061.14,658.98,1060.77,658.57,1060.4,658.16z"/>
		<path fill="#C8AC72" d="M1006.71,492.02c0.69,1.82,1.39,3.64,2.08,5.47c-9.37-6.96-16.13-3.72-22.97,4.61
			c-5.56,6.78-13.34,11.85-19.3,18.1c-8.14,8.52-12.06,4.89-18.16-1.38c-8.04-8.26-17.16-15.46-25.45-23.49
			c-3.7-3.59-6.31-3.1-9.77,0.04c-5.97,5.41-12.22,10.52-18.35,15.75c-0.83-0.79-1.31-1.76-1.46-2.9
			c1.09-6.92,7.13-9.49,11.68-13.37c3.87-3.02,7.12-7.12,12.58-7.44c1.67-0.07,3.28,0.2,4.83,0.81c5.19,2.85,8.52,7.86,13.12,11.41
			c4.2,3.08,8.36,6.19,11.99,9.96c6.02,8.59,12.63,9.67,19.95,1.57c4.89-3.08,8.6-7.46,12.59-11.53c4.55-4.01,7.99-9.32,13.85-11.77
			C999.01,486.72,1003.42,487.65,1006.71,492.02z"/>
		<path fill="#866B36" d="M927.33,672.17c-0.91-1.23-1.82-2.47-2.72-3.7c-0.05-3.19-4.71-6.12-0.54-9.56
			c22.22-2.17,44.46-4.88,66.5,1.47c2.19,3.69,0.93,6.73-1.78,9.5c-1.13,0.78-2.39,1.24-3.75,1.38c-18.01,0.19-36.11-2.4-54.03,1.45
			C929.67,673.19,928.45,673.01,927.33,672.17z"/>
		<path fill="#A68A50" d="M934.3,597.34c-6.23-0.01-12.45-0.01-18.68-0.02c-7.38-6.89-8.33-15.83-8.04-25.18
			c1.99-3.1,5.09-3.57,8.4-3.54c1.44,1.76,2.88,3.51,4.32,5.27c2.59,4.49,5.42,8.83,8.1,13.26
			C929.37,591.12,935.78,591.94,934.3,597.34z"/>
		<path fill="#C2A86E" d="M770.8,599.78c-0.07,2.49-0.15,4.97-0.22,7.46c-10.1-6.25-9.43-17.64-10.31-26.74
			c-1.73-18.02-0.51-36.32-0.51-56.2c15.15,8.57,30.17,14.54,40.01,28.21c-2.62-1.44-5.25-2.87-7.88-4.31
			c-10.72-1.8-17.56-11.27-27.88-14.17c-0.06,5.65,1.9,11.56-2.32,16.55c-0.01,4.66-0.01,9.32-0.02,13.97
			c4.17,4.23,2.16,10.07,3.92,14.92c0.79,3.12,1.15,6.35,2.07,9.44c0.31,0.94,0.53,1.91,0.73,2.88
			C769.13,594.46,768.85,597.46,770.8,599.78z"/>
		<path fill="#CDBB8A" d="M908.65,393.75c0.88-2.23,2.44-3.79,4.66-4.68c24.38,5.02,49.05,0.99,73.54,2.4
			c7.17,0.41,13.74-0.87,19.8-4.72c4.63,4.08,10.65,6.99,11.87,13.98c-12.58-12.58-28.48-5.72-42.76-6.61
			C953.47,392.73,931.03,393.75,908.65,393.75z"/>
		<path fill="#B89C61" d="M1153.66,548.26c-8.5-2.13-18.78,4.61-25.75-5.17c0.57-0.74,1.14-1.49,1.71-2.23
			c5.38-2.97,11.15-5.17,16.22-8.78c5.99-4.28,10.04-4.07,9.06,4.91C1154.48,540.74,1156.08,544.72,1153.66,548.26z"/>
		<path fill="#A4894F" d="M999.95,599.97c-5.44-1.46-11.66,1.95-16.6-2.65c-0.84-0.73-1.2-1.66-1.07-2.76
			c1.26-4.81,6.26-7.02,7.97-11.52c0.75-0.81,1.5-1.63,2.25-2.44c4.98-0.65,9.91-0.92,14.41,1.98c3.73,8.22-2.74,12.46-6.85,17.63
			L999.95,599.97z"/>
		<path fill="#BEA267" d="M1153.66,548.26c0-5.62,0-11.24,0-17.65c-9.42,2.46-15,10.56-24.04,10.25c8-5.22,16-10.43,26.66-17.38
			c-1.88,27.92,5,53.98-6.94,78.92c-0.92-0.65-1.6-1.5-2.01-2.56c-0.47-1.62-0.52-3.26-0.28-4.92c0.49-2.66,1.32-5.25,1.73-7.93
			c0.24-1.64,0.59-3.24,1-4.84c1.42-4.39,0.79-8.95,1.15-13.44c0.15-2.47,1.16-4.58,2.72-6.45
			C1153.65,557.59,1153.65,552.92,1153.66,548.26z"/>
		<path fill="#CDBB8A" d="M1018.37,405.45c0.03-1.6,0.06-3.21,0.09-4.81c5.69,4.19,8.62,10.38,8.91,16.89
			c0.85,19.34,3.22,38.19,12.22,55.67c-2.04,0.13-3.89-0.19-4.99-2.21c-4.42-2.48-5.49-7.04-7.02-11.33
			c-1.07-3.33-2.18-6.64-2.66-10.13c-0.42-4.22-1.47-8.32-2.24-12.48c-0.52-4.57-0.62-9.06,2.61-12.86
			C1025.96,416.84,1023.25,410.75,1018.37,405.45z"/>
		<path fill="#BBA267" d="M1000.06,600.2c0.59-6.29,7.8-9.94,6.68-16.91c-0.55-2.65-0.54-5.31-0.17-7.98
			c0.57-3.68,1.76-7.25,1.85-11.02c0.27-1.54,0.18,0.33-0.06-1.1c-0.39-2.26,4.79-8.68-3.7-5.62c1.75-4.61,3.49-9.22,5.89-15.55
			c6.03,20.04,3.26,37.64-3.74,55C1005.47,600.34,1002.65,599.88,1000.06,600.2z"/>
		<path fill="#C4A66A" d="M878.37,583.26c-0.84-7.01-1.68-14.02-2.52-21.03c0.02-3.12,0.04-6.23,0.05-9.35
			c-2.7-3.09-0.79-6.47-0.65-9.74c0.42-3.35,1.26-6.59,2.64-9.67c1.9-3.97,3.11-8.23,5.03-12.2c1.84-2.71,2.71-6.59,7.22-6.12
			c0.6,0.67,0.79,1.33,0.57,1.98c-0.21,0.65-0.42,0.98-0.63,0.98c-10.27,20.68-12.45,42.51-9.21,65.11
			C880.07,584.21,879.23,584.23,878.37,583.26z"/>
		<path fill="#866B34" d="M1041.36,690.51c-0.28,8.28-9.73,10.2-11.83,17.78c9.32,0.81,15.83-7.76,24.8-7.7
			c-9.6,8.62-22.45,10.48-33.45,16.19c-2.58,0.69-3.27-0.49-2.79-2.83C1026.5,706.8,1031.58,696.31,1041.36,690.51z"/>
		<path fill="#957A42" d="M786.9,637.77c0.15-1,0.3-1.99,0.44-2.99c4.72-0.77,5.5,3.67,7.9,5.97c1.98,3.35,4.2,6.51,7.36,8.89
			c4.04,2.86,7.99,5.81,11.4,9.43c2.43,2.53,4.91,5.02,7.45,7.44c3.68,4.28,8.69,7.42,11.01,12.86c0.07,1.1-0.33,2.02-1.11,2.78
			C815.15,668.76,796.95,657.36,786.9,637.77z"/>
		<path fill="#8C713A" d="M854.96,655.77c0.88-0.02,1.76-0.04,2.64-0.06c6.2,17.53,19.01,31.04,28.36,46.65
			c-0.83,0.83-1.84,1.18-3,1.11c-12.7-9.6-20.08-23.1-26.96-36.97c-1.18-2.49-2.34-5-2.42-7.83
			C853.71,657.55,854.17,656.59,854.96,655.77z"/>
		<path fill="#866B36" d="M981.29,684.55c-4.09,12.6-14.65,20.94-21.1,32.03c-2.13,3.67-3,3.16-7.8-6.32c0.37-0.4,0.73-0.8,1.1-1.2
			c1.74-1.31,3.24,4.67,6.25-1.02c5.31-10.03,10.79-20.78,21.72-26.57C981.97,682.53,981.94,683.56,981.29,684.55z"/>
		<path fill="#CEBB83" d="M906.2,576.45c-8.99-7.24-4.19-16.49-2.95-24.83c0.35-2.31,2.7-5.53,3.82-8.87
			c3.43,3.24,4.02,6.51,4.01,10c-0.17,1.59-0.47,3.15-1.06,4.64c-1.39,4.15-0.33,8.65-1.82,12.78
			C907.03,572.1,908.03,574.73,906.2,576.45z"/>
		<path fill="#866A35" d="M882.96,702.61c1-0.08,1.99-0.17,2.99-0.25c2.96,3.1,5.92,6.2,8.88,9.3c0.18,4.38-2.14,4.15-5.08,2.76
			c-9.35-4.5-18.71-8.99-28.06-13.49c-0.56-0.58-0.79-1.2-0.71-1.85c0.09-0.68,0.21-1.01,0.37-1.02c6.49-1.68,11.01,3.27,16.52,4.92
			C879.59,703.5,881.53,706.46,882.96,702.61z"/>
		<path fill="#BAA065" d="M906.2,576.45c0.1-2.42,0.19-4.83,0.29-7.25c0.83-0.72,1.7-0.76,2.61-0.14c0.52,0.96,0.42,1.82-0.4,2.57
			c-0.42,9.3,2.18,17.79,6.93,25.69c1.8,6.92,4.71,13.29,9.32,18.81c0.05,0.76,0.12,1.52,0.21,2.28c0.98,1.15,0.82,2.09-0.49,2.84
			C914.67,607.91,908.33,593.05,906.2,576.45z"/>
		<path fill="#A5884F" d="M1148.81,599.71c0.18,0.89,0.35,1.79,0.53,2.68c-2.72,12.95-9.4,23.65-18.68,32.86
			c-0.87-0.64-1.41-1.5-1.68-2.54c-0.1-1.05,0-2.08,0.26-3.1c1.48-3.27,2.57-6.81,5.87-8.88c5.53-0.73,6.17-5.12,6.99-9.37
			c-0.15-1.84,0.39-3.54,1.09-5.2c0.69-1.68,1.31-3.39,2.17-5.01C1146.22,599.98,1147.19,599.05,1148.81,599.71z"/>
		<path fill="#856A35" d="M861.94,697.94c-0.09,1-0.18,1.99-0.27,2.99c-11.05-4.73-20.07-12.75-30.33-18.77
			c0.09-0.98,0.18-1.96,0.27-2.94C844.6,680.78,853.51,688.98,861.94,697.94z"/>
		<path fill="#A88D53" d="M983.36,594.99c-0.01,0.78-0.01,1.55-0.01,2.33c-6.01,3.55-9.79,11.51-18.63,9.5
			c-4.7,1.57-9.4,1.58-14.1-0.01c-2.62-0.23-5.63,0.46-6.8-3.03c13.21,1.02,26.96,4.21,36.7-8.99
			C981.56,593.6,982.5,593.67,983.36,594.99z"/>
		<path fill="#A88D53" d="M1008.99,576.27c-0.08,2.56,0.47,5.31-2.25,7.02c-4.76-0.81-10.22,2.07-14.24-2.7
			c-0.01-0.67,0.1-1.33,0.32-1.97c1.25-2.28,3-3.96,5.57-4.67C1002.26,573.14,1005.9,573.46,1008.99,576.27z"/>
		<path fill="#937740" d="M987.92,669.82c0.81-2.33,1.62-4.65,2.43-6.98c1.07-2.86,2.46-5.62,2.75-8.7
			c-0.28-1.81-1.1-3.39-2.07-4.92c-0.74-1.18-1.26-2.44-1.31-3.85c0.2-0.42,0.4-0.83,0.61-1.25c0.98-0.07,1.95-0.14,2.93-0.21
			c13.14,12.17,0.61,20.01-4.87,29.04C987.28,672.05,987.12,671.01,987.92,669.82z"/>
		<path fill="#D1C393" d="M1072.02,611.35c-1.42,0.89-2.84,1.78-4.27,2.67c1.05-7.26-3.75-15.65,4.12-21.6
			C1071.92,598.73,1071.97,605.04,1072.02,611.35z"/>
		<path fill="#937740" d="M922.74,660.53c1.12,2.53,2.61,4.97,1.86,7.94c-9.06-8.87-11.04-17.85-0.39-27.01
			c0.8-0.7,1.7-0.88,2.71-0.55c0.79,0.65,1.21,1.5,1.29,2.51c-0.43,2.43-2.14,4.18-3.32,6.2c-0.92,1.55-1.9,3.07-2.2,4.92
			C922.66,656.56,923.9,658.55,922.74,660.53z"/>
		<path fill="#C7B475" d="M1039.16,573.48c0.11,1.73,0.22,3.46,0.33,5.19c4.18,6.05,1.54,10.42-3.46,14.23
			c-1.2,0.59-2.36,0.52-3.49-0.2C1034.62,586.24,1031.74,578.07,1039.16,573.48z"/>
		<path fill="#B1945A" d="M852.59,566.91c4.2,8.13,11.89,14.23,13.76,23.72c-7.12-6.71-12.42-14.68-16.33-23.61
			C850.88,566.98,851.74,566.94,852.59,566.91z"/>
		<path fill="#9D8048" d="M1130.29,632.37c0.12,0.96,0.25,1.93,0.37,2.89c-4.15,7.45-7.7,15.41-16.23,19.13
			c0.66-1.86,1.32-3.73,1.98-5.59c0.63-3.74,3.56-6.16,5.29-9.27c1.44-2.07,3-4.04,4.64-5.95
			C1127.45,632.52,1128.63,631.63,1130.29,632.37z"/>
		<path fill="#B9A45C" d="M1032.56,609.08c-0.92,4.46-3.5,7.43-8.65,9.44c-0.46-6.93,2.99-11.76,5.93-16.75
			C1032.97,603.37,1030.51,607.07,1032.56,609.08z"/>
		<path fill="#B0965B" d="M908.69,571.64c-0.03-0.79-0.05-1.58-0.08-2.37c-1.76-4.72-1.7-9.45-0.04-14.18
			c0.84-0.78,1.68-1.56,2.52-2.34c0,0-0.01,0.02-0.01,0.02c2.25,4.48,1.79,9.88,4.78,14.1c0.23,0.57,0.27,1.15,0.12,1.74
			C914.44,571.77,911.5,571.54,908.69,571.64z"/>
		<path fill="#9D8048" d="M927.33,641.81c-1.04-0.12-2.07-0.23-3.11-0.35c4.87-6.63,5.69-13.35,0.45-20.21
			c0.16-0.95,0.32-1.89,0.49-2.84c0.75,0.78,1.5,1.56,2.25,2.34c2.54,1.76,4.89,3.68,5.92,6.77c0.35,0.98,0.55,1.99,0.64,3.03
			c0.03,3.24-1.16,6.08-2.83,8.78C930.19,640.65,928.97,641.56,927.33,641.81z"/>
		<path fill="#B1955C" d="M1004.66,557.58c10.38-5.31,5.75,3.42,6.57,7.05c-2.85,2.31-5.86,2.64-9.05,0.75
			c-1.1-1.05-1.19-2.19-0.27-3.41C1002.82,560.51,1003.74,559.04,1004.66,557.58z"/>
		<path fill="#C3B073" d="M887.66,606.54c4.37,3.1,4.55,8.23,7.85,13.82c-7.21-0.62-8.8-4.84-10.76-8.6
			C885.01,609.62,886.2,608.01,887.66,606.54z"/>
		<path fill="#856A35" d="M1065.29,693.96c4.38-7.02,11.36-9.92,18.87-12.01C1079.12,687.92,1072.98,692.17,1065.29,693.96z"/>
		<path fill="#846934" d="M952.39,710.27c-4.8-5.62-8.34-12.02-11.5-18.65c-0.73-1.16-0.65-2.26,0.25-3.3
			c8.72,4.38,13.42,11.04,12,21.19L952.39,710.27z"/>
		<path fill="#B29A5F" d="M1032.56,609.08c-3-1.66-2.38-4.67-2.72-7.32c0,0-0.02,0.1-0.02,0.1c0.75-0.64,1.59-1.1,2.54-1.37
			c3.95-0.41,6.86-3.93,11.01-3.76c0.36,0.34,0.73,0.69,1.09,1.04C1042.96,604.16,1037.19,606.02,1032.56,609.08z"/>
		<path fill="#8B703A" d="M1084.07,682.12c1.73-6.46,8.79-8.76,11.34-14.59c0.32-0.31,0.64-0.63,0.95-0.94
			c1.35-0.48,2.59-0.44,3.6,0.75c0,0,0.64,0.77,0.64,0.77C1095.9,673.74,1090.88,678.98,1084.07,682.12z"/>
		<path fill="#A4894F" d="M988.27,626.01c-0.69-5.54,4.37-9.33,4.41-14.65c1.62-1.57,3.24-3.15,4.86-4.72
			C997.81,614.71,992.95,620.32,988.27,626.01z"/>
		<path fill="#B0965B" d="M934.3,597.34c-2.33-3.13-4.66-6.25-6.99-9.38c0.87-1.34,1.85-1.42,2.92-0.24
			c2.99,4.64,10.46,5.12,11.08,11.97C938.98,598.91,936.64,598.13,934.3,597.34z"/>
		<path fill="#BBA267" d="M1001.9,561.97c0.07,0.88,0.14,1.76,0.21,2.65c1.79,5.28-1.68,8.39-4.81,11.63c-1.5,0.79-3,1.58-4.5,2.38
			C993.94,572.03,996.95,566.47,1001.9,561.97z"/>
		<path fill="#B0985C" d="M887.66,606.54c-0.1,2.23-0.73,4.16-2.91,5.22c-3.7-3.48-7.57-6.82-9.15-11.93
			c3.51,2.18,7.03,4.37,10.55,6.55C886.67,606.19,887.18,606.25,887.66,606.54z"/>
		<path fill="#B4995F" d="M930.24,587.72c-0.97,0.08-1.95,0.16-2.92,0.24c-2.62-4.55-6.84-8.31-7.01-14.09
			C925.36,577.23,927.57,582.64,930.24,587.72z"/>
		<path fill="#B0985C" d="M866.22,590.6c6.08,0.15,9.17,3.35,9.48,9.37C872.79,596.6,867.73,595.41,866.22,590.6z"/>
		<path fill="#AA8E54" d="M983.36,594.99c-0.95-0.07-1.89-0.14-2.84-0.21c2.22-4.77,4.87-9.18,9.73-11.75
			C990.78,588.66,985.03,590.64,983.36,594.99z"/>
		<path fill="#856A35" d="M1051.05,679.24c-3.37,3.73-4.26,9.6-9.84,11.43c1.23-4.53,3.86-8.24,6.9-11.7
			C1049.22,677.8,1050.19,677.89,1051.05,679.24z"/>
		<path fill="#8B703A" d="M987.92,669.82c0.16,1.04,0.31,2.09,0.47,3.13c-1.42,4.44-3.6,8.43-7.1,11.59
			c-0.12-0.99-0.25-1.98-0.37-2.97c-1.53-2.63-0.02-4.87,0.88-7.2c0.95-1.8,1.97-3.55,3.89-4.51
			C986.43,669.87,987.18,669.85,987.92,669.82z"/>
		<path fill="#CEBB83" d="M915.86,566.87c-4.74-3.63-5.14-8.74-4.78-14.1C914.68,556.78,916.57,561.38,915.86,566.87z"/>
		<path fill="#A98C52" d="M889.74,714.43c2-0.35,4.08-0.55,5.08-2.76c2.24,1.71,4.47,3.42,6.71,5.13c0.53,2.17,0.03,3.3-2.45,2.43
			C895.75,718.06,892.25,717.22,889.74,714.43z"/>
		<path fill="#937740" d="M1057.54,658c0.95,0.06,1.9,0.11,2.85,0.17c0,0,0.06,0.02,0.06,0.02c1.29,2.3,0.25,4.2-1.04,6.06
			c-0.44,0.32-0.89,0.64-1.34,0.96c-1.89,1-2.26,2.76-2.35,4.67c-1.11,1.02-2.12,0.93-3.05-0.26
			C1054.3,665.74,1055.92,661.87,1057.54,658z"/>
		<path fill="#AE9056" d="M927.33,672.17c0.75,0.08,1.49,0.16,2.24,0.22c1.68,0.13,2.9,1.01,3.89,2.31
			c1.43,2.24,2.46,4.61,2.21,7.36c-0.28,1.04-0.89,1.83-1.86,2.32C930.82,680.75,927.56,677.27,927.33,672.17z"/>
		<path fill="#B89C61" d="M1125.53,545.02c-1.76,4.11-5.9,5.44-9.11,7.85c-0.07-0.93-0.13-1.86-0.2-2.79
			C1118.49,546.85,1121.76,545.47,1125.53,545.02z"/>
		<path fill="#8B703A" d="M1052.68,669.62c1.02,0.09,2.03,0.17,3.05,0.26c-1.56,3.12-3.12,6.24-4.67,9.37
			c-0.98-0.09-1.95-0.18-2.93-0.28C1049.64,675.85,1051.16,672.74,1052.68,669.62z"/>
		<path fill="#B0945A" d="M1051.5,588.36c-1.24,3.97-3.9,6.88-7.05,9.41c0,0-0.55-0.65-0.55-0.65c-2.21-6.51,0.93-8.99,6.97-9.29
			L1051.5,588.36z"/>
		<path fill="#AE9056" d="M941.38,688.6c-0.16,1-0.33,2.01-0.49,3.01c-2.12-2.64-6.39-3.18-7.08-7.23c0.3-0.28,0.59-0.56,0.88-0.84
			C939.41,681.92,941.73,683.48,941.38,688.6z"/>
		<path fill="#C5B18B" d="M899.09,719.22c0.82-0.81,1.63-1.62,2.45-2.43c2.6,0.33,5.44,0.28,5.97,3.92
			C904.3,722.25,901.54,721.66,899.09,719.22z"/>
		<path fill="#C7AA6E" d="M890.1,518.1c-0.08-0.89-0.16-1.78-0.24-2.67c-0.75-0.71-1-1.58-0.85-2.59c0.56-1.91,1.43-3.63,2.97-4.94
			c0.97-0.43,1.83-0.23,2.59,0.48c0.07,0.91,0.14,1.83,0.2,2.74C894.35,514.2,892.72,516.49,890.1,518.1z"/>
		<path fill="#B6A05E" d="M1032.3,601.99c-0.83-0.04-1.66-0.08-2.49-0.12c0.91-3.06,1.82-6.11,2.73-9.17
			c0.68-0.06,1.37-0.12,2.05-0.18C1037.58,596.58,1035.26,599.36,1032.3,601.99z"/>
		<path fill="#C0A267" d="M878.37,583.26c0.84-0.02,1.68-0.03,2.52-0.05c2.44,2.76,2.2,6.11,2.09,9.44
			C879.81,590.33,880.4,586.15,878.37,583.26z"/>
		<path fill="#B49B68" d="M1018.08,713.96c0.93,0.94,1.86,1.89,2.79,2.83c-1.74,2.15-4.9,4.34-6.46,2.37
			C1011.99,716.1,1016.31,715.42,1018.08,713.96z"/>
		<path fill="#CCB781" d="M1025.27,424.2c0.03,4.67,0.05,9.35,0.08,14.02c-4.35,4.37-10,3.7-15.33,3.72
			c-34.85,0.14-69.71,0.12-104.56,0.02c-5.38-0.02-10.95,0.33-15.41-3.72c-0.01-3.51-0.1-7.02-0.02-10.53
			c0.07-2.93,0.47-4.96,4.63-4.72C938.18,425.58,981.74,423.49,1025.27,424.2z"/>
		<path fill="#CCB076" d="M1029.96,459.29c1.55,3.9,3.09,7.8,4.64,11.71c-50.55-0.01-101.1-0.02-151.64-0.03
			c0.82-3.89,1.64-7.78,2.46-11.67c4.66-3.34,9.99-3.81,15.49-3.81c37.89-0.02,75.79-0.05,113.68,0.03
			C1019.97,455.53,1025.5,455.28,1029.96,459.29z"/>
		<path fill="#CCB57D" d="M890.05,438.24c45.1-0.01,90.2-0.01,135.3-0.02c2.23,3.61,2.59,7.6,2.28,11.71
			c-3.72,3.46-8.41,3.65-13.05,3.66c-37.06,0.11-74.13,0.19-111.19-0.04c-5.91-0.04-11.62-0.82-15.64-5.95
			C888.52,444.48,889.29,441.36,890.05,438.24z"/>
		<path fill="#CCB37A" d="M887.76,447.61c5.94,1.78,11.97,2.4,18.21,2.38c40.56-0.14,81.11-0.07,121.67-0.06
			c0.78,3.12,1.55,6.24,2.33,9.36c-48.18,0-96.37,0.01-144.55,0.01C887.45,455.65,887.87,451.68,887.76,447.61z"/>
		<path fill="#C8AB6F" d="M1006.71,492.02c-4.68-0.76-9.09-3.18-14.03-2.33c-9.4,3.67-19.12,1.08-28.63,0.98
			c-13.78-0.14-27.67,2.3-41.38-0.97c-1.58-0.03-3.16-0.06-4.74-0.09c-9.1-2.92-18.45-0.37-27.65-1.28
			c-5.28-0.52-11.19,0.61-14.23-5.61c0.78-1.56,1.56-3.11,2.34-4.67c4.56,2.85,9.66,2.28,14.66,2.28c45.23,0,90.47,0.21,135.7-0.19
			c8.28-0.07,14.26,1.66,17.56,9.59C1033.14,490.94,1019.66,486.93,1006.71,492.02z"/>
		<path fill="#BD9F64" d="M885.24,522.47c-1.57,3.9-3.14,7.81-4.71,11.71c-15.49,6.51-31.45,3.68-47.31,2.28
			c-2.19-0.19-4.28-1.78-4-4.73c2.96-5.95,9.29-7.83,14.01-11.65C857.55,515.1,871.71,513.26,885.24,522.47z"/>
		<path fill="#B99B5F" d="M829.21,531.74c10.23,5.03,21.1,1.44,31.65,2.31c6.51,0.54,13.11,0.12,19.66,0.13
			c-0.79,3.12-1.58,6.24-2.36,9.36c-2.74,2.93-5.9,5.19-10.03,5.38c-13.61,0.63-27.22,0.75-40.82-0.08
			c-3.95-0.24-7.62-1.66-9.85-5.39C820.56,538.72,824.48,534.82,829.21,531.74z"/>
		<path fill="#B6985D" d="M817.47,543.46c20.23,3.82,40.46,3.71,60.7,0.08c-0.75,3.11-1.51,6.23-2.26,9.34
			c-18.19,0-36.38,0.05-54.57-0.06c-3.71-0.02-7.86,1.27-10.82-2.41C812.11,547.36,814.42,545.04,817.47,543.46z"/>
		<path fill="#C4A66A" d="M894.58,508.38c-0.76,0.02-1.52,0.03-2.28,0.03c-8,1.7-16.09,0.86-24.13,0.65
			c-3.6-0.1-8.05,0.16-8.57-5.34c2.35-3.11,4.71-6.22,7.06-9.33c9.34-4.5,19.29-3.86,29.19-3.3c4.24,0.24,8.45,0.97,10.43,5.63
			C902.39,500.62,897.07,503.07,894.58,508.38z"/>
		<path fill="#C7AA6E" d="M906.27,496.72c-12.97-4.82-26.43-1.26-39.62-2.33c3.97-3.21,7.63-6.68,9.4-11.67
			c9.64,4.51,19.87,1.46,29.8,2.25c4.56,0.36,9.55-0.83,12.08,4.65C912.56,489.53,910.58,495.04,906.27,496.72z"/>
		<path fill="#C0A267" d="M885.24,522.47c-13.85-3.51-27.98-2.11-42.02-2.39c2.29-3.95,5.4-7.08,9.35-9.35
			c12.66-2.53,25.39-6.2,37.36,2.35c-0.02,0.78-0.04,1.56-0.07,2.34C888.32,517.78,886.78,520.12,885.24,522.47z"/>
		<path fill="#C2A469" d="M889.93,513.09c-12.2-4.87-24.93-1.18-37.36-2.35c1.56-3.13,3.9-5.47,7.02-7.02
			c6.12,4.75,13.2,1.35,19.77,2.35c4.34,0.66,9.2-1.64,12.94,2.35C892.24,510.34,891.82,512.09,889.93,513.09z"/>
		<path fill="#B5975C" d="M1041.84,552.89c-0.04-2.35-0.08-4.7-0.11-7.05c2.02-4.79,6.4-5.54,10.67-5.58
			c14.35-0.12,28.73-1.42,43.04,0.85c4.75,3.82,11.09,5.73,14.06,11.7C1086.94,552.85,1064.39,552.87,1041.84,552.89z"/>
		<path fill="#B99B60" d="M1095.43,541.12c-7.34,4.88-15.52,1.47-23.27,2.34c-10.11,1.14-20.58-2.22-30.44,2.38
			c-3.41-2.46-1.99-6.13-2.34-9.36c-0.18-3.7,2.67-4.83,5.25-4.97c13.82-0.76,27.67-2.78,41.46,0.28
			C1090.05,534.05,1093.16,537.16,1095.43,541.12z"/>
		<path fill="#BD9F64" d="M1086.09,531.79c-10.94,3.86-22.29,1.77-33.46,2.42c-4.46,0.26-9.41-1.76-13.26,2.28
			c-5.85-0.91-6.35-5.84-5.43-9.66c0.86-3.58,5.34-1.83,8.23-1.99c11.53-0.64,23.25,1.51,34.56-2.4
			C1080.72,524.7,1083.84,527.82,1086.09,531.79z"/>
		<path fill="#C2A56A" d="M1025.41,513.1c-1.78-2.48-3.56-4.97-5.85-8.15c11.32-3.66,23.26,1.85,33.83-3.56
			c3.98,2.25,7.1,5.36,9.34,9.36C1050.31,511.86,1037.59,508.2,1025.41,513.1z"/>
		<path fill="#AF9157" d="M763.88,580.96c-4.29-4.99-1.54-10.93-2.22-16.41c7.25-4.09,15.15-2.1,22.76-2.24
			c16.62-0.29,33.24-0.02,49.86-0.13c5.06-0.03,9.59,0.12,8.94,7.09c-3.48,6.24-9.6,5.62-15.29,5.68
			c-16.54,0.17-33.09-0.07-49.63,0.15c-3.99,0.05-8.67-1.52-11.48,3.18C766.06,579.42,765.08,580.31,763.88,580.96z"/>
		<path fill="#A88B51" d="M763.88,580.96c0.02-0.78,0.03-1.56,0.03-2.34c3.04-2.81,6.78-3.46,10.73-3.47
			c19.28-0.06,38.56-0.06,57.83,0c3.95,0.01,7.69,0.63,10.72,3.48c-0.01,3.12-0.02,6.24-0.02,9.36c-2.74,2.52-6.08,3.4-9.66,3.36
			c-22.48-0.3-44.98,1.16-67.43-0.89C762.87,587.87,764.18,584.23,763.88,580.96z"/>
		<path fill="#9C8048" d="M777.91,616.03c-6.77-8.86-1.66-11.5,6.47-11.6c19.62-0.24,39.24-0.08,58.85-0.08
			c0.73,2.35,1.47,4.69,2.21,7.04c-2.57,3.13-5.81,5.24-9.87,5.34C816.34,617.17,797.1,618.54,777.91,616.03z"/>
		<path fill="#9A7D46" d="M777.91,616.03c5.47-4.57,11.91-1.8,17.88-2.24c16.53-1.22,33.28,2.19,49.65-2.4
			c0.07,3.88,0.15,7.77,0.22,11.65c-1.91,2.15-4.43,3.13-7.17,3.23c-16.52,0.55-33.05,0.37-49.57,0.09
			c-3.11-0.05-5.87-1.7-8.55-3.25C779.55,620.75,778.73,618.39,777.91,616.03z"/>
		<path fill="#92763F" d="M794.24,641.78c-3.64-1.01-4.1-5.17-6.9-7c-0.03-0.79-0.06-1.57-0.08-2.36c1.49-3.73,4.7-5.2,8.25-5.37
			c15.39-0.74,30.79-0.8,46.17,0.04c2.34,0.13,4.38,1.4,6.12,3.02c0.79,3.12,1.57,6.24,2.36,9.35c-3.76,3.47-8.49,3.67-13.13,3.49
			C822.77,642.36,808.43,644.72,794.24,641.78z"/>
		<path fill="#AC8E54" d="M843.2,578.63c-26.43,0-52.86-0.01-79.29-0.01c-0.63-6.98,3.93-7.1,8.98-7.07
			c18.95,0.1,37.89,0.02,56.84,0.05c4.65,0.01,9.31,0.26,13.5-2.32C843.21,572.4,843.2,575.51,843.2,578.63z"/>
		<path fill="#8E723C" d="M794.24,641.78c14.2-5,28.86-1.2,43.27-2.29c4.19-0.32,8.43-0.04,12.65-0.03c0.8,3.12,1.6,6.23,2.4,9.35
			c-14.37,7.05-29.59,2.44-44.41,3.17c-2.22,0.11-4.59-0.45-6.88-0.84C797.53,649.08,794.44,646.52,794.24,641.78z"/>
		<path fill="#A5884E" d="M766.08,590.46c3.35-3.95,7.92-2.4,11.99-2.43c21.7-0.13,43.4-0.05,65.1-0.04c0,2.34,0,4.67,0,7.01
			c-23.14,2.07-46.28,1.45-69.43,0.25c-2.73-0.14-5.41-0.54-7.49-2.61C766.19,591.92,766.13,591.19,766.08,590.46z"/>
		<path fill="#957942" d="M847.8,630.11c-15.72-0.01-31.45,0.01-47.17-0.04c-4.62-0.02-9.23-0.23-13.37,2.35
			c-2.3-3.11-4.6-6.21-6.89-9.32c21.77-0.02,43.53-0.04,65.29-0.06C848.28,624.82,847.89,627.51,847.8,630.11z"/>
		<path fill="#8B6F39" d="M801.27,651.14c16.91-4.93,34.21-1.13,51.29-2.33c0.8,2.32,1.59,4.64,2.39,6.96
			c-0.02,0.8-0.04,1.61-0.05,2.41c-13.69,6.44-27.93,2.99-42.01,2.34C809.02,657.4,805.15,654.27,801.27,651.14z"/>
		<path fill="#B89B60" d="M761.68,550.58c0.41-6.38-3.02-15.81,1.5-18.42c6.02-3.48,11.96,4.47,17.63,8.08
			c3.83,2.44,7.39,5.3,11.08,7.97C782.11,552.78,771.73,549.52,761.68,550.58z"/>
		<path fill="#A2864D" d="M766.25,592.65c25.53,4.31,51.28,1.57,76.93,2.35c0.04,0.78,0.04,1.56,0,2.34
			c-20.13,0-40.26-0.09-60.39,0.06c-4.07,0.03-8.63-1.54-12,2.39C766.1,599.44,766.16,596.05,766.25,592.65z"/>
		<path fill="#A88A51" d="M1151.44,583.29c-0.04,1.56-0.08,3.13-0.12,4.69c-25.6,5.63-51.19,5.62-76.79,0.01c0-3.89,0-7.78,0-11.66
			c2.06-1.92,4.49-3.17,7.28-3.24c19.73-0.51,39.47-0.77,59.18,0.16C1146.45,573.5,1153.07,574.64,1151.44,583.29z"/>
		<path fill="#AD8F55" d="M1151.44,583.29c-1.96-7.81-8.36-6.94-14.04-6.97c-20.96-0.1-41.92-0.01-62.87,0.01
			c-0.01-2.35-0.01-4.7-0.02-7.05c3.01-2.87,6.76-3.46,10.7-3.48c19.25-0.06,38.49-0.06,57.74,0c3.93,0.01,7.69,0.58,10.7,3.47
			C1153.09,573.97,1155.57,579.15,1151.44,583.29z"/>
		<path fill="#AF9157" d="M1153.65,569.26c-26.38,0-52.76,0.01-79.14,0.01c-0.75-8.13,5.03-7.03,9.96-7.04
			c23.06-0.01,46.12,0.01,69.18,0.02C1153.65,564.59,1153.65,566.93,1153.65,569.26z"/>
		<path fill="#A5884F" d="M1074.53,587.99c25.6,0,51.19-0.01,76.79-0.01c-0.76,2.34-1.52,4.68-2.28,7.02
			c-24.83,5.71-49.66,5.69-74.5,0.02C1074.54,592.68,1074.54,590.33,1074.53,587.99z"/>
		<path fill="#A1844B" d="M1074.54,595.02c24.83-0.01,49.67-0.02,74.5-0.02c-0.08,1.57-0.15,3.14-0.23,4.71
			c-0.71,0.77-1.41,1.54-2.11,2.31c-2.79,2.34-6.1,3.13-9.64,3.17c-17.64,0.19-35.29,0.18-52.93,0c-3.52-0.04-6.89-0.6-9.58-3.17
			C1074.54,599.69,1074.54,597.36,1074.54,595.02z"/>
		<path fill="#AC9156" d="M1032.3,601.99c0.77-3.16,1.53-6.32,2.3-9.48c3.46-3.97,5.47-8.45,4.9-13.85
			c3.67-3.33,1.71-7.79,2.34-11.73c6.7-3.41,13.42-6.99,18.55,2.31c-0.91,7.36-8.32,11.38-9.52,18.6c-3.47,2.24-6.55,4.76-6.97,9.29
			C1040.04,598.75,1037.93,604.6,1032.3,601.99z"/>
		<path fill="#9F824A" d="M1074.54,602.02c24.05,0,48.1,0,72.15,0c0.01,1.93-0.41,3.66-2.28,4.66c-3.67,3.03-8.08,2.27-12.28,2.3
			c-15.12,0.08-30.24,0.09-45.36,0c-4.2-0.02-8.61,0.76-12.28-2.29C1074.51,605.14,1074.53,603.58,1074.54,602.02z"/>
		<path fill="#9D8048" d="M1074.49,606.69c23.31,0,46.61,0,69.92-0.01c-0.04,1.92-0.44,3.67-2.31,4.68
			c-22.59-0.01-45.18-0.02-67.78-0.04C1074.38,609.78,1074.44,608.24,1074.49,606.69z"/>
		<path fill="#B09359" d="M1060.39,569.25c-5.7-4.67-12.39-1.34-18.55-2.31c0-2.34,0-4.69,0.01-7.03c5.31,0,10.63-0.04,15.94,0
			c2.98,0.03,6.92-0.63,7.87,2.84C1066.58,566.15,1063,567.72,1060.39,569.25z"/>
		<path fill="#856A35" d="M1095.41,667.53c-12.42-1.25-25.15,2.6-37.34-2.32c0,0,0-0.01,0-0.01c11.15-5.96,22.79-3.72,34.36-1.89
			C1094.42,663.61,1095.57,665.3,1095.41,667.53L1095.41,667.53z"/>
		<path fill="#A68A50" d="M950.61,606.8c4.7,0,9.4,0.01,14.1,0.01C960.01,610.14,955.31,610.16,950.61,606.8z"/>
		<path fill="#937740" d="M929.66,639.45c0.82-3.11,1.64-6.23,2.45-9.34c17.06-5.27,34.11-5.26,51.17-0.01
			c-0.28,4.03,3.43,6.09,4.63,9.39c-2.22,2.53-5.23,3.24-8.35,3.3c-13.86,0.26-27.72,0.27-41.57,0
			C934.88,642.72,931.88,641.94,929.66,639.45z"/>
		<path fill="#8D723C" d="M929.66,639.45c19.42,0.01,38.84,0.03,58.26,0.04c0.8,1.54,1.61,3.09,2.42,4.63c0,0-0.03,0.04-0.03,0.04
			c-2.1,4.68-6.3,5.34-10.66,5.42c-13.91,0.27-27.82,0.29-41.73-0.02c-4.31-0.1-8.61-0.63-10.6-5.44c0-0.77,0.01-1.54,0.02-2.31
			C928.1,641.02,928.88,640.24,929.66,639.45z"/>
		<path fill="#967A42" d="M932.01,627.74c-1.54-2.33-3.08-4.65-4.61-6.98c16.65-0.01,33.3-0.15,49.95,0.06
			c3.96,0.05,11.39-1.76,6,6.92C966.23,627.75,949.12,627.76,932.01,627.74z"/>
		<path fill="#957942" d="M932.01,627.74c17.11-3.8,34.22-3.8,51.33,0.01c-0.02,0.79-0.04,1.57-0.06,2.36
			c-17.06,0-34.12,0-51.18,0.01C932.08,629.32,932.05,628.53,932.01,627.74z"/>
		<path fill="#967B43" d="M1135.11,620.73c-0.43,3.69-1.65,6.98-4.72,9.34c-20.96,1.16-41.92,2.04-62.88,0.05
			c4.61-12.55,14.71-12.92,25.64-11.77C1107.1,619.82,1121.37,615.52,1135.11,620.73z"/>
		<path fill="#8E723C" d="M1123.42,639.44c-0.21,4.72-3.3,7.27-7.01,9.36c-17.85,0.01-35.7,0.02-53.54,0.02
			c2.7-3.44,0.91-8.63,4.53-11.71c16.21-2.36,32.5-0.86,48.75-0.83C1118.88,636.29,1121.5,637.24,1123.42,639.44z"/>
		<path fill="#927640" d="M1123.42,639.44c-15.05,0-30.11,0.08-45.16-0.05c-3.7-0.03-7.83,1.27-10.86-2.27
			c0.05-1.56,0.09-3.12,0.14-4.69c17.93-4.49,36.15-1.69,54.24-2.07c2.97-0.06,5.08,1.62,6.25,4.38
			C1127.18,636.99,1125.63,638.54,1123.42,639.44z"/>
		<path fill="#937740" d="M1128.03,634.75c-12.64-4.86-25.78-1.38-38.66-2.23c-7.25-0.48-14.55-0.08-21.83-0.08
			c-0.07-0.77-0.07-1.54-0.02-2.31c20.96-3.2,41.92-4.29,62.88-0.05c-0.01,0.77-0.04,1.53-0.1,2.29
			C1129.54,633.16,1128.78,633.95,1128.03,634.75z"/>
		<path fill="#876C36" d="M1095.42,667.53c-12.19-4.95-24.93-1.09-37.35-2.34c0.79-2.34,1.59-4.67,2.38-7.01
			c15.63,0,31.27,0,47.03,0c-0.27,5.99-5.49,6.09-7.52,9.15C1098.45,667.4,1096.93,667.46,1095.42,667.53z"/>
		<path fill="#C6A86C" d="M922.67,489.7c23.33-3.79,46.67-3.77,70-0.01c-2.99,4.8-6.87,8.71-11.67,11.69
			c-15.56,1.97-31.11,1.43-46.67-0.01C929.53,498.4,925.66,494.5,922.67,489.7z"/>
		<path fill="#C4A66A" d="M934.34,501.37c15.56-3.83,31.11-3.85,46.67,0.01c-3,4.79-6.84,8.75-11.71,11.66
			c-7.85,0.25-15.94,2.94-23.26-2.29C942.13,507.62,938.24,504.5,934.34,501.37z"/>
		<path fill="#C1A367" d="M946.03,510.75c7.73,1.04,15.89-2.39,23.26,2.29C956.22,523.58,956.22,523.58,946.03,510.75z"/>
		<path fill="#896E39" d="M922.74,660.53c-0.04-2.61-5.11-3.49-2.4-7.04c3.31-2.15,6.91-3.22,10.88-3.25c17.67-0.1,35.33-0.09,53,0
			c3.91,0.02,7.66,0.61,10.8,3.24c2.08,4.94-1.36,7.11-4.66,9.36c-5.44-4.58-11.88-2.08-17.81-2.21
			C955.95,660.26,939.34,660.52,922.74,660.53z"/>
		<path fill="#846934" d="M931.77,674.63c-0.73-0.75-1.46-1.49-2.2-2.24c0.35-1.94,1.02-4.41,3.02-4.37
			c17.71,0.37,35.56-3.18,53.1,1.85c-0.06,1.92-0.48,3.67-2.36,4.67C966.15,680.52,948.97,680.39,931.77,674.63z"/>
		<path fill="#AA8E54" d="M997.31,576.25c1.6-3.88,3.2-7.76,4.81-11.63c3.04,0,6.07,0.01,9.11,0.01c-0.75,3.88-1.49,7.76-2.24,11.64
			C1005.09,576.26,1001.2,576.26,997.31,576.25z"/>
		<path fill="#856A35" d="M861.94,697.94c-10.11-6.24-20.22-12.48-30.33-18.72c-4.79-3.01-8.68-6.91-11.72-11.69
			c-0.15-2.23,0.99-3.92,2.99-4.24c11.58-1.84,23.22-4.07,34.39,1.88c7.61,13.13,16.38,25.46,25.69,37.43
			c1.08,1.94,2.16,3.89,4.48,8.07C877.56,705.75,869.75,701.85,861.94,697.94z"/>
		<path fill="#876C37" d="M857.27,665.19c-12.43,1.26-25.18-2.63-37.37,2.36c-3.13-1.54-5.46-3.88-7.01-7.02
			c13.76-5.19,28.03-1.05,42.01-2.34C855.69,660.52,856.48,662.85,857.27,665.19z"/>
		<path fill="#826733" d="M931.77,674.63c17.19-0.03,34.37-0.06,51.56-0.08c-0.8,2.34-1.61,4.69-2.41,7.03
			c-6.44,9.09-13.51,17.81-19.1,27.4c-3.53,6.05-5.7,2.33-8.67,0.52c-1.96-8.08-7.25-14.27-11.77-20.9
			c-1.28-2.95-3.71-4.37-6.69-5.06C933.71,680.57,932.74,677.6,931.77,674.63z"/>
		<path fill="#B4995F" d="M908.57,555.09c0.02,4.73,0.03,9.45,0.04,14.18c-0.71-0.01-1.42-0.04-2.13-0.06
			C906.84,564.45,904.55,559.3,908.57,555.09z"/>
		<path fill="#8B703A" d="M995.01,653.49c-24.89,0-49.78,0-74.68,0c0.79-1.56,1.58-3.11,2.36-4.67c9.8-3.04,19.84-0.98,29.72-0.96
			c13.4,0.02,26.89-1.73,40.24,0.95C994.54,649.81,994.96,651.56,995.01,653.49z"/>
		<path fill="#8D723C" d="M992.66,648.81c-23.32,0-46.64,0.01-69.96,0.01c0.84-2.26,2.4-3.79,4.61-4.7
			c21,3.82,41.99,3.77,62.99,0.04C991.09,645.71,991.87,647.26,992.66,648.81z"/>
	</g>
</g>
</svg>
