<?xml version="1.0" encoding="utf-8"?>
<!-- Generator: Adobe Illustrator 25.2.1, SVG Export Plug-In . SVG Version: 6.00 Build 0)  -->
<svg version="1.1" id="Layer_1" xmlns="http://www.w3.org/2000/svg" xmlns:xlink="http://www.w3.org/1999/xlink" x="0px" y="0px"
	 viewBox="0 0 384 384" enable-background="new 0 0 384 384" xml:space="preserve">
<path fill="#C7A96E" d="M149.1,215.8c-29.3,0-56,0-82.8,0c-8.2,0-27.8-13.1-29.9-20.1c-0.3-1.3-0.3-2.6,0.2-3.9
	c2.6-7.6,22.3-20.8,31-20.9c23-0.1,46-0.3,69,0.1c9.8,0.2,11.8-1.9,6.4-10.6c-12.2-19.4-23.8-39-35.7-58.6
	c-4.4-7.2-0.4-35.1,5.7-40.2c0.9-0.8,2.7-1.5,3.5-1.1c12.8,5.5,28.6,4.7,36.9,20c11.5,21.2,24.8,41.4,38.6,64.1
	c12.8-21,25.7-39.3,35.4-59.2c8.3-16.9,23.5-19.7,38.4-24.5c1.8-0.6,3.4-1,5.1,0.4c5.6,4.5,10.7,32.5,6.8,39
	c-11.8,19.6-23.4,39.3-35.7,58.6c-5.6,8.8-6.1,12.6,6.4,12.2c22.1-0.7,44.1-0.2,66.2-0.2c10.2,0,28.9,11.9,32.7,20.5
	c0.9,1.9,1.2,3.7-0.3,5c-9.5,8.1-15.3,20.6-31.8,19.7c-25.7-1.4-51.6-0.4-78.7-0.4c4.2,12.3,11.9,21.5,17.7,31.7
	c5.8,10.2,10.6,21.3,18.3,29.7c14.3,15.7,5,30.2,0.4,45.2c-0.7,2.1-2.2,5.2-4.8,4.1c-12-5.4-27.3-3.6-35.4-17.4
	c-12.7-21.8-26.1-43.1-40.7-67.2c-11.2,18.5-22.5,34.8-31.2,52.4c-8.6,17.4-21.3,27.6-40.2,30.8c-2.6,0.4-4.8,2.6-7.7-0.1
	c-6.4-6-10.3-32.2-5.6-40.1C120.8,262.7,134.2,240.4,149.1,215.8z"/>
</svg>
