<?xml version="1.0" encoding="utf-8"?>
<!-- Generator: Adobe Illustrator 25.2.1, SVG Export Plug-In . SVG Version: 6.00 Build 0)  -->
<svg version="1.1" id="Layer_1" xmlns="http://www.w3.org/2000/svg" xmlns:xlink="http://www.w3.org/1999/xlink" x="0px" y="0px"
	 viewBox="0 0 1920 1080" enable-background="new 0 0 1920 1080" xml:space="preserve">
<g>
	<g>
		<path fill="#FEFEFE" d="M768.24,540.38c0-61.07,0.2-122.13-0.24-183.19c-0.06-8,1.93-9.2,9.51-9.18
			c121.61,0.29,243.23,0.28,364.84,0.02c7.32-0.02,9.67,0.77,9.65,9.04c-0.36,122.13-0.33,244.26-0.05,366.39
			c0.02,7.27-2,8.45-8.77,8.44c-122.08-0.22-244.17-0.29-366.25,0.12c-8.82,0.03-8.87-3.02-8.84-9.83
			C768.35,661.57,768.24,600.98,768.24,540.38z"/>
		<path fill="#C7A96E" d="M917.11,563.76c-29.26,0-56.01,0.03-82.75-0.02c-8.25-0.01-27.75-13.1-29.92-20.06
			c-0.36-1.17-0.26-2.68,0.15-3.85c2.64-7.56,22.35-20.83,30.98-20.85c23.01-0.05,46.03-0.33,69.03,0.13
			c9.77,0.19,11.82-1.95,6.36-10.62c-12.19-19.35-23.84-39.03-35.69-58.59c-4.36-7.18-0.44-35.14,5.71-40.18
			c0.92-0.75,2.67-1.51,3.54-1.13c12.83,5.55,28.56,4.69,36.87,19.95c11.51,21.15,24.75,41.37,38.56,64.14
			c12.77-21.01,25.68-39.31,35.41-59.15c8.31-16.94,23.47-19.72,38.4-24.53c1.79-0.58,3.36-1.03,5.13,0.38
			c5.65,4.5,10.67,32.47,6.75,38.98c-11.8,19.59-23.4,39.31-35.66,58.62c-5.58,8.79-6.11,12.55,6.39,12.17
			c22.05-0.67,44.14-0.2,66.21-0.18c10.23,0.01,28.92,11.87,32.7,20.47c0.85,1.93,1.25,3.71-0.31,5.04
			c-9.55,8.11-15.34,20.59-31.81,19.66c-25.73-1.44-51.59-0.38-78.7-0.38c4.21,12.26,11.94,21.49,17.73,31.71
			c5.75,10.15,10.6,21.27,18.31,29.74c14.3,15.7,5.05,30.21,0.36,45.25c-0.66,2.11-2.24,5.23-4.76,4.09
			c-11.96-5.4-27.31-3.59-35.39-17.35c-12.74-21.71-26.06-43.08-40.69-67.14c-11.19,18.53-22.52,34.85-31.24,52.45
			c-8.62,17.4-21.29,27.57-40.18,30.77c-2.56,0.43-4.84,2.59-7.7-0.08c-6.41-5.98-10.33-32.16-5.57-40.1
			C888.78,610.75,902.25,588.44,917.11,563.76z"/>
	</g>
</g>
</svg>
