<?xml version="1.0" encoding="utf-8"?>
<!-- Generator: Adobe Illustrator 25.2.1, SVG Export Plug-In . SVG Version: 6.00 Build 0)  -->
<svg version="1.1" id="Layer_1" xmlns="http://www.w3.org/2000/svg" xmlns:xlink="http://www.w3.org/1999/xlink" x="0px" y="0px"
	 viewBox="0 0 192 192" enable-background="new 0 0 192 192" xml:space="preserve">
<path fill="#CDBB8A" d="M111.2,35c2,2.7,3.3,5.7,3.9,9c-0.4,0.3-0.8,0.4-1.2,0.2c-0.7-0.6-1.2-1.3-1.6-2.2c-0.8-1.5-1.4-3.3-3-4.2
	c-2.2-0.7-4.6-0.8-6.8-0.2c-3.2,0.6-6.5,0.7-9.7,0.1c-2.9-0.4-6.4-1.4-8.3,2.3c-0.9,1.7-1.5,3.7-3,5.1c-0.4,0.3-1,0.2-1.4-0.1
	c1-4.3,2.7-8.3,5-12c1.3-4.2,4.2-6,8.6-5.5c1.8,0.2,3.6,0.2,5.4,0C105.1,26.6,109.4,28.6,111.2,35z"/>
<path fill="#C7A96E" d="M32.9,87.9l10.4-5.1L43.2,82c-3.3,0-6.7-0.3-9.9,0.1c-5.4,0.7-8.3-1.7-9.3-6.8c-0.6-0.8-0.5-1.9,0.2-2.6
	c2.1-1.3,4.5-1.1,6.8-1.1c8.8-0.1,17.6,0.2,26.4-0.2c0.9,0,1.9,0.2,2.7,0.7h-0.1c0.9,0.7,1.8,1.3,2.8,1.9c1.1,0.8,2.2,1.7,0.5,3
	c-8.9,1.5-17.8,0.3-26.8,0.7c-2.2,0.1-4.6-0.6-7.3,1c2.6,1.6,5,0.9,7.4,1.1c3.1,0.2,6.3-0.7,9.1,1.6c0.9,1,0.6,2-0.1,2.9
	c-1.5,1.5-3.4,2.2-5.3,2.9c-2.1,0.6-4,2-6.3,1.8C33.6,88.7,33.2,88.4,32.9,87.9z"/>
<path fill="#BB9E64" d="M38.7,96.1l-0.8-0.8c-0.3-1.4-2-2.6-1-4.3c1.1-1.1,2.6-1.6,4.1-1.5c10-0.1,20-0.3,30,0.1
	c0.8,0,1.6,0.3,2.4,0.7c1.2,1.7,2.6,3.4,0.6,5.5c-5.2,1.5-10.5,0.2-15.7,1C51.8,94.2,45.3,95.4,38.7,96.1z"/>
<path fill="#A3864D" d="M64.6,129.1l-1.6-1.2c-2.6-2.3-6.3-4.3-3.2-8.8c6.2-1.1,12.5-1.1,18.7,0.1c0.8,0.5,1.2,1.4,1,2.2
	C75.4,128.8,72.9,130.1,64.6,129.1z"/>
<path fill="#CCAF74" d="M143.9,64.7l0.8-0.8c4.5-2.7,9.5-1,14.2-1.8c0.5,0.3,1,0.4,1.5,0.5l0.1,0.1c4,0.9,7.5,2.7,11.1,4.5
	c2.5,1.2,2.4,2.5-0.3,3.3c-9.8-0.5-19.6,0.7-29.4-0.7C139,66.8,143.4,66.5,143.9,64.7z"/>
<path fill="#BC9F64" d="M157.1,94.4L156,96c-4.2,0.5-8.3-1.5-12.5-1.2c-5.4-0.7-10.8-0.1-16.2-0.3c-2.1-0.1-4.3,0.2-6.2-1.1
	c-0.7-1.7-1.5-3.4,0.6-4.7c9.7-0.3,19.5,0.2,29.3-0.3c0.8-0.2,1.7-0.1,2.5,0.1c0.8,0.5,1.7,1,2.6,1.2
	C160.1,90.5,159.1,92.3,157.1,94.4z"/>
<path fill="#CEB780" d="M152.8,54.8l1.8-2.8c1.2-0.8,1.7-2.3,3.1-2.8c6.1-0.3,12.2-2,18,1.2c0.5,2.5,1.3,5.2-1.7,6.8
	c-7,0.2-14.1,1.4-21.1-0.7C152.5,56.1,152.4,55.3,152.8,54.8z"/>
<path fill="#CDB379" d="M153,56h22c0.8,0.9,0.9,2.2,0.2,3.2c-4.7,1.8-9.5,0.3-14.2,0.9c-1.9,0.2-1.5,1.8-1.9,2.9
	c-4.6,1.7-9.5,0.1-14.2,0.9l2-2C148.8,59.9,150.4,57.5,153,56z"/>
<path fill="#CCAF74" d="M50,64l1,1c1,1.5,5,1.8,1.9,4.9c-9.8,1.3-19.5,0.2-29.3,0.7c-4.1-1.4-1.5-2.5,0.1-3.7
	c3.1-1.6,6.3-3.1,9.8-3.7C39,64.4,44.6,62.7,50,64z"/>
<path fill="#CCB37A" d="M40.2,52.8l1.9,2.3c1,1.4,2.1,2.8,3.4,4c0.8,0.9,1.4,1.8,0,2.7c-2.9,0.9-6,0.9-8.9,0
	c-0.8-0.4-1.3-1.1-2.1-1.4c-4.8-1-9.6,0.5-14.4-0.9c-1.3-1.4-2-2.9-0.9-4.8c2.7-1.7,5.8-1,8.7-1.1C32,53.5,36.1,53.7,40.2,52.8z"/>
<path fill="#A98B51" d="M135.2,112.9c2.9,4.2,3,8.3-0.1,12.3c-0.4-0.3-0.6-0.7-0.7-1.2c-0.2-1.6,0.6-3.3-0.4-4.9
	c-3.5-1.6-7.2-0.5-10.8-0.8c-2.4-0.2-5,0.5-7.2-1.1c-1.1-2.1,0.7-3.7,1-5.6c4.3-2.2,9-0.6,13.4-1.3
	C132.6,110,133.8,111.6,135.2,112.9z"/>
<path fill="#CEB781" d="M40.2,52.8C39.8,55.4,37.8,55,36,55H19.1c-1-1.7-0.6-3.4-0.2-5.2c5.5-2.6,11.4-0.7,17.1-1.4
	c2.6-0.2,2.8,2.3,4,3.6C40.2,52.2,40.2,52.5,40.2,52.8z"/>
<path fill="#A2874D" d="M134.9,124c0,0.4,0.1,0.8,0.1,1.3c-5.1,6.4-11.5,6.7-17.2,1c-0.6-0.8-0.4-2,0.2-2.7
	C123.8,122,129.4,121.4,134.9,124z"/>
<path fill="#AE9157" d="M67,107c-0.2-0.2-0.2-0.5-0.2-0.7c2-4.4,5.6-2.4,8.7-2.3c3,1.9,1.8,5.2,2.8,7.8c-1.8,2-4.2,1.4-6.5,1.5
	c-3.8,0.1-7.6-0.2-11.3,0l-0.7-0.4c0.3-1.5,1.5-2.7,3-2.9C64.3,109,66.9,109.8,67,107z"/>
<path fill="#BB9D63" d="M121,93c6.1,0,12.2,0,18.3,0c1.6,0,3.4-0.6,4.6,1c-0.6,1.7-2.1,1.4-3.5,1.5c-1.7,0.6-3.2,1.5-4.5,2.7l-6.9,7
	c-0.4-0.3-0.6-0.8-0.7-1.3c0.1-1.6,1.1-2.7,2.1-3.8c1.6-1.7,1.7-2.8-1.1-3c-3.2-0.3-6.6,0.9-9.7-1.1c-0.5-1.1-0.1-2.5,1.1-3
	C120.9,93,120.9,93,121,93z"/>
<path fill="#C8AA6F" d="M171.1,73.1c0,1.4,0.2,2.9-1,4h-0.9c-9.6-1.2-19.2-0.4-28.8-0.7c-2.4-0.1-5.1,0.5-6.8-2
	c-0.1-2.5,1.8-2.9,3.6-3.4c9,0.8,18.1,0.3,27.1,0.4c1.8-0.1,3.6,0.1,5.4,0.5C170.3,72.2,170.8,72.6,171.1,73.1z"/>
<path fill="#CDBC8E" d="M111.2,35c-2.4-1.3-1.8-5.6-4.8-5.8c-5.9-0.4-11.9-0.2-17.8,0c-2,0.1-1.9,3-3.6,3.8c0.5-5,2.7-7.9,8.3-7
	c2.3,0.2,4.6,0.2,6.9,0C108.6,26,109,26.3,111.2,35z"/>
<path fill="#C9AC71" d="M78,112c-1-2.2-0.4-4.9-1.9-7c-1.5-1.6-1.4-3.7-2-5.6c-0.2-1.5-0.8-2.9,0-4.4c1-1.3-0.5-2.7,0-4
	c-1.1-0.9-1.8-2.2-2-3.6c-0.1-0.7-0.2-1.4-0.3-2c-0.3-1.3-0.6-2.6-0.9-3.9c-1.3-3.2-5.2-2.8-6.8-5.5c-0.6-2-3.5-1.9-4-4.1
	c3.7,1.8,7.3,3.7,11,5.5c1.2,0.6,1.9,1.8,2,3.1c2.4,12.2,4.8,24.3,7,36.4c0.4,2,0.8,4.3-0.9,6.1c-0.3-0.2-0.5-0.4-0.4-0.7
	s0.1-0.4,0.2-0.4l0.1-2c-0.7-0.8-1.1-1.7-1.3-2.8C77.5,115.5,76.6,113.7,78,112z"/>
<path fill="#B4985E" d="M75,99c1.2,1.8,1,3.9,1,6c-3,0.6-6.4-1.2-9.2,1.3l-1-0.9c0-2.4-4.2-3.1-2.6-6.2C66.8,96.9,71.4,96.8,75,99z"
	/>
<path fill="#A98B51" d="M102.8,117c0.2,0.6-0.2,0.9-0.7,1c-3.2,0.6-6.4,1-9.3-1c-0.4-2.3-0.4-4.7,0-7.1c3.1-2,6.2-2,9.1,0.4
	C103.2,112.4,101.9,114.9,102.8,117z"/>
<path fill="#CFBF92" d="M174.9,59l0.1-3l0.9-5c-1.6-1.7-2.4-4-2.3-6.4c-0.4-2.7-1-5.3-1.8-7.8c-0.4-1.4-1-2.8-0.2-4.3L172,32
	c4.3,7.9,5.1,16.5,4.7,25.3c-0.1,2.5-1.4,3.8-4.1,3.7c-3.1-0.2-6.3-0.1-9.4,0c-1.2,0-2.9-0.5-2.8,1.7l-1.5,0.3c-0.3-1-1.6-2.1,0-3.1
	C164.2,58.7,169.6,60.4,174.9,59z"/>
<path fill="#CDB278" d="M36.1,61H46c0.3-0.5,0.7-0.5,1,0c0.9,1.1,2.7,1.3,3,3c-5.7,1.3-11.3,1.8-16.9,0c-0.5-2.3,1.9-0.9,2.4-2
	C35.5,61.6,35.8,61.2,36.1,61z"/>
<path fill="#CFBF91" d="M40,52c-1.6-0.4-1.8-2.2-3-3c-2.1-1.5-2.6-4-3.9-6c-2-4-2.6-8.3-3.8-12.5c-0.4-1.7-0.5-3.5-0.4-5.2
	c-0.9,0.3-1.5,1-2.3,1.1L26,26c0.6-2.6,2-4.7,4.9-6.9C30.4,31.6,35.3,41.8,40,52z"/>
<path fill="#CFBF91" d="M36.1,61c0,0.3-0.1,0.7-0.1,1c-0.2,0.3-0.7,0.4-1,0.2c-0.1-0.1-0.1-0.1-0.2-0.2c-4-2.2-8.4-0.7-12.5-0.9
	c-2.8-0.1-4-1.2-4.1-3.8C17.8,48.5,18.6,39.9,23,32l0.5,0.5c0.9,4-1.7,7.4-2,11.1c-0.2,2.4-0.4,4.7-2.4,6.4v5
	c-0.1,1.4,0.2,2.8,1,3.9c4.9,1.5,10-0.3,15,1L36.1,61z"/>
<path fill="#C3A66B" d="M93.1,110v7c0.7,0.8,1.2,1.9,1.2,3c0.1,1.3,0.1,2.7,0.1,4s0,2.6,0,4c0,1.4,0,2.7-0.1,4c0,1.1-0.3,2.2-1,3.1
	c-0.4,0.3-1.1,0.3-1.5-0.1C91.9,121.5,92,108,92,94.6c-0.2-2.1-0.5-4.3-1.1-6.3c-0.3-0.3-0.4-0.8-0.1-1.1c0.1-0.1,0.2-0.2,0.4-0.2
	c2.9,1.2,2.7,3.9,3.1,6.4c0.1,1.9,0.1,3.9,0.1,5.9c0.1,1.7,0,3.4,0,5.1C94.5,106.2,94.5,108.3,93.1,110z"/>
<path fill="#9A7F45" d="M103.1,134.9c2.3,7.5,4.5,15.1,7,22.6c1.3,3.9-1.2,6.1-3,8.8c-0.4-0.3-0.7-0.7-0.8-1.1
	c-0.2-1.9,1.2-3.4,1.2-5.2c0-1.3-0.2-2.6-0.7-3.8c-0.4-1.3-0.8-2.5-1.1-3.8c-0.2-1.1-0.5-2.1-0.8-3.2c-0.2-0.6-0.3-1.3-0.5-1.9
	c-0.4-1.7-1.1-3.4-1.6-5.1c-0.5-1.5-0.9-3-1.2-4.6c-0.3-0.9-0.2-1.9,0.1-2.7C102.2,134.5,102.8,134.6,103.1,134.9z"/>
<path fill="#C9AC71" d="M121,93l-1,3c1.4,1.7,0.5,3.4,0.3,5.1c-0.1,1-0.4,2-1.1,2.8c-0.4,0.3-1,0.3-1.4-0.1
	c0.6-7.9,2.7-15.6,4.1-23.3c0.8-4.3,5-4.1,7.9-5.7c0.4-0.3,0.9-0.3,1.3,0c0,2.6-2.4,2.7-3.8,3.8c-2.5,0.9-3.2,2.9-3.5,5.2
	c-0.5,1.5-0.5,3.2-1.3,4.6L122,89C120.5,90.1,121.1,91.6,121,93z"/>
<path fill="#C8AA6F" d="M153.9,89.1h-2c-1,0.1-2-0.3-2.6-1.1c-1.1-1.7-0.4-2.8,1.1-3.7c2.8-0.9,5.6-0.6,8.4-0.5
	c3.1,0.1,5.6-0.8,7-3.7c1.1-1.3,1.7-3.3,3.9-3.1l0.2,0.1c-2.1,10.9-10.6,9-18.4,8.8c0.6,2.1,2.7,1.8,3.4,3.1c-0.2,0.3-0.7,0.4-1,0.2
	C154,89.1,154,89.1,153.9,89.1z"/>
<path fill="#CFBF92" d="M160.8,40c1.4-6.9,3.9-13.5,3.1-21.5c2.6,2.5,4.4,4.5,5.1,7.5l-0.6,0.3c-0.7,0.4-2.2-2-2.3,0.6
	c-0.2,3.2-1.3,6.3-1.9,9.4c-0.3,1.5-1,2.8-2,3.8C161.7,40.3,161.2,40.3,160.8,40z"/>
<path fill="#C6A96E" d="M102.8,117c-1.6-1.8-0.6-4-0.9-6c-1.2-2-1.7-4.4-1.3-6.7c0-1.4-0.1-2.8,0-4.2c0.1-2.2-0.1-4.4,0.1-6.6
	c0.2-3.2,1.2-6.4,2.8-9.2c0.4-0.4,0.9-0.6,1.5-0.5c0.4,0.3,0.5,0.9,0.2,1.3c0,0-0.1,0.1-0.1,0.1C101.2,95.6,103.8,106.4,102.8,117z"
	/>
<path fill="#BEA167" d="M38.7,96.1c6.4-2,12.9-2.6,19.3-0.1c0.7,0.2,1.2,0.8,1.2,1.6l-0.4,0.6c-5.5-2.5-11.2-3.4-17.1-1.3
	C40.7,97.4,39.4,97.1,38.7,96.1z"/>
<path fill="#A5874E" d="M93.1,120v-3c3,0.2,6.2-0.7,9,1v1.8c0.4,0.3,0.4,0.9,0.1,1.2c-0.1,0.1-0.2,0.1-0.2,0.2
	C98.8,121.5,95.8,121.9,93.1,120z"/>
<path fill="#CDB379" d="M171.9,70c1.6-2.6-1.2-2.4-2.1-3c-3-1.6-6.1-2.8-9.2-4.2c4.8-0.3,8.8,2.3,12.5,4.7c2.1,1.4,0.6,4.4-1.9,5.7
	l-0.2-0.2C170.4,71.8,170.9,70.6,171.9,70z"/>
<path fill="#90753E" d="M87.8,166.3c-5.9-5.8-2.1-11.6-0.1-17.4c0.4-0.3,0.9-0.3,1.2,0.1c0.7,1.1,0.2,2.2,0,3.3
	c-0.4,1.3-0.8,2.5-1.2,3.8c-0.4,1.2-0.6,2.5-0.4,3.8c0.1,1.8,1.4,3.4,1.3,5.3C88.5,165.6,88.2,166,87.8,166.3z"/>
<path fill="#826733" d="M87.8,166.3l0.2-1.3c1.7-0.3,2.5,1.1,2.8,2.2c1.6,5.2,5.3,7.1,10.4,7c0.4,0.2,0.8,0.6,1,1
	C93.5,177.3,92.3,176.5,87.8,166.3z"/>
<path fill="#CDB379" d="M131,75.1l-1.2-0.1l14.1-10.2c-0.2,1.9-2.3,2.6-2.9,4.3c-0.5,2.1-2.8,1.9-4,3c-1.3-0.1-2.6,0.7-3,2
	C133.1,74.9,132.3,75.7,131,75.1z"/>
<path fill="#BFA166" d="M140,95c1.4,0.1,2.8-0.3,4-1c4.2-0.5,7.9,1.8,12,2c-0.6,1.5-1.8,1.2-2.9,0.8c-4.3-1.6-8.7-1.1-13.1-0.6
	c-0.3-0.2-0.5-0.6-0.3-0.9C139.8,95.2,139.9,95.1,140,95z"/>
<path fill="#C4A66A" d="M117.8,103.9h1.2c0.3,0.4,0.5,0.9,0.5,1.3c-0.2,2.4-0.3,4.9-2.4,6.7c-0.3,1.7-0.7,3.3-1,5
	c0.5,0.6,0.8,1.3,1,2c0.2,1,0.1,2-0.2,3c-0.2,0.5-0.5,0.9-1,1.2C113.3,116.4,116.6,110.3,117.8,103.9z"/>
<path fill="#AE9157" d="M59.1,120c-0.4,3.5,2.3,5.4,4,7.9c-5.9-3-7.2-9-3.2-15.1l0.3,0.2c1.1,1.4,0.2,2.8,0.2,4.3
	C60.2,118.3,59.8,119.3,59.1,120z"/>
<path fill="#A2874D" d="M78.9,122c0.1,0.4,0.2,0.7,0.2,1.1c-3.3,6.5-7.5,8.2-14.5,6C70.9,129.9,75.6,127.4,78.9,122z"/>
<path fill="#CDB179" d="M91.1,87c0,0.4-0.1,0.7-0.1,1.1c-2.6-4.7-4.6-9.8-6-15c-0.4-0.3-0.4-0.8-0.2-1.1c0-0.1,0.1-0.1,0.2-0.2
	c3.5,1.4,3.2,5.2,4.8,7.8c0.8,1.7,1.4,3.5,1.9,5.4C91.8,85.7,91.6,86.5,91.1,87z"/>
<path fill="#CEBB88" d="M114,44h1.1c4.2,5.1,3.4,10.1-0.1,15.1c-0.4-0.3-0.6-0.7-0.8-1.1c-0.1-0.7-0.1-1.3,0-2
	c0.5-1.9,1.5-3.6,1.2-5.7S113.1,46.5,114,44z"/>
<path fill="#9A7F45" d="M89,149l-1.3-0.1c0.9-4.8,2.3-9.5,4-14h1.2c0.4,0.8,0.5,1.8,0.2,2.6c-0.4,1.5-0.9,2.9-1.2,4.4
	c-0.3,1.2-0.7,2.5-1.1,3.7c-0.3,1-0.8,2-1.3,2.9C89.3,148.7,89.2,148.8,89,149z"/>
<path fill="#CEBC8B" d="M160.8,40h1.1c0.7,1.8-0.5,3.1-1,4.5c-1.1,2-1.8,4.2-4,5.4c-0.4,1-1.2,1.8-2.3,1.9L160.8,40z"/>
<path fill="#CDB279" d="M105.1,85.2L105,84c-1.4-2.4,0.3-4.3,0.9-6.4c1.5-2.2,0.8-5.7,4.2-6.7c0.4,0.3,0.5,0.8,0.2,1.2
	c0,0-0.1,0.1-0.1,0.1C109.1,76.8,107.4,81.2,105.1,85.2z"/>
<path fill="#CEB883" d="M110.1,72.2l-0.1-1.2c-0.5-0.5-0.7-1.3-0.6-2c0.6-2.5,1.5-4.9,2.4-7.2c0.5-1,0.9-2.1,1.4-3.1
	c0.4-0.6,0.9-1,1.7-0.7c0,0.4,0.1,0.7,0.1,1.1C114,63.7,112.3,68.1,110.1,72.2z"/>
<path fill="#CDBA87" d="M34.9,62l1.2,0.1l-3,2l-9,3c-0.2,0.3-0.7,0.3-1,0.1C23,67.1,22.9,67,22.9,67C26.6,64.6,30.6,63,34.9,62z"/>
<path fill="#CEB67F" d="M85.1,72c0,0.4-0.1,0.7-0.1,1.1c-2.4-4-4.1-8.4-5.1-13l0.6-0.4c0.5,0,0.9,0.2,1.2,0.6c1.7,3.1,3,6.4,4,9.7
	C85.8,70.7,85.6,71.5,85.1,72z"/>
<path fill="#BFA266" d="M102,121l0.1-1.1c2,4.9,0.3,10,1.1,15h-1.1c-0.6-0.5-1-1.3-1.1-2.1c-0.2-1.3-0.3-2.7-0.2-4
	c0-1.3-0.1-2.7,0-4S100.8,122,102,121z"/>
<path fill="#CDB278" d="M54,69l-3-4c3.6,1.6,6.4,4.2,9.1,6.9L58,72C56.3,71.6,54.7,70.9,54,69z"/>
<path fill="#816733" d="M106.9,165c0.1,0.4,0.2,0.9,0.2,1.3c-1.2,3.2-2.9,6.2-4.9,8.9l-0.4-0.4C101.5,170.5,103,167.1,106.9,165z"/>
<path fill="#C6A86C" d="M153.9,89.1l1.1-0.1c2,0.2,4.5,0.5,5.1,2.3c0.6,1.6-1.5,2.6-3.2,3.1C160,90.3,154.8,90.9,153.9,89.1z"/>
<path fill="#BB9E64" d="M63,100c0.7,1.9,3.4,2.8,2.8,5.4l-7-7.2l0.2-0.2C61.3,96.9,62.3,98.2,63,100z"/>
<path fill="#C1A367" d="M37,92c0.3,1.1,0.6,2.2,0.9,3.3c-1.7-2.4-5.7-3.3-5.1-7.4l1.2,0.1C35.4,89.1,36.4,90.4,37,92z"/>
<path fill="#CDB278" d="M22.9,66.9l1.1,0.1c-0.2,1-2.9,1.2-1,3c1,0.8,1.6,1.7,1,3c0,0.7-0.1,1.4-0.1,2.2
	C23.2,72.5,18.6,70.3,22.9,66.9z"/>
<path fill="#D1BA86" d="M153,56c-1.6,2.4-3.7,4.5-6.2,6c1.2-3.1,3.9-4.9,6-7.2C152.9,55.2,152.9,55.6,153,56z"/>
<path fill="#CEB781" d="M47,61h-1c-0.9-2.3-3.9-3.1-4-6C44.2,56.6,46.3,58.3,47,61z"/>
<path fill="#AF935A" d="M135.2,112.9c-1.6-0.3-2.4-2.1-4.2-1.9c-1.2-0.2-2.4-0.4-2.1-2.2c0.4-0.2,0.9-0.2,1.3,0.1
	C132.6,109.4,134.4,110.5,135.2,112.9z"/>
<path fill="#CFBF92" d="M169,26c1.8,1.5,2.9,3.7,3,6l-0.2,0.1c-3.1-1-3.9-3-3-6L169,26z"/>
<path fill="#CFBF91" d="M23,32c0.3-2.4,1-4.5,3-6l0.1,0.1c1.1,1.4,0.2,2.7-0.3,4c-0.7,1-1.1,2.2-2.7,2L23,32z"/>
<path fill="#B7995F" d="M130.2,108.9L129,109c-2.7,1-2.7-0.8-2.7-2.6c0.5-1.3,0.9-2.7,2.7-2.5c0,0.4,0.1,0.8,0.1,1.2
	c-0.8,1.1-0.5,2.6,0.6,3.4C129.9,108.7,130,108.8,130.2,108.9z"/>
<path fill="#CEB984" d="M77.9,55.2c-1.7-1.7-1.8-3.5,0-5.2c0.3-0.3,0.7-0.4,1.1-0.2c0.8,1.5,0.1,3-0.2,4.4
	C78.6,54.6,78.3,55,77.9,55.2z"/>
<path fill="#CEBB88" d="M79,50h-1.1c0.1-1.9,0.8-3.6,2-5H81c0.6,1.1,0,2.1-0.3,3.1C80.3,48.9,79.7,49.5,79,50z"/>
<path fill="#B4985E" d="M67,107c0.7,4-2.4,2.4-4.2,2.9L67,107z"/>
<path fill="#BC9F64" d="M140,95c0,0.4,0,0.8,0.1,1.2l-4,2C136.5,96.2,138.5,95.9,140,95z"/>
<path fill="#CEB984" d="M79.9,60.1c-1.2-1.4-1.9-3.2-2-5l0.2-0.2c0.4-0.3,1-0.2,1.4,0.2c1.2,1.5,1.9,3,0.6,4.9L79.9,60.1z"/>
<path fill="#AF935A" d="M115.9,123.2l0.2-1.2c1.6-0.3,1.8,0.9,1.9,2c0,0.8-0.1,1.5-0.1,2.3C116.7,125.6,116,124.5,115.9,123.2z"/>
<path fill="#CEB883" d="M114,44c1,2,2,4,3,6c-2.9,2.1-6.1,1.5-9.3,0.9c-2.1-0.8-2.7-2.9-3.6-4.7c-0.5-1.7-1.5-3.3,0.4-4.8
	c2.9-1,5.8-1.3,8.5,0.7C113.7,42.5,114.1,43.3,114,44z"/>
<path fill="#CEB984" d="M80,48l1-3l2-5c2.7-0.9,5.7-0.6,8.2,0.8c1.5,3.9-0.4,6.7-3.2,9.1C85.1,50.4,82.1,51.3,80,48z"/>
<path fill="#CEBB88" d="M91,41c-2.7-0.2-5.5,0.5-8-1c0.3-3,1.9-4.5,4.9-4c6.5,1,12.9,0.5,19.4,0c1.3-0.1,2.7-0.3,3.6,1
	c-2.5,2.1-5.8,1.1-8.6,2.1C98.5,39,94.6,39.7,91,41z"/>
<path fill="#CEBB88" d="M102,38c2.8-1.7,6-0.8,9-1c0.7,1.7,1.3,3.3,2,5h-9C102.2,41.3,101.3,40.1,102,38z"/>
<path fill="#C5A86C" d="M64,76c3,1.2,6.5,1.4,8,5c-1,0.9-2.3,1.4-3.6,1.4c-7.4-0.1-14.9,0.8-22.3-0.4c-3.4-1.8-7.2-0.7-10.7-1
	c-1.5-0.1-3-0.1-4.5,0c-2.4,0.1-4.2-1-4-3.3s2.5-1.7,4-1.7C41.9,76,53,76,64,76z"/>
<path fill="#BFA065" d="M37,92c-1.6-0.9-2.9-1.9-3-3.9l6-2c9.1-0.8,18.2-0.3,27.3-0.4c2,0,4-0.1,5.6,1.4c0.3,1.3,0.7,2.7,1,4
	c-10.6,0-21.2,0-31.8,0C40.5,91,38.5,90.4,37,92z"/>
<path fill="#C9AC71" d="M24.1,73c-0.3-1-0.7-2-1-3c1.6-1.7,3.8-0.9,5.6-1c8.4,0,16.9,0,25.3,0c1.5,0.8,3.3,1.2,4,3
	c-1.5,1.6-3.4,1-5.2,1C43.3,73.1,33.7,73,24.1,73z"/>
<path fill="#C2A468" d="M46.1,82c5.4-2.1,11-0.6,16.6-1c3.1-0.2,6.2,0,9.4,0l1,4c-3.4,1.9-7.2,0.8-10.8,0.9c-4.2,0.2-8.3,0.1-12.5,0
	c-1.8,0-3.8,0.2-4.7-2L46.1,82z"/>
<path fill="#C1A367" d="M45,84c4.8,2,9.7,0.7,14.6,1c4.4,0.2,8.9,0,13.3,0v2c-9.2,0-18.5,0-27.8,0c-1.7,0-3.7,0.7-5.2-1L45,84z"/>
<path fill="#B89A60" d="M63,100c-1.4-0.6-2.2-2.1-3.9-2.1L58,96c5.2-2.1,10.7-0.5,16-1c0.7,1.2,1.1,2.6,1,4
	C71,99.4,66.9,98.1,63,100z"/>
<path fill="#A5874F" d="M59.1,120v-3c6.4-2.5,13.5-2.5,19.9,0c0,1,0,2,0,3H59.1z"/>
<path fill="#C9AC71" d="M137,72c0.7-1.8,2.5-2.2,4-3c8.8,0,17.5,0,26.3,0c1.6,0,3.4-0.6,4.6,1c-0.4,1-0.7,2-1.1,3
	c-9.1,0-18.1,0-27.1,0.1C141.5,73,139.2,72.6,137,72z"/>
<path fill="#BFA166" d="M150,88c0.8-0.1,1.6,0.3,2,1c-5.4,2.1-11,0.8-16.5,0.9c-4.5,0-9.1,1.2-13.5-0.9l0,0c0.7-0.7,1.3-1.7,2.3-1.8
	C132.9,86.3,141.5,85.1,150,88z"/>
<path fill="#CDB882" d="M157,50l3-6c4.9-0.9,10-0.9,14.9,0c-0.3,2.4,0.5,4.7,1,7C169.7,48.9,163.3,50.6,157,50z"/>
<path fill="#CEB780" d="M174.9,59c-5.2,2.1-10.6,0.5-15.9,1C164.2,58,169.6,59.6,174.9,59z"/>
<path fill="#CDBA87" d="M35.1,60c-5-0.5-10.1,1.3-15-1C25.1,59.6,30.2,57.9,35.1,60z"/>
<path fill="#A3864D" d="M118,124l-1.9-2c0-1,0-2,0-3c6.5-1.6,13.4-1.6,19.9,0c0.2,1.7-0.1,3.5-1,5H118z"/>
<path fill="#AF9157" d="M127,106c0,1.5,0,2.9,2,3.1l2,1.9c-4.5,2.1-9.3,0.5-13.9,1c0.9-2.2,0.4-4.9,1.9-7
	C121.9,103.1,124.6,103.3,127,106z"/>
<path fill="#A5874F" d="M135.9,119H116v-2c5.4,0,10.8,0,16.2,0C133.7,117,135.6,116.5,135.9,119z"/>
<path fill="#CDB882" d="M19.1,50c0.5-2.3,1.3-4.6,1-7c4.6-1,9.3-0.6,13.9,0c1.6,1.6,2.6,3.7,3,6C31.2,51.3,25.1,49.5,19.1,50z"/>
<path fill="#A98B51" d="M79,117H59.1c0.3-1.3,0.7-2.6,1-4c1.4-0.9,2.6-1.8,4.7-1.4c4.3,0.6,8.7,0.3,13.1,0.4
	C78.3,113.7,78.6,115.3,79,117z"/>
<path fill="#B7995F" d="M119,101l1-5c3.1,0,6.2-0.1,9.3,0c1.7,0,4.2-0.8,4.8,1.2c0.6,1.8-1.7,2.8-3.2,3.8C127,103,123,103.4,119,101
	z"/>
<path fill="#B3965B" d="M119,101h12c-0.7,1-1.3,2-2,3l-2,2c-2.6-0.8-5.3-1.2-8-1c0-0.3,0-0.7,0-1C119,103,119,102,119,101z"/>
<path fill="#C6A86C" d="M131,75.1l3-1c1.3,1.5,3.1,1,4.7,1c8.3,0,16.6,0,24.9,0c2.3,0,4.7-0.2,6.3,2l-2.9,3
	c-12.2,1.2-24.5,0.5-36.7,0.3c-1.4,0-3.1-0.2-3.2-2.3L131,75.1z"/>
<path fill="#B19359" d="M101.9,104c0,2.3,0,4.7,0,7c-2.8-1.7-5.9-0.8-8.9-1c0-2,0-4,0-6C95.7,102,99.3,102,101.9,104z"/>
<path fill="#CDBA86" d="M174.9,44.1c-4.9,1.4-10,1.4-14.9,0c0.7-1.3,1.3-2.7,2-4c0.4-1.3,0.7-2.7,1-4c3.3-2.2,6.6-1.9,9.9,0
	L174.9,44.1z"/>
<path fill="#CEBC8B" d="M172.9,36.1H163c1.1-4.3,2.3-8.6,2.1-14l3.8,4.1c0.5,2.2,1.5,4.3,3,6L172.9,36.1z"/>
<path fill="#CDBA87" d="M34,43c-4.6,1.8-9.3,1.2-13.9,0c1-3.7,2-7.3,3-11l1.9-2c1.4-1.3,3.6-1.3,5,0L34,43z"/>
<path fill="#CFBE8F" d="M30.1,30.1h-5c0.4-1.3,0.7-2.6,1.1-4l3.9-4.4V30.1z"/>
<path fill="#BFA266" d="M91.1,87L91,85c2.7-3.2,7.8-3.6,13-1c-0.7,3-1.4,6-2,9c-2.6,2-6.3,2-8.9,0C93.1,90.8,92.4,88.7,91.1,87z"/>
<path fill="#B99B5F" d="M93.1,93h8.9v7c-3.1,0.8-6.1,0.9-8.9-1L93.1,93z"/>
<path fill="#967A43" d="M102,133c0,0.7,0,1.3,0,2c0.3,0.7,0.6,1.4,0.9,2.1c-3.3,2.1-7.6,2.1-10.9,0c0.3-0.7,0.6-1.4,0.9-2.1
	c0-1,0-1.9,0-2.9C96.2,130.1,99.3,129.6,102,133z"/>
<path fill="#B5975C" d="M93.1,99c3,0.2,6.1-0.7,8.9,1c0,1.3,0,2.7,0,4h-8.9C93.1,102.3,93.1,100.7,93.1,99z"/>
<path fill="#9E8149" d="M102,125v4c-3.1,0.8-6.1,0.9-8.9-1c0-1.3,0-2.7,0-4C96.3,122.1,99.3,121.6,102,125z"/>
<path fill="#9A7D45" d="M93,128c3,0.2,6.1-0.7,8.9,1c0,1.3,0,2.7,0,4c-2.8-1.7-6-0.8-9-1C93,130.6,93,129.3,93,128z"/>
<path fill="#A2844C" d="M102,125c-2.8-1.7-5.9-0.8-8.9-1c0-1.3,0-2.7,0-4c3,0.2,6.1-0.7,8.9,1L102,125z"/>
<path fill="#7C622E" d="M106.9,165c-2.2,3-3.9,6.3-5,9.9c-9,2.9-10.5-4.9-13.8-9.9l-2-5c7.5-2.5,15.5-2.5,23,0
	C108.9,161.9,107.7,163.3,106.9,165z"/>
<path fill="#816733" d="M109,160H86c0.1-1.4-0.5-2.9,1-4c6.7-2.5,14.2-2.5,20.9,0C108.7,157.2,109.1,158.6,109,160z"/>
<path fill="#8B703A" d="M90,146c-0.1-1.4,0.2-2.8,1-4c4-2.3,9-2.3,13,0l2,5c-4.2,3.5-9,2.5-13.6,1.7c-1.3,0-2.4-1.1-2.4-2.5
	C90,146.2,90,146.1,90,146z"/>
<path fill="#826733" d="M107.9,156H87c-0.1-1.4,0.2-2.8,1-4c6.1-2.4,12.8-2.4,18.9,0L107.9,156z"/>
<path fill="#90753E" d="M104,142H91c0.3-1.7,0.7-3.3,1-5h10.9L104,142z"/>
<path fill="#876C37" d="M107,152H88.1l1-3l0,0c5.6-0.9,11.3-0.9,16.9,0L107,152z"/>
<path fill="#886C37" d="M106,149H89c0-1.1-0.2-2.3,1-3c5.1,3.9,10.5,1.5,15.9,1L106,149z"/>
<path fill="#C4A66A" d="M127,78c1.5,1.6,3.4,1,5.1,1c9.9,0.1,19.8,0,29.7,0.1c1.7,0,3.7-0.7,5.1,1c-0.8,3.9-3.1,5.4-7.1,5
	c-3.3-0.3-6.6,0-9.9,0c-8.1,1.1-16.2,0.5-24.3,0.3c-1,0-2-0.5-2.6-1.3C122.7,80.9,123,78.3,127,78z"/>
<path fill="#C0A266" d="M123,84c7.1,0,14.1,0,21.2,0c2,0,4-0.1,5.7,1c-0.6,0.9-0.6,2.1,0,3c-9.3,0.5-18.7-1.1-28,1
	C122.2,87.3,121.3,85.4,123,84z"/>
<path fill="#C3A66B" d="M104,84c-4.3,0.6-8.8-1.2-13,1c-1.3-1.4-1.6-3.2-2-5c-0.6-0.8-0.5-1.9,0.3-2.6c0.3-0.2,0.7-0.4,1.1-0.4
	c5.5-0.5,11.1-2,16.5,0.9l-2,6L104,84z"/>
<path fill="#C7A96E" d="M107,78c-4.7,0-9.4,0-14.2,0c-1.6,0-3.4-0.4-3.8,2c-1.3-2.7-2.6-5.3-3.9-8c0-0.7,0-1.3,0-2
	c2.2-2,4.9-1.2,7.4-1.6c2.8,0.2,3.1,2.7,4.1,4.5c1.9,1.7,1.8-0.3,2.4-1.2c0.6-1.5,1.2-2.9,2.8-3.6c2.8-0.6,5.7-1.2,8.2,0.9
	c0,0.7,0,1.3,0,2C109,73.3,108,75.7,107,78z"/>
<path fill="#CEB67F" d="M107,50h10c0.1,2.2-0.6,4.3-2,6c-2.3,1.8-4.8,1.5-7.3,0.8c-0.5-0.2-0.9-0.6-1.2-1
	C106,53.9,106.1,51.9,107,50z"/>
<path fill="#CFB57D" d="M107,56h8c0,0.7,0,1.3,0,2l-1,1c-2.7,0.9-5.5,0.6-8-0.7C105.5,57.2,105.1,56.1,107,56z"/>
<path fill="#CCB178" d="M110,69h-8.9c-0.6-3.1,0.8-6.3,3.5-7.9c2.9-0.6,5.8-1.2,8.4,0.9C111.6,64.2,111.8,67,110,69z"/>
<path fill="#CDB279" d="M113,62h-9c-0.5-1.9-0.7-3.6,2-4c2.7,0.2,5.5-0.5,8,1C113.6,60,113.3,61,113,62z"/>
<path fill="#CCB076" d="M93,69c-2.4,2-5.3,0.6-8,1c-1.9-3.1-3.2-6.5-4-10c2.6-2.1,5.4-1.4,8.3-0.9c3.4,1.8,4.2,5,4.4,8.5
	C93.6,68.1,93.4,68.6,93,69z"/>
<path fill="#CFB47C" d="M90,60h-9c-0.3,0-0.6,0-0.9-0.1c-0.3-1.6-0.7-3.3-1.1-4.9c2.4-2,5.1-1.2,7.8-1.1c0.5,0.1,1,0.3,1.5,0.6
	C89.8,56.1,91.3,57.6,90,60z"/>
<path fill="#CEB67F" d="M88,55h-9c-0.3,0-0.6,0-0.9-0.1c-0.3-1.7,0.1-3.4,0.9-4.9c-0.1-0.8,0.3-1.6,1-2c2.5,1.5,5.3,0.8,8,1
	C89.3,51,88.9,53,88,55z"/>
<path fill="#CDBB8A" d="M88,55c-0.8-2,0-4,0-6c1.3-2.5,3-5,3-8c2.7-4.6,7.2-2.6,11-3l2,4l1,4c0.2,0.2,0.3,0.5,0.2,0.8
	c-0.1,0.2-0.2,0.4-0.3,0.4c-2.1-0.2-2.4-2-3.2-3.4c-2.4-3.7-6.5-3.5-8.6,0.4c-1.8,3.4-2.3,7.3-3.8,10.8C88.9,55.3,88.4,55.3,88,55z"
	/>
<path fill="#CEBB88" d="M104.9,47.2c0-0.4,0.1-0.8,0.1-1.2l2,4c0.5,1.6,0.5,3.4,0,5c-0.4,0.3-1,0.3-1.3-0.1c0,0-0.1-0.1-0.1-0.1
	C104.6,52.4,103.3,49.9,104.9,47.2z"/>
<path fill="#CEB883" d="M105.9,55h1.1v1c-0.7,0.4-1.1,1.2-1,2c-0.7,1.3-1.3,2.7-2,4l-3,7l-1,4c-0.3,0.3-0.9,0.3-1.2,0
	c0,0-0.1-0.1-0.1-0.1C98.9,66,100.7,59.8,105.9,55z"/>
<path fill="#CDB179" d="M93,69v-1c0.4-0.4,0.9-0.5,1.4-0.4c2.2,1.1,2.7,3,2.4,5.2c-0.1,0.5-0.4,0.9-0.8,1.3
	C94.4,72.7,94.9,70.2,93,69z"/>
<path fill="#CCB178" d="M96,74.1V73c0.9-0.5,1.9-0.5,2.8,0h1.2C98.9,74.2,98.3,77.4,96,74.1z"/>
<path fill="#CEB984" d="M94.2,68H93c-0.6-2.8-1.6-5.5-3-8l-2-5h1.1C93.5,58.3,95,62.7,94.2,68z"/>
</svg>
