<?xml version="1.0" encoding="utf-8"?>
<!-- Generator: Adobe Illustrator 25.2.1, SVG Export Plug-In . SVG Version: 6.00 Build 0)  -->
<svg version="1.1" id="Layer_1" xmlns="http://www.w3.org/2000/svg" xmlns:xlink="http://www.w3.org/1999/xlink" x="0px" y="0px"
	 viewBox="0 0 1920 1080" enable-background="new 0 0 1920 1080" xml:space="preserve">
<g>
	<g>
		<path fill="#FEFEFE" d="M767.19,335.19c125.87,0,251.75,0.07,377.62-0.19c6.84-0.01,8.2,1.34,8.19,8.19
			c-0.26,131.21-0.26,262.42,0,393.63c0.01,6.84-1.34,8.2-8.19,8.19c-123.21-0.27-246.42-0.27-369.63,0
			c-6.84,0.01-8.2-1.34-8.19-8.19C767.26,602.94,767.19,469.07,767.19,335.19z"/>
		<path fill="#7B612D" d="M946.33,705.12c-1.18-0.44-2.36-0.87-3.54-1.31c-5.18-4.69-11.26-8.43-14.7-14.93
			c-1.28-2.41-2.91-4.36-0.43-6.84c2.89-2.04,6.26-1.99,9.52-1.98c17.12,0.06,34.24-0.18,51.35,0.02c3.59,0.04,7.31-0.22,10.31,2.43
			c0.35,10.8-8.88,14.56-15.55,19.17C972.06,709.45,959.1,708.71,946.33,705.12z"/>
		<path fill="#CDBC8D" d="M837.01,412.96c20.32-8.83,41.04-16.61,61.96-23.89c1.92-1.48,4.08-2.02,6.47-1.64
			c6.46,1.66,13.06,0.7,19.59,1.03c5.25,0.27,10.6,0.28,14.25,5.05c-0.55,5.19-5.07,5.05-8.52,6.26
			c-6.08,2.13-12.64,3.09-17.89,7.26c-7.92,4.71-16.01,8.99-25.47,9.63c-0.97-0.24-1.83-0.71-2.58-1.38c1.31-7.24,8.48-6.11,12.46-9
			c-23.8-2.02-23.8-2.02-54.25,9c-1.92,0.52-3.84,0.93-5.81,0.27c-0.54-0.53-0.75-1.1-0.63-1.69
			C836.71,413.26,836.85,412.96,837.01,412.96z"/>
		<path fill="#CEBB87" d="M824.98,583.18c-4.84-17.97-5.12-36.6-7.68-54.89c-4.32-30.83-7.75-61.79-11.54-92.69
			c-0.57-4.68-1.73-9.68,5.27-10.6c0.74-0.65,1.53-0.71,2.37-0.21c-0.7,4.5-3.98,8.65-1.9,13.56c0.17,3.83,0.47,7.63,1.53,11.33
			c0.57,2.54,0.77,5.1,0.81,7.69c-0.11,6.36,2.15,12.46,2.02,18.81c0.04,3.64,1.19,7.12,1.65,10.69c0.33,4.07,0.31,8.18,1.42,12.16
			c0.56,2.53,0.79,5.1,0.84,7.69c0.03,3.61,0.84,7.1,1.55,10.62c0.66,4.12,0.33,8.3,0.78,12.44c0.8,3.04,1.38,6.12,1.59,9.26
			c0.02,4.72,1.12,9.3,1.87,13.93c0.28,5.3,0.41,10.61,1.73,15.8c0.39,2.2,0.55,4.41,0.5,6.64
			C827.6,578.26,827.54,581.18,824.98,583.18z"/>
		<path fill="#DED4B8" d="M914.79,380.81c37.11-13.13,73.6-10.64,109.48,4.61c2.58,1.1,4.52,3.72,6.76,5.63
			c-0.64,0.79-1.44,1.34-2.41,1.67c-3.73,0.79-6.95-0.56-10.06-2.41c-0.89-0.55-1.69-1.2-2.45-1.91
			c-24.48-11.55-50.25-12.12-76.45-9.14c-7.49,0.85-14.52,4.6-22.32,3.52C916.26,382.43,915.41,381.77,914.79,380.81z"/>
		<path fill="#896E38" d="M946.33,705.12c6.68-1.98,12.83,2.05,19.66,1.33c15-1.58,24.24-10.96,32.96-21.6
			c1.16-3.03,3.11-5.43,5.78-7.27c3.5-2.15,6.37-5.03,9.23-7.94c2.2-1.65,4.06-4.26,7.42-2.76c0.52,0.9,0.45,1.75-0.2,2.55
			c-9.54,10.38-20.75,19-30.92,28.73C977.99,709.89,962.48,712.29,946.33,705.12z"/>
		<path fill="#CDB883" d="M1110.97,493.33c-2.08,27.43-5.23,54.73-10,81.83c-1.23-0.77-1.86-1.95-2.32-3.26
			c-0.58-1.74-0.94-3.51-0.8-5.36c0.75-5.33,1.09-10.7,1.84-16.04c0.69-5.06,1.46-10.1,2-15.18c0.48-4.95,0.5-9.94,1.42-14.85
			c1.44-5.61,0.64-11.47,1.83-17.11c1.12-4.2,1.11-8.52,1.42-12.81c0.76-2.6,0.57-6.02,4.82-5.61
			C1112.06,487.76,1112.29,490.57,1110.97,493.33z"/>
		<path fill="#CDBB89" d="M1110.97,493.33c-0.06-2.78-0.12-5.55-0.18-8.33c-0.77-0.74-1.34-1.61-1.74-2.6
			c-0.64-2.04-0.73-4.13-0.65-6.24c0.74-5.63,1.88-11.2,2.24-16.88c1.03-4.44,1.67-8.92,1.62-13.49c0.02-1.46,0.18-2.91,0.44-4.34
			c4.73-8.37-3.03-12.51-6.19-18.22c0.75-0.74,1.55-0.8,2.41-0.2c8.25,0.97,11.8,4.45,9.97,13.69
			C1115.19,455.41,1115.31,474.69,1110.97,493.33z"/>
		<path fill="#CDBC8D" d="M1045.06,396.94c16.59,4.39,32.18,11.46,47.98,17.98c0.61,0.89,0.57,1.75-0.13,2.58
			c-3.02,0.98-5.78-0.17-8.57-1.04c-11.42-4.75-23.16-8.72-34.59-13.47c-2.21-1.04-4.37-2.14-5.21-4.7
			C1044.7,397.84,1044.88,397.39,1045.06,396.94z"/>
		<path fill="#9E834A" d="M870.88,639.44c-11.2-6.67-18.72-17.28-27.97-26.04c-0.57-0.82-0.52-1.6,0.16-2.34
			c5.63-1.17,7.39,4.12,10.91,6.49c1.85,1.88,4.12,3.25,6.04,5.05c2.43,3.16,5,6.2,7.91,8.95c1.55,1.65,3.19,3.24,3.9,5.49
			C871.9,637.99,871.56,638.78,870.88,639.44z"/>
		<path fill="#957A42" d="M870.88,639.44c0.08-0.85,0.15-1.7,0.23-2.54c5.64-0.96,7.47,4.33,11.07,6.72
			c4.64,4.1,10.11,7.29,13.78,12.46c1.4,2.25,3.09,4.36,3.87,6.96c0.03,0.93-0.3,1.72-0.98,2.36
			C889.53,656.74,880.21,648.09,870.88,639.44z"/>
		<path fill="#7F6430" d="M927.03,684.86c5.25,6.31,10.5,12.63,15.75,18.94c-8.06-3.15-13.09-9.66-18.02-16.27
			c-0.49-0.53-0.7-1.08-0.62-1.67c0.08-0.6,0.19-0.91,0.33-0.91C925.31,684.31,926.16,684.26,927.03,684.86z"/>
		<path fill="#C2A56A" d="M1100.56,570.87c0.14,1.43,0.27,2.86,0.41,4.3c-0.53,8.74-0.23,17.6-4.1,25.81
			c-0.76-0.63-1.34-1.4-1.71-2.31c-1.45-4.77,0.05-9.51,0.09-14.28c0.12-3.34,0.97-6.56,1.54-9.83
			C1097.43,572.69,1098.01,570.76,1100.56,570.87z"/>
		<path fill="#E0D6B8" d="M1092.96,417.1c0.02-0.73,0.04-1.45,0.07-2.18c5.86,1.61,12.96,0.78,15.91,8.11
			c-0.67,0.09-1.35,0.19-2.02,0.28c-0.72,0.66-1.56,1.08-2.52,1.26C1099.51,423.71,1095.49,421.55,1092.96,417.1z"/>
		<path fill="#B0945A" d="M824.98,583.18c0.06-2.74,0.12-5.47,0.19-8.21c3.88-0.23,3.62,2.91,4.32,5.27c0.23,1.99,0.21,4,0.22,6
			c-0.08,3.41,1.1,6.65,1.4,10.02c0.02,1-0.1,1.97-0.36,2.94c-0.38,0.94-0.99,1.7-1.83,2.27
			C823.03,596.36,826.17,589.3,824.98,583.18z"/>
		<path fill="#9C7F47" d="M1077.14,617.51c-5.17,4.15-7.32,11.34-14.05,13.92c-0.69-0.67-0.99-1.49-0.95-2.45
			c1.72-4.36,4.61-7.91,7.77-11.29c2.2-1.67,4.05-4.29,7.43-2.75C1077.85,615.85,1077.79,616.7,1077.14,617.51z"/>
		<path fill="#8E723C" d="M1021.17,669.43c-0.08-0.85-0.16-1.7-0.25-2.55c1.91-5.19,6.13-8.73,9.29-13.03
			c1.58-1.11,3.17-2.12,5.16-0.94c0.51,0.9,0.44,1.75-0.22,2.55C1032.07,661.69,1027.13,666.07,1021.17,669.43z"/>
		<path fill="#92773F" d="M1035.16,655.46c-0.08-0.86-0.16-1.71-0.25-2.57c1.53-5.06,5.95-7.69,9.35-11.19
			c1.61-0.99,3.22-1.99,5.14-0.73c0.51,0.9,0.4,1.73-0.25,2.51C1045,648.07,1040.64,652.42,1035.16,655.46z"/>
		<path fill="#A68A50" d="M828.92,601.47c0.1-0.85,0.21-1.7,0.31-2.54c7.2,0.13,9.85,6.11,13.66,10.61c0.1,0.46,0.18,0.93,0.27,1.39
			c-0.08,0.82-0.16,1.65-0.25,2.47C837.3,610.53,833.09,606.03,828.92,601.47z"/>
		<path fill="#997E45" d="M1049.15,643.48c-0.09-0.86-0.17-1.72-0.26-2.58c0.6-3.25,3.25-5.03,5.21-7.32c2.68-2,4.4-5.85,8.77-4.65
			c0.07,0.83,0.15,1.67,0.22,2.5C1059.06,636.16,1054.64,640.44,1049.15,643.48z"/>
		<path fill="#856A34" d="M925.06,684.86c-0.1,0.89-0.2,1.78-0.29,2.67c-5.46-3.05-9.79-7.43-14-11.94c-0.51-0.5-0.72-1.03-0.65-1.6
			c0.07-0.59,0.18-0.89,0.32-0.89c4.62-1.95,6.48,2.16,9.28,4.22C921.71,679.67,924.44,681.52,925.06,684.86z"/>
		<path fill="#DDD3B6" d="M905,389.06c-2.01,0-4.02,0.01-6.03,0.01c2.89-7.32,10.11-6.35,15.83-8.25c0,0,0.38,0.56,0.38,0.56
			c0.28,3.43-2.62,3.96-4.72,5.22C908.62,387.36,906.89,388.39,905,389.06z"/>
		<path fill="#A88C52" d="M1077.14,617.51c-0.09-0.86-0.19-1.72-0.28-2.59c0.31-2.22,1.87-3.66,3.26-5.21
			c2.14-2.04,4.05-4.38,7.02-5.33c0.9-0.1,1.69,0.15,2.37,0.75c0.43,0.86,0.28,1.63-0.37,2.32
			C1085.54,611.3,1082.03,615.22,1077.14,617.51z"/>
		<path fill="#8B6F39" d="M911.07,672.87c-0.1,0.91-0.2,1.81-0.3,2.72c-4.7-2.55-8.47-6.17-11.9-10.19
			c0.07-0.84,0.15-1.68,0.22-2.51c4.33-1.18,6,2.6,8.63,4.6C909.16,669.06,910.75,670.58,911.07,672.87z"/>
		<path fill="#DED2B2" d="M837.01,412.96c0.02,0.71,0.05,1.43,0.07,2.14c-3.69,4.4-8.63,5.58-14.08,5.42
			c-0.93-0.33-1.65-0.91-2.18-1.75C825.72,415.44,831.14,413.58,837.01,412.96z"/>
		<path fill="#CDBC8D" d="M1029,391.29c0.68-0.08,1.36-0.16,2.03-0.24c4.86,1.52,10,2.37,14.03,5.89c0,0-0.21,0.29-0.21,0.29
			C1037.85,399.84,1032.15,398.95,1029,391.29z"/>
		<path fill="#DED2B2" d="M813.09,425.26c-0.69-0.09-1.37-0.18-2.06-0.27c3.04-2.42,5.16-6.3,9.79-6.21c0,0,0.49,0.52,0.49,0.52
			c0.67,0.85,0.88,1.8,0.64,2.86C819.83,425.54,817.21,427.54,813.09,425.26z"/>
		<path fill="#BB9F64" d="M1089.13,607.46c-0.08-0.83-0.16-1.66-0.25-2.49c1.26-3.8,3.21-6.7,7.86-6.17
			c0.04,0.72,0.09,1.45,0.13,2.17C1094.99,603.96,1092.42,606.15,1089.13,607.46z"/>
		<path fill="#7D632F" d="M925.06,684.86c-2.69-1.31-4.69-3.3-5.99-5.99c6.43-4.61,14.2-2.22,21.16-4.06
			c1.13-0.03,2.26,0.1,3.36,0.33c11.63,1.38,23.25,1.65,34.85-0.44c2.28-0.35,4.56-0.34,6.85-0.04c6.36,2.34,13.84-0.52,19.68,4.22
			c-1.33,2.68-3.32,4.68-6.02,5.97c-1.64-2.14-4-1.97-6.3-1.97c-19.77,0-39.54,0-59.31,0c-2.31,0-4.67-0.15-6.29,2
			C926.37,684.86,925.72,684.86,925.06,684.86z"/>
		<path fill="#FEFEFE" d="M887.11,415.16c8.26-2.6,16.54-5.15,23.98-9.75c28.66-12.7,58.01-16.61,88.41-6.91
			c0.99,0.17,1.96,0.47,2.89,0.84c4.94,2.64,10.26,4.35,15.62,5.95c0.88,0.28,1.73,0.63,2.57,1.02c7.47,3.43,15.32,5.96,22.81,9.37
			c4.7,3.51,9.64,6.55,15.47,7.83c6.93,2.45,13.62,5.55,20.72,7.57c0.92,0.3,1.81,0.67,2.69,1.08c3.54,1.97,7.6,2.63,11.17,4.56
			c4.55,2.78,5.28,6.73,4.85,11.9c-2.12,25.29-7,50.23-9.31,75.49c-1.53,4.2-1.35,8.63-1.62,13c-1.43,5.76-2.01,11.62-1.97,17.54
			c-1.84,9.68-3.15,19.44-4.24,29.23c-0.15,0.99-0.45,1.94-0.84,2.87c-1.9,3.31-4.01,6.48-6.58,9.32
			c-6.03,4.06-10.89,9.49-16.41,14.15c-9.7,6.67-17.64,15.23-25.65,23.73c-5.59,3.14-9.31,8.47-14.34,12.28
			c-10.15,6.63-17.47,16.33-26.34,24.36c-3.83,1.22-6.6,7.88-11.78,2.34c-1.8-6.81-0.64-13.77-1.05-20.65
			c0.05-12.32-0.16-24.64,0.08-36.96c0.21-10.77,2.19-12.47,12.95-13.19c4.33-0.29,10.64,2.16,12.13-3.83
			c1.75-6.99,1.98-14.59-0.39-21.63c-0.9-2.69-4.58-2.39-7.15-2.42c-21.97-0.27-43.94-0.26-65.92-0.04
			c-5.81,0.06-8.59,2.59-8.04,8.56c0.18,1.98,0,3.99,0,5.99c0.03,12.55,0.02,12.71,12.33,13.42c6.41,0.37,11.39,2.17,11.4,9.55
			c0.03,20.28,1.26,40.58-0.66,60.82c-0.4,1-1.05,1.84-1.9,2.5c-8.52-0.65-12.79-7.86-17.84-12.92
			c-11.47-11.5-24.19-21.45-36.5-31.91c-4.68-5.03-8.36-11.07-14.71-14.4c-7.05-6.97-15.08-12.83-22.39-19.5
			c-2.99-2.73-5.63-5.57-6.72-9.58c-5.81-32.8-8.66-65.99-13.55-98.9c-1.18-13.53-4.17-26.83-5.08-40.42
			c-0.4-5.92,1.75-9.2,7.1-11.51c11.9-5.13,24.16-9.29,36.17-14.09C875.42,419.69,880.58,415.57,887.11,415.16z"/>
		<path fill="#CDBC8D" d="M905,389.06c0.11-2.59,1.46-3.9,4.06-3.91c30.45-2.37,60.95-0.85,91.42-1.02
			c6.39-0.04,13.44-0.65,18.54,4.97l0.02-0.03c-0.39,5.24-4.74,5.27-7.99,5.01c-8.64-0.69-17,0.74-25.43,2.04
			c-15.48-2.95-31.05-1.35-46.59-1.03c-5.91-4.8-12.98-3.63-19.81-4.05C914.45,390.76,909.26,393,905,389.06z"/>
		<path fill="#CDBB89" d="M841.14,413.19c6.78-2.43,13.83-4.31,20.29-7.41c13.99-6.72,27.92-0.95,44.27-2.47
			c-7.36,7.17-15.5,6.6-20.64,11.62c-4.69,2.6-9.49,4.87-14.96,5.28c-6.2-0.42-12.45,0.17-18.61-0.51
			C847.18,419.22,841.93,419.55,841.14,413.19z"/>
		<path fill="#CEBB87" d="M841.14,413.19c4.31,5.04,10.21,3.52,15.71,4c4.77,0.42,9.97-1.92,14.26,1.96
			c-0.07,0.51-0.14,1.01-0.21,1.52c-5.34,5.17-11.78,7.64-19.18,7.74c-6.52-0.97-13.09-0.16-19.62-0.62
			c-4.79-0.34-9.14-1.37-10.92-6.65c-0.04-0.62,0-1.23,0.13-1.84c5.26-1.4,10.51-2.79,15.77-4.19
			C838.44,414.47,839.79,413.83,841.14,413.19z"/>
		<path fill="#CDBD8F" d="M939.02,395.1c15.99-3.12,31.98-2.12,47.96,0.03c5.95,0.38,13.07-2.22,15.91,6.18
			c-7.81-1.44-15.63-2.84-23.43-4.32c-23.69-4.48-46.05,1.78-68.36,8.42C919.08,398.39,929.59,398.22,939.02,395.1z"/>
		<path fill="#E0D5B7" d="M871.11,419.15c4.49-1.92,8.98-3.87,13.95-4.22c0.68,0.08,1.37,0.15,2.05,0.23
			c-5.1,3.09-9.78,7.01-15.9,8.1c-1.29-1.35-1.27-2.73-0.08-4.14L871.11,419.15z"/>
		<path fill="#CEB984" d="M821.19,421.13c5.06,5.05,11.54,3.63,17.69,4.06c4.75,0.34,9.93-1.91,14.22,1.91
			c-7.48,7.5-17.81,8.72-27.09,12.27c-5.82,0.72-11.66,1.71-16.84-2.26c-2.53-5.22-1.17-9.15,3.91-11.85
			C816.2,424.69,819.1,423.71,821.19,421.13z"/>
		<path fill="#CDB177" d="M813.24,477.09c-0.67-6.65-1.34-13.31-2.01-19.96c4.91-3.75,10.09-3.53,15.42-1.05
			c4.21,7.21,5.71,14.68,2.2,22.66C823.44,480.28,818.11,480.83,813.24,477.09z"/>
		<path fill="#B0945A" d="M825.13,568.97c-3.01-5.04-1.82-10.59-1.96-15.98c4.9-3.71,10.1-3.38,15.45-1.15
			c2.89,6.05,6.44,12.04,2.02,18.9C835.24,572.17,829.94,572.69,825.13,568.97z"/>
		<path fill="#B6985D" d="M839.13,552.99c-5.32,0-10.64,0-15.96,0.01c-1.19-4.58-2.66-9.13-1.97-13.97
			c6.16-3.89,12.14-4.16,17.85,0.9C839.66,544.27,842.25,548.61,839.13,552.99z"/>
		<path fill="#C6A96E" d="M817.09,499.06c-3.48-3.55-1.32-7.98-1.85-11.98c5.01-3.74,10.22-3.53,15.56-0.79
			c2.5,4.24,4.68,8.54,2.06,13.57C827.44,502.72,822.17,502.7,817.09,499.06z"/>
		<path fill="#CEB781" d="M809.18,437.11c5.98,0,11.97-0.01,17.95-0.01c-1.91,4.33,3.13,9.27-1.17,13.41
			c-5.16,1.83-10.18,2.16-14.81-1.42C807.55,445.58,809.8,441.11,809.18,437.11z"/>
		<path fill="#BC9F64" d="M838.96,541.04c-5.6-3.47-11.82-1.55-17.76-2.02c-0.62-2.69-1.24-5.38-1.86-8.07
			c3.59-7.34,9.61-7.33,16.28-5.4C839.18,530.18,839.16,535.59,838.96,541.04z"/>
		<path fill="#A98C52" d="M825.13,568.97c5.34,0,10.68,0,16.02,0c3.1,4,4.38,8.22,1.59,12.95c-5.35,2.54-10.55,2.75-15.52-0.94
			c-0.15-2.19,0.27-4.56-2.05-6.01C825.15,572.97,825.14,570.97,825.13,568.97z"/>
		<path fill="#BEA166" d="M835.14,527.01c-5.63-0.11-11.37-0.71-15.8,3.95c-0.05-4.64-0.1-9.28-0.15-13.92
			c4.58-3.83,9.64-3.03,14.77-1.55C838.11,518.93,838.69,522.76,835.14,527.01z"/>
		<path fill="#C2A56B" d="M835.05,517.04c-5.29,0-10.58-0.01-15.87-0.01c-1.96-3.08-2.24-6.48-1.95-9.99
			c4.4-3.61,9.44-2.9,14.48-2.14C837.76,507.58,836.16,512.38,835.05,517.04z"/>
		<path fill="#CAAD72" d="M831.05,487.05c-5.27,0.01-10.54,0.02-15.81,0.02c-0.66-3.33-1.33-6.66-1.99-9.98
			c5.29-0.01,10.57-0.02,15.86-0.03c3.97,1.98,2.92,5.59,2.86,8.87C831.66,486.31,831.35,486.68,831.05,487.05z"/>
		<path fill="#C4A76C" d="M833.19,507.01c-5.32,0.01-10.64,0.02-15.96,0.02c-0.05-2.66-0.09-5.32-0.14-7.98
			c5.32,0,10.63,0,15.95-0.01C834.58,501.68,835.11,504.32,833.19,507.01z"/>
		<path fill="#D0B780" d="M811.15,449.09c5.31,0,10.61,0,15.92,0c1.55,2.68,1.56,5.36-0.01,8.04c-5.27,0-10.55,0-15.82,0
			C811.2,454.45,811.18,451.77,811.15,449.09z"/>
		<path fill="#CDBD8F" d="M1019.01,389.1c-3.92-2.32-8.24-1.97-12.53-1.97c-29.05,0.01-58.11,0.05-87.16-0.05
			c-3.47-0.01-7.35,1.31-10.27-1.93c2.04-1.26,4.08-2.52,6.12-3.78c19.1-4.42,38.32-7.61,58.07-6.28
			c13.98,0.95,27.49,3.94,40.63,8.67C1016.36,384.67,1018.95,385.74,1019.01,389.1z"/>
		<path fill="#CDBC8D" d="M1002.89,401.3c-4.3-4.64-10.99-3.11-15.91-6.17c6.41-5.16,14.01-4.31,21.33-3.69
			c4.04,0.34,7.63,0.69,10.72-2.36c3.32,0.74,6.64,1.47,9.96,2.21c4.49,4.1,10.11,5.18,15.85,5.95c1.35,1.3,2.71,2.6,4.06,3.9
			c-4.18,5.78-10.5,4.5-16.27,4.79c-4.27,0.21-8.55,0.21-12.82,0.35c-6.01-0.5-11.36-3.26-16.99-5.06L1002.89,401.3z"/>
		<path fill="#846934" d="M1030.91,654.89c-2.16,4.97-5.1,9.29-9.99,11.98c-2,1.33-4,2.67-6.01,4c-6.46,1.44-12.85,1.35-19.15-0.85
			c0.59-10.27,8.03-14.53,16.06-18.3C1018.18,652.86,1025.14,650.3,1030.91,654.89z"/>
		<path fill="#7F6430" d="M994.96,668.87c6.66,0.58,13.59-1.54,19.96,2c-2.49,3.7-4.91,7.47-9.95,8c-6.67-0.58-13.61,1.53-19.98-2
			c-0.68-5.7,4.79-5.79,7.58-8.33C993.45,668.05,994.25,668.17,994.96,668.87z"/>
		<path fill="#C2A56A" d="M1106.89,503.04c-0.95,5.96,1.91,12.36-2.04,17.98c-5.02,3.67-10.25,3.6-15.63,0.9
			c-4.18-7.5,2.31-14.61,0.81-22.02C1096.34,497.22,1101.61,500.17,1106.89,503.04z"/>
		<path fill="#B1955B" d="M1100.84,550.97c0.58,5.5,1.21,11.01-1.93,16.06c-5.86,0.91-11.54,1.05-16.18-3.57
			c-0.95-3.23,2.06-5.95,1.17-9.18c0.28-2.66-0.74-5.48,1.06-7.94C1090.87,545.79,1097.26,543.58,1100.84,550.97z"/>
		<path fill="#BC9E63" d="M1088.95,521.05c5.3-0.01,10.6-0.02,15.91-0.03c-0.32,5.37,1.06,10.96-2,15.98
			c-4.28,3.63-9.14,2.74-14,1.83c-1.02-0.36-1.86-0.99-2.51-1.84c-0.54-4.03-1.29-8.1,1.26-11.81
			C1087.98,523.78,1087.71,522.16,1088.95,521.05z"/>
		<path fill="#B79B62" d="M1086.96,536.98c5.3,0.01,10.6,0.01,15.9,0.02c-0.13,4.73,1.57,9.73-2.02,13.97
			c-4.74-3.47-10.85-1.46-15.83-3.94C1082.67,543.1,1086.15,540.3,1086.96,536.98z"/>
		<path fill="#C6A96F" d="M1106.89,503.04c-5.63,0.11-11.4,0.73-15.84-3.96c-0.26-3.44,0.41-6.6,2.72-9.3
			c5.23-2.07,10.31-2.36,15.05,1.27C1108.19,495.05,1110.43,499.51,1106.89,503.04z"/>
		<path fill="#AC8F55" d="M1083.07,563.02c4.98,2.54,11.14,0.41,15.85,4.01c0.55,1.28,1.1,2.56,1.65,3.84
			c-0.6,1.37-1.2,2.74-1.81,4.12c-5.21,3.78-10.55,3.66-16,0.57C1081.4,571.35,1081.16,567.16,1083.07,563.02z"/>
		<path fill="#C9AC72" d="M1108.83,491.05c-5.29,0-10.58,0.01-15.88,0.01c-1.39-3.95-2.47-7.87,1.29-11.23
			c6.19-2.43,11.66-1.21,16.51,3.23c0.02,0.65,0.04,1.3,0.04,1.94C1108.54,486.5,1108.93,488.85,1108.83,491.05z"/>
		<path fill="#CDB883" d="M1104.85,423.14c0.69,0.06,1.38,0.11,2.07,0.17c8,3.54,13.6,8.15,7.93,17.79
			c-4.36,3.58-9.29,2.86-14.25,1.87c-3.48-2.11-6.19-5.39-10.15-6.79c-3.47-0.21-6.44-2.01-9.68-2.99l0.08,0.06
			c-2.03-2.12-6.95-1.27-6.29-6.15c6.4-7.82,15.04-4.08,22.88-4.38C1099.89,422.62,1102.23,425.27,1104.85,423.14z"/>
		<path fill="#CDB177" d="M1112.82,459.09c0.91,6.18-1.39,11.99-2.04,17.98c-5.13,3.65-10.46,2.28-15.81,0.66
			c-3.14-6.83,0.83-12.93,1.98-19.33C1102.38,455.52,1107.69,455.06,1112.82,459.09z"/>
		<path fill="#D0B67F" d="M1112.82,459.09c-5.29,0.01-10.58,0.02-15.86,0.03c-2.52-5.47-0.28-10.21,2.25-14.92
			c5.3-1.55,10.54-2.15,15.58,0.89C1114.71,449.85,1115.6,454.73,1112.82,459.09z"/>
		<path fill="#CAAE73" d="M1094.95,477.08c5.28,0,10.56,0,15.83,0c-0.01,1.99-0.02,3.99-0.02,5.98c-5.36-0.16-10.39-3-15.9-2.01
			C1093.63,479.7,1093.77,478.38,1094.95,477.08z"/>
		<path fill="#CEB782" d="M1114.79,445.1c-5.28,0-10.57,0-15.85,0c-1.22-1.33-1.23-2.66-0.03-4c5.31,0,10.62,0,15.93,0
			C1114.82,442.43,1114.8,443.76,1114.79,445.1z"/>
		<path fill="#CDBB89" d="M1018.95,405.14c9.56-4.52,20.38,0.35,29.96-4c12.53,3.28,24.62,7.68,35.97,13.98
			c-2.49,5.34-7.52,4.26-11.94,4.69c-5.09,0.49-10.58-1.01-14.92,3.08c-5.5,1.03-8.72-3.73-13.22-5.24
			c-8.24-4.53-17.27-7.09-25.99-10.43l0.02,0.07c-0.6-0.51-0.78-1-0.55-1.46C1018.51,405.36,1018.73,405.14,1018.95,405.14z"/>
		<path fill="#CEBB88" d="M1056.9,423.08c-0.49-5.89,3.36-5.87,7.65-6.04c6.8-0.28,13.84,1.63,20.33-1.92
			c2.94-0.32,5.54,0.71,8.09,1.98c3.96,2.01,7.92,4.02,11.88,6.04c-6.29,4.02-13.25,1.25-19.87,1.91
			c-3.84,0.38-7.99-0.54-10.07,4.04c-6.07,1.44-10.3-3.33-15.57-4.59C1058.42,424.19,1057.61,423.73,1056.9,423.08z"/>
		<path fill="#8E723B" d="M881.13,644.91c-3.34-2.67-6.68-5.34-10.02-8.01c-1.33-1.33-2.65-2.66-3.98-3.99
			c5.71-4.49,12.74-2.15,19.02-3.66c7.68,2.67,14.28,6.53,16.52,15.16C895.61,649.62,888.39,648.17,881.13,644.91z"/>
		<path fill="#977B43" d="M875.55,614.72c6.1,3.22,10.86,7.8,14.05,13.95c-0.65,0.8-1.5,1.17-2.52,1.17
			c-5.15-0.34-6.5-5.51-10.05-7.87c-3.97-3.67-8.26-0.07-12.39-0.51c-3.95-0.42-8-0.13-11.49-2.53c-3.33-2.67-6.66-5.33-9.98-8
			c0,0,0-0.02,0-0.02c0.53-5.27,4.91-4.05,8.04-4.55c3.47-0.56,7.04-0.14,10.55-0.52C868.17,605.97,870,613.23,875.55,614.72z"/>
		<path fill="#92773F" d="M879.09,620.95c2.65,2.67,5.31,5.34,7.96,8.02c0.67,0.43,0.89,0.86,0.68,1.29
			c-0.22,0.44-0.43,0.66-0.65,0.66c-6.36,3.53-13.28,1.43-19.94,2c-3.72-2.5-7.53-4.91-8.04-9.99
			C865.51,619.72,872.28,620.15,879.09,620.95z"/>
		<path fill="#957A42" d="M879.09,620.95c-6.33,4.03-13.36,1.07-20,1.98c-2.86-0.03-4.84-1.36-5.95-4c6.23-0.5,12.57,1.11,18.7-1.31
			C875.23,616.27,877.58,617.86,879.09,620.95z"/>
		<path fill="#856A34" d="M907.1,668.88c-2.67-2-5.34-4-8.01-6c-2.65-1.13-3.99-3.12-4-6.01c3.75-8.14,11.62-3.12,17.21-5.41
			c9.29,1.61,12.47,9.2,16.04,16.43C921.35,670.49,914.25,670.31,907.1,668.88z"/>
		<path fill="#886C37" d="M913.05,652.86c-5.16,5.06-12.79-0.97-17.97,4.01c-4.65-3.99-9.3-7.98-13.95-11.97
			c7.3-0.68,14.88,1.67,21.91-1.99C908.76,643.82,911.99,647.25,913.05,652.86z"/>
		<path fill="#A0844B" d="M1096.75,598.8c-2.62,2.06-5.24,4.11-7.86,6.17c0,0-0.06-0.09-0.06-0.09c-6.22-2.07-13.01-0.17-19.15-2.79
			c-3.22-5.16,3.57-4.3,4.28-7.1c2.51-2.21,3.35-5.37,4.68-8.26l-0.06,0.02c1.35-0.99,1.96-2.77,3.65-3.4
			c5.07-1.4,10.05-2,14.55,1.64C1096.77,589.6,1096.76,594.2,1096.75,598.8z"/>
		<path fill="#A88C52" d="M1096.79,584.99c-5.27,0-10.54,0-15.82-0.01c-0.96-3.63-3.26-7.51,1.83-10.04
			c5.32,0.01,10.64,0.03,15.96,0.04C1098.1,578.32,1097.44,581.65,1096.79,584.99z"/>
		<path fill="#9E834A" d="M863.11,606.99c-5.92,5.03-14.04-1.17-19.96,3.91c-4.64-3.99-9.29-7.99-13.93-11.98
			c-0.02-0.65-0.03-1.3-0.02-1.96c5.02-4.24,11.34-2.07,16.94-3.45C854.47,594.64,858.55,601.12,863.11,606.99z"/>
		<path fill="#A2874D" d="M847.11,594.94c-5.59,4.02-11.97,1.09-17.91,2.02c-0.65-3.33-1.3-6.65-1.96-9.98
			c4.34-3.63,9.27-2.86,14.22-1.93c1.56,0.51,2.86,1.41,3.76,2.8C846.27,590.11,848.2,592.13,847.11,594.94z"/>
		<path fill="#A68A50" d="M843.05,586.96c-5.27,0.01-10.54,0.02-15.8,0.02c-0.01-2-0.02-4.01-0.03-6.01
			c5.4-0.03,10.79-0.07,16.18-0.1C846.94,583.11,845,585.04,843.05,586.96z"/>
		<path fill="#92773F" d="M1062.88,628.92c-2.66,1.99-5.33,3.98-7.99,5.97c-6.43,0.55-13.13,2.51-18.33-3.46
			c1.04-8.28,6.99-11.95,13.87-14.75c6.95-0.48,14.06-2.44,20.44,2.26C1068.12,622.21,1066.96,626.73,1062.88,628.92z"/>
		<path fill="#987D45" d="M1070.86,618.94c-7.32,0-14.63,0-21.95,0c0.24-6.93,6.71-7.87,10.75-11.15c0.94-0.53,1.94-0.9,2.99-1.15
			c6.36,0.18,13.49-2.89,18.19,4.29c-0.76,1.9-2.09,3.23-3.99,4C1074.86,616.26,1072.86,617.6,1070.86,618.94z"/>
		<path fill="#896E38" d="M1030.91,654.89c-6.63-0.9-13.65,2.04-19.98-1.97c-0.67-6.15,5.77-5.9,8.27-9.21
			c1.63-1.48,3.4-2.66,5.59-3.14c6.82-0.22,13.86-2.41,20.09,2.32c-2.57,4.09-5.9,7.41-9.99,9.98
			C1033.58,653.56,1032.25,654.23,1030.91,654.89z"/>
		<path fill="#8E723C" d="M1044.9,642.91c-7.32,0-14.64,0-21.96,0c-0.1-6.37,5.75-7.32,9.36-10.31c1.36-1.06,2.44-2.91,4.63-1.68
			c5.34,4.24,12.67-0.53,17.95,3.97c-1.3,2.7-3.31,4.69-5.99,6.01C1047.56,641.57,1046.23,642.24,1044.9,642.91z"/>
		<path fill="#7F6430" d="M907.1,668.88c7.03-3.7,14.61-1.33,21.91-1.99c6.03-0.54,7.14,6.86,12.34,7.65l0.06-0.24
			c0.65,0.91,0.56,1.74-0.25,2.5c-7.17,2.76-14.67,1.98-22.1,2.06c-2.67-2-5.33-4-8-6C909.74,671.54,908.42,670.21,907.1,668.88z"/>
		<path fill="#9C7F47" d="M1080.85,610.92c-6.37-3.53-13.3-1.4-19.96-2c0.5-4.85,3.05-7.63,8.03-7.97
			c6.61,1.44,14.5-3.59,19.91,3.92C1086.17,606.89,1083.51,608.91,1080.85,610.92z"/>
		<path fill="#AC8F55" d="M941.16,676.81c0.08-0.83,0.17-1.67,0.25-2.5c2.36-2.09,1.67-4.9,1.68-7.49
			c0.1-17.98-0.02-35.96,0.29-53.93c0.09-5.55-0.76-8.33-7.42-8.39c-17.38-0.18-17.38-0.53-17.27-18.11
			c0.1-15.1,0.1-15.1,15.57-15.1c21.3,0,42.61,0.24,63.91-0.14c6.48-0.11,9.37,1.68,8.39,8.32c-0.19,1.3,0.02,2.66-0.02,3.99
			c-0.22,6.6,1.77,14.67-1.32,19.4c-3.19,4.87-11.75,1.61-17.91,1.66c-5.77,0.05-6.36,2.86-6.33,7.48
			c0.1,13.64-0.1,27.28-0.18,40.92c-1.13,0.57-2.07,0.35-2.82-0.68c-1.97-3.52-1.63-7.39-1.7-11.19c-0.05-3.2-0.04-6.39,0.01-9.59
			c-0.03-1.59-0.01-3.17,0-4.76c-0.04-3.17-0.01-6.34,0.01-9.51c-0.05-2.14-0.07-4.27,0.03-6.41c-0.01-2.16,0.24-4.28,0.94-6.32
			c2.3-5.36,7.06-5.73,12-6.19c3.57-0.33,7.93,1.63,10.32-2.92c0.48-2.45,0.62-4.91,0.41-7.39c-0.82-5.14-4.65-5.94-8.84-5.98
			c-19.47-0.17-38.94-0.16-58.4,0c-4.2,0.04-8,0.87-8.78,6c-0.19,2.48-0.06,4.95,0.38,7.39c2.46,4.65,6.9,2.63,10.48,2.9
			c5.4,0.42,10.34,1.31,13.38,6.44c0.99,2.07,1.36,4.27,1.42,6.54c0.26,2.36,0.01,4.7-0.17,7.04c-3.13,14.15-1.14,28.49-1.69,42.73
			c-0.17,4.31,0.37,8.65-0.78,12.9c-0.78,1.73-1.64,3.35-3.99,2.96C942.41,676.83,941.79,676.81,941.16,676.81z"/>
		<path fill="#7F6430" d="M943.03,676.89c0.68-0.66,1.35-1.33,2.03-1.99c0.91-1.46,1.68-3.04,3.43-3.71
			c9.65-1.76,19.3-1.85,28.95,0.02c1.09,0.52,1.87,1.33,2.35,2.43c0.22,1.2-0.05,2.28-0.81,3.23
			C966.99,680.04,955.01,680.14,943.03,676.89z"/>
		<path fill="#846934" d="M978.97,676.87c0.01-0.68,0.02-1.36,0.03-2.04c0.75-1.05,1.57-1.12,2.47-0.2
			c2.96-2.01,5.93-4.01,8.89-6.02c0.99-0.75,1.87-0.64,2.63,0.35c-2.5,2.82-6.6,4.01-8.02,7.91
			C982.98,676.87,980.98,676.87,978.97,676.87z"/>
		<path fill="#CCB177" d="M910.9,555.3c-7.74-1.71-15.52-3.25-23.2-5.19c-3.98-1-7.46-3.22-8.37-7.64
			c-4.68-22.64-9.29-45.3-13.78-67.98c-0.21-1.05,0.89-2.37,1.38-3.56c7.23-5.26,14.71-9.97,23.87-11.11
			c9.8,1.21,19.8-1.2,29.51,1.69c27.8,0.9,55.58,1.11,83.36-0.12c7.02-2.11,14.16-1.32,21.28-0.8c7.19,1.47,12.09,7.03,18.26,10.33
			c17.62,9.09,18.42,10.81,13.79,29.23c-3.31,13.19-6.81,26.33-9.8,39.59c-1.14,5.08-3.39,8.76-8.38,10.06
			c-10.18,2.64-20.41,5.02-30,9.52c-5.69,2.67-8.27,1.42-8.25-5.59c0.03-12.95-0.34-12.96-13.58-12.96
			c-16.96,0-33.94,0.52-50.87-0.21c-9.19-0.4-12.55,2.34-11.6,11.58c0.3,2.89,3.84,11.37-5.9,7.08c2.59-5.19,1.6-10.55,0.72-15.93
			c0.11-3.26,1.69-5.42,4.81-6.42c24.72-1.31,49.46-0.71,74.16-0.37c5.27,0.81,6.67,4.67,7.25,9.22c0.41,3.25,1.62,6.06,5.58,5.23
			c8.38-1.77,16.84-3.31,24.94-6.16c4.09-1.44,5.43-5.51,6.81-9.25c1.15-2.65,1.59-5.51,2.31-8.28c0.97-3.15,1.27-6.46,2.06-9.65
			c0.65-2.23,1.4-4.42,2.07-6.65c0.86-2.63,1.35-5.36,2.04-8.04c0.84-2.69,1.28-5.47,1.94-8.19c1.34-4.35,1.12-8.43-2.05-12.02
			c-2.85-2.64-6.22-3.64-10.04-3.5c-52.01,1.87-104.03,0.26-156.05,0.96c-4.08,0.06-9.58-2.28-11.82,3.95
			c0.08,2.53,0.27,5.06,0.43,7.58c0.02,2.45,0.81,4.77,1.33,7.14c0.65,3.28,1.65,6.48,2.25,9.77c0.39,2.82,1.07,5.58,1.71,8.34
			c0.49,2.8,0.91,5.62,1.71,8.36c0.8,3.24,0.91,6.63,2.03,9.81c1,6.84,5.43,9.98,11.74,11.72c5.65,1.55,11.84,1.72,16.66,5.75
			C911.63,553.55,911.52,554.46,910.9,555.3z"/>
		<path fill="#D0BE8E" d="M985.67,436.14c-16.54,0-30.95,0-46.44,0c4.02-7.88,10.24-12.9,14.31-19.55
			c6.68-10.93,8.36-10.62,16.98-0.67C975.64,421.82,979.95,428.43,985.67,436.14z"/>
		<path fill="#D1BB88" d="M1004.97,463.08c-28.64,0-57.29,0-85.93,0c-0.5-0.49-0.69-1.01-0.58-1.55c0.11-0.55,0.25-0.83,0.39-0.83
			c0.86-0.5,1.68-0.45,2.48,0.15c23.53,0.09,47.07-0.23,70.57,0.48c9.14,0.28,12.86-2.37,11.51-11.57
			c-0.36-2.44,0.29-5.03,0.57-8.91c7.32,5.66,16.03,7.27,19.18,15.99c-0.32,0.31-0.64,0.63-0.96,0.94
			c-5.13,1.2-6.65-5.19-11.43-5.36C1008.04,455.43,1009.82,461.15,1004.97,463.08z"/>
		<path fill="#CEBB87" d="M843.05,586.96c-0.65-2.07,2.14-3.95,0.35-6.09c-0.75-3.97-1.5-7.93-2.25-11.9
			c2.14-5.68-2.58-10.5-2.02-15.98c-0.06-3.98-0.11-7.97-0.17-11.95c-1.91-4.51-0.58-9.89-3.83-14.03c0.72-3.33,1.07-6.66-0.09-9.97
			c-0.62-3.34-1.24-6.69-1.86-10.03c-0.05-2.65-0.1-5.31-0.15-7.96c-0.66-4-1.33-8-1.99-12c0,0,0.08,0,0.08,0
			c0.69-0.94,1.39-1,2.12-0.05c4.19,16.94,4.8,34.41,7.57,51.57c2.67,16.58,4.54,33.29,6.76,49.94c-0.66,1.05-1.48,1.2-2.46,0.45
			C844.43,588.3,843.74,587.63,843.05,586.96z"/>
		<path fill="#CDBB89" d="M833.25,487c-0.71,0.02-1.41,0.03-2.12,0.05c0.18-3.5-0.12-6.91-2.03-9.98c0.85-6.8-0.08-13.42-2.05-19.94
			c0-2.68,0.01-5.36,0.01-8.04c-0.55-4-3.24-8.01,0.07-11.99c9.37-1.48,17.68-5.7,25.97-9.99c6.89-0.66,12.93-3.26,18.02-7.98
			c0.03,1.38,0.06,2.76,0.08,4.14c-11.68,4.7-23.25,9.7-35.09,13.98c-5.76,2.08-8.07,4.46-7.39,11.26
			C830,461.37,833.61,473.96,833.25,487z"/>
		<path fill="#E0D3B1" d="M921.33,460.84c-0.74,0.04-1.47,0.07-2.21,0.11c-5.64-13.03-6.96-13.37-19.47-4.71
			c-3.27,2.27-6.24,5.1-10.66,4.67c-7.36,3.34-14.72,6.68-22.07,10.03c0.21-2.21,1.56-3.47,3.42-4.49
			c13.88-7.54,27.83-14.97,41.58-22.76c7.82-4.43,9.91-1.62,9.29,6.23C920.92,453.54,921.27,457.2,921.33,460.84z"/>
		<path fill="#CEBB88" d="M1098.91,441.1c0.01,1.33,0.02,2.67,0.03,4c0.19,4.8-3.02,9.11-1.98,14.03c0.46,6.11-3.2,11.76-2.01,17.95
			c-0.03,1.32-0.06,2.65-0.09,3.97c-3.27,2.84-1.54,6.62-1.9,10.01c-0.63,2.67-1.27,5.35-1.9,8.02c-0.7,7.32-1.4,14.64-2.11,21.96
			c-0.04,1.32-0.08,2.64-0.11,3.96c-0.71,0.81-1.4,0.85-2.09-0.02c0.45-19.87,4.96-39.27,6.88-58.98
			c0.67-6.88,1.61-13.75,2.91-20.54c0.98-5.08-3.47-5.74-5.73-8.21c-0.67-0.5-0.89-0.99-0.65-1.46c0.24-0.47,0.47-0.7,0.71-0.7
			C1093.81,436.75,1097.41,437.51,1098.91,441.1z"/>
		<path fill="#957A42" d="M941.35,674.54c-6.13,0.71-7.69-5.96-12.34-7.65c-6.73-3.07-7.76-12.63-15.96-14.03
			c-2.59-4.07-5.94-7.37-10.02-9.94c-5.76-3.42-8.78-10.47-15.96-12.01c0-0.65-0.01-1.3-0.02-1.95c0.85-0.1,1.69-0.19,2.54-0.29
			C908.53,642.06,924.89,658.36,941.35,674.54z"/>
		<path fill="#A68A50" d="M845.11,588.96c0.82-0.15,1.64-0.3,2.46-0.45c7.77,10.4,19.81,16.23,27.97,26.21
			c-6.12,0.6-7.79-5.96-12.44-7.73c-5.76-3.44-8.81-10.5-16-12.05C846.45,592.95,845.78,590.96,845.11,588.96z"/>
		<path fill="#8E723C" d="M993,668.96c-0.88-0.12-1.75-0.23-2.63-0.35c8.3-8.37,15.47-17.96,25.94-23.98
			c0.98-0.73,1.87-0.62,2.66,0.31c-2.47,2.87-6.62,4.05-8.03,7.98c-6.86,3.78-11.24,10.04-15.98,15.95
			C994.31,668.88,993.65,668.91,993,668.96z"/>
		<path fill="#9C7F47" d="M1036.94,630.92c-1.34,0.69-2.68,1.38-4.01,2.07c-0.97,0.9-1.81,0.79-2.52-0.33
			c7.59-9.13,15.78-17.62,25.94-23.98c0.97-0.75,1.83-0.64,2.57,0.33c-3.36,3.28-7.91,5.37-10,9.93
			C1042.74,620.75,1040.11,626.11,1036.94,630.92z"/>
		<path fill="#C6A96F" d="M1082.8,574.94c-3.11,2.89-1.57,6.63-1.83,10.04c-0.79,0.59-1.59,1.18-2.38,1.77
			c0.11-10.76,2.28-21.26,4.12-31.8c0.7-0.88,1.4-0.84,2.11,0c0.47,2.92-0.67,5.49-1.74,8.08
			C1082.98,567,1082.89,570.97,1082.8,574.94z"/>
		<path fill="#BEA369" d="M921.08,544.94c1.79,5.21,5.36,10.73-2.46,14.28c-2.94-0.59-6.9,0.84-7.72-3.92
			c0.03-0.76,0.07-1.53,0.1-2.29C916.13,552.53,918.83,549.02,921.08,544.94z"/>
		<path fill="#CDBC8D" d="M1018.82,407.22c9.51,1.06,18.02,4.83,26.12,9.72c-0.59,0.93-1.28,1.01-2.07,0.24
			C1034.58,414.5,1026.18,412.11,1018.82,407.22z"/>
		<path fill="#D1BB88" d="M1043.2,470.92c-6.6-0.18-9.88-7.22-16.26-7.86c-1.72-1.7-5.25-2.12-4.13-5.83c0,0,0.35-0.4,0.35-0.4
			C1030.5,460.59,1037.64,464.64,1043.2,470.92z"/>
		<path fill="#CDBB89" d="M1058.82,423.14c5.36,1.98,10.72,3.96,16.08,5.94c2.07,1.25,4.7,1.72,5.93,4.17
			c-7.94-1.05-14.98-4.6-22.08-7.98c-0.62-0.49-0.82-0.97-0.59-1.44C1058.39,423.37,1058.61,423.14,1058.82,423.14z"/>
		<path fill="#A88C52" d="M1058.92,609.01c-0.86-0.11-1.71-0.22-2.57-0.33c4.63-5.51,10.12-10.03,16.12-13.98
			c0.93-0.79,1.75-0.68,2.45,0.32c-2,1.98-4,3.96-5.99,5.93c-3.39,1.94-6.08,4.58-8.03,7.97
			C1060.23,608.93,1059.57,608.96,1058.92,609.01z"/>
		<path fill="#E0D5B7" d="M1058.82,423.14c-0.02,0.71-0.04,1.42-0.06,2.13c-6.61-0.14-11.66-3.33-15.9-8.1
			c0.69-0.08,1.38-0.15,2.07-0.23c4.48,1.09,8.83,2.44,11.97,6.14C1057.54,423.13,1058.18,423.15,1058.82,423.14z"/>
		<path fill="#92773F" d="M1030.4,632.66c0.84,0.11,1.68,0.22,2.52,0.33c-3.35,3.29-7.89,5.37-9.98,9.92
			c-1.33,0.68-2.65,1.36-3.98,2.04c-0.89-0.1-1.77-0.21-2.66-0.31C1020.43,639.96,1024.88,635.68,1030.4,632.66z"/>
		<path fill="#A3874E" d="M981.47,674.64c-0.82,0.07-1.65,0.13-2.47,0.2c-0.02-0.65-0.05-1.3-0.1-1.95
			c-1.89-2.2-2.53-4.82-2.54-7.64c-0.07-3.28-0.17-6.58,0.77-9.79c0.39-1.06,1.04-1.92,1.95-2.59c0.58,0.02,1.16,0.03,1.73,0.05
			C981.04,660.15,981.26,667.4,981.47,674.64z"/>
		<path fill="#D0B67F" d="M1084.81,554.94c-0.7,0-1.4,0-2.1,0c-0.19-6.1,0.23-12.13,2.27-17.94c0.62-0.91,1.22-0.9,1.82,0.02
			c0,0,0.16-0.04,0.16-0.04c-0.65,3.35-1.3,6.7-1.95,10.05C1084.94,549.67,1084.88,552.31,1084.81,554.94z"/>
		<path fill="#CDBC8D" d="M1018.95,405.14c-0.04,0.72-0.07,1.43-0.11,2.15c-5.77-0.87-11.34-2.28-16.01-6.06
			C1008.64,400.74,1013.42,404.49,1018.95,405.14z"/>
		<path fill="#CEB782" d="M1086.8,537.02c-0.61-0.01-1.21-0.02-1.82-0.02c0.13-4.08-0.9-8.32,1.77-12.02
			c0.7,0.01,1.39,0.02,2.09,0.02C1086.6,528.75,1086.88,532.92,1086.8,537.02z"/>
		<path fill="#C1AD6B" d="M1074.91,595.02c-0.81-0.11-1.63-0.21-2.45-0.32c2.01-2.69,2.71-6.41,6.18-7.97
			C1079.3,590.35,1078.43,593.28,1074.91,595.02z"/>
		<path fill="#CDBB89" d="M1090.87,435.1c-0.02,0.72-0.04,1.44-0.06,2.16c-3.79-0.26-7.32-1.18-10.05-4.07
			C1084.13,433.83,1087.5,434.46,1090.87,435.1z"/>
		<path fill="#A4874E" d="M921.15,588.96c-1.24-7.61,1.51-10.4,9.63-10.18c20.8,0.56,41.65,0.57,62.45,0
			c8.12-0.22,10.83,2.62,9.71,10.18c-3.19,2.92-7.19,3.13-11.17,3.16c-19.82,0.13-39.65,0.13-59.47,0
			C928.33,592.08,924.32,591.95,921.15,588.96z"/>
		<path fill="#A3874E" d="M921.15,588.96c27.26,0,54.53,0,81.79,0c0,2.67,0,5.33,0,8c-9.12,4.16-18.97,1.82-28.44,2.9
			c-16.19,1.83-32.49-0.83-48.77-1.09c-1.72-0.03-3.22-0.72-4.57-1.77C921.16,594.31,921.15,591.64,921.15,588.96z"/>
		<path fill="#9E8249" d="M921.16,596.99c27.26-0.01,54.52-0.02,81.78-0.04c-1.25,6.16-6.21,3.38-9.72,3.96
			c-4.95,0.82-10.94-2.19-14.36,4.04c-10.63,4.58-21.25,4.51-31.87-0.02c-4.66-4.68-10.62-3.82-16.43-4.1
			C927.16,600.68,922.28,603.1,921.16,596.99z"/>
		<path fill="#896D38" d="M979.08,652.86c-0.07,0.68-0.13,1.37-0.2,2.05c-10.51,4.89-21.12,4.23-31.79,0.6
			c-1.71-5.01-1.48-10.04-0.16-15.09c10.71-3.94,21.37-4.42,31.95,0.51C978.95,644.91,979.02,648.88,979.08,652.86z"/>
		<path fill="#957A42" d="M947.03,640.92c0,4.66-0.01,9.32-0.01,13.97c2.5,2.85,2.84,6.29,2.69,9.87c0.1,3.03-0.66,5.79-2.71,8.11
			c-0.65,0.68-1.29,1.35-1.94,2.03c0.89-19.32-1.98-38.76,1.94-57.98c10.62-4.52,21.23-4.63,31.85,0.02c0,3.33,0.01,6.67,0.01,10
			c-5.07,4.22-11.16,2.07-16.8,2.74c-3.95,0.47-8.57-1.69-11.55,2.75C949.63,635.39,949.3,638.56,947.03,640.92z"/>
		<path fill="#90743D" d="M947.03,640.92c0-3.33,0-6.67,0-10c10.61-3.17,21.22-3.17,31.83,0c0.01,3.34,0.02,6.67,0.03,10.01
			C968.27,640.93,957.65,640.92,947.03,640.92z"/>
		<path fill="#987B44" d="M978.85,616.94c-10.62-0.01-21.23-0.01-31.85-0.02c0-2,0.01-4,0.01-5.99c10.61-4.53,21.23-4.64,31.83,0.02
			C978.85,612.95,978.85,614.95,978.85,616.94z"/>
		<path fill="#9B7E47" d="M978.85,610.96c-10.61-0.01-21.22-0.02-31.83-0.02c-0.01-2-0.01-3.99-0.02-5.99
			c10.63,0.01,21.25,0.01,31.88,0.02C978.86,606.96,978.85,608.96,978.85,610.96z"/>
		<path fill="#91753F" d="M978.86,630.92c-10.61,0-21.22,0-31.83,0c0.63-4.81,4.35-3.95,7.48-3.98c8.12-0.06,16.24-0.01,24.36,0
			C978.86,628.27,978.86,629.59,978.86,630.92z"/>
		<path fill="#826732" d="M947,672.87c0-2.66,0.01-5.33,0.01-7.99c10.63-4.72,21.26-4.78,31.88,0.01c0,2.66,0.01,5.33,0.01,7.99
			C968.27,672.88,957.64,672.88,947,672.87z"/>
		<path fill="#C5A76B" d="M875.17,509.05c-0.67-3.33-1.35-6.66-2.02-9.99c3.09-3.35,7.21-2.97,11.16-2.97
			c51.82-0.04,103.63-0.09,155.45,0.06c5.29,0.02,11.88-1.32,13.14,6.89c-0.31,2.76,0.9,5.89-2.02,7.99
			c-2.3,1.76-4.97,1.6-7.65,1.56c-50.61-0.76-101.21-0.09-151.82-0.38C885.86,512.18,879.98,513.18,875.17,509.05z"/>
		<path fill="#C9AB70" d="M1054.91,483.05c3.01,4,3.01,7.99,0,11.99c-3.19,1.3-6.54,0.98-9.85,0.98
			c-53.54,0-107.07,0.02-160.61-0.01c-4.62,0-9.41,0.58-13.26-2.94c-0.03-2.67-0.06-5.34-0.09-8.01c4.72-4.32,10.61-3.16,16.12-3.17
			c48.73-0.11,97.46-0.16,146.19,0.05C1040.54,481.97,1047.93,479.22,1054.91,483.05z"/>
		<path fill="#CBAE73" d="M1054.91,483.05c-9.74,2.48-19.67,2.01-29.58,2.01c-51.41-0.01-102.82-0.01-154.24-0.01
			c-4.84-7.99,0.63-8,6.17-8c36.62,0.01,73.24,0,109.86,0c16.31,0,32.77,1.28,48.88-0.54
			C1044.51,475.56,1050.4,475.47,1054.91,483.05z"/>
		<path fill="#C2A468" d="M875.17,509.05c53.7-0.01,107.39,0.03,161.09-0.1c5.05-0.01,9.84,0.78,14.63,2.07
			c-0.08,2.19,0.36,4.54-1.95,6.01c-3.84,3.4-8.59,3.2-13.21,3.21c-48.46,0.07-96.91,0.07-145.37,0c-4.62-0.01-9.39,0.26-13.2-3.2
			C875.75,514.56,874.78,511.97,875.17,509.05z"/>
		<path fill="#C0A166" d="M877.15,517.03c57.26,0,114.53,0,171.79,0c-0.55,3.35,1.26,7.18-1.99,9.99c-4.7,2.76-9.75,0.86-14.59,0.87
			c-46.37,0.16-92.74,0.12-139.11,0.08c-4.91,0-10.04,0.79-14.2-2.95C876.19,522.89,877.38,519.79,877.15,517.03z"/>
		<path fill="#C7A96D" d="M871.18,493.06c57.8-0.01,115.59-0.04,173.39,0.04c3.49,0,7.39-1.33,10.33,1.94
			c-0.31,2.75,0.91,5.89-2,7.99c-2.73-5.58-7.91-3.94-12.32-3.94c-55.81-0.07-111.62-0.04-167.43-0.04
			C872.49,497.06,871.84,495.06,871.18,493.06z"/>
		<path fill="#BB9E64" d="M921.08,544.94c0.5,7.51-0.55,13.09-10.08,8.07c-6.69-1.44-13.45-2.6-20.03-4.4
			c-6.67-1.83-10.93-5.9-9.9-13.58c-0.31-2.51,1.46-3.33,3.31-4.1c36.95-1.53,73.92-0.59,110.89-0.49c1.67,0,3.24,0.56,4.71,1.38
			c2.99,2.92,0.46,4.37-1.59,5.95c-21.86,0.47-43.73,0.03-65.6,0.24c-3.25,0.03-6.64-0.86-9.73,0.94
			C920.74,540.41,921.13,542.75,921.08,544.94z"/>
		<path fill="#BD9F63" d="M883.08,533.01c-0.67,0.67-1.34,1.35-2.01,2.02c-3.26-2.81-1.47-6.64-2.02-10
			c50.75,0,101.51,0.04,152.26-0.08c5.37-0.01,10.53,0.58,15.64,2.08c-0.35,2.75,0.85,5.89-2.02,8c-1.88,0.25-3.66-0.16-5.44-0.71
			c-51.2-2.95-102.44-2.47-153.67-2.29C884.76,532.03,883.95,532.57,883.08,533.01z"/>
		<path fill="#B99C61" d="M1042.92,533.01c0.67,0.67,1.34,1.35,2.01,2.02c-0.2,8.66-4.65,12.98-13.25,14.11
			c-6.46,0.85-13.01,2.17-19.09,4.43c-7.94,2.95-10.3,0.3-9.68-7.36c0.21-2.56,0.52-5.34-1.94-7.28c-0.84-0.47-1.5-1.12-2.01-1.93
			c0.66-1.33,1.33-2.66,1.99-3.98C1014.94,531.4,1028.93,531.4,1042.92,533.01z"/>
		<path fill="#CEB47C" d="M888.99,460.91c6.63-4.74,12.94-9.92,20.59-13.15c6.71-2.84,10.76-2.65,9.55,6.28
			c-0.31,2.26-0.03,4.61-0.02,6.91c-0.03,0.71-0.06,1.41-0.08,2.12C909.06,461.81,898.71,465.7,888.99,460.91z"/>
		<path fill="#CEB47C" d="M1022.82,457.23c1.38,1.94,2.75,3.89,4.13,5.83c-7.33,0.01-14.65,0.01-21.98,0.02
			c0.61-1.53,1.33-3.02,1.8-4.59c1-3.36-1.72-8.81,1.79-9.91c3.88-1.22,7.36,2.98,10.29,6.08
			C1019.9,455.77,1021.48,456.39,1022.82,457.23z"/>
		<path fill="#BEA369" d="M998.97,536.99c0.67,0.64,1.34,1.29,2.01,1.93c-25.98,0.01-51.95,0.02-77.93,0.03
			c2.96-3.2,6.85-1.88,10.33-1.89C955.24,536.94,977.1,536.99,998.97,536.99z"/>
		<path fill="#856A35" d="M978.89,664.89c-10.63,0-21.26-0.01-31.88-0.01c0-3.33,0.01-6.66,0.01-9.99c10.62,0,21.25,0.01,31.87,0.01
			C978.89,658.24,978.89,661.56,978.89,664.89z"/>
		<path fill="#BC9F64" d="M1042.92,533.01c-13.99,0-27.97,0-41.96,0c-39.29,0-78.59,0-117.88,0c2.6-3.05,6.14-1.95,9.32-1.95
			c47.07-0.06,94.14-0.06,141.2,0C1036.78,531.06,1040.32,529.96,1042.92,533.01z"/>
	</g>
</g>
</svg>
