<?xml version="1.0" encoding="utf-8"?>
<!-- Generator: Adobe Illustrator 25.2.1, SVG Export Plug-In . SVG Version: 6.00 Build 0)  -->
<svg version="1.1" id="Layer_1" xmlns="http://www.w3.org/2000/svg" xmlns:xlink="http://www.w3.org/1999/xlink" x="0px" y="0px"
	 viewBox="0 0 326 326" enable-background="new 0 0 326 326" xml:space="preserve">
<path fill="#CDBD8F" d="M97.7,49c34.9-17.7,70.9-22.7,108.5-9.6c1.7,0.8,3.4,1.8,5,2.8c-3.4,4.2-8.4,4.3-13.1,4.3
	c-25.2-0.4-50.4,0.6-75.5-0.5c-4.9-0.2-9.3,1.2-13.8,2.7C105.1,50,101.4,52.2,97.7,49z"/>
<path fill="#CDBC8D" d="M97.7,49c0.6,0,1.2,0.2,1.7,0c17.7-8.6,36.6-4,54.9-4.9c19-0.9,38,1.8,56.9-1.8h-0.1
	c3.3,3.5,10.8,0.6,11.9,7.6c-2.6,3.4-6.4,3-10,3.2c-4.5,0.2-9-0.3-13.2,1.9c-0.9,0.2-1.8,0.3-2.8,0.2c-23.6-7.2-47.1-7.5-70.5,1.1
	c-1.3,0.5-2.7,0.7-4.1,0.6c-13.7-3-27.4-4.8-40.6,2.1c-8.7,2.5-16.5,7.6-25.8,8.3c-0.9-0.2-1.6-0.7-2.2-1.4
	C67.9,59.1,82.6,53.4,97.7,49z"/>
<path fill="#CDBA88" d="M49.2,212.4c-4-9.4-3.6-19.6-5-29.4c-4.8-33.8-8.9-67.7-13.3-101.5c-0.3-2.4-1.3-5,1-7.1
	c0.6-0.6,1.5-0.6,2.1-0.2c1,2.7,0.9,5.5,1.6,8.3c0.2,4.2,0.8,8.4,1.7,12.5c0.7,3.9,0.1,7.9,1.4,11.7c1,4.3,0.3,8.9,1.6,13.2
	c0.8,3.9,0.7,8,1.7,11.8c0.5,2.6,0.7,5.2,0.7,7.9c0.2,2.6,0.6,5.1,1.2,7.6c0.5,3.8,0.3,7.7,1.4,11.4c0.4,2.1,0.7,4.3,0.8,6.4
	c0.1,1.3,0.2,2.6,0.4,3.9c2,5.4,0.5,11.3,2.2,16.7c1,3.8,0.3,7.8,1.5,11.5c0.4,1.7,0.7,3.4,0.8,5.1c0.1,1.3,0.1,2.6,0.1,3.9
	C51,208.4,50.9,210.7,49.2,212.4z"/>
<path fill="#CDBC8C" d="M255.2,59.1c13.4,3.2,25.6,9.6,38.5,13.9c1.8,0.6,2.5,1.8,2.2,3.8c-3.1,21.2-4.3,42.6-8.8,63.6
	c-1.6-1.2-1.9-2.9-2.2-4.7c-0.3-4.3,0.4-8.6,0.9-12.8c0.5-3.4,0.7-6.8,0.9-10.2c0.8-4.2,1.4-8.5,1.8-12.8c0.8-3.2,1.3-6.5,1.4-9.9
	c-0.5-4.8,4.6-10.5-2-14.4c-9.2-4.1-18.8-7.2-28.1-11.2c-2.7-1.1-6.3-1.2-6.8-5.2c0.4-0.6,1.3-0.8,1.9-0.4
	C255,58.9,255.1,59,255.2,59.1z"/>
<path fill="#866B35" d="M201.1,277.4c-8.9,8.3-17,17.7-29.8,20.4c-8.7,1.9-17.1,1.4-24.8-3.5c0.3-0.8,0.9-1.3,1.7-1.6
	c6.1-1,11.7,2.6,18,1.9c10.1-1.1,17.1-7.2,24.5-13c1.5-1.2,2.9-2.6,4.4-4c1.9-1.4,3.4-3.6,6.2-2.3
	C201.8,275.9,201.7,276.8,201.1,277.4z"/>
<path fill="#957941" d="M121.4,274c-12.4-9.4-24.2-19.6-35.5-30.4c-0.4-0.4-0.5-0.9-0.5-1.4c0.1-0.5,0.2-0.7,0.3-0.7
	c5.8-0.9,7.4,4.8,11.2,7c3.1,2.2,5.9,4.6,8.6,7.2c3.5,3.9,8.3,6.2,11.7,10.1c1.8,2,3.9,3.6,4.9,6.2
	C122.2,272.7,121.9,273.5,121.4,274z"/>
<path fill="#CEBD8F" d="M255.2,59.1l-1.9,0.2c-2.5,2-4.9,0.6-7.4,0c-7.5-3.7-16.3-4.7-23-10.1c-2.9-4.1-9-2.6-11.8-6.9
	C226.2,46.6,241,52.2,255.2,59.1z"/>
<path fill="#CBAF75" d="M283.8,165.8c-0.6,13.1-2.3,26-5.1,38.8c-2-1.6-2.1-3.8-2.3-6.1c-0.1-1.7,0-3.4,0.2-5.1
	c0.5-2.8,0.9-5.6,1.1-8.4c0.6-3.7,0.4-7.4,1.2-11.1c1.1-3.3,0.6-6.9,1.8-10.1c0.7-1.3,1.6-2.1,3.2-1.8
	C284.6,163.1,284.5,164.6,283.8,165.8z"/>
<path fill="#A58A50" d="M49.2,212.4l-0.2-6.3c3.2-0.6,3.2,2.6,4.7,4.1c2.3,2.9,5,5.7,7.8,8.1c2.3,1.9,4.9,3.4,7,5.5
	c2.2,2.5,5.2,4.4,6.4,7.8c0,0.8-0.3,1.5-0.8,2C65.1,227.3,57.2,219.7,49.2,212.4z"/>
<path fill="#8C713B" d="M201.1,277.4c-0.1-0.7-0.1-1.5-0.2-2.2c1.2-4.2,5-6.4,7.7-9.4c4.4-2.9,8.1-6.5,11.9-10.1
	c1.4-0.9,2.7-1.7,4.4-0.7c0.4,0.7,0.4,1.6-0.2,2.1C217.4,264.5,209.5,271.3,201.1,277.4z"/>
<path fill="#CFB882" d="M283.8,165.8l-0.3-3.7c-2.9-3.2-2.1-7.1-2-10.9c0.5-4,1.6-7.9,1.8-12c0.1-1.4,0.6-2.6,1.3-3.8
	c0.6-0.7,1.6-0.9,2.4-0.4c0,1.8,0.1,3.6,0.2,5.4C287.3,149,286.1,157.6,283.8,165.8z"/>
<path fill="#CEBC8B" d="M33.8,74.5l-1.8-0.1c6.7-4.1,14.1-7,21.9-8.5l1.9,0.1c0.2,3.7-3.1,3.5-5.1,4.8
	C44.9,71.8,40.2,77.2,33.8,74.5z"/>
<path fill="#BB9E64" d="M278.5,197.6l0.1,7c1,6.9-2.5,11-8.4,13.7c-0.6-0.5-1-1.2-1.1-2c0.1-2.2,1.8-3.4,3-4.9c2.7-3.2,2.3-7.2,3-11
	C275.8,198.8,276.3,197.1,278.5,197.6z"/>
<path fill="#7E6430" d="M146.5,294.3c-6.2-2.4-10.6-7.1-15.1-11.8c-0.4-0.4-0.6-0.9-0.5-1.4c0.1-0.5,0.2-0.8,0.3-0.8
	c1.7-1.1,3.1-0.2,4.5,0.6c3.3,4.6,10,6.1,11.2,12.6L146.5,294.3z"/>
<path fill="#9B7F46" d="M74.1,233.5l0.2-2.1c1.6-0.8,2.9,0,4.2,0.9c2.2,2,4.3,4.1,6.3,6.2c0.8,0.8,1.2,1.9,1.4,3
	c-0.1,0.7-0.1,1.4-0.2,2.1C81.3,241.1,77.6,237.4,74.1,233.5z"/>
<path fill="#987C44" d="M248.4,236.9c-3.5,3.9-7.2,7.6-11.8,10.1c-0.6-0.5-0.9-1.2-0.8-2c0.9-2.6,3.1-4.3,4.9-6.2
	c2.4-1.7,3.8-5.2,7.7-3.9c0.4,0.3,0.5,0.8,0.4,1.3C248.6,236.7,248.5,236.9,248.4,236.9z"/>
<path fill="#92773F" d="M236.3,244.8c0.1,0.7,0.1,1.4,0.2,2.2c-3.5,3.9-7.2,7.6-11.8,10.1l-0.2-2.2c0.8-3.5,3.9-5.2,6-7.7
	C232.2,245.9,233.7,243.8,236.3,244.8z"/>
<path fill="#9C8148" d="M248.4,236.9c-0.1-0.7-0.1-1.5-0.2-2.2c0.1-0.4,0.1-0.7,0.2-1.1c1.5-2.7,3.8-4.6,5.9-6.8
	c1.8-1.3,3.4-3.6,6.1-2.1c0.4,0.7,0.3,1.5-0.2,2.1C256.7,230.6,253,234.4,248.4,236.9z"/>
<path fill="#A98D53" d="M260.2,226.8l-0.2-2.2c0.3-1.9,1.6-3.2,2.8-4.5c2.2-1.7,3.6-4.9,7.2-3.9l0.3,2.1
	C267.3,221.5,264.3,224.8,260.2,226.8z"/>
<path fill="#856A34" d="M131.7,280.3c-0.1,0.8-0.2,1.5-0.2,2.2c-3.9-2.2-7.3-5.1-10.1-8.5c0.1-0.7,0.1-1.4,0.2-2.1
	c4.6-0.8,6,3.4,8.8,5.5C131.1,278.2,131.6,279.2,131.7,280.3z"/>
<path fill="#CDBA88" d="M50.7,69.3l5.1-3.3L81,57.5c5.8-0.8,11.7-1,17.5-0.5c3.1,0.3,6.2,0.4,8.1,3.4c-2.8,7.4-10.6,6.4-16,9.4
	c-5.8,1.7-11,5.6-17.4,5.3c-4.7-2-9.8-1.5-14.7-1.9C55.5,73,51.5,74.1,50.7,69.3z"/>
<path fill="#CDBC8C" d="M222.9,49.1c8.3,1.7,16,5,23.6,8.5c-0.8,4.7-4.7,3.6-7.7,3.9c-4.9,0.4-9.9-0.2-14.5,1.8
	c-1.7,0.4-3.5,0.3-5.2-0.2c-2.8-0.8-5.5-1.8-8.3-2.7c-3.8-2.2-8.8-2.2-11.6-6.3c1.9-3.9,5.5-3.2,8.8-3.3
	C213,50.5,218.1,51.9,222.9,49.1z"/>
<path fill="#CDBD8F" d="M89.5,67.7c5.9-1.4,11.6-3.7,16.9-6.8c4.3-3.9,9.1-6.6,15.2-5.1c22-8.9,44.6-11.1,67.7-5
	c2.9,0.8,6,1.1,8.4,3.3l-1,1c-7.7,2.1-14.9-1.5-22.3-2.5c-14.9-1.9-29,0.6-43.1,4.5c-10.3,2.8-20,7.5-29.9,11.3
	c-3.6,1.4-7.2,3.4-11.3,1.6c-0.8-0.4-1.1-1.3-0.7-2.1C89.3,67.9,89.4,67.8,89.5,67.7z"/>
<path fill="#CEBC8B" d="M121.5,55.8l-15.2,5.1c-6-3-12.6-1.4-19-2c-2.2-0.1-4.4-0.5-6.4-1.4C94.2,49.7,107.8,50,121.5,55.8z"/>
<path fill="#CEBD8F" d="M199.2,54.1c4.1,1.3,8.6,1.7,11.9,5.1l-1,0.9c-5.4,0.6-10.4,0.3-12.8-5.7l0.2-0.2
	C198.1,54.1,198.7,54.1,199.2,54.1z"/>
<path fill="#CEB985" d="M50.7,69.3c3.9,3.3,8.6,1.3,12.9,1.6c3.9,0.3,7.9,0,10.7,3.4c-1.4,2.5-3.9,3.2-6.3,4.2
	c-6.5,2.3-12.5,6.4-19.8,6.3c-4.8-1.2-10.1-0.3-14.4-3.6c-1.5-2-1.5-4.7,0-6.7C39.7,73.8,44.5,69.4,50.7,69.3z"/>
<path fill="#CDB178" d="M38.8,120c-3.3-4.2-0.9-9-1.7-13.5c1.6-7.5,6.8-5.4,11.6-4.5c4.9,3.8,4.8,9.1,4.3,14.4
	C49.2,120.9,44.1,120.9,38.8,120z"/>
<path fill="#C7AA70" d="M38.8,120c4-3,9.2-1.3,13.4-3.3c3,4.7,4.2,9.5,1.2,14.7c-4.2,2.7-8.6,3.7-13,0.4
	C37.3,128.2,39.5,123.9,38.8,120z"/>
<path fill="#CEB780" d="M33.8,81.2c5.1-0.4,10.3,0.1,15.2,1.7c0.5,4.4,3.5,8.9-0.8,13c-4.4,1.6-8.7,1.9-12.7-1.2
	C32.8,90.4,34,85.7,33.8,81.2z"/>
<path fill="#AC8F54" d="M48.9,197.6c-2.9-3.6-1.2-7.9-1.6-11.8c-1.9-4-0.3-6.2,3.6-7.1c2.9-0.7,5.8-1.3,8.8-0.7
	c5,4,3.8,9.4,3.2,14.6c-3.6,3.5-9.6,0.3-12.9,4.5L48.9,197.6z"/>
<path fill="#B4985E" d="M60.7,179.1c-2.9,0.6-5.9,1.5-8.8,1.6c-3.7,0.1-4.8,2-4.6,5.2c-3.8-5.1,0.1-11.7-3.2-16.9
	c4.2-3.3,8.8-2.4,13.5-1.6C62.1,170.3,62.6,174.4,60.7,179.1z"/>
<path fill="#BEA166" d="M43.8,158.8c-3-3.6-1-7.9-1.6-11.8c3.7-3.2,7.9-2.4,12.1-1.6c4.5,1.7,3.8,5.9,4.5,9.4c0,2-0.3,3.9-2.2,5.1
	C52.2,161.6,47.9,161.8,43.8,158.8z"/>
<path fill="#A4874D" d="M52.3,211.1l-3.3-5l-0.1-3.4c4.6-3.3,9.4-2.4,14.2-0.7c0.8,0.4,1.6,0.9,2.3,1.5c2,2.3,6,3.6,3.7,7.9
	C63.5,214.7,57.9,214.1,52.3,211.1z"/>
<path fill="#CEB37B" d="M35.5,94.7h13.4c2,2.8,4.5,5.6,0,8.4c-4.1,0.6-9-1.9-11.8,3.4C33.9,102.9,36.1,98.6,35.5,94.7z"/>
<path fill="#C3A66B" d="M40.5,131.8c4.6,0.3,9.2-0.3,13.5-1.7c2.7,3.3,3.9,6.6,0.2,10c-4.5,2.1-9,3.6-13.6,0.1L40.5,131.8z"/>
<path fill="#C2A56B" d="M40.6,140.2c4.5,0.3,9.1-0.3,13.4-1.7c2.8,2.4,4.4,5,1.7,8.4H42.2C40.9,145,40.4,142.6,40.6,140.2z"/>
<path fill="#B99C60" d="M43.8,158.8h13.5c2.6,2.5,4,5.3,1.6,8.8c-5-1.1-10.3,1.1-15-2L43.8,158.8z"/>
<path fill="#A6884F" d="M64.3,204.2c-4.9-2.6-10.2-1.3-15.3-1.6c0-1.7,0-3.3,0-5l0.1-0.1c4.1-3.1,8.6-2.7,13.1-1.1
	C65.1,198.4,66.5,200.9,64.3,204.2z"/>
<path fill="#B89B60" d="M43.9,165.5c5.1,0.4,10.3-1.1,15.1,1.7c0.4,0.5,0.4,1.2,0,1.7H44C44,167.8,44,166.7,43.9,165.5z"/>
<path fill="#CDBA87" d="M222.9,62.6c3.6-4.3,8.6-3,13.2-3.4c3.5-0.3,7.3,1.4,10.4-1.6l6.8,1.7c9.4,3.8,18.8,7.7,28.3,11.4
	c2.6,1,5.4,1.4,7.2,3.8c-4.4,5.6-10.8,3-17.7,4.2c5.5,2.4,9.7,5.2,9.6,11.1c0,3.4-1.2,6.7-1.4,10.2c-0.1,4-1.3,7.8-1.7,11.7
	c-0.1,4-1.3,7.8-1.7,11.7c-0.1,3.9-1.2,7.7-1.7,11.6c-0.1,1.3-0.1,2.6-0.3,3.9c-0.9,3.8-1.3,7.8-2.2,11.6c-0.3,0.9-0.9,1.6-1.7,2.1
	c-0.9,0.2-1.8-0.2-2.3-1c-1.8-3.5-1.2-7.1-0.7-10.7c1.9-12.8,3.6-25.6,5.5-38.3c2-13.8,2-13.8-9.4-20.6c-6.6-5.4-15-6.8-22.5-10.3
	C234.5,68.8,227.2,68.6,222.9,62.6z"/>
<path fill="#CEB882" d="M278.6,89.6c0.9-9.3-9.7-6.6-13.4-12.6c8.1-2.1,16.2,0.5,23.4-2.6c4.1-0.3,5.5,1.8,5,5.5
	c-0.4,3.2-1.1,6.5-1.7,9.7C287.6,92.8,283.1,92.8,278.6,89.6z"/>
<path fill="#CDB178" d="M275.3,111.6c0.6-3.9,1.1-7.9,1.7-11.8c4.5-3.2,8.9-3.4,13.4,0c0.3,4.6-0.2,9.2-1.7,13.5
	C283.9,115.5,279.5,114.2,275.3,111.6z"/>
<path fill="#C6A86C" d="M271.9,135.2c0.6-3.9,1.1-7.8,1.7-11.8c4.5-3.2,8.9-3.4,13.4,0c1.7,3.9-0.8,7.8,0,11.7
	c-0.5,0-1.1,0.1-1.6,0.1C280.9,138.2,276.4,138.3,271.9,135.2z"/>
<path fill="#CBAF75" d="M286.9,123.4h-13.4c0.6-3.9,1.1-7.9,1.7-11.8c4.5-0.3,9.1,0.2,13.4,1.7C288.1,116.6,290.1,120.4,286.9,123.4
	z"/>
<path fill="#CFB57D" d="M290.4,99.7H277c0.6-3.4,1.1-6.8,1.7-10.1H292C292.1,93.1,292.4,96.6,290.4,99.7z"/>
<path fill="#7E6430" d="M130,278.6l-8.4-6.8c-2.2-1.1-4-2.8-5.1-5c5-3.9,11.2-1.7,16.6-3.2c5.3-0.1,7.7,4.7,11.6,6.9
	c2.1,0.6,3-1.2,4.3-2.2c1-0.8,2.1-1.3,3.3-1.6c7.7-0.8,15.5-1.1,23.2,0.2c1.2,0.4,2.2,1.2,3,2.1c5.1,3.2,6.6-2.8,10-3.9
	c2-1.6,4.1-3,6.8-3c4.6,1.8,11-2.1,13.9,4.6c-2.1,3.4-5,6.3-8.4,8.4l-5.1,3.4C173.9,279.7,151.9,279.7,130,278.6z"/>
<path fill="#7C612D" d="M146.9,293.6c-3.6-4.2-9.3-6.3-11.9-11.6c0.3-3.8,3.3-3.2,5.6-3.3c15.3-0.2,30.7-0.2,46.1,0
	c2.3,0,5.4-0.6,5.7,3.2C180,296.5,164.7,299.8,146.9,293.6z"/>
<path fill="#7C612E" d="M192.4,281.9c-2.2-2.5-5.2-1.6-7.8-1.6c-13.9-0.1-27.8-0.1-41.7,0c-2.7,0-5.6-0.9-7.8,1.6l-3.4-1.7l-1.7-1.7
	c3-1.9,6.4-1.7,9.8-1.7c15.4,0,30.8,0,46.2,0c3.4,0,6.7-0.2,9.8,1.7C195.2,280.1,194,281.4,192.4,281.9z"/>
<path fill="#8D713B" d="M86.1,241.5l-1.7-1.7c3.2-6.9,9.8-2.6,14.5-4.6c7.6,0.9,12.3,5.3,14.7,12.4c-5.2,5.3-11.5,2.3-17.4,2.4
	L86.1,241.5z"/>
<path fill="#856A34" d="M135.1,265.1c-6,2.2-12.3,1.6-18.5,1.7c-3.8-3.6-9.1-5.3-11.8-10.1c4.5-3.8,10.1-1.6,15-2.7
	c6.8-1.6,9.6,4.5,14.1,7.4c0.6,0.5,1.2,1,1.6,1.7C135.7,263.7,135.6,264.5,135.1,265.1z"/>
<path fill="#886D37" d="M121.6,255c-5.3,3.5-11.3,0.9-16.9,1.7l-8.4-6.8c5-4.3,11.9,1,16.9-3.3c5-0.8,6.5,3.4,9,6.3
	C122.4,253.6,122.1,254.5,121.6,255z"/>
<path fill="#BC9E63" d="M270.1,152c0-0.6,0.1-1.1,0.1-1.7c4.5-3.3,8.9-3.2,13.4,0l-0.1,11.7l-1.6,1.8c-4.4,3.2-8.9,3-13.5,0.7
	C265.5,159.9,265.1,155.6,270.1,152z"/>
<path fill="#B1955B" d="M280.3,174c-0.7,3.9,1.6,8.2-1.7,11.8c-4.9-0.5-10-0.4-14.2-3.6c-0.9-4.1-0.2-7.7,2.7-10.8
	C272,170.1,277.1,167.4,280.3,174z"/>
<path fill="#AC8F55" d="M265.2,182.4c4.7,0.1,9.7-1,13.4,3.4c1.5,2.3,0.2,4.5,0,6.8c-3.8,3-8,2.5-12.3,1.4c-1.7-0.8-3.1-2.2-3.7-4
	c-0.7-1.7-0.8-3.5-0.2-5.2C262.8,183.5,263.9,182.6,265.2,182.4z"/>
<path fill="#B69A60" d="M280.3,174c-4.1-3.4-9-1-13.5-1.7c-2.2-2.2-1.4-4.5-0.2-6.8c0.5-0.7,1.1-1.2,1.9-1.6h13.4
	C281.4,167.2,283.3,171,280.3,174z"/>
<path fill="#A98D53" d="M265,192.5h13.5v5c-1.3,0.8-1.6,2-1.7,3.4c-4.4,3.2-9,3-13.6,0.6C261.3,198,260,194.6,265,192.5z"/>
<path fill="#9C7F47" d="M52.3,211.1c5.6-0.7,11.5,1.7,16.9-1.6c5.7,0.8,10.2,2.9,9.6,9.9c-6,4.3-12,2.4-18,0.2
	C57.4,217.4,54.5,214.5,52.3,211.1z"/>
<path fill="#957941" d="M77.7,233l-3.4-1.7c-2.8-1.6-5.2-3.9-6.8-6.8c4.8-3.8,10.6-1.6,15.8-2.7c1.8-0.1,3.7,0.4,5.2,1.4
	c2.6,1.9,5.7,3.4,4.8,7.5C88.7,235.3,83.1,233.4,77.7,233z"/>
<path fill="#9B7F46" d="M84.4,222.9c-5.3,3.4-11.3,0.9-16.9,1.7l-6.7-5.1c6.2-0.5,12.6,1.5,18.5-1.7
	C83.2,217.4,84.9,219.1,84.4,222.9z"/>
<path fill="#866B35" d="M209.3,266.8c-4.5-3.8-10.7,0.2-15.2-3.4c0.9-7.5,6.8-9.3,12.7-11.1c4.7,1.7,11.2-2.5,14.3,4.4
	C218.4,261.2,214.2,264.7,209.3,266.8z"/>
<path fill="#886D38" d="M221.2,256.6c-4.4-4.2-10.8,0.8-15.2-3.3c-1-4,2.6-4.7,4.7-6.5c1.5-0.9,3.2-1.3,5-1.2
	c5.2,1,10.9-1.2,15.6,2.6c-1.6,2.8-3.9,5.2-6.8,6.7L221.2,256.6z"/>
<path fill="#C2A56A" d="M283.6,150.4h-13.4c-0.6-4.1,0.7-8,1.7-11.8c4.1-2.5,9.3-2.5,13.4,0C285.9,142.6,284.6,146.5,283.6,150.4z"
	/>
<path fill="#C4A76B" d="M285.3,138.5h-13.4c0-1.1,0-2.2,0-3.4h13.5L285.3,138.5z"/>
<path fill="#A1854C" d="M263.5,201h13.4c0,4.2,0.5,8.6-3.3,11.8c-5.3,2.1-10.5,3.5-15.9,0.4c-0.7-0.5-1.2-1.2-1.6-2
	c-0.3-4.3,3.6-6,5.5-8.9C262.1,201.7,262.7,201.3,263.5,201z"/>
<path fill="#9C8148" d="M256.6,211.1c5.4,3,11.3,1.2,16.9,1.7l-3.5,3.3l-6.7,5.1c-5.5,0.7-11,1.5-16.4-0.9
	C246.9,213.2,249.4,210.9,256.6,211.1z"/>
<path fill="#937840" d="M77.7,233c4.4-4.2,10.8,0.8,15.2-3.3c4-0.9,5.4,2.1,7.3,4.6c0.2,0.7,0,1.6-0.5,2.1
	c-4.4,4.2-10.8-0.8-15.2,3.4C81.6,238.2,79.2,235.8,77.7,233z"/>
<path fill="#8C713B" d="M231.3,248.2c-5.6-0.8-11.5,1.7-16.9-1.7c-0.3-6.2,4.5-7.6,8.8-9.4c0.9-0.1,1.8-0.1,2.6,0
	c5.1,1.2,10.9-1.2,15.5,2.7c-1,2.2-2.8,4-5,5.1L231.3,248.2z"/>
<path fill="#92773F" d="M241.4,239.8c-5.6-0.8-11.5,1.8-16.9-1.7c-0.2-5.4,3.1-7.1,7.6-7.7c3.3,0.4,6.6,0,9.9,0.5
	c2.5,0.4,5.8-0.2,6.1,3.8l0,0L241.4,239.8z"/>
<path fill="#987C44" d="M246.5,219.5c5.6,0.8,11.5-1.7,16.9,1.7l-3.4,3.4l-5.1,3.4c-5.3,1.2-10.8,1-16-0.6c-3.2-5.8,1.9-6.5,5.1-8.5
	C244.9,218.7,245.8,218.9,246.5,219.5z"/>
<path fill="#947941" d="M238.1,226.3c5.6,0.5,11.5-1.3,16.9,1.7c-1.6,2.8-3.9,5.2-6.8,6.7c-5-4.3-11.9,1-16.9-3.3
	C231.5,226.9,234.2,225.8,238.1,226.3z"/>
<path fill="#CDBC8D" d="M67.5,76.1l6.7-1.8l15.2-6.7c0,0.6,0,1.1,0,1.7c-5.2,7.8-12.9,9.6-21.6,9.1c-0.7-0.4-0.9-1.4-0.5-2.1
	C67.4,76.3,67.5,76.2,67.5,76.1z"/>
<path fill="#CDBC8D" d="M222.9,62.6l18.6,6.8c0.6,0.6,0.6,1.5,0,2.1c-0.1,0.1-0.2,0.1-0.2,0.2c-8.9,1-16.2-2.2-22.5-8.3
	c-0.2-0.9,0.1-1.8,0.7-2.4L222.9,62.6z"/>
<path fill="#CEBD8F" d="M219.5,60.9c0,0.6,0,1.2,0,1.8c-4.1,2-7.1,1.4-8.5-3.3l0.2-0.3L219.5,60.9z"/>
<path fill="#CEBC8B" d="M67.5,77.8c-1.9,2.4-4.7,2.7-7.3,3.7c-11.1,4.3-11.1,4.8-9.2,16.9c2.8,18.4,5.2,36.9,7.8,55.3
	c-0.5,0.8-1,0.8-1.5,0c-2.8-1.7,0.5-4.9-1.7-6.8c-0.5-2.8-1.1-5.6-1.7-8.4v-8.4c-0.6-4.5-1.2-9-1.7-13.5c-1.1-4.5-2.2-9-3.3-13.5
	c1.4-2.8-0.8-5.6,0-8.4c0.6-4-3.2-7.9,0.1-11.8c6.8-0.6,12.5-4.2,18.6-6.7L67.5,77.8z"/>
<path fill="#CEB985" d="M57.3,153.8c0.5,0,1,0,1.5,0c2.5,16.8,5,33.5,7.4,50.2c-0.6,1-1.2,1.1-2,0.2h0.1l-1.8-6.6
	c-1.4-1.4-1.4-3.7,0-5.1c-1.9-4.3-1.2-9-1.8-13.5l-1.7-10.1v-1.7l-1.7-8.4C57.3,157.1,57.3,155.4,57.3,153.8z"/>
<path fill="#A98C52" d="M62.5,192.5v5.1H49c-0.3-3.2,0.9-5.2,4.5-5C56.5,192.6,59.5,192.5,62.5,192.5z"/>
<path fill="#A58A50" d="M64.2,204.2l2-0.2c8.1,6.5,16.5,12.7,23.7,20.4c-0.2,0.6-0.9,0.9-1.5,0.7c-0.2-0.1-0.4-0.2-0.6-0.4l-3.4-1.7
	c-1.1-2.2-2.9-4-5.1-5.1l-10.1-8.4C68,207.3,64.8,207,64.2,204.2z"/>
<path fill="#CDBC8C" d="M263.3,79.7c-7.7-1.7-15.1-4.5-21.9-8.5c0-0.6,0-1.3,0-1.9C248.3,73.7,257.1,74.1,263.3,79.7z"/>
<path fill="#CFB882" d="M266.5,165.5c0.6-4.5-0.7-9.2,1.9-13.5h1.8c-2.2,3.7-1.6,7.8-1.6,11.8c0,0.6-0.1,1.1-0.1,1.7
	c-0.3,0.5-1,0.7-1.5,0.3C266.7,165.7,266.5,165.6,266.5,165.5z"/>
<path fill="#AC8F55" d="M145.5,271.3c1.5-1.2,1.4-2.9,1.4-4.6c0-14.9-0.1-29.8,0.2-44.7c0.1-4.9-1.7-6.1-6.3-6.1
	c-14.6-0.3-14.7-0.5-14.5-15.4c0.2-12.6-1.3-10.9,11.5-11c18.6-0.1,37.1,0.2,55.7-0.1c5.5-0.1,7.9,1.5,7.1,7c-0.1,1.1-0.1,2.2,0,3.4
	c0.1,15.5,0.1,15.7-15.4,16.1c-4.8,0.1-6.3,1.5-6.2,6.3c0.2,9.8-0.1,19.6-0.1,29.5c-0.8,0.5-1.8,0.3-2.3-0.5c0,0,0,0,0-0.1
	c-1.2-2-1.3-4.3-1.4-6.6c-0.1-2.7-0.1-5.4-0.1-8s0-5.3,0-8c0-1.4,0-2.7,0-4.1c-0.1-1.8,0-3.7,0.2-5.5c0.3-2.4,1-4.5,3.3-5.7
	c4.9-2.5,11,1,15.7-2.9c1.2-2.2,1-4.6,0.9-7c-0.8-4.4-4.1-4.9-7.7-4.9c-16.3-0.1-32.6-0.1-48.9,0c-3.5,0-6.9,0.6-7.7,4.9
	c-0.1,2.4-0.4,4.8,0.7,7c4.4,4,10,0.8,14.8,2.3c0.9,0.2,1.7,0.5,2.4,0.9c1.9,1.3,3.1,3.3,3.4,5.6c0.3,1.8,0.4,3.6,0.3,5.4
	c0,1.4-0.1,2.7-0.3,4.1c-0.1,0.9-0.3,1.8-0.5,2.7c-1.3,7-0.4,14.1-0.6,21.1c-0.3,6,1,12.2-2.2,17.8c0.1,1.7-1.2,3.1-2.9,3.2
	c-0.2,0-0.3,0-0.5,0C144.5,272.6,144.6,271.9,145.5,271.3z"/>
<path fill="#846934" d="M177.2,268.5h-27c-1.2-3-1.4-6.1,0.2-9.1c8.6-3,18-3,26.6,0C178.5,262.2,178.6,265.6,177.2,268.5z"/>
<path fill="#8C713B" d="M186.9,266.5c6.7-6.9,14-13.1,21.9-18.5c0.6-0.6,1.5-0.5,2.1,0c0.1,0.1,0.1,0.2,0.2,0.2
	c-1.3,2-4.4,2.4-5.1,5c-3.8,3.6-9.1,5.3-11.8,10.1l-5.1,3.4c-0.4,0.6-1.2,0.7-1.8,0.3C187.1,266.9,187,266.8,186.9,266.5z"/>
<path fill="#A4894F" d="M177.2,268.5c0-2.8,0-5.6,0-8.5c-1.5-1.7-2-4.1-1.4-6.3c0.3-0.9,0.8-1.6,1.6-2.1h1.5
	c0.2,6.7,0.4,13.3,0.5,20c-0.6,1-1.3,1.1-2.1,0.2L177.2,268.5z"/>
<path fill="#886D37" d="M145.5,271.3c-0.1,0.7-0.1,1.5-0.2,2.2c-3.4-2.8-6.9-5.6-10.3-8.4l0.3-2
	C139.5,264.9,142.4,268.3,145.5,271.3z"/>
<path fill="#947841" d="M150.3,260c0,2.8,0,5.6,0,8.4l-1.6,1.8v-18.6c0.7-0.5,1.6-0.4,2.2,0.3c0.5,0.7,0.8,1.5,1,2.3
	C152.4,256.2,151.7,258.4,150.3,260z"/>
<path fill="#866B35" d="M177.3,271.8l2.1-0.2l7.6-5l2.2,0.3C185,268.1,183.7,276.1,177.3,271.8z"/>
<path fill="#957941" d="M101.8,234.5c7.9,5.4,15.3,11.7,21.9,18.6c-0.3,0.6-1,0.9-1.7,0.7c-0.2-0.1-0.4-0.2-0.5-0.4l-8.4-6.8
	c-4.9-2.9-7.4-8.9-13.5-10.2c0-0.6,0-1.1,0-1.6c0.4-0.6,1.3-0.8,1.9-0.4C101.6,234.4,101.7,234.4,101.8,234.5z"/>
<path fill="#8D713B" d="M121.5,253.3l2.2-0.3c4.5,2.6,8.5,6,11.7,10c-6.5,0.5-7.7-8-13.8-8.1C121.6,254.4,121.6,253.9,121.5,253.3z"
	/>
<path fill="#CFB57D" d="M266.5,165.5l1.9,0.1c-1,2.1-1.9,4.3-1.5,6.8c-0.5,3.4-1.1,6.8-1.6,10.1l-1.6,1.7
	C264.1,177.8,264.5,171.5,266.5,165.5z"/>
<path fill="#C2A56A" d="M261.3,202.5c0.5-4.5-0.1-9.1,2-13.4c1.4,0.7,1.7,2,1.7,3.4c-2.7,2.4-1.3,5.6-1.6,8.5c0,0.6-0.1,1.1-0.1,1.6
	c-0.3,0.5-1,0.7-1.6,0.4C261.6,202.9,261.4,202.7,261.3,202.5z"/>
<path fill="#9B7F46" d="M101.8,234.5l-2.2,0.2l-6.7-5.1c-0.7-2.6-3.7-3-5.1-5l2.1-0.3C94.4,227,98.5,230.5,101.8,234.5z"/>
<path fill="#947941" d="M211.1,248.3l-2.2-0.3c3.3-4,7.3-7.5,11.9-10.1c0.5-0.6,1.4-0.6,2,0c0.1,0.1,0.2,0.2,0.2,0.3
	c-2.9,2.8-6.7,4.5-8.5,8.4L211.1,248.3z"/>
<path fill="#A3874D" d="M242.7,219.3c3.3-4.1,7.3-7.5,11.8-10.1c0.5-0.5,1.3-0.6,1.9-0.1c0.1,0.1,0.2,0.2,0.3,0.4c0,0.6,0,1.1,0,1.6
	c-5,0.8-7.4,4.9-10.1,8.4l-1.7,0.1C244,220.4,243.3,220.3,242.7,219.3z"/>
<path fill="#B1955B" d="M256.6,209.5l-2.1-0.3l6.8-6.7l2,0.1C261.8,205.5,259.5,207.9,256.6,209.5z"/>
<path fill="#9C8148" d="M242.7,219.3l2.1,0.3c-2.1,2.4-5.6,3.4-6.7,6.7l-6.8,5.1c-2.8,1.6-5.2,3.9-6.8,6.7c-0.6,0-1.1,0-1.6,0.1
	l-2.2-0.3C227.4,231,234.7,224.7,242.7,219.3z"/>
<path fill="#CCB177" d="M226.4,106.4c5.6,2,10,6.1,14.8,9.3c4,2.7,4.8,6.4,3.6,11c-3.5,12.9-6.9,25.9-10.1,38.9
	c-1.2,4.8-4.5,6.9-8.8,8c-7.9,2-15.9,3.4-23.6,5.9c-5.5,1.8-7.5,0.2-6.6-5.1c1.2-7.6-2-9.5-9.3-9.2c-15.7,0.5-31.4,0.5-47.1,0
	c-6.3-0.2-8.5,1.7-8.1,8.1c0.2,2.4,3.3,9.6-5,6c1.9-3.4,1.2-6.9,0.4-10.4c-0.1-3.2,1-5.7,4.2-6.7c20.8-1.2,41.6-0.6,62.4-0.4
	c4,0.5,5.9,3.1,6.1,6.9c0.4,5.7,3.5,6.2,8.1,4.9c5.1-1.5,10.4-2.6,15.5-4c3.6-0.8,6.6-3.5,7.7-7.1c0.2-0.7,0.5-1.4,0.8-2.2
	c0.8-2.1,1.4-4.3,1.8-6.6c0.7-2.1,1.1-4.4,1.7-6.5c0.6-1.8,1.1-3.6,1.7-5.4c0.7-2.2,1.1-4.4,1.7-6.6s1.1-4.5,1.6-6.8
	c1-3.3,0.8-6.3-2-8.7c-2.6-1.8-5.6-2.7-8.7-2.6c-44,1.1-87.9,0.2-131.9,0.6c-3.3,0-7.4-1.3-9.5,3c0,1.7,0.1,3.4,0.3,5.1
	c0.2,2,0.6,4,1.2,6c0.5,2.7,1.4,5.4,1.9,8.2c0.3,2.3,0.8,4.6,1.4,6.9c0.4,1.9,0.9,3.8,1.5,5.7c0.7,2.7,0.8,5.5,1.7,8.2
	c0.9,5.8,4.6,8.4,9.9,9.8c4.8,1.3,10,1.5,14,4.8c0.4,0.7,0.3,1.6-0.2,2.3c-6.6-1.4-13.1-2.7-19.6-4.4c-4.5-1.1-6.7-4.2-7.7-8.9
	c-3.3-16.1-7.1-32.2-10.7-48.3c-1.7-7.7,3.4-9.8,9.2-11.3c11.9-5.8,24.3-4.7,36.8-3c23.3,1.1,46.5,0.7,69.8,0.2
	c6-2.4,12.5-0.2,18.6-2.1l1.7,1.3C221,102.5,223.6,104.7,226.4,106.4z"/>
<path fill="#D0BF8F" d="M142.8,81.8c6.6-7.5,11.9-13.3,16.9-19.3c2.4-2.8,4.1-2.8,6.6,0c5.4,5.9,11.2,11.6,16.3,19.3H142.8z"/>
<path fill="#CDB47C" d="M126.6,103.1c-11.9,0.5-23.9-1.3-35.7,1.6c4.9-4.2,11.2-5.7,16.8-8.5c4.5-1.1,8.4-3.6,12.6-5.4
	c2.2-0.9,4.5-3.8,7-0.4C127.1,94.6,128.3,98.9,126.6,103.1z"/>
<path fill="#D4C091" d="M126.6,103.1c0-4.5,0-9-0.1-13.4c-0.5-0.6-1.5-0.9-1.7-1.8c4.6-2.1,3.6,1.8,3.3,3.5
	c-1.7,9.3,3.1,10.4,10.9,10.2c16.2-0.5,32.4-0.6,48.6,0c8,0.3,11.4-2,10.1-10.1c-0.2-1.3,0.2-2.7,0.4-4.9
	c6.4,3.1,12.1,6.1,16.2,11.5c-0.6,0.7-1.6,1.3-2.2,0.9c-6.5-5-9.9-0.9-13,4.2L126.6,103.1z"/>
<path fill="#CDB47C" d="M199.2,103.1c3.8-2.7-1.5-10.1,4.5-10.6c3.6-0.3,6.4,5,10.7,5.5c0.6,0.6,1.1,1.2,1.7,1.8
	C211.6,106.7,204.7,101.4,199.2,103.1z"/>
<path fill="#D0BB88" d="M124.8,87.8c0.6,0.6,1.2,1.2,1.7,1.8c-6.8,0.7-11.6,7.3-18.8,6.5C113,92.6,118.8,89.8,124.8,87.8z"/>
<path fill="#BCA166" d="M119.8,177.6l0.1-1.9c3.4-0.8,6.5-2,8.5-5.1c2.2,3.6,3.4,6.9-2,8.7C124,179,121.7,179.3,119.8,177.6z"/>
<path fill="#CDB47C" d="M226.4,106.4c-3.8-0.2-6.3-2.6-8.6-5.2C221.7,101.3,224.4,103.2,226.4,106.4z"/>
<path fill="#A6884F" d="M128.4,204.4c-1-6.4,1.2-8.8,8.1-8.6c17.6,0.5,35.2,0.5,52.8,0c6.9-0.2,9.1,2.2,8.2,8.6
	c-2.7,2.5-6.1,2.6-9.4,2.7c-16.7,0.1-33.5,0.1-50.2,0C134.5,207,131.1,206.9,128.4,204.4z"/>
<path fill="#A3854C" d="M128.4,204.4h69.1v8.4c-5.8,1.7-11.8,0.4-17.7,0.8c-10.4,0.1-20.9-0.6-31.2,0.9l-1.7-0.1
	c-6-2.1-12.5,0.6-18.5-1.6C128.4,210,128.4,207.2,128.4,204.4z"/>
<path fill="#9D8048" d="M148.6,214.4c0.5-0.9,1-2.6,1.6-2.7c9.6-0.5,19.3-2.3,28.8,1c0.6,0.4,0.8,0.7,0.6,1.1s-0.4,0.5-0.6,0.5
	c-1.9,1.3-1.6,3.3-1.7,5.2c-8.6,3.8-18.3,3.8-26.9,0L148.6,214.4z"/>
<path fill="#8C703A" d="M150.3,253.3v-1.7c-1.1-2.6-1.4-5.1,0.4-7.5c9-2.6,17.8-3.5,26.6,0.8c0.1,2.2,0.1,4.5,0.2,6.7
	c-0.1,0.6-0.1,1.2-0.2,1.7C168.7,257.3,158.8,257.3,150.3,253.3z"/>
<path fill="#947841" d="M150.2,229.6c0-0.6,0-1.1,0-1.7c8.6-3.7,18.3-3.7,26.9,0v8.4c-8.8,4.2-17.6,3.3-26.6,0.7
	C148.8,234.7,149.1,232.2,150.2,229.6z"/>
<path fill="#8D713B" d="M150.3,236.4h26.9c0,2.8,0,5.6,0,8.4h-26.9C149,242.2,149,239.1,150.3,236.4z"/>
<path fill="#9A7D45" d="M150.3,219.5h26.9v5.1c-8.8,2.7-18.1,2.7-26.9,0C150.2,222.9,150.2,221.2,150.3,219.5z"/>
<path fill="#967A42" d="M150.2,224.6h26.9v3.4h-26.9V224.6z"/>
<path fill="#967A42" d="M150.3,236.4v8.4v6.8h-1.5c0.7-7.3-1.9-14.9,1.5-22C150.3,231.9,150.3,234.1,150.3,236.4z"/>
<path fill="#A4894F" d="M178.9,214.4c0-0.5,0.1-1.1,0.1-1.6h18.6C191.6,216.3,185.1,213.6,178.9,214.4z"/>
<path fill="#A4894F" d="M128.4,212.8c6.1,0.9,12.6-1.8,18.5,1.6C140.7,213.6,134.3,216.3,128.4,212.8z"/>
<path fill="#846935" d="M150.3,253.3h26.9c0,2.2,0,4.5,0,6.7h-26.9C150.3,257.8,150.3,255.5,150.3,253.3z"/>
<path fill="#C5A76B" d="M239.7,135.2c-0.3,2.3,0.8,5-1.7,6.7c-2.3,1.3-4.9,1.1-7.4,1.1c-43-0.2-86,0-129-0.1c-4.2,0-8.5,0.4-12-2.7
	l-1.7-8.4c2.6-2.8,6.1-2.5,9.4-2.5c43.8,0,87.6,0,131.4,0.1C233.1,129.4,238.7,128.2,239.7,135.2z"/>
<path fill="#CBAE73" d="M86.1,121.7c-4.1-6.7,0.5-6.8,5.2-6.8c29.4,0,58.8,0.3,88.2-0.1c17.3-0.2,34.6,1.6,51.9-1.2
	c4.4-0.7,7.8,2.4,10,6.3c-1.9,4-5.7,4.2-9.4,4.2c-45.8,0.1-91.5,0.1-137.3,0C91.6,124.2,88.6,123.9,86.1,121.7z"/>
<path fill="#C2A468" d="M89.6,140.2h137.9c3.6,0,7.3-0.4,10.6,1.7c-0.1,1.9,0.3,3.8-1.6,5.1c-3,2.7-6.7,2.5-10.3,2.5
	c-41.5,0-83,0-124.5,0c-3.6,0-7.4,0.3-10.3-2.5C89.9,145,89.3,142.6,89.6,140.2z"/>
<path fill="#C9AB70" d="M86.1,121.7h144.7c3.6,0,7.3,0.4,10.6-1.7c2.5,2.8,2.5,5.6,0,8.4c-2.7,1.1-5.5,0.8-8.3,0.8
	c-45.2,0-90.5,0-135.7,0c-3.9,0-7.9,0.5-11.2-2.5C86.2,125,86.1,123.3,86.1,121.7z"/>
<path fill="#BA9E63" d="M128.3,170.5c0.6,7.4-2.9,8-8.5,5.1c-5.7-1.2-11.4-2.2-16.9-3.7s-9.2-5-8.4-11.5c-0.2-2.1,1.3-2.8,2.8-3.5
	c8.7-1.3,17.3-0.6,26-0.6c32-0.1,63.9-0.1,95.9,0c3.6,0,7.3-0.3,10.9,0.6c1.6,0.6,3.1,1.4,2.9,3.5l0,0c-10.9,5.1-22.3,1.8-33.5,2.3
	c-1.9,0.1-3.8-0.6-5.7,0.1c-18.5,0.3-37,0-55.5,0.1c-2.8,0-5.6-0.7-8.2,0.8C127.6,165.6,128.6,168.2,128.3,170.5z"/>
<path fill="#C7A96D" d="M86.2,126.7c48.8,0,97.7,0,146.5,0c2.9,0,6.2-1.1,8.7,1.6c-0.3,2.3,0.8,5-1.7,6.8c-2.3-4.7-6.7-3.3-10.4-3.3
	c-47.2-0.1-94.3-0.1-141.5,0L86.2,126.7z"/>
<path fill="#C0A266" d="M91.2,147h145.2c-0.3,2.3,0.7,5-1.7,6.8c-2.4,1.3-4.9,0.8-7.4,0.8c-40.8,0-81.6,0-122.4,0
	c-4.2,0-8.5,0.7-12.1-2.5C90.9,150.8,91.2,148.8,91.2,147z"/>
<path fill="#BD9F63" d="M92.8,152h131.3c3.6,0,7.3-0.4,10.6,1.7c-0.3,2.3,0.7,5-1.7,6.8l-1.7-1.7c-1.7-1.3-3.8-0.9-5.7-0.9
	c-41.2,0-82.4,0-123.7,0c-1.9,0-4-0.4-5.7,0.9l-1.7,1.7C91.8,158.1,93.3,154.9,92.8,152z"/>
<path fill="#BA9C62" d="M194.1,162.1c7.4-3.6,15.3-1,22.9-1.6c5.3-0.4,10.6-0.1,15.9-0.1c0.2,6.7-3.5,10.1-9.6,11.5
	s-12.5,2.5-18.5,4.5s-7.7-0.1-7.4-5.7c0.1-2.4,0.7-5.1-1.6-7C195.2,163.4,194.6,162.8,194.1,162.1z"/>
<path fill="#BCA166" d="M194.1,162.1l1.7,1.6H130c2.5-2.7,5.8-1.6,8.7-1.6C157.2,162.1,175.7,162.1,194.1,162.1z"/>
<path fill="#BC9F64" d="M96.2,158.8c2.2-2.6,5.2-1.6,7.9-1.6c39.8,0,79.5,0,119.3,0c2.7,0,5.7-0.9,7.9,1.6H96.2z"/>
</svg>
