<svg id="Camada_1" data-name="Camada 1" xmlns="http://www.w3.org/2000/svg" viewBox="0 0 2560 1707"><title>Chinese (Taiwan)</title><path d="M1282.05,0H2560V1707H0V853.62c3-3.12,6.74-4,10.9-4.06q8-.07,16-.07H1256.6c21.31,0,21.32,0,21.32-21.19q0-403.71.08-807.41C1278,13.78,1276,6,1282.05,0Z" fill="#fd0000"/><path d="M1282.05,0c-.11,4.32-.32,8.64-.32,13q0,413.63,0,827.25c0,15.14,1.89,13.29-13.22,13.29q-627.73,0-1255.48,0c-4.33,0-8.66.05-13,.08V0Z" fill="#000095"/><path d="M641.17,586.68a159.92,159.92,0,0,1,.23-319.84c88.65-.14,161,72.53,160.26,161.05C801,515.82,729,587,641.17,586.68Z" fill="#fff"/><path d="M469.37,369.48,367.46,267.64,507,305C489.85,324.68,477.31,345.93,469.37,369.48Z" fill="#fff"/><path d="M800.94,701.67,698.43,599.29c11.32-4.62,23-9.14,33.75-15.49a218.12,218.12,0,0,0,31.1-22.52Z" fill="#fff"/><path d="M507.16,548.52,368.62,585.61,469.61,485A187.67,187.67,0,0,0,507.16,548.52Z" fill="#fff"/><path d="M958.84,427.52,819.25,464.87C823.54,439,824,414.58,819,388.6l139.9,37.46Z" fill="#fff"/><path d="M798.33,160.24Q786.65,204.51,775,248.76c-3.73,14.09-7.56,28.14-11.7,43.54a188.5,188.5,0,0,0-63.55-37.39c-1.22-1.46-1.16-2-.57-2.62l96.69-96.47C799.71,155.58,799.11,157.86,798.33,160.24Z" fill="#fff"/><path d="M603.33,249.45c12.7-47.4,25-93.21,37.25-139C655,156,666.88,202,679.64,249.14,654,244.73,629.59,244.22,603.33,249.45Z" fill="#fff"/><path d="M603.33,604.12a199.53,199.53,0,0,0,76.35.17c-12.66,47.18-25,93.15-37.32,139.12l-1.79-.28C628.3,697.32,616,651.51,603.33,604.12Z" fill="#fff"/><path d="M464.27,465,324.89,427.63l-.12-1.66L464,388.65C459.14,414.38,458.74,438.73,464.27,465Z" fill="#fff"/><path d="M814.09,370.27c-8.41-23.79-20.43-45.34-38.14-65.17l139.37-37.36C911.54,274.48,828.14,358.84,814.09,370.27Z" fill="#fff"/><path d="M483.81,695.63c11.81-44.22,23.63-88.45,35.89-134.32,19.8,17,40.85,29.62,66.19,38.08L485.9,699.5C482.12,699.87,483,697.73,483.81,695.63Z" fill="#fff"/><path d="M915.08,585.74,776.57,548.63c8-10.91,16-20.58,22.18-31.48,6.1-10.69,10.6-22.08,15-32.62C847.48,518.2,881.07,551.75,915.08,585.74Z" fill="#fff"/><path d="M485.92,154.1,586,253.9c-24.75,8.83-46.39,20.66-66.21,38.63L483.82,158C483,155.85,482.16,153.73,485.92,154.1Z" fill="#fff"/><path d="M485.92,154.1c-2,.61-1.43,2.57-2.1,3.87a20,20,0,0,1-1.79-3.18c-.4-1.14-.52-2.89.69-3.25C484.44,151,485.43,152.49,485.92,154.1Z" fill="#7688ce"/><path d="M798.33,160.24c-.69-1.56-.56-3.57-2.49-4.42.7-1.84,1.74-3.29,4-3.39A7.31,7.31,0,0,1,798.33,160.24Z" fill="#b4bfe5"/><path d="M483.81,695.63c.67,1.3.1,3.28,2.09,3.87-.49,1.59-2,3.45-3.09,2.49C480.55,699.94,482.13,697.58,483.81,695.63Z" fill="#8675c6"/></svg>