<svg id="Camada_1" data-name="Camada 1" xmlns="http://www.w3.org/2000/svg" viewBox="0 0 2100 1400"><title>Chinese (Malaysia)</title><path d="M0,0H2100V1400H0Z" fill="#cc0001"/><path id="a" d="M0,1300H2100v100H0Z" fill="#fff"/><path id="a-2" data-name="a" d="M0,1100H2100v100H0Z" fill="#fff"/><path id="a-3" data-name="a" d="M0,900H2100v100H0Z" fill="#fff"/><path id="a-4" data-name="a" d="M0,700H2100V800H0Z" fill="#fff"/><path id="a-5" data-name="a" d="M0,500H2100V600H0Z" fill="#fff"/><path id="a-6" data-name="a" d="M0,300H2100V400H0Z" fill="#fff"/><path id="a-7" data-name="a" d="M0,100H2100V200H0Z" fill="#fff"/><path d="M0,0H1050V800H0Z" fill="#010066"/><path d="M401,100c-166.15,0-301,134.4-301,300S234.85,700,401,700a300.17,300.17,0,0,0,162.93-47.78,267,267,0,0,1-87.27,14.6c-147.33,0-266.9-119.17-266.9-266s119.57-266,266.9-266a266.46,266.46,0,0,1,92.6,16.47A300.15,300.15,0,0,0,401,100Z" fill="#fc0"/><path d="M900.17,556.17,773.37,490l37.5,135.4-84.8-113.26L699.6,650l-26-137.92-85.16,113L626.34,489.8l-127,65.77,94.34-105.83L450,455.24l132.08-55.42L450.18,344l143.66,5.94-94-106.1L626.62,310l-37.5-135.4,84.82,113.26L700.4,150l26,137.92,85.16-113L773.66,310.2l127-65.77L806.32,350.26,950,344.76,817.92,400.18,949.82,456l-143.66-5.94Z" fill="#fc0"/></svg>