<svg id="Camada_1" data-name="Camada 1" xmlns="http://www.w3.org/2000/svg" viewBox="0 0 1200 799"><title>Chinese (China)</title><path d="M600.1,798.88q-297.66,0-595.32.12c-4.22,0-4.77-1.06-4.77-5Q.18,399.48,0,4.9C0,.89.74,0,4.83,0Q599.91.21,1195,0c4.45,0,5,1.18,5,5.2q-.16,394.59,0,789.16c0,3.69-.76,4.62-4.56,4.62Q897.77,798.82,600.1,798.88Z" transform="translate(0 0)" fill="#da2f27"/><path d="M270.2,296.36l-34-24.63c-10.65-7.71-21.39-15.31-31.88-23.24-3-2.31-5.08-2.36-8.18-.08-20.25,14.9-40.66,29.59-61,44.34-1.33,1-2.7,1.87-4.38,3-.5-2.26.45-3.84,1-5.45,7.71-23.73,15.33-47.5,23.28-71.15,1.38-4.11.47-6.16-2.9-8.56C132.14,196.39,112.38,182,92.6,167.55c-1.57-1.14-3.46-2-4.75-4.39,2-.1,3.77-.25,5.5-.25,24.65,0,49.29-.14,73.94.1,4.42,0,6.39-1.26,7.73-5.5,7.47-23.64,15.24-47.18,22.91-70.75.51-1.56,1.08-3.1,1.75-5,1.88,1.38,2,3.26,2.51,4.87,7.65,23.4,15.39,46.78,22.79,70.26,1.42,4.52,3.29,6.22,8.24,6.17,24.48-.29,49-.15,73.45-.11,1.75,0,3.6-.49,5.92.83-1.88,1.45-3.48,2.76-5.15,4-19.53,14.19-39,28.48-58.67,42.47-3.83,2.72-4.91,4.95-3.3,9.68,8,23.47,15.49,47.1,23.15,70.67C269.12,292.08,269.47,293.66,270.2,296.36Z" transform="translate(0 0)" fill="#fddb00"/><path d="M369,378.9c4.34-5.49,8.55-11.08,13.08-16.41,2.17-2.56,2.51-4.47.43-7.36-4.26-5.92-8.09-12.15-12.12-18.29,2.24-1.55,3.85-.19,5.43.38,5.64,2,11.29,4,16.81,6.37,2.66,1.11,4.22.53,5.9-1.67a146,146,0,0,1,15.6-17.72c-.34,7.23-.47,14.48-1.1,21.68-.34,4,.84,6,4.77,7.24a121.24,121.24,0,0,1,20.48,8.73c-6.76,1.88-13.45,4-20.28,5.55-4.33,1-6.44,2.57-6.29,7.53.2,6.93-.61,13.89-1,21.58-3.94-3.09-5.39-7.22-7.92-10.5-2.93-3.8-4.29-10-8.5-11.23-3.84-1.13-8.86,1.78-13.37,2.91l-9.68,2.41C369.92,380.65,368.89,380.79,369,378.9Z" transform="translate(0 0)" fill="#fddb00"/><path d="M503.12,310c-5.32-3.58-10.59-7.25-16-10.73-8-5.13-5-5.3-12.45.32-5.24,4-10.37,8.08-16.39,11.45,2-7.16,3.86-14.38,6.14-21.45,1.1-3.4.68-5.42-2.53-7.38-6.22-3.81-12.15-8.08-19.08-12.76,4.84-1.54,8.92-1,12.87-1.33,4.92-.46,11.1,1.8,14.45-1.45,3-2.95,3.27-8.83,4.66-13.43,1.2-3.95,2.29-7.93,3.83-13.29,3.1,8.4,5.93,15.46,8.27,22.67,1.13,3.5,2.9,4.52,6.48,4.37,7.43-.3,14.88-.09,23-.09-6.12,4.8-11.91,9.65-18,14.05-3,2.18-3.36,4.18-2,7.48,2.78,6.86,5.15,13.9,7.7,20.87Z" transform="translate(0 0)" fill="#fddb00"/><path d="M415.22,48.19c-.56,6.63-.93,13.28-1.76,19.88-.38,3,.43,4.53,3.25,5.65a154.74,154.74,0,0,1,21.37,10.15c-7.31,1.72-14.58,3.68-22,5.06-3.71.7-4.87,2.44-5.07,6a133,133,0,0,1-2.95,22.33c-2.32-3.82-4.57-7.67-7-11.43s-3.64-9.55-7.4-10.82-8.61,1.23-13,2.16A72.17,72.17,0,0,1,367,99.23c4.6-5.3,9-10.83,13.87-15.82,3.41-3.46,3.63-6.19.86-10.17-3.87-5.57-7.08-11.6-11.16-18.44,6.1,1.23,10.54,3.8,15.18,5.7,10.94,4.48,10.92,4.56,18.8-4.44,3.18-3.63,6.33-7.29,9.49-10.93C416.6,45.32,415.24,47,415.22,48.19Z" transform="translate(0 0)" fill="#fddb00"/><path d="M442.34,164.68c6.24-3.07,12.32-6.54,18.76-9.09,4.79-1.89,5.55-4.68,4.69-9.22-1.27-6.67-2-13.42-3.09-20.88,5.25,5,9.93,9.25,14.48,13.69,6.65,6.49,4.05,6.31,12.76,2.11,5.66-2.73,11.32-5.48,17.82-8.64-1.82,5.89-4.8,10.22-7.16,14.8-5.31,10.3-5.33,10.22,2.85,18.76,3.51,3.66,7.46,6.95,10.91,12.08-8.13-1.41-15.31-2.5-22.42-4-3.62-.74-5.8-.05-7.5,3.53A122,122,0,0,1,473,197.25c-1-6.85-2.37-13.66-2.87-20.54-.36-4.91-2.35-6.89-7.15-7.45-6.88-.8-13.69-2.26-20.53-3.44Z" transform="translate(0 0)" fill="#fddb00"/><path d="M415.22,48.19c-.39-1-.12-2.29-1.17-3.06.32-.69,1-1.25,1.5-.63C416.47,45.69,415.79,47,415.22,48.19Z" transform="translate(0 0)" fill="#eb7e15"/><path d="M369,378.9l2.22,1.2c-.92.64-2,1.42-3,.58C367.46,380.06,368.26,379.33,369,378.9Z" transform="translate(0 0)" fill="#f5b209"/></svg>