<?xml version="1.0" encoding="utf-8"?>
<!-- Generator: Adobe Illustrator 24.0.1, SVG Export Plug-In . SVG Version: 6.00 Build 0)  -->
<svg version="1.1" id="Camada_1" xmlns="http://www.w3.org/2000/svg" xmlns:xlink="http://www.w3.org/1999/xlink" x="0px" y="0px"
	 viewBox="0 0 1280 853" style="enable-background:new 0 0 1280 853;" xml:space="preserve">
<style type="text/css">
	.st0{fill:#FDFDFD;}
	.st1{fill:#D6141A;}
	.st2{fill:#11457D;}
</style>
<title>Czech (Czech Republic)</title>
<g>
	<g>
		<path class="st0" d="M1.3,0.1c424.6,0,849.2,0,1273.8-0.1c4.6,0,5,1.4,5,5.3c-0.1,140.6-0.1,281.2-0.1,421.8
			c-1.5,1.3-3.3,1.5-5.1,1.6c-2,0.1-4,0-6,0c-205.8,0-411.7,0-617.5,0c-3,0-6,0.1-9-0.3c-2.2-0.3-3.9-1.7-5.7-2.9
			c-39.8-26.5-79.5-53.1-119.3-79.5C347,233.1,177.2,119.4,7.2,6.1C4.9,4.6,1.3,4,1.3,0.1z"/>
		<path class="st1" d="M640,426.5c211.2,0,422.3,0,633.5,0c2.1,0,4.3-0.5,6.4,0.4c0,140.5,0,280.9,0.1,421.4c0,3.7-0.8,4.6-4.6,4.6
			c-424.7-0.1-849.4-0.1-1274.2-0.1c-0.5-2.2,1.3-2.9,2.6-3.8c2-1.5,4.1-2.8,6.2-4.2c165.9-110.6,331.7-221.3,497.7-331.7
			c42-28,84-55.9,126.1-83.8C635.7,428.1,637.5,426.4,640,426.5z"/>
		<path class="st2" d="M640,426.5c-93.2,62.1-186.5,124.3-279.7,186.4C241.6,692.1,122.9,771.2,4.1,850.4c-1.1,0.7-2.5,1.1-2.9,2.6
			c-0.3-0.2-1,0.5-1-0.5c0-1.3,0-2.7,0-4c0-281.3,0-562.5,0.1-843.8c0-1.5-1.2-3.4,0.9-4.5C1.9,1.9,3.7,2.3,5,3.2
			c166.3,110.9,332.6,221.7,498.8,332.5C549.2,366,594.6,396.3,640,426.5z"/>
	</g>
</g>
</svg>
