<svg id="Camada_1" data-name="Camada 1" xmlns="http://www.w3.org/2000/svg" viewBox="0 0 1241 714.67"><title>English (United Kingdom)</title><path d="M709,714.67H532a4.1,4.1,0,0,1-2.08-3.78c0-1.86,0-3.72,0-5.58V428.38c0-7.44,0-7.45-10.73-7.45q-254,0-508,0c-3.69,0-7.76.81-10.89-1.45V295.22a8.56,8.56,0,0,1,5.4-1.46l8.49,0H518.68c11.22,0,11.23,0,11.23-7.8q0-139.34,0-278.67C530,4.79,528.89,2.07,532,0H709a4.1,4.1,0,0,1,2.08,3.77c0,1.86,0,3.72,0,5.58V286.28c0,7.45,0,7.45,10.73,7.45q254,0,508,0c3.69,0,7.76-.82,10.89,1.45V419.45a8.49,8.49,0,0,1-5.4,1.45q-4.24,0-8.49,0H722.32c-11.22,0-11.23,0-11.23,7.8q0,139.34,0,278.68C711.05,709.88,712.11,712.59,709,714.67Z" fill="#ce142b"/><path d="M532,0c0,8.26-.08,16.52-.08,24.77q0,133.13.14,266.25c0,3.78-1.59,4.45-6.59,4.45q-259.89-.14-519.78-.08c-1.83,0-3.65-.11-5.47-.17V268c2.21-1.67,5.16-1.39,8-1.39q39.71,0,79.42,0H290.91a40.82,40.82,0,0,0,5.88-.19c-9.22-5.74-18.44-10.85-27.53-16.07q-68-39.11-135.94-78.31Q69.16,135.1,5,98.19a30.18,30.18,0,0,1-4.78-4V71.89C3.94,70.57,5.8,72.82,7.9,74Q31.28,87.4,54.56,100.86q70.89,40.89,141.83,81.72,70.35,40.51,140.68,81c2.7,1.56,5.33,3.08,9.21,3.08,37.79,0,75.58,0,114.07,0-13.22-7.56-25.86-14.89-38.53-22.19q-125-72.08-250.12-144.12-83.23-48-166.46-96C3.24,3.28.76,2.28,1.24,0h139c8.82,2.53,15.24,7.37,22.38,11.48q111.54,64.19,223,128.44,50.07,28.85,100.11,57.69a16.45,16.45,0,0,0,3.74,1.8c1.16-1.38.6-2.8.6-4.14q0-94.34.06-188.66c0-2.27-.8-4.72,2-6.61Z" fill="#fefefe"/><path d="M709,714.67c0-1.51.08-3,.08-4.54q0-143.36-.14-286.7c0-3.68,1.51-4.29,6.34-4.29q260,.14,520.05.09c1.82,0,3.64.14,5.45.22v27.22c-2.21,1.66-5.16,1.38-8,1.39H950.54c-1.82,0-3.65-.05-6.15.1,5,3.5,10.28,6.27,15.32,9.16q66.76,38.26,133.29,76.75c45.17,26,90.52,51.95,135.48,78.18,4.54,2.65,10.12,4.62,12.27,8.89v21.63c-3,1.25-4.64-.51-6.43-1.54-22-12.58-44-25.28-65.92-37.94q-70.9-40.84-141.81-81.69-61.44-35.43-122.88-70.87a22.59,22.59,0,0,0-11.89-2.82c-36.81.06-73.61,0-110.91,0,12.71,7.58,25.4,14.77,38,22q81.72,47,163.39,94.13,75.17,43.27,150.31,86.57,51.65,29.73,103.28,59.49c2,1.17,4.32,2.28,3.87,4.51h-139c-9.39-2.82-16.21-8.07-23.88-12.47q-88-50.48-175.71-101.16Q828,558.88,754.86,516.68a7,7,0,0,0-3.42-1.41c-1,1.31-.47,2.72-.47,4.07q0,94.36-.06,188.72c0,2.26.8,4.71-2,6.61Z" fill="#fefefe"/><path d="M.25,419.45c1.81-.08,3.63-.22,5.45-.22q260,0,520.05-.09c4.83,0,6.35.61,6.34,4.29Q531.82,567,532,710.48c0,1.4.06,2.79.08,4.19h-40c-2.51-1.67-2-3.86-2-5.91q0-36.27,0-72.54,0-51.79,0-103.58a14.9,14.9,0,0,0-.19-3.82c-1.91-.27-2.81.72-3.86,1.32q-76.81,44.29-153.69,88.52c-52.85,30.51-105.87,60.87-158.59,91.49a42.22,42.22,0,0,1-10.54,4.52h-39c-.27-2.44,2.69-3.33,4.72-4.51q31.92-18.48,63.94-36.88,113.65-65.52,227.35-131Q452.56,523.6,485,505c3.68-2.1,5.34-4.32,5.29-7.69-.21-15-.07-30-.1-45,0-4.26-.17-4-6.08-4.43-12.36-1-21.83,1.9-31.53,7.55-83,48.33-166.54,96.24-249.9,144.27L8.85,711.38a46.83,46.83,0,0,1-7.61,3.29c-2.06-.63-.93-1.89-.93-2.8Q.19,673.14.25,634.41A16.46,16.46,0,0,1,6.34,629q89.75-51.74,179.55-103.42Q252.7,487.09,320,448.4a21.68,21.68,0,0,0-5.92-.32q-152.16,0-304.33,0c-3.24,0-6.75.55-9.45-1.38Z" fill="#fefefe"/><path d="M1240.75,295.22c-1.82.06-3.64.17-5.47.17q-259.89,0-519.78.08c-5,0-6.59-.67-6.59-4.45q.27-143.41.14-286.83c0-1.4-.06-2.79-.08-4.19h40c2.52,1.67,2,3.86,2,5.91q0,36.12,0,72.23,0,51.65,0,103.28a12.23,12.23,0,0,0,.34,4.32c2.29-.16,3.6-1.27,5.05-2.1q85.21-49,170.35-98.09Q998.41,44.3,1070,3A41.62,41.62,0,0,1,1077.82,0h39c.48,2.05-2,2.81-3.65,3.78Q1052.32,38.91,991.38,74l-139.49,80.4q-48.54,28-97.16,55.91c-2.86,1.64-4,3.44-4,6,.08,15.47,0,30.94.06,46.41,0,3.93.18,4,6,4.06,17.51.2,17.62.29,31-7.43Q875.6,208.61,963.52,158q83.64-48.17,167.29-96.33Q1180.76,33,1230.6,4.16A44.73,44.73,0,0,1,1239.76,0c2.06.63.93,1.89.93,2.79q.12,38.73.06,77.47c-1.57,3.17-5.43,4.91-8.87,6.89q-71,40.75-141.8,81.68l-139.5,80.33q-15.11,8.68-30.19,17.44h312.9c2.65,0,5.4-.18,7.46,1.39Z" fill="#fefefe"/><path d="M749,714.67a35.1,35.1,0,0,1-.41-3.79q0-97.7,0-195.38v-4.19c8.69,5,16.61,9.51,24.5,14.05q162.19,93.45,324.37,186.91c1.24.71,2.88,1.18,3.42,2.4Z" fill="#00247c"/><path d="M492.05,0a34.56,34.56,0,0,1,.41,3.79q0,97.65,0,195.31v4.19c-8.86-5.08-16.9-9.68-24.93-14.3Q305,95.36,142.51,1.71c-.86-.49-2.06-.81-2.32-1.71Z" fill="#00247c"/><path d="M163.18,714.67c12-7,23.86-14.07,35.9-21Q343.49,610.44,488,527.27c1.22-.7,2.14-1.79,4-1.86.91,1.11.47,2.29.47,3.41q0,91.2,0,182.41a28.8,28.8,0,0,1-.41,3.44Z" fill="#00247c"/><path d="M1077.82,0c-17.51,10.18-35,20.4-52.53,30.52q-136,78.35-272,156.66c-1.24.72-2.53,1.39-3.94,2.16-1.29-1.07-.82-2.15-.82-3.11q0-91.57,0-183.14A23.36,23.36,0,0,1,749,0Z" fill="#00247c"/><path d="M1240.75,268H914.87c6-3.52,11.29-6.6,16.57-9.65q154.24-88.86,308.49-177.71c.25-.15.55-.25.82-.38Z" fill="#00247c"/><path d="M.25,446.67h325.9L.25,634.41Z" fill="#00247c"/><path d="M1239.76,0c-4.14,3.67-9.78,6.16-14.84,9.08q-222.48,128.27-445,256.47a17.08,17.08,0,0,1-9.85,2.51c-6-.23-12-.11-18,0-2.31,0-3.61-.17-3.6-2.19q.15-25.83,0-51.65c0-1.77,1.33-2.69,3.07-3.69q97-55.8,193.85-111.65Q1031.11,49.43,1116.8,0Z" fill="#ce142b"/><path d="M1.24,714.67c.33-1.31,2.05-1.75,3.27-2.46Q217.57,589.43,430.68,466.69c10.54-6.07,21.1-12.11,31.54-18.26a12.9,12.9,0,0,1,7.2-1.8c6.49.12,13,.08,19.49,0,2.28,0,3.64.13,3.62,2.18q-.15,25.82,0,51.64c0,2-1.76,2.86-3.55,3.89q-47,27.07-94,54.17L125.63,713.71c-.51.29-1,.64-1.43,1Z" fill="#ce142b"/><path d="M1239.76,714.67c-.33-1.31-2-1.75-3.27-2.46q-227.1-130.86-454.24-261.7c-1.88-1.09-3.71-2.2-5.7-3.38,1.65-.79,3.17-.44,4.57-.44q57,0,113.93-.07a14.29,14.29,0,0,1,7.63,1.9q132.48,76.41,265.05,152.74,34.86,20.09,69.74,40.17c1,.56,1.71,1.47,3.28,1.35,0,23,0,46.06-.06,69.09C1240.69,712.78,1241.82,714,1239.76,714.67Z" fill="#ce142b"/><path d="M1.24,0c4.24,3.76,10,6.3,15.23,9.3Q238.16,137.1,459.94,264.82c1.5.86,2.95,1.76,4.54,2.71-1.64.8-3.16.45-4.56.45q-57,0-113.94.07a14.12,14.12,0,0,1-7.59-2Q171.41,169.82,4.31,73.64c-1.22-.7-2.1-1.87-4.06-1.75,0-23,0-46.08.06-69.11C.31,1.87-.81.62,1.24,0Z" fill="#ce142b"/><path d="M.25,94.22c2.18-.16,3.09,1.17,4.41,1.93q147,84.63,294,169.31c1.12.64,2.17,1.33,4.14,2.54H.25Z" fill="#00247c"/><path d="M1240.75,621.15q-77.74-44.85-155.5-89.69-72-41.49-144-83c-.72-.41-1.38-.86-2.91-1.83h302.44Z" fill="#00247c"/></svg>