<svg id="Camada_1" data-name="Camada 1" xmlns="http://www.w3.org/2000/svg" viewBox="0 0 1259.96 831.52"><title>English (Singapore)</title><path d="M1258.19,415.4c.09,1.83.25,3.66.25,5.48q0,202.41.14,404.83c0,5-1.36,5.81-6,5.81q-623.28-.18-1246.56,0c-4.65,0-6-.84-6-5.81Q.24,623.3.14,420.88c0-1.82.16-3.65.25-5.48,1.39-1.42,3.2-1.67,5.06-1.75s4,0,6,0q617.84,0,1235.68,0C1250.86,413.64,1254.86,412.59,1258.19,415.4Z" fill="#fdfdfd"/><path d="M1259.61,415.4H.39c-.07-1.82-.2-3.65-.2-5.48Q.18,208.26.18,6.6C.18.1.19.09,6.53.09Q630,.09,1253.46,0c4.71,0,6.5.69,6.5,6.1q-.29,202.17-.16,404.32C1259.8,412.08,1259.67,413.74,1259.61,415.4Z" fill="#cd1126"/><path d="M272.62,47.52c-61.27,33.89-96.15,84.56-96.13,155.1,0,70.32,34.87,120.86,95.47,154.54-39.44,8.18-100.64-4.68-142.18-53.16-41.87-48.88-49.12-121.62-17.09-178.28C144.89,68.75,210,36.86,272.62,47.52Z" fill="#fefefe"/><path d="M398.31,238.25c2.67,8,5,14.68,7.06,21.42.91,3,2.36,4.14,5.6,4,7.1-.27,14.21-.09,22.88-.09-6.64,5.16-12.07,9.61-17.75,13.7-2.72,2-3.48,3.69-2.21,7,2.54,6.62,4.52,13.45,7.09,21.27-7.28-4.95-13.68-9.13-19.89-13.59-2.12-1.51-3.54-1.49-5.64,0-6.2,4.43-12.57,8.61-19.86,13.56,2.59-7.89,4.68-14.82,7.18-21.6,1.05-2.85.6-4.5-1.83-6.27a143.7,143.7,0,0,1-16.8-14.07c6.64,0,13.29-.28,19.91.11,4.37.25,6.47-1,7.59-5.43C393.23,252,395.72,245.85,398.31,238.25Z" fill="#fefefe"/><path d="M256,263.6c8.78,0,16-.16,23.28.08,3.08.1,4.34-1,5.2-3.86,2.05-6.81,4.46-13.51,7.16-21.56,2.75,8.1,5.25,14.93,7.33,21.88.84,2.8,2.19,3.58,4.95,3.52a145.16,145.16,0,0,1,22.09.91c-5.7,4.43-11.33,9-17.15,13.24-2.23,1.64-2.82,3.06-1.8,5.8a114.56,114.56,0,0,1,5.76,20.86c-5.67-3.84-11.54-7.43-17-11.61-3.25-2.51-5.48-2.21-8.58.12-5.57,4.19-11.48,7.92-18.33,12.58,2.52-7.65,4.42-14.35,7-20.8,1.45-3.66.62-5.59-2.44-7.74C267.85,273.07,262.54,268.68,256,263.6Z" fill="#fefefe"/><path d="M367.74,142.1c-7.25-4.94-13.5-9-19.54-13.42-2.43-1.76-4.18-1.73-6.56,0-4.66,3.46-9.55,6.63-14.37,9.89-1.32.89-2.52,2.32-4.46,1.44,2.28-6.85,4.41-13.74,6.9-20.49.89-2.41.26-3.61-1.58-5-5.85-4.38-11.61-8.9-18.68-14.34,7.6,0,13.93-.35,20.2.11,5.1.37,7.74-1,9-6.34,1.4-6.23,4-12.19,6.35-19.22,2.63,7.78,5.17,14.61,7.19,21.59.93,3.2,2.43,4,5.59,3.94,7.06-.25,14.13-.08,22.7-.08-6.91,5.32-12.55,9.85-18.4,14.07-2.33,1.68-2.64,3.2-1.7,5.79C362.81,126.93,365,133.87,367.74,142.1Z" fill="#fefefe"/><path d="M225.76,164.18c6.43,0,12.89-.38,19.27.12,4.93.39,7-1.42,8.18-6,1.61-6.23,4-12.26,6.43-19.64,2.6,7.82,5,14.37,6.92,21.05,1,3.4,2.51,4.78,6.24,4.59,6.93-.35,13.88-.1,22.25-.1-5.41,4.2-9.76,7.61-14.14,11-7,5.42-7,5.39-4.18,14,1.6,4.95,3.8,9.75,4.85,16.38-6.94-4.73-12.88-8.6-18.61-12.76-2.39-1.73-4.16-1.84-6.59-.08-6,4.38-12.29,8.48-19.51,13.42,2.66-8,4.81-14.85,7.29-21.62,1.09-3,.59-4.67-2.07-6.54-5.71-4-11.1-8.46-16.62-12.73Z" fill="#fefefe"/><path d="M407.41,206.13c2.81-8.32,5.1-15.37,7.6-22.34.87-2.44.37-3.87-1.73-5.41-5.86-4.3-11.54-8.85-18.45-14.2,8.52,0,15.72-.14,22.91.07,3,.09,4.45-.78,5.32-3.72,2-6.81,4.41-13.5,7.18-21.84,2.66,7.86,5.1,14.25,6.93,20.81,1,3.7,2.68,5,6.55,4.78,6.79-.36,13.62-.1,21.89-.1-6.32,4.93-11.47,9.41-17.09,13.17-3.53,2.36-3.72,4.59-2.36,8.19,2.39,6.3,4.28,12.79,6.79,20.44-7-4.76-13-8.58-18.69-12.8-2.85-2.13-4.92-2.29-7.85-.1C420.59,197.43,414.44,201.34,407.41,206.13Z" fill="#fefefe"/></svg>