<svg id="svg6" xmlns="http://www.w3.org/2000/svg" viewBox="0 0 960 480"><title>English (Australia)</title><path id="path2" d="M0,0H960V480H0" fill="#fff"/><path id="path4" d="M0,240H960M480,0V480" stroke="#cd202c" stroke-width="96"/><g id="g596"><polygon id="polygon592" points="216.55 15.86 220.7 28.77 233.38 23.97 225.88 35.26 237.53 42.19 224.03 43.36 225.89 56.79 216.55 46.96 207.21 56.79 209.07 43.36 195.57 42.19 207.23 35.26 199.73 23.97 212.4 28.77 216.55 15.86" fill="#0047b6" fill-rule="evenodd"/><polygon id="polygon595" points="222.63 93.98 230.46 93.37 233.42 85.63 236.38 93.37 244.2 93.98 238.21 99.38 240.08 107.5 233.42 103.09 226.75 107.5 228.63 99.38 222.63 93.98" fill="#0047b6" fill-rule="evenodd"/><polygon id="polygon2913" points="264.17 65.24 276.84 60.43 269.34 71.73 281 78.65 267.5 79.83 269.36 93.26 260.02 83.43 250.68 93.26 252.54 79.83 239.03 78.65 250.69 71.73 243.19 60.43 255.87 65.24 260.02 52.33 264.17 65.24" fill="#0047b6" fill-rule="evenodd"/><polygon id="polygon2915" points="231.91 143.31 224.41 154.61 236.06 161.53 222.56 162.71 224.42 176.14 215.08 166.31 205.74 176.14 207.6 162.71 194.1 161.53 205.75 154.61 198.25 143.31 210.93 148.12 215.08 135.21 219.23 148.12 231.91 143.31" fill="#0047b6" fill-rule="evenodd"/><polygon id="polygon2917" points="176.13 81.81 188.81 77.01 181.31 88.31 192.97 95.23 179.46 96.4 181.32 109.84 171.98 100.01 162.65 109.84 164.5 96.4 151 95.23 162.66 88.31 155.16 77.01 167.83 81.81 171.98 68.9 176.13 81.81" fill="#0047b6" fill-rule="evenodd"/></g></svg>