<svg id="Camada_1" data-name="Camada 1" xmlns="http://www.w3.org/2000/svg" viewBox="0 0 2000 1333"><title>French (France)</title><path d="M667,1332.92q-331.15,0-662.31.08c-3.52,0-4.73-.43-4.73-4.45Q.18,666.49,0,4.45C0,.42,1.22,0,4.73,0Q335.89.14,667,.08c1.75,1.34,2.17,3.24,2.27,5.31.15,3,.13,6,.13,9V1318.61c0,3,0,6-.13,9C669.21,1329.68,668.79,1331.58,667,1332.92Z" transform="translate(0 0)" fill="#002393"/><path d="M1333,.08q331.16,0,662.31-.08c3.52,0,4.73.43,4.73,4.45q-.18,662.06,0,1324.1c0,4-1.22,4.45-4.73,4.45q-331.15-.13-662.31-.08c-1.75-1.34-2.17-3.24-2.27-5.31-.15-3-.13-6-.13-9V14.4c0-3,0-6,.13-9C1330.79,3.34,1331.2,1.43,1333,.08Z" transform="translate(0 0)" fill="#eb2938"/><path d="M1333,.08c.1,2,.27,4,.27,6q0,660.45,0,1320.9c0,2-.17,4-.27,6H667c-.1-1.82-.27-3.64-.27-5.46q0-661,0-1321.92c0-1.82.17-3.64.27-5.46Z" transform="translate(0 0)" fill="#fdfdfd"/></svg>