<svg id="Camada_1" data-name="Camada 1" xmlns="http://www.w3.org/2000/svg" viewBox="0 0 1600 1067"><title>Greek (Greece)</title><path d="M.1,356v-119c2.9-2.35,6.36-1.61,9.63-1.61q107.21-.06,214.41,0c12.44,0,11.27,1.17,11.28-11.27q0-107.2,0-214.4c0-3.26-.73-6.73,1.61-9.63h119c2.25,2.74,1.61,6,1.61,9.12q0,107.16,0,214.31c0,13.16-1.1,11.87,11.75,11.88q102.42,0,204.82,0c6.16,0,12.32.15,18.45-.63a3.64,3.64,0,0,1,1.55,2.48,22.3,22.3,0,0,1,.37,5.47q0,53.73,0,107.47a23.92,23.92,0,0,1-.33,5.47,4,4,0,0,1-1.45,2.58c-7.46-.83-15-.59-22.44-.59H367c-9.26,0-9.27,0-9.27,9.42q0,107.47,0,214.94c0,9.3,0,9.31,9.37,9.31q610.86,0,1221.7,0c3.74,0,7.72-1,11.13,1.6V711c-1.46,1.34-3.27,1.53-5.13,1.6-2.16.08-4.33,0-6.49,0q-788.26,0-1576.53,0c-3.91,0-8.06,1-11.65-1.6V593c2.74-2.25,6-1.61,9.13-1.61q107.23,0,214.47,0c13.17,0,11.71,1.21,11.71-11.85q.06-106.47,0-213c0-8.84,0-8.86-8.73-8.86q-108.48,0-217,0C6.47,357.64,3,358.37.1,356Z" transform="translate(0 0)" fill="#fefefe"/><path d="M.1,711c2,.06,4,.16,6,.16H1593.92c2,0,4-.1,6-.16V830c-1.46,1.34-3.27,1.53-5.13,1.6-2.16.08-4.33.05-6.49.05q-788.26,0-1576.53-.05c-3.91,0-8.06,1.05-11.65-1.6Z" transform="translate(0 0)" fill="#0d5eae"/><path d="M.1,830H1599.9v119c-1.46,1.34-3.27,1.52-5.13,1.59-2.16.09-4.33.05-6.49.05q-788.26,0-1576.53,0c-3.91,0-8.06,1.05-11.65-1.6Z" transform="translate(0 0)" fill="#fefefe"/><path d="M.1,948.93c1.81-.15,3.61-.43,5.42-.43q794.47,0,1589,0c1.81,0,3.61.28,5.42.43,0,37.82-.06,75.65.1,113.48,0,3.75-.85,4.59-4.6,4.59q-498.44-.15-996.88-.09-297,0-593.92.09c-3.75,0-4.62-.84-4.6-4.59C.16,1024.58.1,986.75.1,948.93Z" transform="translate(0 0)" fill="#0d5eae"/><path d="M1599.9,593c-2.16,0-4.32-.16-6.49-.16q-615.4,0-1230.81,0c-7.7,0-7,1-7-6.87q0-112.23-.11-224.45c0-4.56,1.16-5.73,5.73-5.72q113,.23,226,.14c2.12,0,4.82-1.08,5.79,2.18,1.31,2.32.9,4.88.9,7.34,0,31.65.08,63.3,0,94.95,0,2.33.15,4.68,0,7-.31,4,1.6,5.41,5.35,5.11,1.49-.12,3,0,4.5,0q492.76,0,985.54,0c3.58,0,7.38-.95,10.65,1.5Z" transform="translate(0 0)" fill="#0d5eae"/><path d="M593,235c-.91,3-3.42,2-5.39,2q-53.74.07-107.47,0c-39.82,0-79.64-.07-119.46.11-4.21,0-5.17-1.1-5.16-5.22q.19-113.46.11-226.92c0-1.64.28-3.28.42-4.92Q975.73.1,1595.4,0c3.75,0,4.62.84,4.6,4.59-.16,37.82-.1,75.65-.1,113.48-1.47,1.33-3.3,1.46-5.15,1.51-2.33,0-4.67,0-7,0H605c-12.22,0-11.12-.62-11.1,11.07q.08,48.48,0,97C593.9,230.12,594.32,232.67,593,235Z" transform="translate(0 0)" fill="#0d5eae"/><path d="M593,235c-.75-15.21-.26-30.41-.25-45.62,0-22.24.09-44.49-.08-66.73,0-3.2.54-4.7,4-4.15a19.87,19.87,0,0,0,3,0q496.68,0,993.36,0c2.3,0,4.66.45,6.92-.42v119c-1.46,1.33-3.27,1.52-5.13,1.59-1.66.07-3.33,0-5,0q-493.2,0-986.4,0c-3.53,0-7.41,1.11-10.41-2Z" transform="translate(0 0)" fill="#fefefe"/><path d="M593,236.69c2,.12,4,.35,5.94.35q500.49,0,1001,0V356c-1.46,1.34-3.27,1.53-5.13,1.6s-4,.05-6,.05q-492.54,0-985.08,0c-3.61,0-7.37.76-10.76-1.26-.12-14.9-.3-29.81-.34-44.71q-.09-36,0-72.05A22.72,22.72,0,0,1,593,236.69Z" transform="translate(0 0)" fill="#0d5eae"/><path d="M592.94,356.39c1.72-.95,3.59-.5,5.39-.5q498.3,0,996.58,0c1.67,0,3.33.1,5,.15V474c-1.66.06-3.32.16-5,.16q-498.5,0-997,.14c-4.5,0-5.45-1.33-5.44-5.38.1-35.64,0-71.28.07-106.92a32.71,32.71,0,0,1,.46-3.92Z" transform="translate(0 0)" fill="#fefefe"/><path d="M237.07.1q0,116,.12,231.91c0,4.17-1,5.15-5.17,5.14q-116-.19-231.92-.09Q.1,120.69,0,4.34C0,.74.74,0,4.34,0Q120.71.2,237.07.1Z" transform="translate(0 0)" fill="#0d5eae"/><path d="M.1,356c1.66,0,3.32-.15,5-.15q113.18,0,226.37-.1c4.43,0,5.75.94,5.74,5.61q-.24,112.94,0,225.87c0,4.61-1.23,5.68-5.74,5.67q-112.68-.23-225.38-.1c-2,0-4,.11-6,.16Z" transform="translate(0 0)" fill="#0d5eae"/></svg>