<svg id="Camada_1" data-name="Camada 1" xmlns="http://www.w3.org/2000/svg" viewBox="0 0 1366 910.31"><title>Korean (Korea)</title><path d="M682.46,910.22q-338.73,0-677.45.09c-3.86,0-5-.64-5-4.81Q.2,455.29,0,5.09C0,.59,1.13,0,5.28,0Q683,.17,1360.73,0c4.16,0,5.27.61,5.27,5.1q-.21,450.2,0,900.4c0,4.19-1.15,4.81-5,4.81Q1021.72,910.16,682.46,910.22Z" transform="translate(0 0)" fill="#fefefe"/><path d="M883.77,559.58c.37,2.12-.75,3.78-1.7,5.47-33.53,59.93-84,97.69-150.83,112.34-66.08,14.48-127.3,1.24-182.09-38.33-49.54-35.78-79.52-84.46-90.28-144.66-9-50.41-1.29-98.4,21.9-144,.24-.47.57-.89.86-1.34a.9.9,0,0,1,1.36.5c.75,2-.33,3.79-.88,5.65-13,43.65-5.29,82.59,26.74,115.75,23.55,24.38,52.92,35.26,86.3,33.11,36.53-2.36,65.72-19.24,86.59-49.66,18.32-26.7,43.32-43.57,75.08-49.26,38.6-6.92,72.43,3.51,101,30.68,19.75,18.81,31.05,42,34.16,68.78,1.8,15.54,1.34,31.27-4.05,46.37A31.79,31.79,0,0,1,883.77,559.58Z" transform="translate(0 0)" fill="#29166f"/><path d="M883.77,559.58c22.49-61.59-7-126-68-148.53-47.55-17.57-102.25.06-131.84,42.88-18.7,27.06-43.72,43.95-76.14,50.16-58.63,11.22-119.1-29.36-130.75-88-4.35-21.93-3.24-43.43,4.87-64.42a14.65,14.65,0,0,0,.5-2.59c.31-1.65,1.4-3,1.89-4.54A204.8,204.8,0,0,1,516,300.62c39.24-41.95,87.68-65.77,144.64-71.91C773.89,216.52,880.8,294,905,405.49c11.3,52,5.51,102-17.8,149.91C886.44,557,886.43,559.45,883.77,559.58Z" transform="translate(0 0)" fill="#d9251d"/><path d="M288,328.57c-.75-.48-1.5-.93-2.23-1.42-8.71-5.81-17.33-11.76-26.18-17.37-2.66-1.69-2.08-2.86-.72-4.9q61.1-91.45,122-183c1.88-2.82,3.08-2.92,5.69-1.1,7.86,5.47,15.8,10.85,23.93,15.93,3.42,2.14,3.9,3.64,1.5,7.2q-41.58,61.89-82.82,124Q310.11,296.46,291,325C290.2,326.27,289.75,328,288,328.57Z" transform="translate(0 0)"/><path d="M462,171.2q-30.63,45.95-60.95,91.42-31.31,46.94-62.55,93.91c-2.09,3.15-3.37,3.86-6.72,1.42-7.61-5.52-15.49-10.68-23.49-15.6-3.58-2.2-3.62-3.76-1.35-7.16q53.63-80,107-160.24c4.82-7.23,9.73-14.41,14.4-21.75,1.59-2.49,2.73-2.81,5.27-1C442.94,158.62,452.45,164.81,462,171.2Z" transform="translate(0 0)"/><path d="M1061.38,339c-.56,1.6-2,2.09-3.13,2.86-8.11,5.42-16.38,10.63-24.3,16.31-3.21,2.31-4.43,1.47-6.36-1.44q-29.37-44.38-59-88.6c-20.67-31-41.28-62-62.09-92.92-2.2-3.27-2-4.61,1.32-6.67q12-7.44,23.46-15.65c3.36-2.4,4.84-2,7.13,1.47q50.76,76.5,101.82,152.8,9.6,14.39,19.19,28.78C1060.13,336.94,1060.76,338,1061.38,339Z" transform="translate(0 0)"/><path d="M414.1,769.91c.22,1.52-1,1.87-1.83,2.41-8.85,5.92-17.83,11.65-26.56,17.76-3.79,2.65-4.19-.85-5.29-2.5q-40.86-61.08-81.59-122.27c-13.2-19.79-26.33-39.63-39.67-59.33-2-2.9-1.7-4.16,1.2-6,8.4-5.31,16.67-10.84,24.84-16.5,2.35-1.62,3.48-1.87,5.27.82q61,91.79,122.28,183.44C413.24,768.47,413.69,769.24,414.1,769.91Z" transform="translate(0 0)"/><path d="M335.89,87.31c1.16.68,2.09,1.17,3,1.75,8.58,5.7,17.09,11.5,25.74,17.08,2.34,1.51,2.4,2.56.87,4.84q-61.24,91.65-122.29,183.44c-1.76,2.65-3,2.5-5.35.88-8.33-5.75-16.72-11.4-25.26-16.82-2.69-1.71-2.6-2.92-1-5.33q61.11-91.41,122.1-182.91C334.33,89.25,335.11,88.34,335.89,87.31Z" transform="translate(0 0)"/><path d="M1156,275.77c-.2,1.33-1.24,1.78-2.11,2.35-8.56,5.72-17.28,11.23-25.63,17.24-3.45,2.48-4.38.53-5.94-1.82q-25.52-38.35-51.11-76.66-35-52.5-70.1-104.94c-2-3-2.19-4.29,1.14-6.35,8.45-5.23,16.67-10.85,24.83-16.52,2.48-1.72,3.59-1.45,5.28,1.09q60.9,91.56,122,183C1155,274,1155.5,275,1156,275.77Z" transform="translate(0 0)"/><path d="M1040.29,204.76c0,1.35-1,1.62-1.69,2.07-9,6-18,11.93-27,18-1.95,1.33-2.84,1.09-4.1-.81q-27.22-41-54.6-81.84c-1.57-2.33-.75-3.2,1.21-4.47,8.77-5.7,17.51-11.45,26.1-17.41,2.26-1.57,3.18-1,4.49,1Q1011.82,162,1039,202.7C1039.47,203.43,1039.92,204.18,1040.29,204.76Z" transform="translate(0 0)"/><path d="M1040.6,705.13c-.76,1.15-1.34,2-1.93,2.9q-26.84,40.26-53.62,80.55c-1.6,2.4-2.64,3-5.24,1.16q-12.63-8.82-25.66-17.1c-2.51-1.6-2.42-2.7-.93-4.93q27.1-40.41,54-80.94c1.16-1.75,1.82-3.1,4.37-1.33,8.87,6.16,18,12,26.95,18A25.1,25.1,0,0,1,1040.6,705.13Z" transform="translate(0 0)"/><path d="M403.58,652.87c1.37.22,1.77,1.28,2.33,2.13q27.32,40.92,54.65,81.81c1.35,2,.85,2.79-1,4-8.91,5.81-17.78,11.68-26.51,17.76-2.35,1.63-3.18.77-4.45-1.14Q401.54,716.67,374.32,676c-1.17-1.76-1.61-2.73.54-4.13,9.08-5.87,18-11.93,27-17.92C402.48,653.56,403.08,653.19,403.58,652.87Z" transform="translate(0 0)"/><path d="M935,759.69c-.73-.46-1.49-.92-2.23-1.41-8.69-5.81-17.35-11.68-26.12-17.39-2-1.31-2.45-2.17-1-4.36q27.27-40.62,54.3-81.42c1.66-2.5,2.84-2.26,4.94-.83,8.5,5.79,17,11.52,25.68,17.09,2.31,1.49,2.58,2.53,1,4.89q-27.13,40.41-54.09,81C936.84,758.17,936.53,759.56,935,759.69Z" transform="translate(0 0)"/><path d="M367.14,802a20.14,20.14,0,0,1-1.92,1.67c-9,6-18.07,11.92-27,18.07-2.49,1.71-3.23.4-4.42-1.39Q307,780,280,739.77c-1.63-2.43-1.64-3.69,1-5.36q13-8.32,25.69-17.13c2.5-1.74,3.51-1,4.92,1.19,4,6.28,8.21,12.44,12.35,18.64l40.78,61.12C365.48,799.41,366.24,800.61,367.14,802Z" transform="translate(0 0)"/><path d="M1057.3,716c.64.42,1.39.89,2.12,1.38,8.57,5.71,17.09,11.49,25.73,17.09,2.23,1.44,2.78,2.43,1.12,4.91q-27.19,40.43-54.1,81.06c-1.6,2.43-2.68,2.45-4.91.92q-12.74-8.75-25.69-17.14c-2.16-1.4-2.79-2.3-1.12-4.79q27.18-40.42,54.15-81C1055.24,717.45,1055.57,716,1057.3,716Z" transform="translate(0 0)"/><path d="M1108.67,307.34c-.05,1.42-1.24,1.72-2.06,2.27-8.83,5.94-17.72,11.8-26.53,17.79-1.86,1.27-2.84,1.17-4.15-.8q-27.23-41-54.66-81.94c-1.66-2.47-.48-3.25,1.34-4.44,8.32-5.44,16.68-10.82,24.79-16.56,3.08-2.17,4.45-1.85,6.51,1.28,15.62,23.71,31.43,47.29,47.19,70.91,2.07,3.1,4.15,6.19,6.21,9.29C1107.8,305.87,1108.24,306.64,1108.67,307.34Z" transform="translate(0 0)"/><path d="M393.43,636.52c-.68.54-1.3,1.1-2,1.57-9,6-18,12-27,18.08-2.06,1.42-2.87.77-4.06-1q-27.24-41-54.64-81.89c-1.39-2.07-.91-2.93.9-4.11,8.9-5.83,17.81-11.66,26.56-17.71,2.35-1.63,3.18-.73,4.42,1.13q27.11,40.77,54.29,81.49C392.43,634.8,392.86,635.58,393.43,636.52Z" transform="translate(0 0)"/><path d="M1030.35,550.09c1,.57,1.77,1,2.51,1.46,8.71,5.79,17.36,11.67,26.16,17.32,2.45,1.57,2.34,2.72.85,4.94q-27.11,40.43-54,81c-1.5,2.27-2.5,2.6-4.84,1q-12.67-8.79-25.68-17.1c-2.58-1.65-2.61-2.84-1-5.26q27-40.18,53.79-80.5C1028.8,551.94,1029.6,551.05,1030.35,550.09Z" transform="translate(0 0)"/><path d="M1108.64,603.15l-1.71,2.53q-26.73,40.08-53.41,80.2c-1.57,2.37-2.61,3.18-5.3,1.31q-12.67-8.81-25.7-17.08c-2.49-1.59-2.42-2.69-.9-5q27.15-40.45,54.08-81c1.32-2,2.2-2.72,4.47-1.16,8.77,6,17.68,11.87,26.51,17.81C1107.49,601.3,1108.73,601.59,1108.64,603.15Z" transform="translate(0 0)"/><path d="M298.94,699.69c-10,6.69-19.65,13-29.16,19.51-2,1.38-2.87.89-4.09-1q-27.19-41-54.57-81.85c-1.38-2.06-1-2.9.88-4.11,8.89-5.82,17.82-11.62,26.52-17.73,2.91-2,3.61-.11,4.76,1.62l31,46.47Z" transform="translate(0 0)"/><path d="M1155.94,634.71c-.52.82-1.09,1.72-1.68,2.6q-26.68,40-53.34,80.11c-1.75,2.65-2.81,3.14-5.62,1.15-8.37-5.94-17-11.57-25.62-17.14-2.09-1.36-2.41-2.18-1-4.36q27.27-40.61,54.32-81.38c1.29-1.94,2.16-2.72,4.49-1.11,8.75,6,17.67,11.83,26.52,17.73C1154.9,632.88,1156,633.3,1155.94,634.71Z" transform="translate(0 0)"/><path d="M484.34,344.5a5,5,0,0,1-1.89,4.54l-.41,0h-.41A11.3,11.3,0,0,1,484.34,344.5Z" transform="translate(0 0)" fill="#501c5f"/></svg>