<svg id="Camada_1" data-name="Camada 1" xmlns="http://www.w3.org/2000/svg" viewBox="0 0 1280 853"><title>Romanian (Romania)</title><path d="M427,852.91q-211.16,0-422.31.08C1.22,853,0,852.56,0,848.53Q.18,426.5,0,4.47C0,.44,1.22,0,4.73,0Q215.89.16,427,.09c1.88,1.42,2.35,3.45,2.43,5.64s.07,4.33.07,6.49q0,414.29-.06,828.56C429.48,844.9,430.86,849.48,427,852.91Z" transform="translate(0 0)" fill="#002b7e"/><path d="M853,.09Q1064.2.09,1275.41,0c3.75,0,4.59.84,4.59,4.59q-.15,421.91,0,843.82c0,3.75-.84,4.59-4.59,4.59q-211.22-.16-422.44-.09c-1.88-1.42-2.34-3.45-2.42-5.64s-.07-4.33-.07-6.49q0-414.27.06-828.55C850.54,8.11,849.14,3.52,853,.09Z" transform="translate(0 0)" fill="#cd1126"/><path d="M853,.09c.09,2.16.24,4.32.24,6.48q0,419.92,0,839.86c0,2.16-.15,4.32-.24,6.48H427c-.08-2-.24-4-.24-6q0-420.44,0-840.88c0-2,.16-4,.24-6Z" transform="translate(0 0)" fill="#fad016"/></svg>